<svg xmlns="http://www.w3.org/2000/svg" viewBox="0 0 512 143"><path fill="#00acc8" d="M71.428.072a71.428 71.428 0 1 0 0 142.857 71.428 71.428 0 1 0 0-142.857zm-.694 11.343c41.75 0 72.935 41.713 56.27 82.712 2.197-30.223-22.397-55.106-51.815-55.106-16.785 0-26.014 8.174-26.014 19.938 0 13.945 15.011 20.427 23.447 18.167 5.758-1.543 9.838 2.702 9.838 7.056 0 7.337-8.176 8.85-14.77 8.707-22.393-.486-40.729-17.526-40.729-40.175 0-17.072 12.28-41.299 43.772-41.299zM15.96 48.895c-2.197 30.223 22.397 55.106 51.815 55.106 16.785 0 26.014-8.174 26.014-19.938 0-13.945-15.011-20.427-23.447-18.167-5.758 1.543-9.838-2.702-9.838-7.056 0-7.337 8.177-8.85 14.77-8.707 22.393.486 40.729 17.525 40.729 40.174 0 17.072-12.28 41.3-43.772 41.3-41.75 0-72.935-41.713-56.27-82.712z"/><path fill="var(--title,#0a2a3b)" d="M242.708 85.819c.114 8.723-5.617 16.913-13.704 19.877-8.626 3.161-18.433 3.392-27.115.393-8.969-3.097-16.101-11.937-15.888-21.666h13.155c-.171 6.328 5.367 11.739 11.608 12.185 4.877.349 10.256.561 14.521-2.113 3.166-1.985 4.947-5.775 4.377-9.566-.663-4.407-5.279-6.507-9.189-7.152-8.297-1.368-17.401-.617-24.73-5.537-8.433-5.662-10.327-18.291-4.561-26.514 5.842-8.333 16.608-11.477 26.331-10.722 8.042.624 16.263 4.213 20.697 11.253 1.997 3.17 3.378 6.791 3.403 10.561h-13.158c-.349-4.599-3.72-8.697-8.258-9.888-4.807-1.261-10.215-1.224-14.639 1.093-3.381 1.77-5.312 5.665-4.685 9.543.688 4.25 5.045 5.833 8.795 6.272 8.12.951 16.817.777 24.027 5.262 5.687 3.537 8.923 10.047 9.011 16.72zm51.914-4.883c.134 8.427-2.816 17.538-9.904 22.602-9.458 7.136-24.317 5.944-32.118-3.122-5.39-6.155-6.99-14.723-6.253-22.682.537-7.457 3.609-15.161 9.962-19.512 8.009-5.853 19.576-5.946 27.752-.376 7.577 4.947 10.672 14.407 10.56 23.09zm-12.657 0c.064-5.142-.705-11.155-5.217-14.381-5.289-3.873-13.955-1.743-16.302 4.55-2 4.877-1.789 10.341-1.211 15.481.589 4.557 3.445 9.194 8.163 10.299 5.224 1.503 11.385-1.323 13.166-6.569 1.184-2.971 1.383-6.215 1.402-9.379zm40.138 25.813c-5.625 1.378-12.519 1.027-16.657-3.478-3.393-3.693-2.976-9.006-2.976-13.691V34.792h12.558l.014 57.168c.005 2.992 2.367 4.797 5.12 4.424 1.285-.174 1.943-.131 1.943 1.406v8.959zm31.667.099h-13.255L321.28 55.022h13.155l12.957 36.476 12.258-36.476h12.856zm65.975-25.513l-.099 3.488h-34.682c-.101 4.494 1.781 9.129 5.687 11.669 3.134 2.038 7.214 2.154 10.601 1.026 2.69-.896 4.538-3.509 5.239-6.216h11.96c-.541 3.929-2.553 7.624-5.227 10.505-5.11 5.504-13.239 6.97-20.439 6.099-9.394-1.136-17.085-8.926-19.357-17.919-1.862-7.37-1.522-15.439 1.449-22.474 3.177-7.523 10.617-13.008 18.832-13.672 8.021-.648 16.688 2.285 21.351 9.153 2.911 4.287 4.294 9.349 4.554 14.456.066 1.295.218 2.592.131 3.886zm-12.458-5.581c.05-4.674-2.183-9.92-6.963-11.449-4.597-1.47-10.181-.283-13.105 3.802-1.536 2.145-2.514 5.274-2.21 7.646zm52 31.094l-.029-32.907c-.041-3.223-1.285-7.173-4.793-8.157-3.528-.989-7.672-.495-10.272 2.363-3.504 3.853-4.046 9.219-4.093 14.159l-.05 24.542h-12.458V55.022h10.465l.897 6.678c2.811-5.271 8.969-7.695 14.689-7.966 5.941-.281 12.01 2.464 15.213 7.577 2.595 4.145 2.888 9.094 2.888 13.854v31.682zm52.712-.697c-3.587.93-7.143 1.395-10.664 1.395-5.249 0-9.185-1.381-11.76-4.186-2.608-2.842-3.887-6.777-3.887-11.76V65.289h-9.467V55.023h9.467V41.868l12.458-3.089v16.245h13.056v10.265h-13.056v25.215c0 1.993.448 3.472 1.395 4.385.914.881 2.392 1.287 4.385 1.296 2.762.011 5.651-.221 8.073-.498z"/></svg>