<svg xmlns="http://www.w3.org/2000/svg" viewBox="0 0 512 512"><path fill="#00acc8" d="M94.5 193.5a62.5 62.5 0 1 0 0 125 62.5 62.5 0 1 0 0-125zm-.607 9.925c36.531 0 63.818 36.499 49.236 72.373 1.922-26.445-19.597-48.218-45.338-48.218-14.687 0-22.762 7.152-22.762 17.446 0 12.202 13.135 17.874 20.516 15.896 5.038-1.35 8.608 2.364 8.608 6.174 0 6.42-7.154 7.744-12.924 7.619-19.594-.425-35.638-15.335-35.638-35.153 0-14.938 10.745-36.137 38.301-36.137zM45.965 236.221c-1.922 26.445 19.597 48.218 45.338 48.218 14.687 0 22.762-7.152 22.762-17.446 0-12.202-13.135-17.874-20.516-15.896-5.038 1.35-8.608-2.364-8.608-6.174 0-6.42 7.155-7.744 12.924-7.619 19.594.425 35.638 15.334 35.638 35.152 0 14.938-10.745 36.138-38.301 36.138-36.531 0-63.818-36.499-49.236-72.373z"/><path fill="#0a2a3b" d="M244.37 268.881c.1 7.633-4.915 14.799-11.991 17.392-7.548 2.766-16.129 2.968-23.726.344-7.848-2.71-14.088-10.445-13.902-18.958h11.511c-.15 5.537 4.696 10.272 10.157 10.662 4.267.305 8.974.491 12.706-1.849 2.77-1.737 4.329-5.053 3.83-8.37-.58-3.856-4.619-5.694-8.04-6.258-7.26-1.197-15.226-.54-21.639-4.845-7.379-4.954-9.036-16.005-3.991-23.2 5.112-7.291 14.532-10.042 23.04-9.382 7.037.546 14.23 3.686 18.11 9.846 1.747 2.774 2.956 5.942 2.978 9.241H231.9c-.305-4.024-3.255-7.61-7.226-8.652-4.206-1.103-8.938-1.071-12.809.956-2.958 1.549-4.648 4.957-4.099 8.35.602 3.719 4.414 5.104 7.696 5.488 7.105.832 14.715.68 21.024 4.604 4.976 3.095 7.808 8.791 7.885 14.63zm45.425-4.273c.117 7.374-2.464 15.346-8.666 19.777-8.276 6.244-21.277 5.201-28.103-2.732-4.716-5.386-6.116-12.883-5.471-19.847.47-6.525 3.158-13.266 8.717-17.073 7.008-5.121 17.129-5.203 24.283-.329 6.63 4.329 9.338 12.606 9.24 20.204zm-11.075 0c.056-4.499-.617-9.761-4.565-12.583-4.628-3.389-12.211-1.525-14.264 3.981-1.75 4.267-1.565 9.048-1.06 13.546.515 3.987 3.014 8.045 7.143 9.012 4.571 1.315 9.962-1.158 11.52-5.748 1.036-2.6 1.21-5.438 1.227-8.207zm35.121 22.586c-4.922 1.206-10.954.899-14.575-3.043-2.969-3.231-2.604-7.88-2.604-11.98v-47.939h10.988l.012 50.022c.004 2.618 2.071 4.197 4.48 3.871 1.124-.152 1.7-.115 1.7 1.23v7.839zm27.709.087h-11.598l-16.831-45.347h11.511l11.337 31.917 10.726-31.917h11.249zm57.728-22.324l-.087 3.052h-30.347c-.088 3.932 1.558 7.988 4.976 10.21 2.742 1.783 6.312 1.885 9.276.898 2.354-.784 3.971-3.07 4.584-5.439h10.465c-.473 3.438-2.234 6.671-4.574 9.192-4.471 4.816-11.584 6.099-17.884 5.337-8.22-.994-14.949-7.81-16.937-15.679-1.629-6.449-1.332-13.509 1.268-19.665 2.78-6.583 9.29-11.382 16.478-11.963 7.018-.567 14.602 1.999 18.682 8.009 2.547 3.751 3.757 8.18 3.985 12.649.058 1.133.191 2.268.115 3.4zm-10.901-4.883c.044-4.09-1.91-8.68-6.093-10.018-4.022-1.286-8.908-.248-11.467 3.327-1.344 1.877-2.2 4.615-1.934 6.69zm45.5 27.207l-.025-28.794c-.036-2.82-1.124-6.276-4.194-7.137-3.087-.865-6.713-.433-8.988 2.068-3.066 3.371-3.54 8.067-3.581 12.389l-.044 21.474h-10.901v-45.347h9.157l.785 5.843c2.46-4.612 7.848-6.733 12.853-6.97 5.198-.246 10.509 2.156 13.311 6.63 2.271 3.627 2.527 7.957 2.527 12.122v27.722zm46.123-.61c-3.139.814-6.25 1.221-9.331 1.221-4.593 0-8.037-1.208-10.29-3.663-2.282-2.487-3.401-5.93-3.401-10.29v-23.022h-8.284v-8.982h8.284v-11.511l10.901-2.703v14.214h11.424v8.982h-11.424v22.063c0 1.744.392 3.038 1.221 3.837.8.771 2.093 1.126 3.837 1.134 2.417.01 4.945-.193 7.064-.436z"/></svg>