<svg xmlns="http://www.w3.org/2000/svg" viewBox="0 0 1024 353"><path d="M930.604 201.511c-44.396-1.746-60.746-37.413-60.668-76.534.01-4.635.912-10.406 1.251-15.71.407-6.488 1.988-12.956 3.307-19.298 6.177-29.801 22.091-66.884 49.109-83.06 16.961-10.144 36.802-8.524 52.357 3.52 27.58 21.364 41.292 58.36 46.258 92.622 6.488 44.725-2.9 95.308-58.826 98.246q-16.379.863-32.788.213zM932 46.243c-13.645 14.091-20.588 37.384-22.741 56.295-1.028 8.99-2.405 17.785-1.057 27.105 2.647 18.193 11.763 27.541 30.072 29.985 10.638 1.426 20.918.824 30.887-3.481 23.769-10.25 17.747-48.255 13.509-67.641-3.491-15.972-12.432-39.072-26.756-47.896-9.649-5.945-17.039-1.484-23.914 5.634zm-88.141 135.989l-3.918 4.577c-15.439 11.492-35.648 17.524-54.898 13.945-2.211-.407-4.597-.349-6.653-.912-43.571-11.85-59.107-54.821-59.669-95.735-.026-1.888.204-4.684.689-8.388.504-3.772.31-7.622 1.096-11.201 1.571-7.089 2.958-14.585 5.217-21.073 13.994-40.148 44.124-68.048 89.276-62.259 10.968 1.406 21.189 4.82 29.723 11.22 12.733 9.542 16.253 32.089-.465 39.838-2.87 1.329-6.779 1.978-10.144 2.725-7.913 1.755-6.691-7.302-8.437-11.754-3.055-7.807-11.317-10.309-19.075-10.396-31.032-.349-45.753 26.717-49.312 53.734-1.558 11.779-.588 23.491 2.909 35.134 6.72 22.401 26.407 39.576 50.573 38.684 18.678-.689 33.176-13.722 38.451-31.605.136-.472.294-.879.475-1.222.039-.084.08-.162.126-.233.67-1.222 2.505-.917 2.744.456.989 5.731 2.618 11.957 2.841 17.174.582 13.415-3.268 25.844-11.55 37.287zM98.626 71.748a1.85 1.85 0 0 1 1.581 2.153q-2.512 14.285-6.973 27.328-1.949 5.683-4.965 10.347c-.266.415-.781.593-1.241.427-28.579-10.153-51.174 2.89-47.557 35.134 2.085 18.581 5.712 32.39 8.66 48.44q.32 1.765-1.474 1.823-19.638.64-37.326.184-1.755-.048-2.55-2.182c-4.073-10.939-4.228-18.581-5.256-33.748-2.463-36.482-1.707-73.314.601-109.787.456-7.07 3.074-47.499 12.781-47.683q53.22-1.018 105.869.572c.664.021 1.278.36 1.649.912s.454 1.248.222 1.871q-6.779 18.241-17.01 34.805-.32.524-.844.204C94.66 36.439 88.57 33.073 76.797 31.396c-16.66-2.376-33.922 6.197-37.792 23.652q-2.424 10.929-.339 20.83c2.822 13.421 25.369-.708 32.991-2.58q13.509-3.307 26.969-1.552zm76.587-67.971c-10.189.01-20.886.22-32.093.631-1.358.048-3.851-.282-5.762.184-.317.078-.562.251-.737.523-6.633 10.396-8.534 23.779-9.436 34.641-2.657 31.828-3.555 65.518-2.695 101.069.116 4.965.786 10.871.932 16.331.369 13.984.959 27.328 7.175 39.993.224.455.692.742 1.203.737l14.101-.205 18.221.64 5.286-1.998c.362-.136.51-.39.445-.765l-1.833-10.484-.242-2.405c-3.452-12.691-5.311-25.497-5.576-38.421-.103-5.347 1.391-9.849 4.481-13.508 4.034-4.771 17.214-14.303 23.827-8.912 9.106 7.419 13.538 17.774 18.27 30.051 5.521 14.333 9.095 29.127 10.724 44.378.093.859.814 1.511 1.678 1.521a802.47 802.47 0 0 0 36.163-.33c1.7-.052 3.086-.187 4.159-.407.337-.066.579-.363.572-.706-.592-31.905-12.645-57.751-32.981-81.714-3.381-3.982-6.449-8.044-9.203-12.188-.46-.692-.327-1.622.311-2.163 10.105-8.553 21.103-16.253 27.697-28.307 8.563-15.652 8.922-36.561-2.53-50.797C236.964 8.239 220.012 5.01 204.254 4.35c-9.171-.391-18.851-.582-29.04-.572zm16.509 27.206a39.94 39.94 0 0 1 10.912 1.663c9.096 2.744 16.214 8.757 15.778 18.727-.805 18.309-25.922 32.632-40.323 39.275-7.137 3.297-14.731 5.091-15.74-5.983-1.177-12.775-.141-25.079 3.104-36.91 3.353-12.234 14.949-16.922 26.269-16.772zm420.335 166.678l-17.613.03c-2.435 0-4.094-.442-5.457-1.64-1.003-.881-1.327-2.13-1.493-3.249-2.106-14.139-1.91-27.425-1.59-45.889.533-31.197 4.209-63.199 8.505-94.086 2.153-15.458 4.364-32.836 9.872-47.421a1.54 1.54 0 0 1 1.416-.999c30.011-.55 60.006-.592 89.984-.126 5.993.097 9.772.32 11.337.669 1.455.323 1.875 1.299 1.261 2.929a201.14 201.14 0 0 1-16.971 34.717.69.69 0 0 1-.979.213c-5.072-3.443-10.163-6.788-15.991-8.611-7.108-2.221-14.75-4.044-22.052-2.929-14.178 2.172-25.097 10.58-27.939 25.146-1.513 7.739-2.192 25.65 11.337 20.268 13.063-5.198 33.699-13.286 47.567-8.262a2.45 2.45 0 0 1 1.493 3.064 357.09 357.09 0 0 1-14.042 36.075c-.346.768-1.212 1.153-2.007.892-8.757-2.861-18.784-5.528-27.987-2.463-18.522 6.187-24.933 25.708-18.755 43.552 8.136 23.517 35.668 21.083 53.211 12.015 5.372-2.78 10.354-5.647 14.944-8.602 1.25-.805 2.922-.355 3.598.97a306.04 306.04 0 0 1 15.41 35.193c.86 2.36 1.477 4.522 1.852 6.488a1.67 1.67 0 0 1-1.639 1.978zm-252.138 2.871c-36.861 6.517-64.285-11.802-76.039-46.345q-6.206-18.27-7.157-32.923-.359-5.547-.708-9.242c-1.135-11.947-.369-24.38-.175-36.385.048-3.181.572-6.497.63-9.475q.456-24.428 5.227-48.401c.582-2.929 2.017-6.653 2.929-10.58.504-2.182 1.59-2.997 3.908-3.026q18.105-.252 35.755.252a1.3 1.3 0 0 1 1.222 1.61c-3.268 13.004-6.74 26.601-8.728 39.169-3.704 23.517-5.101 48.391-1.649 71.685 2.298 15.565 9.94 38.868 27.755 42.863q9.174 2.056 17.795-2.085c15.39-7.399 20.908-26.339 22.081-42.223.291-3.918 1.338-7.651 1.348-11.443.058-14.023.475-23.09-.388-31.789q-.407-4.063-.562-7.07-1.484-27.59-9.29-54.093c-.543-1.823-.689-3.637-.873-5.46a1.19 1.19 0 0 1 1.164-1.309q15.468-.262 31.003-.097c10.687.116 11.792 49.923 12.122 55.907.902 16.253.999 32.274.242 48.537-1.746 37.986-12.297 83.913-57.614 91.924zm136.164-1.416c-22.421-14.246-38.849-34.999-49.371-59.214q-11.094-25.514-13.722-48.575-2.667-23.294-2.23-36.958.262-8.311 2.376-30.615 1.009-10.745 6.313-18.241.291-.417.776-.601 2.056-.786 3.559-.786c12.015-.029 24.389-.572 36.327.863.292.033.554.195.717.441s.209.553.127.839c-.475 1.629-.64 3.646-1.203 5.13-16.03 42.825-17.233 91.381 10.735 129.764q3.792 5.188 10.658 10.386a1.14 1.14 0 0 0 .844.213c4.994-.795 10.503-5.586 13.548-9.184 15.138-17.873 23.352-40.74 23.837-64.15q.388-18.862-2.318-32.361c-2.977-14.857-7.137-24.564-12.413-36.715-.533-1.222-.359-2.735-.369-3.957a1.11 1.11 0 0 1 .32-.791c.208-.211.49-.331.786-.333l34.63-.223c1.242-.006 2.38.689 2.938 1.794 6.284 12.374 8.194 23.255 9.358 37.792 1.358 16.913 1.367 32.099-1.455 48.372q-8.66 49.972-41.477 88.607c-6.022 7.089-12.481 12.937-19.89 17.931-5.266 3.559-7.816 4.121-13.402.572z" fill="#0c0b8b"/><path d="M169.778 182.669l.242 2.405-3.898 13.247q-1.173 4.684-2.434 9.445-5.838 22.169-11.511 44.367-.95 3.734.737 6.43c3.957 6.303 4.519 12.064 6.817 18.842 2.327 6.866 13.111-1.493 15.225-4.315q2.211-2.958 4.034-9.95 5.44-20.947 10.561-41.971.339-1.387 1.775-2.512.369-.281.844-.242c3.171.262 2.434 5.295 2.357 8.165q-.01.485.417.708 2.172 1.154 3.074 1.27c14.246 1.833 30.674 6.294 25.369 25.505q-3.995 14.43-8.039 28.831c-1.067 3.792.504 7.904 4.849 8.35 6.507.669 13.557-9.193 15.739-15.06q.698-1.872.834-5.528c.436-11.123 7.807-24.166 14.876-32.477q12.267-14.411 31.314-12.888c12.665 1.009 18.251 15.254 18.222 26.368q-.019 11.909-4.917 23.837-.708 1.736 1.028 2.424c4.771 1.901 12.171-4.635 14.479-8.243q3.094-4.82 4.277-7.574.213-.504-.145-1.445-.175-.465-.058-.941c4.044-16.34 14.236-34.33 33.612-34.562 11.647-.145 20.569 6.313 22.363 18.27 3.064 20.346-17.524 35.319-34.717 40.129-.457.131-.783.534-.818 1.008s.23.92.663 1.116q7.962 3.52 13.499 10.852c2.647 3.511 3.569 2.783 6.876 1.057q13.625-7.108 22.848-19.473a1.46 1.46 0 0 0 .281-.892c-.882-25.243 16.884-51.95 44.153-52.367q3.472-.048 7.031 1.62c14.081 6.633 10.92 22.14 2.337 31.857-10.027 11.356-20.995 15.477-34.669 19.027-.383.102-.709.354-.904.698s-.243.754-.134 1.134c2.046 7.118 6.526 14.226 14.721 14.343 3.578.048 7.225.078 10.638-1.203 13.101-4.926 22.828-14.634 26.562-28.317q4.626-16.99 8.67-33.99a.94.94 0 0 1 .931-.727l14.779.068a1.75 1.75 0 0 1 1.469.82 1.73 1.73 0 0 1 .093 1.672c-1.076 2.25-2.57 5.101-2.104 7.768.024.152.133.276.28.319s.306-.001.409-.116c3.695-3.966 7.05-7.981 11.821-10.464 5.334-2.793 10.958-4.839 16.942-4.335 9.833.815 14.905 9.707 14.304 19.095-.233 3.724-1.726 9.319-3.113 13.732-1.881 6.003-9.436 25.301-6.633 30.499 2.774 5.13 9.193 2.647 12.675-.737 6.265-6.09 10.522-15.594 12.364-24.031.611-2.812 2.289-4.025 4.994-2.58q.417.233.465.698.194 1.901-.194 3.278c-4.907 17.679-15.71 38.732-37.345 37.307-16.709-1.106-11.53-20.966-8.476-30.741q3.976-12.704 6.08-21.092c.698-2.774.989-13.208-3.452-13.868-19.56-2.9-26.019 23.517-29.752 37.53q-4.228 15.865-6.08 23.846c-.524 2.269-1.629 2.832-3.966 2.609q-6.177-.562-12.219-.107c-.507.038-.999-.184-1.305-.59s-.384-.94-.208-1.417l3.84-10.279a.66.66 0 0 0-.999-.776c-1.697 1.193-3.637 2.211-5.285 3.578-15.303 12.684-47.363 19.327-56.314-4.616a.61.61 0 0 0-.469-.396.64.64 0 0 0-.588.202q-11.637 12.927-27.57 19.996a.73.73 0 0 0-.427.815c.388 1.978 1.329 3.617 1.096 5.605-2.647 22.595-20.83 43.998-45.356 39.595q-4.296-.776-6.953-4.655c-6.604-9.62-1.998-18.396 6.245-24.506q13.383-9.892 28.395-16.185a1.89 1.89 0 0 0 1.096-2.24q-1.746-6.371-6.013-11.337c-2.725-3.181-7.167-4.383-11.075-5.935a2.22 2.22 0 0 1-.136-4.063c15.4-7.399 34.281-17.126 33.689-37.433q-.048-1.843-1.988-6.478c-2.114-5.052-8.767-6.013-13.761-4.568-8.679 2.502-13.16 12.432-16.389 19.919q-2.182 5.062-2.483 8.107-.32 3.268-1.028 4.791c-4.325 9.242-8.844 16.399-19.453 18.813-2.531.572-6.013.262-9.028.766q-.485.087-.834.427-8.146 8.068-10.958 9.601c-13.615 7.428-34.533 8.796-40.274-9.659-.085-.282-.315-.497-.602-.561s-.587.032-.784.251c-8.466 9.252-14.488 15.826-27.939 15.012-10.764-.659-13.722-8.379-11.763-18.086 2.609-12.956 8.262-26.591 9.475-38.82.485-4.878-9.038-8.02-12.491-9.3a2.78 2.78 0 0 0-2.252.133c-.698.36-1.212.999-1.414 1.758q-3.026 11.395-5.499 23.148c-2.909 13.838-7.952 24.981-23.779 26.727a.66.66 0 0 0-.592.621c-.853 17.873-3.821 41.535-16.971 54.947q-7.341 7.496-16.767 4.946c-8.718-2.376-9.193-16.806-8.233-23.943q2.618-19.473 7.341-38.577 12.229-49.506 19.686-78.095 1.377-5.295 1.891-10.027l3.782-13.674c.18-.649.742-1.123 1.416-1.193q8.165-.824 16.68-.145zm88.966 108.555c4.073 3.132 8.194 3.132 12.82.824 5.062-2.531 10.978-8.33 9.765-14.226-2.444-11.812 1.212-19.143 9.339-26.872q.378-.359.33-.882c-.398-4.393-2.434-12.675-7.011-14.643-21.315-9.184-38.558 45.559-25.243 55.8zM399.02 270.19c5.489.281 14.682-5.644 18.707-9.193 5.295-4.694 11.705-14.246 9.736-21.965-1.726-6.808-9.62-5.033-13.315-1.736-8.437 7.516-13.586 20.733-16.02 31.731q-.242 1.106.892 1.164zm-262.951 69.765c4.005 1.426 8.156-5.692 9.29-8.544q7.952-19.987 8.728-41.515c.175-4.859-4.616-12.908-6.827-17.427-.078-.149-.238-.236-.406-.221s-.309.129-.36.289c-.398 1.319-.029 2.87-.369 4.131q-6.633 24.496-11.259 49.448c-.485 2.638-1.94 12.723 1.203 13.838zm174.925-9.698c-4.975 7.477-.698 17.902 9.513 12.704 9.193-4.665 17.524-18.319 17.514-28.589a.53.53 0 0 0-.184-.406.58.58 0 0 0-.437-.137q-1.571.155-3.433 1.115c-8.33 4.277-18.736 8.951-22.974 15.313zm532.865-148.025l12.287.252c.997.023 1.719.957 1.484 1.92l-19.356 77.92c-1.952 7.661-3.42 14.524-4.403 20.588-.504 3.074.252 6.313 3.22 7.865 4.345 2.26 8.67-2.066 11.337-4.694 1.988-1.978-.301-6.468.039-9.213.97-7.816 5.072-18.164 14.168-19.114.336-.039.63-.165.882-.378a19.23 19.23 0 0 0 3.724-4.354c4.997-7.939 10.296-15.675 15.894-23.206 1.232-1.668 1.542-3.743 2.822-5.508a.82.82 0 0 1 .95-.291c3.452 1.287 5.867 1.752 7.244 1.396 2.263-.575 4.416-.443 6.459.398a.78.78 0 0 1 .533.756c.485 13.14 3.142 23.924 5.266 35.93 1.455 8.262.857 16.382-1.794 24.36-.195.592.437 1.116.97.805 9.271-5.256 15.991-15.313 19.958-24.981.64-1.542 1.833-2.589 3.346-2.938.782.937 1.529 1.481 2.24 1.629.246.362.239.808-.019 1.338-.31.621-.488.999-.533 1.135-4.189 12.258-13.363 26.581-25.223 32.681-9.698 4.985-22.644 6.459-33.311 5.586-8.835-.718-15.167-3.569-19.405-11.162a.68.68 0 0 0-1.154-.058c-5.916 8.524-14.469 12.84-25.359 10.987-4.506-.769-7.354-3.236-8.544-7.399-.281-1.009-.126-2.473-.543-3.472a.96.96 0 0 0-1.532-.349l-4.471 4.073c-6.09 5.65-13.328 8.133-21.713 7.448-10.987-.892-14.886-9.959-17.543-19.017a1.37 1.37 0 0 0-2.172-.669c-5.78 4.732-10.551 3.782-17.32 4.645a1.41 1.41 0 0 0-.844.427c-4.726 4.907-8.793 8.343-12.2 10.309-7.554 4.345-20.927 6.294-28.976 2.163-7.574-3.889-11.075-12.5-12.258-20.588-.071-.483-.587-.758-1.018-.543-3.268 1.581-4.868 4.558-9.067 6.197-4.034 1.571-8.699 1.726-13.024 1.92a1.31 1.31 0 0 0-.853.378c-5.34 5.418-9.306 8.822-11.899 10.212-12.558 6.759-31.779 8.01-38.529-7.768a122.55 122.55 0 0 0-2.774-6.051c-.217-.447-.788-.582-1.183-.281-3.103 2.36-6.627 3.669-10.57 3.928-1.057.074-1.899.912-1.978 1.969-1.338 17.669-3.85 40.808-17.145 54.113-4.829 4.836-10.321 6.455-16.476 4.859-8.98-2.337-9.436-16.981-8.437-24.254A356.39 356.39 0 0 1 572.397 286l21.635-86.561 3.578-15.06a2.19 2.19 0 0 1 2.201-1.678l15.836.475a.6.6 0 0 1 .562.776l-4.151 13.712-14.323 56.886c-.495 1.978 1.707 4.442 2.366 5.663 3.268 6.071 4.345 12.258 6.168 18.804a1.09 1.09 0 0 0 .562.689c3.074 1.552 10.27-2.696 12.694-4.48a1.93 1.93 0 0 0 .815-1.426c2.55-25.291 21.092-53.347 50.369-47.848 1.862.349 3.766 1.384 5.712 3.103 11.443 10.086 9.824 30.567 4.975 43.261-.731 1.907-1.144 3.646-1.241 5.217-.019.356.145.533.495.533 1.658.029 3.181.204 4.742-.388 4.335-1.658 8.864-4.189 10.735-8.708 8.65-20.83 20.278-45.21 47.305-43.794 18.571.97 20.54 23.003 18.435 36.618-.766 4.955-3.045 10.318-4.548 15.555-.11.369.026.569.407.601 6.895.524 12.801-2.706 14.401-9.562 4.17-17.931 18.949-45.385 41.515-43.106 6.08.621 10.638 4.257 13.363 9.533.213.43.847.36.96-.107l11.977-47.896s.735-4.577 3.918-4.577zm-204.881 86.086c-1.668 8.165-2.23 23.905 9.513 25.253 5.334.601 11.54-3.569 14.585-7.622 3.908-5.188 1.387-8.815 1.445-14.11.078-7.816 3.064-14.356 8.961-19.618 3.792-3.384-1.416-15.264-5.722-16.942-16.951-6.623-26.552 22.111-28.783 33.04zm81.334 22.964c7.283 5.208 16.321.446 20.656-5.78 3.443-4.926 1.115-8.931 1.135-13.742.039-8.931 3.627-14.488 10.076-20.675a1.04 1.04 0 0 0 .33-.844c-.262-4.5-2.531-13.586-7.506-15.177-6.633-2.124-13.014.902-16.893 6.323-8.776 12.229-16.787 33.088-9.756 47.877.349.727 1.319 1.561 1.959 2.017zm70.637-9.096c1.813 10.018 12.035 11.686 18.658 5.266 6.672-6.468 8.873-14.362 11.356-24.293 1.561-6.245 5.033-20.249.621-25.65-3.598-4.403-11.133-3.908-15.313-.359-10.987 9.319-17.834 31.158-15.322 45.036zm92.641-42.941c-.414.31-.805.75-1.173 1.319l-12.781 20.161c-2.017 3.268-.485 7.428-1.833 10.968-1.778 4.694-4.859 8.485-9.242 11.375-.258.167-.356.499-.233.786 2.289 5.266 6.352 9.436 12.636 9.581 7.477.175 12.209-1.862 15.671-8.786 6.973-13.916 2.007-31.449-.718-46.878-.065-.369-.262-.465-.592-.291-.459.246-.831.601-1.115 1.067a2.49 2.49 0 0 1-.621.698zm-302.323 99.74c3.433 4.703 9.222-5.12 10.202-7.554a121.54 121.54 0 0 0 8.738-42.766c.087-3.928-4.771-11.841-6.468-15.836-.218-.508-.967-.403-1.038.145-1.406 11.201-16.651 58.855-11.433 66.012z" fill="#729500"/><path fill="#0c0b8b" d="M931.127 261.375q-1.067-.223-2.24-1.629 1.93-.116 2.24 1.629z"/></svg>