<svg xmlns="http://www.w3.org/2000/svg" viewBox="0 0 810 512"><path fill="#1f5daa" d="M370.194 221.678l-17.721-.007q-.28 0-.238.273 1.636 10.483 5.706 20.134 4.07 9.644 4.203 10.028c6.923 20.182 4.972 38.477-3.741 57.736-6.546 14.476-8.707 31.155-4.979 46.904q.308 1.294.49 2.629.056.427-.371.427l-128.829.007q-.35 0-.35-.357V.371q0-.371.371-.371h138.774q.301 0 .371.294 5.63 22.141-1.699 43.288c-1.546 4.462-4.567 10.329-6.357 15.504q-7.63 22.029-1.462 44.246c1.664 6.007 4.762 12.679 7.378 18.917q2.483 5.902 3.853 15.7.049.343.399.343h17.616q.371 0 .315-.364c-1.343-9.357-4.455-16.868-8.056-25.434-7.469-17.77-7.874-36.666-1.329-54.701 1.462-4.042 4.203-9.427 5.748-13.77q7.567-21.301 1.944-43.547c-.03-.113-.006-.234.067-.327A.39.39 0 0 1 382.6 0h16.945c.221 0 .414.149.469.364q5.406 20.917-.993 41.148c-1.762 5.588-4.804 11.245-6.853 17.063q-8.301 23.553-.895 47.232c1.532 4.909 4.063 10.322 6.294 15.399q2.629 5.979 4.217 16.623.07.462.538.462h17.469q.364 0 .308-.357c-1.364-9.112-3.699-14.973-7.923-24.973q-11.049-26.176-2.14-53.316.699-2.126 4.007-9.588c7.007-15.819 8.846-33.05 4.203-49.589a.37.37 0 0 1 .357-.469h16.959a.67.67 0 0 1 .65.504q5.329 20.931-1.056 41.106c-1.559 4.93-4.706 11.126-6.35 15.595-6.888 18.728-6.399 37.861 1.462 56.079 3.567 8.266 6.42 15.63 7.707 24.651a.42.42 0 0 0 .413.357h17.455q.427 0 .364-.42-1.629-10.721-4.888-18.287-4.518-10.455-5.658-14.203-7.818-25.637 2.308-50.351c1.594-3.895 4.028-8.951 5.364-13.133q6.497-20.434 1.154-41.505-.098-.392.301-.392h129.032a.35.35 0 0 1 .35.35v359.102q0 .35-.35.35H445.021q-.28 0-.35-.28-6.651-26.225 4.483-49.932 12.993-27.686 4.077-55.953c-1.476-4.664-3.93-9.874-6.007-14.77q-3.063-7.238-4.322-16.854-.035-.287-.329-.294l-17.714-.119a.3.3 0 0 0-.301.35q1.573 10.434 5.679 20.099 4.014 9.441 4.021 9.462 8.357 23.609.755 48.099c-1.72 5.539-5.574 12.686-7.357 18.168q-6.609 20.364-1.385 41.582.105.441-.343.441h-17.084q-.301 0-.371-.287-5.175-20.392.79-40.169c2.007-6.651 5.783-13.427 8.007-20.448q7.539-23.791-1.007-47.617-1.182-3.294-5.685-13.539-2.343-5.35-3.783-15.658-.056-.392-.455-.392l-17.448-.224c-.151-.002-.296.063-.394.179a.52.52 0 0 0-.116.422q1.867 11.364 6.483 21.882c8.231 18.763 10.238 36.323 3.797 56.058-1.58 4.825-4.637 10.602-6.42 15.609q-7.7 21.574-2.091 43.841.091.343-.266.343h-17.084q-.434 0-.538-.42-5.497-22.183 1.937-43.372c1.615-4.609 4.245-9.42 5.972-14.294q8.413-23.721.937-47.554c-1.657-5.28-4.525-11.315-6.888-16.952q-2.21-5.273-3.609-15.168c-.031-.208-.209-.363-.42-.364z"/><path fill="#69c4f2" d="M674.777 409.132l-8.476-.259a.58.58 0 0 1-.566-.65c1.007-8.525 6.231-24.903 17.903-23.057 4.93.783 10.336 4.196 14.875 6.441 4.755 2.343 7.679-2.336 8.399-6.231q.084-.462.545-.448l8.818.182q.385.007.329.392c-1.476 10.7-6.119 26.155-20.945 21.155q-4.511-1.525-8.742-3.811c-6.63-3.588-10.189-.818-11.602 5.86a.54.54 0 0 1-.538.427z"/><path fill="#1f5daa" d="M20.316 430.615c-.003.066.043.125.108.138s.13-.025.151-.089c3.161-7.958 9.147-10.63 17.651-10.986 11.686-.49 23.204.392 28.4 12.532q2.567 5.986 2.643 14 .21 20.84.224 41.68 0 .406-.406.406l-18.651.105q-.357 0-.357-.357c-.049-11.315-.224-22.679.189-33.987.28-7.658-.538-13.119-9.399-14.154-7.364-.86-16.252-.909-19.406 6.951q-1.07 2.664-1.098 8.853-.07 15.994-.014 32.211c0 .212-.172.385-.385.385H1.28q-.35 0-.35-.35v-95.479a.37.37 0 0 1 .371-.371l18.658.154q.385 0 .385.385z"/><path d="M453.63 392.278l-17.987.063a.6.6 0 0 0-.425.175.59.59 0 0 0-.176.421l-.027 37.63c.001.084-.06.157-.143.169s-.163-.039-.186-.12c-2-6.755-6.606-10.364-13.818-10.826-11.819-.755-27.512-1.273-33.547 10.672-2.196 4.35-2.489 10.015-2.65 15.19-.196 5.94-.21 11.539-.042 16.797.469 14.665 3.469 24.694 20.197 26.484 7.203.769 17.559 1.699 23.699-1.84 4.133-2.385 5.126-4.965 7.175-9.091.438-.886.653-.834.643.154l-.119 9.77c-.005.238.115.359.358.363l17.643.049a.22.22 0 0 0 .154-.062c.041-.039.064-.093.063-.149v-95.045c0-.541-.271-.809-.811-.804zm-27.197 46.442a9.76 9.76 0 0 1 6.942 2.886c1.843 1.853 2.88 4.37 2.884 6.996l.014 11.595c.008 5.462-4.371 9.898-9.784 9.909l-15.266.027c-4.26.007-7.719-3.44-7.727-7.699l-.029-15.959c-.007-4.26 3.44-7.719 7.699-7.727zm61.799-26.643a.32.32 0 0 1-.091.223c-.058.059-.139.093-.222.093l-18.616.065a.32.32 0 0 1-.223-.091c-.059-.058-.093-.139-.093-.222l-.068-19.497a.32.32 0 0 1 .091-.223c.058-.059.139-.093.222-.093l18.616-.065a.32.32 0 0 1 .223.091c.059.058.093.139.093.222z" fill="#69c4f2"/><path d="M204.44 392.32a.53.53 0 0 0-.531.531l.007 35.547c0 .769.364 2.07.105 3.098-.103.42-.19.415-.26-.014-1.462-8.679-8.51-11.672-16.636-11.861-19.595-.455-32.568 1.399-33.33 24.624-.289 8.923-.224 16.847.195 23.77.776 12.784 7.015 19.386 19.666 20.959 11.518 1.434 26.847 2.49 31.14-11.595a.26.26 0 0 1 .291-.202.26.26 0 0 1 .219.278v10.497a.35.35 0 0 0 .35.35h17.483c.233 0 .35-.117.35-.35V392.67c0-.233-.117-.35-.35-.35zm-8.916 46.469c2.583-.006 5.063 1.028 6.893 2.873s2.86 4.352 2.864 6.966l.014 11.608c.008 5.44-4.34 9.857-9.714 9.868l-15.343.027a7.75 7.75 0 0 1-7.762-7.734l-.029-15.819a7.75 7.75 0 0 1 7.735-7.762z" fill="#1f5daa"/><path d="M612.248 419.513c-4.017-.01-7.709.057-11.074.199-16.56.699-20.196 11.853-21.161 26.182-.443 6.56-.39 13.124.16 19.693 2.196 26.302 22.435 24.512 42.149 23.882 10.581-.343 20.176-3.148 22.833-14.428.587-2.504.685-5.866.762-8.621.006-.186-.064-.366-.193-.499s-.307-.209-.493-.208l-17.057.049c-.136 0-.265.056-.357.156s-.137.234-.125.369c.406 5.734-4.833 6.896-9.252 6.952-9.252.119-22.015 1.754-19.099-12.771a.35.35 0 0 1 .385-.314h45.638c.27 0 .41-.135.419-.406.298-6.424.148-12.831-.454-19.218-1.511-15.952-10.609-20.574-25.498-20.917l-7.583-.101zm-4.648 16.046l10.98.042c2.252.007 4.409.763 5.997 2.1s2.477 3.148 2.471 5.032l-.007 1.378a.89.89 0 0 1-.889.888l-26.182-.098a.89.89 0 0 1-.888-.888l.007-1.378c.013-3.923 3.823-7.091 8.511-7.077z" fill="#69c4f2"/><path d="M254.959 432.538c.003.086.068.157.153.167s.165-.043.189-.125q3.119-11.944 15.7-12.854c12.035-.867 19.406 3.091 21.616 15.483q1.483 8.294.706 16.7-.035.378-.42.378H276.82q-.35 0-.343-.35c.014-5.301-.21-11.371-6.783-12.231-9.378-1.224-13.308 3.574-13.322 12.392q-.035 18.015-.007 35.945c0 .115-.046.225-.127.307a.43.43 0 0 1-.307.127l-18.679-.126q-.406 0-.406-.406l.049-67.1q0-.378.378-.378h17.161c.29 0 .524.235.524.524zm83.619-12.955l-11.693.025c-5.245.023-8.952.406-11.12 1.147-13.483 4.63-12.937 20.902-13.126 32.357-.224 14.238-.503 35.903 20.029 36.266a999.62 999.62 0 0 0 31.281.056c7.958-.112 14.021-4.454 17.23-11.559 1.226-2.713 1.949-5.182 2.168-7.406.685-6.942.814-15.737.385-26.386-.385-9.693-3.21-19.924-13.231-23.364-2.089-.718-5.5-1.089-10.232-1.112l-11.692-.025zm-6.112 19.256h14.231a7.7 7.7 0 0 1 7.699 7.699v15.847a7.7 7.7 0 0 1-7.699 7.699h-14.231c-5.739 0-10.391-4.803-10.392-10.728v-9.791c0-5.924 4.652-10.727 10.392-10.728z" fill="#1f5daa"/><path d="M524.723 462.756c-9.728.133-20.357-1.28-22.651-12.868-1.301-6.574-1.839-16.259 1.238-22.008 3.091-5.783 9.182-7.609 15.693-7.93q15.637-.762 29.672 0c13.784.741 19.378 6.091 19.294 19.868q0 .406-.413.406h-18.511q-.399 0-.511-.385-.986-3.343-4.923-3.811-8.357-.986-18.238-.07c-2.084.196-3.532.86-4.133 3-1.518 5.357 5.252 5.413 8.553 5.448 9.357.098 20.203-.79 29.211 1.706 11.343 3.147 12.196 13.539 11.658 23.42-.769 14.007-6.049 18.889-20.141 19.644q-16.749.895-33.491-.154-2.35-.147-6.867-2.147c-7.909-3.497-9.679-11.413-9.392-19.238q.021-.49.511-.49h18.917c.247 0 .45.197.462.448.217 4.734 4.574 5.399 8.658 5.518q6.874.203 13.763.105c2.916-.042 6.755-.35 7.602-3.755.923-3.685-1.58-6.322-5.378-6.413q-15.231-.364-20.581-.294zm151.369-32.309c-.002.095.064.177.157.196s.186-.031.221-.119c3.678-8.714 11.259-11.084 20.05-11.035 5.518.035 11.875.245 16.287 2.406 13.301 6.518 12.777 22.959 12.644 35.337q-.168 15.217.014 30.49a.58.58 0 0 1-.163.41c-.106.109-.252.17-.403.17h-18.511c-.091 0-.178-.036-.242-.1s-.1-.151-.1-.242q-.07-17.245-.007-34.421.021-6.469-.986-8.679c-2.832-6.182-11.588-5.315-17.378-5.147-9.294.266-11.518 8.602-11.532 16.203q-.028 16.056-.007 31.945a.51.51 0 0 1-.511.511l-18.63-.098c-.072 0-.142-.029-.193-.08s-.08-.121-.08-.193v-67.114q0-.329.329-.329l18.581-.056q.517 0 .511.517zm90.646-10.897l-9.797.113c-19.392.545-19.379 19.966-19.449 33.778-.056 9.902-1.042 25.127 8.175 31.931 5.741 4.245 10.847 4.084 19.148 4.14l17.672.007c6.038-.033 10.236-.447 12.595-1.244 10.203-3.448 13.12-13.435 13.511-23.4.511-12.909 3.161-38.56-12.812-44.078-2.219-.769-6.509-1.173-12.868-1.21l-16.175-.037zm7.041 19.013c6.503-.108 14.226.881 14.981 6.227a70.2 70.2 0 0 1 .581 13.596c-.105 1.867-.028 5.958-1.161 7.693-3.476 5.329-14.449 4.118-19.729 3.999-4.644-.105-9.364-1.832-10.783-6.518-.21-.685-.431-2.38-.664-5.084-.692-7.958-1.217-18.148 9.434-19.393 1.683-.197 4.386-.471 7.342-.52z" fill="#69c4f2"/><path fill="#1f5daa" d="M112.451 466.672l14.378-45.841a.52.52 0 0 1 .497-.364h20.273q.357 0 .238.336-13.595 38.169-27.323 76.282-2.469 6.853-4.462 9.175c-5.56 6.49-15.336 6.175-22.938 5.217q-.399-.049-.399-.448v-15.56a.36.36 0 0 1 .111-.26c.071-.068.167-.106.267-.104 6.762.147 13.637-1.035 13.672-9.189q0-.413-.413-.413h-5.804q-.497 0-.664-.469l-23.211-64.072q-.168-.462.322-.462l20.175-.014c.203 0 .384.133.448.329l14.371 45.855q.231.734.462 0z"/><path fill="#69c4f2" d="M488.184 487.939c0 .209-.169.378-.378.378H469.33c-.209 0-.378-.169-.378-.378v-67.023c0-.209.169-.378.378-.378h18.476c.209 0 .378.169.378.378z"/></svg>