<svg xmlns="http://www.w3.org/2000/svg" viewBox="0 0 432 432"><path fill="#e11a1e" d="M385.88 308.47q-.4.53-.63.53-171.18 0-342.37 0-.07 0-.1-.06-.08-.11-.15-.22L157.7 23.51q.23-.57.85-.57l111.11.2q.59 0 .82.55l115.4 284.78z"/><path fill="#fff" d="M206.24 68.75h17.51a.37.37 0 0 0 .37-.4l-2.24-31.45a.37.37 0 0 1 .37-.4h29.84a.37.37 0 0 1 .35.24l93.71 252.51a.37.37 0 0 1-.34.5H240.05a.37.37 0 0 1-.36-.34l-4.43-62.32a.37.37 0 0 0-.36-.34l-39.67-.01a.37.37 0 0 0-.37.34l-4.32 62.33a.37.37 0 0 1-.37.34H84.82a.37.37 0 0 1-.35-.5l92.49-252.51a.37.37 0 0 1 .35-.24h30.37a.37.37 0 0 1 .37.4l-2.18 31.45a.37.37 0 0 0 .37.4z"/><path fill="#e11a1e" d="M232.73 195.5H197.4a.31.31 0 0 1-.31-.33l6.56-94.87a.31.31 0 0 1 .31-.29l22.1-.02a.31.31 0 0 1 .31.29l6.67 94.89a.31.31 0 0 1-.31.33z"/><path fill="#090908" d="M385.88 308.47l40.92 100.94a.5.49-11.1 0 1-.46.68q-163.71-.43-327.34-.33-.69 0-1.09-.18a1.05 1-32.3 0 0-.4-.08H2.74a.53.53 0 0 1-.49-.73l40.38-100.05q.07.11.15.22.03.06.1.06 171.19 0 342.37 0 .23 0 .63-.53z"/><path d="M311.73 343.52a.49.49 0 0 1-.39-.69l1.7-3.74a1.11 1.09 1.7 0 1 .63-.58q5.64-2.03 11.24-4.1c2.87-1.06 5-.48 7.7.49q.45.16.25.6c-1.25 2.64-2.26 6.24-5.66 6.78-4.99.79-10.46 1.91-15.47 1.24zm-256.929-8.28a1.04 1.04 0 0 0-.34 2.02l1.578.551c.413.147.571.43.471.85a7.63 7.63 0 0 1-1.32 2.779l-29.139 38.39c-1.02 1.34-1.011 2.444.029 3.311a2.57 2.6 65.4 0 0 1.67.609h19.971a.71.71 0 0 0 .699-.609l.1-.76a.6.61 4.7 0 0-.58-.691c-1.247-.033-1.997-.584-2.25-1.65a1.21 1.21 0 0 1 .16-.959l4-6.17c.18-.28.436-.423.77-.43l17.16-.311c.42-.007.64.199.66.619l.361 8.141a2.9 2.9 0 0 0 2.869 2.77l21.76.021c.413-.007.72-.104.92-.291.247-.233.38-.531.4-.891a.68.68 0 0 0-.58-.719c-2.187-.313-3.374-1.691-3.561-4.131L87.8 338.16a3.11 3.11 0 0 0-3.09-2.891l-29.91-.029zm12.412 11.557c.045.012.07.092.076.242l.762 16.422c.013.36-.161.539-.521.539H56.49a.41.41 0 0 1-.34-.631l10.869-16.398c.083-.127.148-.185.193-.174zm162.717-9.247l-1.23-.45a.97.97 0 0 1 .34-1.89l20.8.14a2.36 2.36 0 0 1 2.22 3.11q-6.63 19.86-13.13 39.37c-.69 2.06-.92 4.02 1.88 4.14a.65.63 89 0 1 .61.6q.07 1.08-.6 1.1-10.65.27-21.12-.06a2.29 2.29 0 0 1-2.1-3.01l13.51-40.62a1.93 1.93 0 0 0-1.18-2.43zm26.65-.32a.56.54-9.7 0 1-.52-.36q-.29-.84.2-1.27.3-.25.91-.27 10.27-.31 20.64.15a2.3 2.3 0 0 1 2.07 3.03q-6.76 19.89-13.6 40.54-.85 2.58 1.89 2.88.41.04.62.18.91.59-.24 1.54a.59.56-63.5 0 1-.36.13l-20.64-.08a2.35 2.34 9.4 0 1-2.21-3.09q6.61-19.81 13.32-39.99c.65-1.96.16-3.39-2.08-3.39zm-62.883 6.448c-10.077 0-20.437 2.01-25.518 10.652-2.73 4.64-6.279 13.73-6.469 19.68-.3 9.55 12.098 9.161 18.818 9.451 6.89.29 21.431.949 25.301-1.971 2.46-1.86 4.059-8.081 4.789-10.891a.93.93 0 0 0-1.529-.91c-5.25 4.79-14.32 3.451-21.83 2.961-4.86-.32-4.641-3.279-3.311-6.939.113-.307.333-.461.66-.461l20.59-.07c5-.04 8.361.21 10.301-4.4 3.78-8.99 1.42-15.269-8.76-16.289-3.941-.397-8.463-.812-13.043-.812zm.4 9.041c3.253-.012 5.78 1.996 3.793 5.311a.93.93 0 0 1-.84.471h-10.29c-.38 0-.502-.179-.369-.539 1.402-3.647 4.837-5.232 7.707-5.242zm-48.472-8.053c-2.763-.003-5.361.23-7.205.523-2.947.467-5.513 1.97-7.699 4.51a.31.31 0 0 1-.51-.33c.727-1.587.396-2.912-.99-3.979a1.47 1.43 63.6 0 0-.852-.301l-20.629-.129c-.333 0-.586.143-.76.43l-.441.729a.37.37 0 0 0 .301.561c2.58.17 2.999 1.77 2.279 3.99L95.98 390.35a2.31 2.31 0 0 0 2.18 3.051l20.74.15c.42 0 .67-.208.75-.621l.119-.561c.093-.48-.103-.742-.59-.789-3.86-.37-1.61-4.89-.67-7.35.12-.32.355-.48.701-.48 13.88.06 28.348 3.481 35.648-11.869 2.3-4.85 6.8-16.691 5.09-21.881-1.375-4.173-8.246-5.326-14.324-5.334zm-11.828 8.908c1.496-.055 2.954.15 3.963.477a2.45 2.46 13.7 0 1 1.66 2.738c-.913 5.467-2.77 10.648-5.57 15.541-1.68 2.94-8.599 2.819-11.629 2.619-.34-.02-.458-.19-.352-.51l6.021-17.77c.813-2.187 3.413-3.003 5.906-3.096zM362.9 349.94c5.95-6.66 17.95-5.98 25.44-4.31q5.26 1.18 3.49 6.82-3.92 12.55-8.13 25.01c-.77 2.27-1.07 4.18 1.94 4.54a.63.62-86.8 0 1 .54.61q.01 1.09-.74 1.1-10.17.12-19.94.01-4.38-.05-2.98-4.21l7.51-22.3a2.11 2.1 14.4 0 0-1.63-2.74c-4.52-.81-7.4.18-9.08 4.68q-3.18 8.55-6.34 18.84-.43 1.39-.37 2.56a.89.88-79.6 0 0 .52.76l1.99.92a.8.8 0 0 1-.33 1.53q-10.06.04-20.22-.24-1.93-.05-2.58-.95-.76-1.03-.34-2.25 5.22-15.16 10.04-29.89 1.02-3.15-2.04-3.52a.72.71-1.6 0 1-.63-.59q-.1-.57.3-.95.26-.26.82-.28 10.44-.37 20.87.17a1.49 1.48-14.4 0 1 1.19.7q1.06 1.7.23 3.68a.28.28 0 0 0 .47.3zm-43.16-5.071l-28.92.201a.65.65 0 0 0-.68.5l-1.75 5.5a2.15 2.15 0 0 0 2.029 2.811l18.17.17a1.73 1.73 0 0 1 .83 3.229c-1.65.93-2.6.642-4.34.682-11.1.24-23.859-2.051-29.439 10.369-7.35 16.35 7.84 16.92 18.16 15.16 4.11-.7 5.329-2.761 8.119-4.951.353-.28.481-.2.381.24l-.621 2.641a1.06 1.05 26.8 0 0 .35 1.051c2.75 2.36 18.66 1.28 22.91 1.25.6-.007.864-.402.791-1.182a.59.59 0 0 0-.541-.529c-2.81-.24-2.669-1.99-1.959-4.16l7.83-23.59c2.45-7.26-5.85-9.411-11.32-9.391zm-16.422 20.061a20.83 20.83 0 0 1 3.002.17c.387.047.52.254.4.621l-2.631 7.898a.73.75 12.2 0 1-.76.5l-7.279-.719a1.13 1.12 1.2 0 1-1.021-1.061c-.309-5.631 3.912-7.326 8.289-7.41z" fill="#fff"/></svg>