<svg xmlns="http://www.w3.org/2000/svg" viewBox="0 0 1114 252"><path fill="#0f0e0f" d="M56.771 24.878c3.33-12.94 6.54-21.955 7.339-23.045 1.782-2.432 3.139-2.445 4.053-.033l7.065 19.102c.338.935 1.67 1.086 2.114.197 3.033-6.07 6.105-13.416 8.204-18.346.734-1.724 2.993-1.799 3.264.055l3.198 21.906c.045.381.522.527.789.241 2.935-3.184 5.477-6.616 7.623-10.296 1.829-3.154 1.654-6.188 1.818-9.726a1.24 1.24 0 0 1 2.191-.734c.307.372.566.946.778 1.72 1.774 6.408 3.176 12.782 5.575 18.982.231.608 1.093.6 1.314-.011 1.738-4.776 4.859-8.405 9.365-10.887 4.129-2.278 10.679-6.221 13.943-4.173.299.19.462.463.383.8-1.871 8.037-8.155 16.611-14.765 19.08-1.125.42-1.242 1.957-.175 2.508 5.761 3.012-.854 14.502-3.253 17.842-2.673 3.713-8.675 5.049-12.968 5.871-7.141 1.358-12.914 2.968-19.387 3.494-10.778.884-22.852 1.099-36.222.646-8.751-.296-24.813-.672-31.019-6.791-3.091-3.047-9.613-11.115-8.094-14.666 1.008-2.356 5.929-4.437 3.352-6.944-4.895-4.762-9.802-3.76-11.172-9.354-.443-1.81-.962-3.519-1.654-5.104-.681-1.562-.168-2.355 1.533-2.388 9.584-.183 13.62 5.115 18.642 12.377.262.378 1.348.151 1.457-.318l3.81-16.236c1.306-5.638 1.961-4.452 3.311-1.782 2.657 5.255 4.714 10.012 7.03 15.247.881 1.991 2.51 3.8 3.45-.285.259-1.125 2.977-13.539 3.067-19.255.016-1.028 1.484-1.894 2.004-1.008 3.795 6.468 7.583 14.181 11.654 21.38.177.313.292.289.383-.066z"/><path d="M87.494 29.007c-2.589.391-10.012.018-7.468-5.236 3.165-6.533 4.397-9.013 7.128-12.651.243-.324.678-.13.712.274.443 5.225 3.896 16.967-.372 17.612zm44.228-13.505c-4.212 6.567-8.497 9.333-15.192 12.048-.475.193-1.086-.327-.898-.811 2.15-5.525 9.357-9.608 13.998-12.53 1.198-.755 2.594.51 2.092 1.292zM62.894 28.843c-.708.015-1.112-.325-1.216-1.019-.754-5.039 2.563-12.758 4.069-17.141.13-.378.336-.434.635-.164 3.213 3.016 4.715 11.599 6.051 15.761a1.81 1.81 0 0 1-1.676 2.366zm-9.869-1.862c.69 1.211-7.054 2.517-9.354 2.782a1.72 1.72 0 0 1-1.818-2.245l3.877-11.785c.121-.367.638-.44.832-.099zm-17.273 1.522c.843 3.593-5.794 3.845-8.248 3.954-.92.047-1.679-.712-1.632-1.632L28.216 17.2c.05-.292.235-.419.515-.405.258.013.361.285.361.285zm-21.602-.467c-6.481-1.867-8.699-3.409-10.468-7.309-.272-.599-.444-2.387-.065-2.6 4.465-2.51 12.205 3.884 13.077 8.804.289 1.631-.963 1.559-2.543 1.104zm82.358-.299l5.663-7.525c.525-.697 1.597-.612 2.015.153 1.439 2.636 2.064 5.407 1.873 8.313a1.66 1.66 0 0 1-1.402 1.533c-2.592.397-5.042-.062-7.694-.336-1.263-.131-1.258-1.073-.455-2.139zm22.202 14.326a.36.36 0 0 1 .099.559c-3.154 3.768-4.491 9.332-10.811 7.886q-2.333-.526-2.421-.548c-27.799-4.447-53.889-1.577-82.575 2.453-6.528.909-8.029-9.978-2.662-10.854 7.448-1.238 14.337-3.483 21.906-4.261 26.933-2.782 49.343-2.245 73.834 3.691q1.205.296 2.629 1.073z" fill="#fff"/><path d="M539.715 59.8c-4.016.234-9.506 3.072-11.648 4.092-9.244 4.414-10.152 16.396-12.934 24.655-.124.387-.384.53-.779.428-11.052-2.979-20.109 8.193-24.95 16.616-3.483 6.057-7.394 18.336-2.629 24.546 4.458 5.816 17.491-7.088 19.835-10.713a.57.57 0 0 1 1.042.383l-1.523 12.596a.46.46 0 0 0 .755.417c3.91-3.253 8.424-4.173 12.378-6.867a86.4 86.4 0 0 1 5.519-3.472.74.74 0 0 0 .242-.21l1.271-1.763c.183-.256.117-.36-.197-.317-4.162.548-8.719 4.084-12.75 5.793a1.78 1.78 0 0 0-.766.603l-1.611 2.156c-.38.511-.485.461-.317-.152 5.4-19.781 8.673-39.991 14.763-59.542a1.61 1.61 0 0 1 .582-.821c4.688-3.476 9.816-4.359 15.388-2.651a2.26 2.26 0 0 0 2.115-.422c.589-.49.894-1.245.809-2.008-.308-2.69-2.186-3.488-4.595-3.348zm-25.939 31.742c.309.011.425.196.349.554a271 271 0 0 1-5.521 21.127c-1.665 5.444-9.507 12.443-15.148 12.29-.335-.007-.654-.153-.886-.404-.949-1.03-1.477-2.192-1.579-3.485-.679-8.872 1.939-16.999 7.853-24.381 4.48-5.597 8.5-5.092 14.787-5.695a1.25 1.25 0 0 1 .145-.007zm198.642-31.57a.9.9 0 0 0-.208.032 40.75 40.75 0 0 1-10.626 1.491c-.072 0-.146.014-.218.043l-8.63 4.293a.68.68 0 0 0-.188.165 46.77 46.77 0 0 0-7.984 19.266c-.329 1.972-.931 3.045-3.001 3.023-6.101-.066-11.698 1.786-15.893 6.627-8.543 9.88-12.399 17.996-11.862 31.402.219 5.498 3.198 6.058 7.492 3.812 3.363-1.763 13.11-5.007 13.702-10.089.022-.183.125-.274.308-.274h.372c.46-.015.66.204.601.657l-1.358 11.785c-.016.124.028.249.119.336s.217.125.341.103c1.891-.336 3.322-1.317 4.293-2.946.153-.256.365-.45.635-.582 4.315-2.103 8.172-3.012 11.809-6.309.279-.261.377-.661.251-1.022s-.453-.612-.833-.643c-1.522-.099-7.699 3.942-10.448 4.501-.35.066-.543-.075-.58-.426-.168-1.628-.135-2.929.098-3.9l10.065-42.398c1.785-7.634 2.365-12.773 10.613-13.343 3.614-.241 11.796.592 12.059-4.676a.9.9 0 0 0-.931-.931zM678.613 92.02l3.607.098c.38 0 .523.186.428.558l-5.444 20.242c-2.147 7.875-9.298 12.136-17.118 12.957-.329.036-.518-.11-.569-.439-1.851-11.654 2.649-22.005 8.827-30.384 2.078-2.826 6.407-3.1 10.271-3.033zm-45.985-31.484c-2.489.019-4.931.573-7.231 2.086a30.54 30.54 0 0 1-7.428 3.56c-.35.11-.583.344-.7.702-2.147 6.846-6.342 12.607-7.46 19.891a1.02 1.02 0 0 1-.625.832c-.832.38-1.716.507-2.651.383a2.19 2.19 0 0 0-1.085.12c-5.86 2.213-11.107 2.946-15.324 8.696-6.791 9.255-11.665 18.184-9.858 30.594 1.61 11.052 15.072-2.225 19.146-3.605.603-.204 1.269-.088 1.767.309s.761 1.019.697 1.653l-.635 6.309c-.018.173.045.345.17.468a.6.6 0 0 0 .476.168c1.285-.153 2.293-.796 3.023-1.927.197-.307.454-.56.768-.757a89.7 89.7 0 0 1 13.931-7.184c.183-.08.195-.177.034-.287-2.727-1.862-7.437.986-11.304 2.629-1.329.57-2.147.224-2.454-1.04-.383-1.522 1.009-4.843 1.414-6.518l10.382-42.77c.734-2.99 1.951-6.55 5.072-8.039 4.177-1.993 8.617-2.495 13.319-1.502 1.468.307 2.387-.238 2.76-1.632.152-.58.056-1.198-.266-1.707s-.841-.862-1.433-.976c-1.507-.283-3.016-.465-4.51-.454zm-22.931 30.698c.204.016.245.173.124.469-4.524 10.898-5.597 18.871-8.762 27.425-.139.372-.113.734.077 1.085a3.4 3.4 0 0 1 .417 1.917c-.013.214-.197.382-.411.376s-.379-.184-.368-.398v-.779c-.003-.452-.262-.864-.668-1.063s-.889-.152-1.249.122c-3.406 2.629-6.385 5.454-11.051 5.126-.895-.063-1.627-.741-1.763-1.632-1.238-8.204-.275-13 3.536-20.207 3.187-6.035 4.578-10.199 10.865-10.801 3.768-.35 5.85-.864 8.993-1.609.104-.026.191-.035.259-.03z"/><path d="M63.003 237.268c-29.168-3.275-56.441-23.396-60.121-54.316q-1.972-16.517-1.501-31.15 1.282-39.573.493-80.505a1.54 1.54 0 0 1 1.424-1.566q9.201-.668 18.675-.668 48.445-.011 96.868-1.643 9.792-.329 19.507-1.512.581-.066.591.526.712 43.352.416 86.693c-.12 16.408.471 33.823-8.171 48.544-14.392 24.513-39.803 38.785-68.182 35.597zM475.811 67.814c.067-.848.644-1.569 1.459-1.82a2.1 2.1 0 0 1 2.243.681l2.081 2.563c.206.252.245.6.099.887q-1.413 2.793-4.217 4.305c-.463.251-1.027.228-1.468-.06s-.689-.795-.646-1.32zm-275.096 50.318c2.081 22.771 21.972 21.577 32.728 5.882a.82.82 0 0 1 1.501.438c.142 5.334-9.704 11.304-13.856 13.012-17.393 7.163-29.299-8.905-27.886-24.546q2.213-24.502 21.961-38.697c9.65-6.944 17.645-5.958 27.645-.46a2.23 2.23 0 0 1 1.106 2.443l-3.242 14.732c-.077.363-.401.623-.778.624h-1.358q-.821 0-.591-.789 2.213-7.579 2.245-10.164c.077-6.21-9.255-9.825-14.283-8.5-3.834 1.019-8.05 3.691-11.03 6.692q-16.265 16.364-14.162 39.332z" fill="#0f0e0f"/><path fill="#fff" d="M86.695 70.946q21.15-.11 42.279-1.271 2.059-.11 5.192.646.57.131.57.723.011 42.717-.131 85.412c-.055 16.561.69 28.774-8.061 41.402-9.266 13.385-25.86 22.585-41.72 26.692-13.976 3.625-31.041 1.15-44.272-4.458q-19.398-8.204-29.946-27.733c-4.414-8.182-4.797-16.703-4.874-25.772q-.23-28.73.241-57.459c.197-11.413-.537-24.195-.493-36.309q0-.613.602-.657 6.397-.548 9.321-.537l71.293-.679z"/><path d="M801.924 69.857c-13.715-.223-28.741 8.189-32.955 20.717-1.851 5.509-3.375 21.436 6.538 20.933.461-.029.856-.34.99-.782s-.02-.921-.387-1.201c-6.265-4.695-7.986-10.716-5.16-18.062 4.042-10.515 12.344-15.214 22.805-18.325 8.39-2.497 22.948.515 21.48 12.115-.854 6.769-8.544 11.753-14.481 14.393-.307.131-.577.083-.811-.143-1.292-1.234-2.848-1.639-4.666-1.215a.55.55 0 0 0-.319.854c1.84 2.512 2.912 4.37 3.211 5.575 3.395 13.604 11.402 38.477 27.842 41.106 4.389.701 8.16-.787 11.315-4.467 2.694-3.144.537-7.789 3.472-11.535.212-.27.477-.463.798-.58a62.89 62.89 0 0 0 19.553-11.413c.021-.017.034-.042.036-.069s-.007-.054-.026-.074c-.058-.058-.143-.117-.252-.175-.036-.015-.069-.011-.098.011-2.311 1.818-5.049 1.907-7.207 2.882-3.845 1.742-14.391 8.992-16.834 1.917-2.125-6.123.874-9.354 6.384-11.862 8.061-3.669 14.318-6.462 17.078-15.422.069-.214.032-.45-.101-.635l-3.69-5.245a.93.93 0 0 0-.702-.385c-18.554-.69-26.287 23.089-25.575 37.886.032.742.528 1.383 1.239 1.6l4.61 1.435a1.08 1.08 0 0 1 .723.689c1.238 3.341-1.335 6.79-3.613 9.967-7.393 10.252-17.614-5.037-20.396-10.733-2.848-5.816-4.908-10.745-7.186-17.711a94.96 94.96 0 0 0-3.757-9.682c-.161-.358-.054-.611.319-.757 7.788-3.056 14.008-4.611 17.634-12.88 2.607-5.958.667-12.267-4.984-15.454-3.831-2.16-8.256-3.195-12.827-3.269zm47.614 22.558c1.667-.054 3.492.62 5.477 2.31a1.24 1.24 0 0 1 .428.909c.099 6.156-12.179 11.797-15.991 14.962a1.45 1.45 0 0 1-1.769.078c-.54-.379-.762-1.076-.541-1.699 1.746-4.949 5.855-16.347 12.397-16.56z"/><path d="M1027.208 91.615l10.011-.427a.62.62 0 0 1 .48.206c.121.136.174.317.144.495q-.285 1.818-2.114 2.443-.438.142-.876.033-3.483-.92-7.163-.953a2.56 2.56 0 0 0-2.497 1.928q-2.618 10.471-4.743 20.23-1.26 5.805-.942 10.088a.66.66 0 0 0 .264.479c.153.114.349.155.535.113 6.375-1.424 9.682-4.535 14.852-8.204q.482-.34.591.23.241 1.161-.416 1.785-8.642 8.302-20.066 11.501a1.48 1.48 0 0 1-1.873-1.577q1.61-16.156 6.32-31.578c2.213-7.24 3.428-15.082 7.393-20 .458-.575 1.258-.747 1.912-.412s.981 1.084.783 1.792c-1.139 4.118-3.834 6.221-3.122 11.391q.066.46.526.438zM790.885 79.807c.04-.44.267-.841.624-1.101s.808-.354 1.238-.258l5.444 1.194q.646.142.372.745c-3.187 7.054-4.732 15.663-6.364 23.198q-2.399 11.095-5.882 21.906-.175.559.175 1.019c2.125 2.826 5.641 1.041 7.525 4.272.072.127.066.283-.015.404s-.224.185-.368.166l-7.689-1.051q-.57-.088-.931-.537c-2.651-3.406-8.62-.164-11.818 1.084q-1.742.679-2.377-.679c-.193-.412-.03-.904.372-1.117 4.14-2.191 9.003-3.308 10.723-8.412 3.516-10.504 5.126-21.085 7.897-31.709.8-3.056.778-6.002 1.073-9.124z" fill="#0f0e0f"/><path d="M567.874 86.672a1.62 1.62 0 0 0-1.065.419l-2.092 1.885a1.34 1.34 0 0 1-.952.351c-21.347-.35-33.156 22.124-29.334 40.93a.78.78 0 0 0 .691.614l5.094.415a1.84 1.84 0 0 0 .963-.197 46.29 46.29 0 0 0 12.925-9.988c.134-.142.18-.348.12-.537-.11-.321.05-.533.481-.635a.8.8 0 0 1 .986.875l-1.271 10.692c-.028.214.061.426.234.559a.63.63 0 0 0 .609.087 53.21 53.21 0 0 0 15.751-9.64c.521-.466.591-1.256.16-1.806s-1.216-.671-1.792-.275l-7.558 5.312c-.574.403-1.402.212-1.85-.426-.226-.329-.237-.876-.032-1.643 2.749-10.132 4.621-20.264 7.085-30.44.394-1.599 1.349-2.716 2.225-4.041a1.62 1.62 0 0 0-1.378-2.511zm-6.026 5.699a.59.59 0 0 1 .543.169.56.56 0 0 1 .135.543l-5.827 21.478c-.438 1.72-1.227 3.67-2.914 4.886-4.348 3.122-8.774 6.933-12.388 6.21a1.41 1.41 0 0 1-.854-.537c-4.688-6.057 1.018-20.416 5.038-25.75 4.622-6.156 9.564-5.488 16.267-7zm387.469-5.642c-.125.025-.244.078-.347.154l-4.623 3.451c-.336.248-.701.314-1.095.197-6.791-1.982-16.54 2.881-21.151 7.744-6.645 6.995-10.104 15.436-10.382 25.322-.131 4.6 1.818 7.361 6.319 8.193.267.049.544-.006.777-.154l13.779-8.818a1.16 1.16 0 0 0 .526-.843l.274-2.004c.139-1.059.37-1.079.691-.064.307.978.281 1.931-.077 2.858-.102.277-.142.561-.12.854a16.37 16.37 0 0 1-1.555 8.183.6.6 0 0 0 .569.854c2.337-.102 4.172-1.094 5.509-2.978a1.62 1.62 0 0 1 .854-.635c2.213-.723 4.338-1.052 6.277-2.443 1.942-1.402 3.98-2.82 6.112-4.251a.65.65 0 0 0 .263-.711c-.073-.27-.31-.468-.59-.494-3.176-.241-8.217 3.801-11.973 4.623-.438.095-.66-.081-.667-.526-.08-3.753.428-7.163 1.523-10.23 2.629-7.404 4.706-14.064 6.232-19.979.712-2.76 2.76-4.546 3.855-7.098a.88.88 0 0 0-.125-.898c-.205-.253-.533-.371-.853-.307zm-9.8 6.989a1.73 1.73 0 0 1 1.677 2.387 208.02 208.02 0 0 0-4.349 11.533c-1.095 3.165-1.654 9.77-5.28 12.421-3.023 2.202-13.866 10.21-14.271 2.039-.431-8.784 2.102-16.62 7.601-23.506 2.793-3.505 10.525-4.709 14.622-4.873z"/><path d="M441.112 91.012l-18.105 11.665a1.34 1.34 0 0 0-.471.57c-3.374 8.083-4.874 16.955-6.517 25.499a1.25 1.25 0 0 1-.756.931q-2.366.975-4.797-.077-.559-.241-.405-.832 4.381-16.364 8.664-32.771.318-1.238.405-4.458.011-.537-.504-.405c-2.979.712-6.802 6.013-9.201 7.875q-.581.449-.405-.263c1.501-6.112 7.558-7.558 11.731-11.161.495-.429 1.178-.566 1.796-.361q1.884.613 1.325 2.914-.942 3.921-1.402 8.237a1.37 1.37 0 0 0 2.048 1.336c4.513-2.64 8.467-7.547 13.122-9.431q3.133-1.271 5.926-2.464a1.84 1.84 0 0 1 2.53 2.048c-.624 3.209-.296 6.408-1.282 9.474q-3.921 12.147-7.054 24.907-.493 1.972 1.533 2.015c5.608.11 6.101-5.509 10.449-5.882a.8.8 0 0 1 .712 1.271c-3.899 5.225-8.007 6.232-14.14 8.653q-2.158.843-3.79-.602-.394-.34-.329-.865 1.873-14.337 4.02-20.011 2.136-5.641 3.855-11.402c.526-1.774.23-4.085 1.391-6.068q.526-.909-.35-.34zm29.256 1.03l.23-.23a.3.3 0 0 0 .033-.361l-.69-1.095q-.329-.526.088-.986 1.457-1.654 3.604-1.939c.673-.083 1.313.313 1.54.953s-.022 1.35-.598 1.709c-1.709 1.03-1.041 3.363-1.391 4.885q-3.275 14.107-7.032 28.916-.427 1.687 1.303 1.818c2.683.208 6.418-3.527 8.927-5.126a1.01 1.01 0 0 1 1.336 1.468c-3.757 4.83-9.781 6.495-14.951 9.54-.359.211-.806.2-1.154-.027s-.538-.633-.489-1.046c.383-3.187.175-6.517.701-9.573q2.453-14.053 7.547-27.12a1 1 0 0 0-.185-1.025c-.249-.279-.635-.396-.998-.3-4.096 1.084-6.046 4.48-10.657 4.48q-.657 0-.252-.515c2.18-2.749 7.678-4.951 10.92-6.681.334-.179.742-.147 1.045.081s.447.611.368.982q-.099.482.208.778.493.471.548.416zm519.271 34.743c4.491-.843 7.963-4.239 12.191-5.915a.45.45 0 0 1 .504.712q-5.301 6.013-13.012 8.664c-1.731.591-3.111.186-4.863.186q-.975 0-.778-.953 3.428-16.813 8.817-32.158c.504-1.446.504-3.242.745-4.754.031-.187-.052-.373-.212-.477a.5.5 0 0 0-.533-.005c-5.356 3.483-10.373 5.181-15.948 9.956-4.513 3.855-5.63 14.568-7.339 20.154-1.084 3.549-1.03 10.668-7.24 7.886q-.416-.186-.318-.635c.449-2.092 1.676-4.162 2.125-6.057 2.421-10.318 6.418-21.26 7.678-31.676.018-.153-.057-.302-.19-.379s-.3-.065-.423.028l-8.478 6.648c-.347.271-.842.238-1.15-.076s-.332-.809-.055-1.151c3.943-4.852 8.39-5.312 13.034-8.839.531-.4 1.259-.412 1.803-.03s.78 1.07.585 1.706q-1.282 4.173-1.829 8.521-.405 3.264 2.3 1.38c6.572-4.589 10.833-8.719 18.993-10.668a1.54 1.54 0 0 1 1.387.365c.373.342.551.845.475 1.344-1.763 12.092-6.177 23.527-8.784 35.685q-.142.668.515.537z" fill="#0f0e0f"/><path d="M724.169 88.056a1.72 1.72 0 0 0-.503.064c-13.363 3.768-19.803 16.868-21.281 30.001-.274 2.399.646 14.895 5.74 12.913l8.632-3.307c3.209-1.205 6.177-3.362 9.528-4.786 1.807-.767 3.045-1.688 3.823-3.331.093-.198.057-.434-.092-.592s-.378-.205-.575-.118c-5.06 2.18-14.535 7.973-19.715 6.165-.307-.102-.498-.311-.571-.625-.927-3.877-.918-7.731.024-11.565.292-1.19 1.036-1.926 2.233-2.203 8.105-1.873 20.242-6.298 20.045-16.616-.099-4.633-3.451-4.84-6.792-5.913a1.67 1.67 0 0 0-.494-.088zm-2.047 3.878c1.5-.03 2.907.551 3.868 2.079 4.491 7.152-11.677 14.217-16.299 15.334-.46.11-.63-.066-.513-.526 1.278-4.834 3.377-9.232 6.298-13.197 1.39-1.889 4.147-3.64 6.647-3.69zm181.317-3.769c-1.665 0-2.986.649-3.964 1.949a.88.88 0 0 1-.866.372 23.61 23.61 0 0 0-8.084.34c-7.864 1.709-16.472 12.224-19.506 18.796-1.351 2.935-2.146 6.945-2.387 12.027-.015.402-.161.748-.439 1.04-1.022 1.073-1.322 2.403-.898 3.988.073.292.249.495.526.612l4.655 1.93a.66.66 0 0 1 .381.417c.059.19.032.397-.075.567-1.044 1.599-2.107 2.655-3.187 3.166-5.951 2.819-9.945 7.35-11.982 13.593a1.01 1.01 0 0 0 .186.997l4.711 5.75a.77.77 0 0 0 .447.274c4.454.884 7.355 1.347 8.698 1.391 11.961.35 21.642-6.714 21.861-18.982.274-14.655 4.93-29.638 8.424-43.833.35-1.413 1.292-2.356 1.938-3.703a.48.48 0 0 0-.439-.689zm-8.75 5.16a19.47 19.47 0 0 1 1.378.043.57.57 0 0 1 .516.723l-5.322 19.266c-1.851 7.054-8.599 11.533-15.313 13.362a.57.57 0 0 1-.712-.439c-.329-1.731-1.215-3.098-1.314-4.73-.743-12.287 6.737-28.152 20.768-28.225zm-4.822 27.528c.08-.022.184.039.308.182.263.314.204.734-.175 1.26-.202.277-.274.625-.197.952.336 1.417.389 2.812.163 4.184-.997 5.969-1.501 14.799-4.929 19.399-8.773 11.753-34.873 4.183-16.318-9.453a79.33 79.33 0 0 0 7.348-6.123c2.453-2.3 5.192-2.421 7.306-4.469a25.99 25.99 0 0 1 5.62-4.129 1.06 1.06 0 0 0 .558-.768l.141-.723c.036-.186.095-.29.175-.312zm-618.22-32.491c-16.966-.033-24.787 18.97-22.903 32.957.789 5.816 7.449 11.358 13.452 9.682 10.57-2.946 16.779-12.091 19.561-22.31 2.103-7.7.405-20.307-10.11-20.329zm-3.893 3.136c3.71.049 7.139 3.096 7.772 7.126 1.46 9.295-.606 17.598-6.2 24.907-3.384 4.425-7.866 7.273-11.809 1.095-5.301-8.313-2.453-27.765 7.109-32.42a6.89 6.89 0 0 1 3.128-.708z"/><path d="M305.985 100.925c3.286-3.308 10.416-10.624 15.378-11.095q.559-.044.997-.416 1.698-1.435 4.042-1.095.624.088.624.712v6.791a1.04 1.04 0 0 0 1.676.821q6.802-5.312 14.776-8.335a1.95 1.95 0 0 1 2.64 1.84c-.077 10.931-4.907 23.231-7.897 33.834a1.81 1.81 0 0 0 .58 1.867c.542.455 1.3.552 1.939.247q4.425-2.147 7.831-5.608a.82.82 0 0 1 1.109-.079.82.82 0 0 1 .173 1.098c-3.078 4.907-7.886 6.681-12.771 8.916q-1.829.843-3.056-.197-.427-.35-.405-.898c.405-13.133 4.677-22.64 7.733-34.283a2.06 2.06 0 0 0-3.034-2.3l-9.704 5.685a2.07 2.07 0 0 0-.821.876q-6.725 13.812-8.368 29.091-.077.712-.789.745l-5.257.296q-.602.033-.46-.559c.887-3.636 2.388-7.163 3.176-10.701q2.136-9.639 5.367-18.982c.591-1.709 1.216-4.578.657-5.947q-.811-2.037-2.585-.756-6.134 4.436-11.709 9.168c-5.257 4.458-6.681 19.792-7.744 26.452q-.11.723-.854.712l-4.348-.077q-.953-.011-.723-.931c2.432-9.978 4.699-20.088 7.93-29.803 1.106-3.363.164-9.201 4.688-9.858.351-.05.703.088.925.364a.98.98 0 0 1 .149.973q-2.114 5.455-2.004 11.369 0 .208.142.066zm62.213-8.346q-2.727 1.019-5.98 4.666-1.041 1.161-2.815.427-.482-.197-.142-.591 5.641-6.78 14.162-8.62a1.57 1.57 0 0 1 1.449.435 1.55 1.55 0 0 1 .402 1.449c-2.585 10.931-6.265 22.782-7.612 34.141q-.285 2.475 2.037 1.577c3.834-1.479 5.739-4.261 9.19-6.21q4.754-2.705 6.298-7.569 3.406-10.778 6.922-21.556a2.14 2.14 0 0 1 1.61-1.435q1.982-.405 3.176 1.205.361.482.175 1.041-4.841 14.819-8.806 29.858-.602 2.289-.153 4.578.11.537.646.504 5.827-.274 8.16-5.63c.096-.226.29-.395.527-.463a.84.84 0 0 1 .7.113q1.008.701.263 1.884-5.038 8.04-14.808 8.62a.91.91 0 0 1-.953-1.008l1.051-9.923q.35-3.231-1.599-.624-4.732 6.32-12.004 9.474c-2.311 1.008-4.765 3.352-7.842 1.479-.748-.456-1.147-1.321-1.008-2.191q2.771-17.328 8.806-33.779 1.084-2.946-1.851-1.851z" fill="#0f0e0f"/><path d="M1067.599 89.812c-15.088.045-22.059 22.33-21.574 34.245.131 3.45 1.861 6.418 5.235 7.141 5.356 1.139 18.096-7.063 19.476-11.094a.98.98 0 0 0-.441-1.17c-.41-.235-.932-.149-1.247.205-3.593 4.096-8.13 6.485-13.614 7.164-1.113.136-2.193-.437-2.704-1.435-4.633-9.091.032-12.268 7.622-15.236 4.907-1.928 8.696-4.721 12.803-7.755a1.65 1.65 0 0 0 .603-.832c.909-2.87 2.179-9.716-2.148-10.746-1.396-.335-2.732-.492-4.011-.488zm-2.12 2.345c1.957-.077 3.833.948 5.211 3.742a1.44 1.44 0 0 1 .133.984c-.299 1.358-.622 2.235-.965 2.629-3.804 4.345-6.568 6.878-8.292 7.601-3.428 1.446-5.859 2.673-8.324 5.477a.45.45 0 0 1-.766-.404c1.103-4.425 2.387-8.496 3.855-12.213 1.387-3.508 5.412-7.667 9.147-7.815z"/><path d="M1092.422 97.891c.8-9.847 22.322-10.427 21.413-3.855a2.22 2.22 0 0 1-1.422 1.774c-.763.284-1.618.124-2.225-.415q-5.466-4.841-12.377-2.278-.427.153-.701.526c-4.545 5.98 3.812 12.695 7.382 17.185 11.928 15.017-15.477 32.344-22.968 11.829q-1.019-2.815 1.709-3.264a1.77 1.77 0 0 1 2.015 1.358c1.041 4.644 5.455 10.701 10.909 8.872 5.301-1.774 8.029-7.996 5.707-13.155-3.527-7.864-10.263-8.478-9.441-18.576zm-800.118-2.213a.24.24 0 0 1 .077-.329l.131-.088c5.224-3.264 9.81-5.351 10.252-4.666l.011.022c.213.33-.583 1.272-2.213 2.617s-3.958 2.985-6.473 4.557l-.131.077a.24.24 0 0 1-.329-.077zm726.097-3.658c.126.07.208.198.219.341a.43.43 0 0 1-.165.371l-2.574 1.917q-.394.296-.887.186-1.238-.263-1.993-1.479a1.55 1.55 0 0 1-.041-1.562c.269-.491.782-.802 1.344-.815q2.191-.044 4.096 1.041z" fill="#0f0e0f"/><path d="M80.45 108.479c-.672.01-1.287.112-1.818.342l-16.241 7.066c-3.483 1.522-7.132 1.084-10.812 2.847-.314.153-.588.098-.821-.165-.314-.343-.405-.646-.274-.909.277-.548.124-.916-.46-1.106l-3.757-1.204c-1.039-.335-1.945.784-1.401 1.731 1.205 2.103 2.868 3.766 4.993 4.993.331.186.734.203 1.085.045 1.731-.789 3.111-1.36 5.083-1.765 5.192-1.073 10.131-3.767 14.008-5.333 3.275-1.325 8.512-3.987 11.732-3.626 5.433.624 10.373 5.051 12.224 9.804.161.409.066.741-.285.997-1.402 1.008-2.677 1.648-3.977 2.715-3.531 2.899-7.074 5.633-10.236 8.884l-3.2-3.183c.45-3.403 1.422-5.974 3.273-11.111a1.2 1.2 0 0 0-.154-1.117c-.84-1.161-1.599-1.115-2.278.141-1.26 2.289-.93 5.335-2.398 8.007-.01.017-.887 1.475-1.14 1.898-5.58-4.675-16.224-4.742-21.829-1.821-11.78 6.14-28.368 27.668-15.542 41.151 1.194 1.26 2.453 3.395 4.599 4.326.234.095.266.238.098.428-4.929 5.476-10.898 9.248-17.908 11.315-.581.18-.61.991-.043 1.194 8.554 3.154 16.801-8.575 23.395-11.445 5.046-2.191 9.835-5.28 14.369-9.267.686-.497-.058-1.526-.744-1.029-2.351 1.402-4.881 2.149-7.59 2.244-.292.015-.39-.12-.295-.404.405-1.227.525-2.025 1.5-2.956 3.374-3.231 5.883-7.197 8.72-10.91.945-1.236 2.91-.757 3.198.779 2.169 11.873 11.008 29.069 26.298 22.661 4.184-1.752 12.595-6.451 13.362-11.434.058-.358-.046-.416-.317-.175-4.907 4.545-8.905 7.337-14.941 9.364-10.372 3.461-19.168-9.418-21.337-17.852a2.18 2.18 0 0 0-.524-.954c-5.871-6.364 1.795-16.133 6.527-20.306.263-.226.543-.259.843-.098 4.502 2.41.878 8.092-1.707 10.393-1.161 1.037-1.366 2.063-.614 3.078.219.285.346.607.383.965.876 7.952 2.015 13.68 9.584 17.809 1.665.913 3.742.923 6.232.032 8.675-3.111 10.241-6.473 15.51-12.596.967-1.116-.535-2.658-1.675-1.72-2.903 2.388-5.093 6.068-7.656 8.018-2.84 2.169-6.094 3.531-9.759 4.086a1.41 1.41 0 0 1-1.061-.252c-5.133-3.673-7.832-8.69-8.095-15.05a1.41 1.41 0 0 1 .329-.984c6.046-7.579 14.084-7.482 19.046-16.288.174-.321.202-.699.077-1.04-1.103-2.979-.274-5.137 2.486-6.473a1.45 1.45 0 0 1 1.018-.109c6.309 1.577 12.098 4.104 10.668 12.003.345.781 1.336 1.026 2.004.494 1.417-1.154 1.853-2.656 1.305-4.503-.098-.331-.067-.684.088-.986l1.433-2.792c.175-.336.081-.567-.285-.691-6.814-4.135-11.892-5.063-16.671-5.442-.642-.212-1.133-.738-1.303-1.393-1.344-5.09-4.516-8.379-9.518-9.868-2.267-.674-4.788-1.477-6.803-1.448zm10.97 17.745c1.409-.09 3.069 2.298 2.075 3.485-2.161 2.57-4.505 4.826-7.032 6.769-1.961 1.501-4.753 1.698-6.396 4.644-.037.066-.079.073-.13.021l-.197-.197c-.058-.058-.064-.12-.013-.186l1.765-2.169c.197-.243.25-.571.141-.864l-.755-2.004c-.19-.489-.069-.884.362-1.183l9.601-8.114a1.14 1.14 0 0 1 .58-.201zm-30.313.888c.265-.003.531-.001.798.007 3.553.102 7.192 1.174 10.688 2.98l-1.32 2.195c-1.891 3.154-4.356 5.857-7.393 8.106-.759.57-1.483.638-2.169.208-1.347-.854-2.299-1.237-3.953-1.138-.591.036-.712.295-.362.777l2.728 3.692a2.52 2.52 0 0 1 .436.941l.789 3.408c.069.274-.005.565-.197.777-4.104 4.513-8.101 9.934-11.993 16.265-.891 1.46-2.272 2.539-4.142 3.232-.307.11-.597.08-.875-.088-9.562-5.663-9.607-16.419-4.065-25.072 1.49-2.333 8.673-13.012 15.576-15.366 1.766-.602 3.595-.898 5.453-.922z"/><path d="M454.113 157.694l4.107.657a.91.91 0 0 1 .361 1.654c-6.101 4.009-15.663-2.081-19.529 6.309q-2.333 5.06-3.582 10.449c-1.183 5.093-2.749 9.836-3.888 15.301q-2.87 13.702-6.013 27.35-.756 3.231 2.388 2.147c2.552-.876 5.805-4.118 8.697-4.491a.88.88 0 0 1 .92.528c.154.363.046.783-.262 1.027q-5.225 4.184-11.424 6.714a1.78 1.78 0 0 0-.679.515q-1.654 2.015-4.25 2.103a.6.6 0 0 1-.624-.624l.219-9.529q.022-.701-.438-.175c-3.308 3.812-13.921 12.465-19.168 9.277q-.449-.274-.646-.756c-3.801-9.135.624-20.011 5.17-28.04q6.824-12.07 21.523-14.075.372-.044.405.329.372 3.691-2.87 3.998c-4.578.427-8.916.23-11.939 4.721-4.995 7.437-10.701 18.423-7.251 27.744q.219.613.854.701 4.819.679 9.222-2.366c4.688-3.242 6.145-5.531 7.503-11.413q2.202-9.606 5.006-19.047.679-2.245.241-4.556a.98.98 0 0 1 .263-.854c.668-.712 1.205-1.292 1.435-2.3q2.103-9.255 7.262-17.152c1.961-3.012 12.979-8.992 16.243-6.473q.329.263.745.329zm409.741 12.092c.986-3.242 3.494-7.492 7.448-4.184q.438.372.142.854-1.917 3.133-4.94 5.246a1.73 1.73 0 0 1-2.651-1.917zm-36.09 4.71c3.472-3.702 6.681-11.26 13.834-9.168a1.04 1.04 0 0 1 .186 1.917c-2.881 1.512-5.553 2.136-7.875 4.622q-3.33 3.582-7.284 6.473-.602.438-.526-.307.197-1.972 1.665-3.538zm-269.093-1.227c-2.903-2.727-7.109-6.167-11.643-4.491-7.295 2.694-12.454 4.447-16.681 10.613-8.872 12.925-17.109 36.353-3.943 49.289q6.659 6.539 15.356 2.234c5.761-2.859 8.773-7.36 12.508-11.139.091-.121.262-.146.383-.055s.146.262.055.383q-.361.679-.186 1.501c.07.325.02.66-.142.942q-4.195 7.393-12.245 10.46c-3.384 1.292-7.032 3.33-10.712 2.574-27.054-5.564-19.694-38.39-8.368-53.933q8.39-11.523 21.457-14.798 4.556-1.139 8.949-.033 5.52 1.38 10.471 4.425a.71.71 0 0 1 .241.953c-2.388 4.075-2.497 9.08-3.735 13.768q-.679 2.574-2.037.285-.11-.186.175-1.873.613-3.636 1.369-6.966c.346-1.504-.138-3.082-1.271-4.14zm231.711 1.512q1.632-1.709 2.256.57.164.591-.011 1.807c-.57 3.79-2.421 5.4-2.081 9.847a.67.67 0 0 0 .701.613l8.609-.405q.876-.033.537.767l-1.347 3.253a.91.91 0 0 1-1.161.504l-6.9-2.585q-1.829-.679-2.256 1.216-3.045 13.417-5.871 26.32-.252 1.161.12 5.214c.014.155.09.299.21.396s.274.14.425.119c5.509-.734 9.726-5.137 14.513-7.032q.832-.318.668.548-.394 2.18-2.793 3.505-7.766 4.272-14.995 8.138a2.73 2.73 0 0 1-2.354.104c-.76-.323-1.332-.974-1.556-1.769q-.515-1.84-.142-4.545 2.234-16.572 8.193-32.18c2.223-5.827.493-9.463 5.236-14.403zm142.4 22.979c2.892-2.848 5.838-4.732 8.708-7.886q3.286-3.593 7.415-6.309c2.213-1.457 4.075-1.216 4.469 1.785q.077.581-.34.986-1.194 1.15-3.417 2.081c-6.517 2.705-17.361 9.682-19.003 17.733-1.303 6.418-2.322 14.228-5.192 20.088q-.285.581-.931.581h-2.914a.84.84 0 0 1-.672-.335c-.159-.211-.21-.484-.138-.738q3.779-13.691 6.824-26.462c.887-3.746 3.483-5.093 2.673-9.661q-.088-.515-.591-.394c-4.863 1.216-5.969 5.674-9.65 6.112a.9.9 0 0 1-.657-1.61l8.248-6.429a1.01 1.01 0 0 1 .69-.197q3.297.263 5.794-1.796c.255-.218.628-.232.898-.033q1.095.8.274 2.048-.657.997-1.325 2.015-.252.394-.241.854.044 3.779-1.501 7.163a.36.36 0 0 0 .581.405zm-284.789-2.059q6.408-8.762 17.306-10.077 2.004-.241 3.275-.033a.8.8 0 0 1 .668.789q.022 2.059-.416 3.943-3.658 15.674-8.741 30.964a1.25 1.25 0 0 0 1.249 1.643q5.082-.23 7.141-4.743a1.09 1.09 0 0 1 1.358-.581c1.216.438 1.369 1.742.537 2.662-3.56 3.976-9.135 7.996-14.798 6.659q-.482-.11-.515-.602-.219-3.308.219-4.918 2.694-9.781 5.334-19.584c1.008-3.746 3.68-7.032 3.406-11.577q-.033-.57-.613-.613c-6.123-.416-10.088 3.987-14.491 8.171-3.647 3.483-5.345 15.98-6.276 21.074-.493 2.749-1.643 9.617-6.353 7.744q-.537-.219-.427-.789 3.286-16.583 7.744-32.837c.175-.624.219-1.084.153-1.676-.056-.614-.433-1.153-.992-1.418a1.77 1.77 0 0 0-1.735.125c-3.823 2.541-12.793 5.674-13.746 10.23q-2.64 12.585-6.177 24.929-.208.756-.986.832l-4.162.361q-.624.055-.427-.537c4.02-11.698 6.703-24.699 9.759-36.901.504-2.015 1.961-3.866 3.505-4.973a1.38 1.38 0 0 1 2.092 1.599l-2.651 7.262a1.15 1.15 0 0 0 .342 1.271 1.12 1.12 0 0 0 1.301.098l16.539-9.945a1.26 1.26 0 0 1 1.895 1.216l-1.084 9.934c-.017.19.094.369.272.437s.38.011.495-.142z" fill="#0f0e0f"/><path d="M471.372 184.284c-1.166.008-2.487.418-4.236.946-15.696 4.743-21.347 23.582-18.466 38.072 1.742 8.73 23.306-1.795 24.544-7.808a.55.55 0 0 0-.198-.55c-.166-.132-.394-.161-.59-.075-4.6 2.081-11.029 9.08-17.174 6.298a1.14 1.14 0 0 1-.614-.635c-1.628-4.06-1.256-7.799 1.117-11.216.197-.277.448-.486.755-.625 5.542-2.366 26.473-12.716 19.168-21.818-1.565-1.941-2.807-2.598-4.306-2.589zm-1.639 3.213a1.7 1.7 0 0 1 1.192.877c3.877 7.317-8.98 15.728-14.938 18.74-.277.139-.463.354-.558.646l-.088.285c-.077.257-.336.418-.599.373s-.446-.282-.421-.548c.405-9.332 5.477-17.876 14.656-20.34a1.7 1.7 0 0 1 .757-.032zm133.428-3.384a5.68 5.68 0 0 0-4.272 2.233c-.219.27-.5.37-.843.297-17.831-3.954-32.026 17.787-30.974 33.165.274 4.009.568 8.204 5.815 7.098 5.506-1.161 10.173-3.932 13.999-8.313.909-1.041 1.052-2.651 2.629-3.528.35-.197.504-.099.46.295-.482 4.666-2.136 11.009-.439 13.189a.79.79 0 0 0 1.162.098l3.11-2.815c.292-.263.619-.456.984-.58 2.18-.734 10.67-4.951 9.794-7.952a.8.8 0 0 0-.56-.557.83.83 0 0 0-.777.185l-5.181 4.687a1.13 1.13 0 0 1-.755.285h-1.675c-.639.001-1.242-.299-1.627-.809a2.04 2.04 0 0 1-.334-1.786c2.191-7.726 3.954-15.379 5.29-22.959.716-4.038 2.4-7.536 5.051-10.493a1.03 1.03 0 0 0 .163-1.153 1.06 1.06 0 0 0-1.019-.588zm-12.393 5.429a13.4 13.4 0 0 1 3.269.475c.358.095.599.317.723.667 1.347 3.899-2.815 14.984-4.184 19.168-2.092 6.386-9.78 12.749-15.925 11.95-.925-.117-1.654-.847-1.776-1.776-1.198-8.901 1.071-16.954 6.803-24.161 3.079-3.862 6.6-6.388 11.09-6.324zm103.674-5.305a1.82 1.82 0 0 0-.336.051c-4.765 1.205-13.418 5.783-14.218 11.413a.84.84 0 0 0 .513.899c.357.147.767.034.998-.274a31.15 31.15 0 0 1 7.81-7.35c.556-.366 1.27-.39 1.85-.063a1.77 1.77 0 0 1 .899 1.618c-.044 1.172-.164 2.946-.646 4.118-2.249 5.491-3.951 11.13-5.104 16.913-2.651 13.374-4.655 21.786-7.579 32.75-1.073 3.987-5.629 4.063-8.893 4.753-.229.048-.4.24-.423.472s.107.454.322.546c.518.212 1.14.329 1.863.351l22.584.492c.489.015.884-.139 1.183-.46.137-.146.181-.356.115-.545s-.233-.325-.431-.353l-10.921-1.457c-.438-.058-.61-.306-.516-.744l4.721-21.435c.101-.448.401-.825.814-1.022a1.47 1.47 0 0 1 1.299.014l6.508 3.275a1.28 1.28 0 0 0 1.194 0c4.436-2.234 9.419-4.151 12.519-8.116 5.29-6.758 10.284-17.491 9.441-26.309-1.687-17.711-16.013-3.79-21.741.931-1.972 1.621-2.839 1.161-2.606-1.38l.657-7.141c.048-.517-.132-1.029-.492-1.403s-.865-.572-1.384-.544zm19.784 5.616c.431.008.682.226.755.657 1.785 10.646-2.782 23.012-9.672 30.788-4.177 4.717-8.757 4.996-13.745.834-2.815-2.355.438-12.772 1.446-16.671 2.004-7.744 7.273-10.624 14.523-13.965 2.483-1.154 4.713-1.701 6.692-1.643zm38.987-5.045c-.905-.027-1.904.04-3.008.214-13.549 2.136-26.692 23.844-19.442 36.911 2.443 4.392 7.119 7.34 12.344 5.588 9.014-3.023 16.342-9.575 18.96-18.907a87.91 87.91 0 0 1 2.015-6.309 1.64 1.64 0 0 0 .034-1.04c-2.124-7.147-2.154-16.2-10.904-16.457zm-3.934 3.173a8.16 8.16 0 0 1 1.463.13c9.233 1.621 6.518 20.603 3.615 26.375-2.059 4.096-6.277 9.473-11.086 10.645-.387.092-.795.042-1.149-.141-3.198-1.687-5.225-4.728-6.08-9.124-1.636-8.397.259-16.084 5.684-23.057 2.061-2.655 4.29-4.814 7.552-4.828zm157.159-3.094a1.12 1.12 0 0 0-.359.058c-3.907 1.307-8.014 1.972-12.322 1.994-1.329.008-2.447.317-3.352.931-11.34 7.616-17.808 17.868-19.407 30.756-.664 5.272 1.736 8.463 7.205 9.573.299.058.586.019.856-.12 6.364-3.33 8.816-6.913 13.734-9.52.518-.277.753-.124.702.46l-.678 8.238a1.39 1.39 0 0 0 .342 1.021c.246.279.593.444.961.457 2.53.099 2.749-2.08 4.676-3.044 1.402-.712 2.957-.844 4.206-1.523 2.979-1.643 5.583-3.582 7.81-5.817.259-.261.289-.673.07-.968s-.622-.387-.947-.215c-3.428 1.774-6.713 3.605-10.262 4.875a1.93 1.93 0 0 1-2.422-2.586c3.516-8.05 5.027-16.615 7.053-25.301.635-2.716 2.114-5.048 3.177-7.71a1.15 1.15 0 0 0-.113-1.058c-.208-.312-.556-.5-.929-.502zm-5.201 4.249c.204.002.263.158.175.464-1.632 5.476-5.892 24.568-10.055 27.47-2.694 1.884-15.784 11.107-15.039.779.701-9.595 6.791-28.644 19.782-27.318.365.036.721 0 1.072-.109l3.812-1.236a.81.81 0 0 1 .252-.049zm-68.116-3.797c-17.163-.066-24.756 21.371-24.745 35.249 0 3.691 2.191 6.298 5.641 7.032 1.49.314 3.308-.051 5.455-1.095 3.614-1.742 14.776-5.685 15.401-9.836.058-.408-.14-.809-.499-1.01s-.805-.161-1.122.101c-4.264 3.549-9.014 5.694-14.25 6.439-5.608.8-6.495-11.959-.744-13.952 5.476-1.895 15.454-6.683 18.028-12.181 1.544-3.275 2.805-10.724-3.164-10.746zm-5.068 3.791c4.279-.012 7.802 3.548 3.468 7.415-5.071 4.535-10.757 7.997-15.85 12.444a.46.46 0 0 1-.755-.439c1.212-5.71 3.484-11.04 6.814-15.991 1.634-2.436 4.082-3.423 6.324-3.429z"/><path d="M858.75 190.564q-.712-2.223-2.618-.843l-5.739 4.173q-.471.35-1.062.35h-1.358a1.13 1.13 0 0 1-.994-.581 1.16 1.16 0 0 1 .019-1.161c2.081-3.439 12.191-6.889 16.002-6.736.335.014.645.176.847.444s.273.611.194.936q-3.954 15.586-7.996 30.657c-2.815 10.471-5.783 20.329-10.701 29.387a1.85 1.85 0 0 1-.756.745c-5.203 2.727-14.71 7.185-18.828.767-.297-.453-.283-1.043.036-1.482s.876-.633 1.399-.49q6.243 1.665 12.684 1.347.57-.033 1.008-.383 1.928-1.544 2.508-3.341 7.448-22.99 9.617-33.9 2.004-10.022 5.422-16.9.361-.712.394-1.457.033-1.205-.077-1.533zm-83.407-.832a1.74 1.74 0 0 1 1.621-2.519l7.273.263a.41.41 0 0 1 .388.305c.048.178-.025.37-.18.473-2.048 1.314-7.328 5.027-9.102 1.479zM613.983 195c1.61-3.965 4.009-7.842 8.949-7.612.266.015.494.193.572.447s-.01.53-.222.692l-8.905 6.78q-.767.581-.394-.307z" fill="#0f0e0f"/></svg>