<svg xmlns="http://www.w3.org/2000/svg" viewBox="0 0 2200 256"><path d="M2030.948 4.621a1.36 1.36 0 0 0-.546.091 2.51 2.51 0 0 1-.83.142l-146.102.294c-.688 0-1.032.347-1.032 1.042l.01 243.883c0 .324.162.486.486.486l10.888.01 244.308.071 60.686-.213c.729 0 1.093-.368 1.093-1.103l.091-39.05a.38.38 0 0 0-.435-.435l-224.769-.01-8.985-.405c-.364-.02-.571-.213-.619-.577a54.24 54.24 0 0 1-.486-7.093l-.01-57.537c.01-1.046.533-1.572 1.579-1.579l188.885-.344 19.6-.132c.924-.007 1.387-.471 1.387-1.395l.029-38.524c0-.27-.135-.405-.405-.405l-192.891-.01-16.807-.385c-.548-.015-.99-.448-1.012-.99-.81-16.029-.234-32.16-.123-48.208.013-1.875.136-3.381.366-4.514a2.42 2.42 0 0 1 2.368-1.931l200.39-.132 22.424-.202c1.046-.013 1.569-.54 1.569-1.579l.06-37.645c0-.648-.323-.97-.97-.97l-160.198-.648zm-33.573 105.372a134 134 0 0 1 3.797.022c-2.556-.049-5.077-.037-7.473.079a93.24 93.24 0 0 1 3.676-.101zM381.548.024c-14.306.136-27.199.836-37.4 1.583-37.127 2.732-92.238 12.619-111.596 49.928-3.326 6.409-4.691 13.363-4.097 20.865 2.378 30.216 37.775 48.785 63.063 56.213 40.011 11.748 85.334 16.533 127.966 23.424 13.884 2.246 54.866 8.602 49.766 30.996-4.918 21.635-44.321 28.304-62.373 29.397-26.31 1.579-51.466 1.233-75.57-8.451-18.376-7.367-28.111-19.296-35.336-37.429a.81.81 0 0 0-.8-.518l-81.57 4.726c-.178.01-.342.098-.45.241s-.147.325-.108.499c5.525 23.794 18.457 42.288 38.797 55.484 17.587 11.404 40.356 19.337 60.118 22.626 44.207 7.374 88.57 8.37 133.087 2.986 35.812-4.341 79.962-15.189 101.354-46.872 5.636-8.348 8.885-17.982 8.692-27.737-.688-36.156-35.011-55.119-65.581-63.913-48.785-14.025-99.564-16.657-148.966-27.727-9.927-2.226-24.63-6.192-29.456-15.795-5.141-10.241 5.879-17.527 13.833-20.543 24.731-9.36 56.151-9.773 81.398-6.991 18.842 2.074 35.155 6.971 46.428 22.636 2.196 3.056 3.45 7.265 4.927 10.827.213.519.724.853 1.285.84l80.853-2.135c2.375-.061 3.359-1.271 2.955-3.633C532.054 9.393 443.542-.566 381.548.024zm1282.401.79c-22.161.088-43.742 1.497-64.059 5.224-31.946 5.849-74.597 19.642-84.464 55.373-1.265 4.584-.912 13.105.393 17.527 7.792 26.259 37.401 41.984 62.547 49.199 23.871 6.851 45.881 10.656 75.358 15.331 14.562 2.307 29.295 3.694 43.785 6.659 13.944 2.854 57.984 6.424 58.409 28.899.374 19.611-29.792 28.902-44.92 32.14-2.935.627-6.365.475-9.522 1.123-3.204.661-5.545 1.029-7.022 1.103-13.964.654-27.933.748-41.904.283-2.206-.071-3.744-1.152-5.718-2.002-.301-.131-.636-.16-.951-.081-2.341.567-3.849.748-4.524.545-10.018-3.005-18.75-4.413-29.294-9.584-14.865-7.276-25.532-18.963-30.622-34.759a1.95 1.95 0 0 0-2.135-1.324c-6.814.985-13.391 1.551-19.732 1.7-20.147.496-40.183 2.388-60.32 3.218-.351.013-.462.185-.334.516l6.72 16.92c15.928 39.05 62.748 55.696 100.826 61.403 25.672 3.845 51.841 5.535 78.151 4.907 11.242-.263 24.184-1.882 36.368-2.358 6.652-.263 17.707-1.889 33.162-4.878 24.306-4.705 54.795-15.178 71.37-34.708 5.302-6.254 11.203-14.532 12.538-22.82.89-5.535 2.631-10.191 1.346-16.07-.324-1.504-.642-3.463-.953-5.878-2.469-19.52-17.244-31.906-33.121-41.054-24.539-14.157-52.305-17.82-79.475-23.689-4.119-.89-8.672-.778-13.084-1.719-6.163-1.315-11.405-1.721-17.092-3.026-3.946-.901-7.701-.091-11.87-1.7-1.457-.56-2.822-.845-4.097-.852a64.55 64.55 0 0 1-18.104-2.68c-.553-.162-1.71-.078-3.471.253a1.57 1.57 0 0 1-.961-.103 29.97 29.97 0 0 0-9.594-2.287c-3.38-.243-6.143-1.285-9.522-1.852-8.399-1.396-16.846-3.571-25.339-6.526-17.516-6.092-27.109-21.645-5.575-32.534 9.057-4.574 19.095-5.697 27.99-8.014 4.371-1.143 9.088-.243 13.693-.941a107.88 107.88 0 0 1 24.326-.891c28.516 2.166 59.228 3.411 70.997 34.973a.79.79 0 0 0 .739.506l45.05-.293c3.552-.01 6.708-1.457 10.321-1.356 5.727.162 10.697-.346 17.153-.265 3.427.04 6.851-.319 10.271-1.081.358-.081.505-.304.445-.668-7.68-45.051-56.477-62.305-95.911-67.405-2.945-.385-6.475-1.649-9.147-1.781l-36.793-2.306c-7.491-.228-14.942-.345-22.329-.316zm-965.083 3.22c-22.06.799-44.139-.1-66.219.294-4.705.091-11.727-.446-17.667.111a.45.45 0 0 0-.466.506v245.887c0 .317.162.476.486.476l11.748-.022 62.415.324 10.048-.263c.351-.007.528-.185.528-.536l.069-212.302-.403-33.961c-.007-.358-.187-.529-.538-.516zm-72.473 242.821c.779.607 1.37 1.154 1.775 1.642-.404-.488-.996-1.035-1.775-1.642zM781.308 4.115c-.097 0-.189.039-.258.107a.36.36 0 0 0-.106.258l.04 246.867c0 .358.175.529.526.516l9.35-.253 307.776.01a.69.69 0 0 0 .688-.688l.213-40.87a.62.62 0 0 0-.177-.437.6.6 0 0 0-.43-.181l-231.366.032c-1.39.007-2.088-.689-2.095-2.085l-.324-62.992a1.12 1.12 0 0 1 1.113-1.123l176.297-.486c.054-.263.03-.476-.071-.638.101.162.125.375.071.638l31.986.182a1.35 1.35 0 0 0 .966-.393 1.36 1.36 0 0 0 .401-.963l.13-40.334c0-.31-.154-.466-.464-.466-69.593-.007-139.187-.007-208.78 0-.553 0-.972-.253-1.255-.759.121.492.142.899.061 1.217.081-.319.06-.725-.061-1.217l-.354-51.689a1.93 1.93 0 0 1 .555-1.372c.36-.365.853-.57 1.366-.571l188.34-.01 35.68-.01c.337 0 .506-.166.506-.496V4.884a.56.56 0 0 0-.557-.565zm83.726 98.257a1.88 1.88 0 0 1 .725.858c.14.342.179.742.115 1.198.064-.455.025-.855-.115-1.198a1.88 1.88 0 0 0-.725-.858zm198.445 30.868c-.374.499-.805.949-1.293 1.334a6.41 6.41 0 0 1-1.646.945 7.2 7.2 0 0 1-2.038.461c.748-.062 1.425-.221 2.038-.461a6.41 6.41 0 0 0 1.646-.945 7.2 7.2 0 0 0 1.293-1.334zM1165.685 4.182a13.76 13.76 0 0 0-2.277.237c-.317.061-.474.253-.474.577l.13 246.351c0 .364.178.539.536.526l10.748-.302 72.605.01c.279 0 .506-.227.506-.506l.029-90.79c0-1.039.521-1.554 1.559-1.548l77.159-.536c26.539-.499 47.091-1.58 61.656-3.239 34.314-3.916 88.178-21.108 95.332-61.737 4.827-27.474-4.705-49.686-28.12-64.905-17.216-11.192-36.082-18.046-56.596-20.563-4.52-.715-8.076-1.137-10.667-1.265-22.627-1.174-45.269-1.816-67.929-1.931l-147.973-.081c-1.662.008-3.933-.362-6.224-.298zm126.929 42.258a1403.71 1403.71 0 0 1 43.327.876c17.01.607 32.573 2.539 47.327 11.524 9.978 6.061 17.083 18.599 12.175 30.095-10.929 25.591-51.963 26.179-74.681 26.624-22.822.452-46.747.573-71.775.364-.639 0-1.159-.515-1.164-1.154l.081-65.876c.01-.573.037-1.046.091-1.417.061-.385.284-.578.668-.585a1464.59 1464.59 0 0 1 43.951-.451z" fill="#1b0904"/><path d="M11.893.042L152.571.04a.24.24 0 0 1 .243.239l.058 15.959q0 .126-.104.196-.426.285-.684.381c-23.508 8.834-45.228 21.606-64.817 37.112C72.068 65.958 58.35 79.09 46.195 94.003c-6.972 8.555-13.211 17.832-18.748 27.375C15.785 141.482 7.049 163.182.893 185.523q-.243.882-.575 1.574-.07.145-.128-.004-.151-.392-.149-.863l.075-70.029q0-.068-.036-.124c-.018-.029-.028-.062-.028-.096Q-.032 59.03.02 2.078q0-.98.051-1.962Q.077.014.179.014l11.714.028zM152.729 256L.277 255.934c-.058 0-.106-.045-.109-.102q-.019-.379-.023-.797-.128-11.149-.081-22.328a.29.29 0 0 1 .209-.277c25.445-7.507 49.756-20.143 70.975-35.827 5.762-4.26 11.901-9.019 17.642-14.121a313.59 313.59 0 0 0 24.13-23.796q1.57-1.719 2.827-3.193 11.507-13.509 20.558-28.793c5.528-9.332 9.993-18.392 14.366-28.169.471-1.052.807-2.739 1.668-3.34q.349-.243.356.183c.317 18.164.092 36.366.107 54.536l-.058 105.978q0 .113-.115.113z" fill="#039487"/></svg>