<svg xmlns="http://www.w3.org/2000/svg" viewBox="0 0 1364.715 1080"><path d="M0 1080h1364.715V0H0v1080" fill="#119dd2"/><path d="M210.49 542.986c-4.088 3.226-10.815 5.855-27.83 8.483-15.23 2.629-27.831 6.449-27.831 23.436 0 14.366 11.142 18.75 19.05 18.75 18.157 0 36.611-11.727 36.611-30.777zm40.163 45.412c0 18.455 4.118 22.552 9.079 24.307v6.152H215.5c-2.351-7.34-2.947-9.662-3.82-18.453-9.376 9.682-22.572 22.58-50.402 22.58-23.435 0-47.475-13.226-47.475-45.44 0-30.462 19.328-45.999 45.422-49.809l36.929-5.585c6.449-.864 14.337-3.503 14.337-12.304 0-17.292-16.391-18.156-26.957-18.156-20.488 0-24.011 12.601-25.181 21.658h-39.558c4.683-47.723 37.802-54.5 69.72-54.5 21.977 0 62.14 6.777 62.14 45.115v84.433m156.76-26.391c-1.468 16.134-14.069 60.979-71.188 60.979-58.617 0-72.112-44.846-72.112-77.667 0-50.421 22.006-86.468 74.71-86.468 24.638 0 65.069 11.163 68.889 59.798h-41.622c-1.737-10.259-8.186-26.362-27.267-25.222-25.765 0-32.494 25.798-32.494 45.145 0 16.985.577 50.7 31.633 50.7 20.805 0 27.848-19.944 27.848-27.267h41.602m155.297 56.854h-39.26v-21.996h-.577c-9.395 16.738-25.796 26.124-47.474 26.124-30.777 0-53.052-17.62-53.052-57.446V462.967h41.028v96.689c0 24.041 14.059 28.742 26.687 28.742 13.464 0 31.65-7.61 31.65-35.491v-89.94h40.998v155.89m110.478-75.871c-4.117 3.226-10.835 5.855-27.851 8.483-15.23 2.629-27.83 6.449-27.83 23.436 0 14.366 11.133 18.75 19.05 18.75 18.158 0 36.631-11.727 36.631-30.777zm40.164 45.412c0 18.455 4.066 22.552 9.047 24.307v6.152h-44.22c-2.362-7.34-2.926-9.662-3.82-18.453-9.375 9.682-22.573 22.58-50.403 22.58-23.444 0-47.474-13.226-47.474-45.44 0-30.462 19.347-45.999 45.412-49.809l36.939-5.585c6.449-.864 14.356-3.503 14.356-12.304 0-17.292-16.421-18.156-26.957-18.156-20.518 0-24.041 12.601-25.202 21.658h-39.568c4.691-47.723 37.802-54.5 69.75-54.5 21.976 0 62.14 6.777 62.14 45.115v84.433m227.652 30.461H900V443.046h-.594l-39.291 175.811h-43.06l-38.369-175.811h-.594v175.811h-41.025V408.446h64.162l38.099 165.862h.597l37.482-165.862h63.598v210.411m118.388-93.481c-2.352-25.202-18.476-32.821-31.65-32.821-19.347 0-29.588 12.332-31.948 32.821zm40.431 47.772c-10.835 37.505-41.92 49.837-68.559 49.837-43.954 0-77.659-21.112-77.659-85.287 0-18.77 6.449-78.848 74.731-78.848 30.759 0 73.253 14.656 73.253 85.874v7.323H994.604c1.191 11.727 3.551 38.117 36.662 38.117 11.41 0 23.147-5.872 26.37-17.015h42.189m81.753 16.123c26.075 0 36.344-21.709 36.344-44.846 0-24.904-7.046-50.106-35.173-50.106-26.073 0-34.853 23.137-34.853 47.774 0 18.453 7.32 47.177 33.682 47.177m75.584 29.585h-40.114v-19.644h-.615c-9.952 17.62-28.128 23.772-45.095 23.772-46.314 0-65.681-41.036-65.681-83.839 0-53.903 30.507-80.265 64.789-80.265 26.36 0 38.694 14.356 45.112 24.307h.597v-74.741h41.005v210.411M130.054 690.969h12.501l-6.082-19.05h-.149zm-6.151 18.237h-10.815l17.512-48.181h11.827l17.294 48.181h-11.142l-3.145-9.952h-18.137l-3.393 9.952m55.808-4.099c3.82 0 9.773-2.479 9.773-11.806 0-5.684-.972-14.882-9.654-14.882-9.297 0-9.793 8.661-9.793 13.124 0 7.711 3.096 13.563 9.674 13.563m15.498 1.222c0 5.001-.07 17.63-16.619 17.63-4.237 0-12.501-1.14-13.662-10.467h6.003c1.111 5.557 6.648 5.557 8.057 5.557 10.418 0 10.219-8.156 10.219-12.324v-1.488h-.149v.297c-1.558 2.482-4.733 4.663-9.525 4.663-12.154 0-15.696-11.191-15.696-19.575 0-9.853 5.378-17.511 14.902-17.511 6.479 0 9.227 3.967 10.666 5.971h.129v-4.961h5.675v32.207m31.65 2.879v-5.121l-.119-.119c-2.53 4.117-5.606 6.251-11.36 6.251-5.258 0-11.638-2.499-11.638-10.894v-25.202h6.032v23.276c0 5.776 3.026 7.709 6.916 7.709 7.59 0 9.852-6.548 9.852-11.658v-19.327h6.003v35.085h-5.685m36.541-17.919c-.973.754-2.461 1.29-9.921 2.243-2.927.366-7.67 1.229-7.67 5.674 0 3.82 2.014 6.101 6.499 6.101 5.606 0 11.092-3.541 11.092-8.235zm-22.026-6.49c.268-8.392 5.953-11.686 14.784-11.686 2.847 0 13.243.813 13.243 9.802v20.18c0 1.488.765 2.065 2.004 2.065.546 0 1.29-.119 1.966-.249v4.298c-1.021.267-1.915.663-3.274.663-5.339 0-6.152-2.677-6.35-5.387-2.362 2.512-5.954 5.735-12.928 5.735-6.568 0-11.231-4.117-11.231-10.14 0-2.936.893-9.784 10.864-10.993l9.943-1.212c1.417-.13 3.124-.673 3.124-4.166 0-3.673-2.728-5.687-8.405-5.687-6.845 0-7.788 4.069-8.184 6.777h-5.556m58.538-.673c-.079-2.233-.892-5.905-8.483-5.905-1.834 0-7.094.625-7.094 4.963 0 2.875 1.836 3.541 6.469 4.691l6.032 1.488c7.462 1.806 10.04 4.486 10.04 9.248 0 7.241-6.071 11.587-14.158 11.587-14.168 0-15.161-8.016-15.379-12.263h5.824c.18 2.758 1.024 7.173 9.507 7.173 4.285 0 8.184-1.687 8.184-5.555 0-2.827-1.963-3.772-7.122-5.032l-6.947-1.666c-5.009-1.24-8.285-3.691-8.285-8.532 0-7.719 6.5-11.211 13.543-11.211 12.801 0 13.673 9.276 13.673 11.013h-5.804m46.702 20.984c3.82 0 9.774-2.479 9.774-11.806 0-5.705-.945-14.882-9.626-14.882-9.296 0-9.792 8.631-9.792 13.124 0 7.711 3.076 13.563 9.644 13.563m15.875 4.1h-5.677v-4.844h-.147c-2.581 4.783-6.698 5.855-10.2 5.855-12.154 0-15.725-11.211-15.725-19.596 0-9.873 5.408-17.511 14.912-17.511 6.5 0 9.248 3.967 10.665 5.971l.15-.465v-17.592h6.022v48.181m32.969-20.339c-.376-5.418-2.677-10.447-10-10.447-5.557 0-9.921 5.029-9.921 10.447zm5.725 9.327c-.198 1.687-1.834 6.647-6.35 9.593-1.636 1.092-3.967 2.41-9.723 2.41-10.04 0-15.994-7.44-15.994-17.561 0-10.874 5.329-19.525 17.165-19.525 10.32 0 15.379 8.036 15.379 20.457h-26.124c0 7.302 3.5 11.539 10.416 11.539 5.656 0 9.009-4.295 9.228-6.914h6.002m26.79 11.014h6.032v-48.181h-6.032v48.181m36.89-17.919c-.973.754-2.482 1.29-9.924 2.243-2.957.366-7.668 1.229-7.668 5.674 0 3.82 1.984 6.101 6.497 6.101 5.606 0 11.095-3.541 11.095-8.235zm-22.027-6.49c.267-8.392 5.951-11.686 14.783-11.686 2.847 0 13.246.813 13.246 9.802v20.18c0 1.488.765 2.065 2.004 2.065.546 0 1.29-.119 1.963-.249v4.298c-1.021.267-1.915.663-3.274.663-5.336 0-6.152-2.677-6.35-5.387-2.36 2.512-5.951 5.735-12.928 5.735-6.568 0-11.229-4.117-11.229-10.14 0-2.936.892-9.784 10.863-10.993l9.921-1.212c1.44-.13 3.144-.673 3.144-4.166 0-3.673-2.728-5.687-8.402-5.687-6.845 0-7.79 4.069-8.186 6.777h-5.555m58.539-.673c-.081-2.233-.894-5.905-8.483-5.905-1.836 0-7.094.625-7.094 4.963 0 2.875 1.834 3.541 6.469 4.691l6.032 1.488c7.46 1.806 10.04 4.486 10.04 9.248 0 7.241-6.073 11.587-14.158 11.587-14.17 0-15.161-8.016-15.379-12.263h5.824c.178 2.758 1.021 7.173 9.505 7.173 4.285 0 8.186-1.687 8.186-5.555 0-2.827-1.966-3.772-7.094-5.032l-6.975-1.666c-5.011-1.24-8.285-3.691-8.285-8.532 0-7.719 6.497-11.211 13.543-11.211 12.799 0 13.673 9.276 13.673 11.013h-5.804m64.957-7.322c-.815-2.878-2.382-8.306-10.866-8.306-4.93 0-12.174 3.205-12.174 16.817 0 8.654 3.475 16.451 12.174 16.451 5.687 0 9.654-3.155 10.866-9.058h10.269c-2.055 10.467-9.03 17.759-21.333 17.759-13.066 0-22.443-8.661-22.443-25.273 0-16.845 9.924-25.428 22.573-25.428 14.704 0 20.658 9.921 21.204 17.036h-10.269m40.608 32.407v-5.121l-.13-.119c-2.53 4.117-5.606 6.251-11.359 6.251-5.26 0-11.61-2.499-11.61-10.894v-25.202h6.032v23.276c0 5.776 2.977 7.709 6.896 7.709 7.561 0 9.822-6.548 9.822-11.658v-19.327h6.022v35.085h-5.674m39.34-20.34c-.345-5.418-2.677-10.447-10-10.447-5.557 0-9.921 5.029-9.921 10.447zm5.725 9.327c-.198 1.687-1.834 6.647-6.35 9.593-1.656 1.092-3.967 2.41-9.692 2.41-10.071 0-16.025-7.44-16.025-17.561 0-10.874 5.329-19.525 17.165-19.525 10.32 0 15.379 8.036 15.379 20.457H626.36c0 7.302 3.472 11.539 10.396 11.539 5.677 0 9.03-4.295 9.248-6.914h6.002m36.791 11.014h-6.004v-21.61c0-6.073-1.786-9.177-7.668-9.177-3.393 0-9.426 2.151-9.426 11.676v19.111h-6.022v-35.085h5.674v4.961h.13c1.311-1.885 4.663-5.971 10.815-5.971 5.527 0 12.502 2.233 12.502 12.202v23.893m31.271-23.276c-.765-4.704-3.424-7.541-8.483-7.541-7.46 0-9.87 7.005-9.87 13.226 0 6.022 1.516 13.492 9.802 13.492 4.018 0 7.49-2.946 8.552-8.334h5.804c-.594 5.585-4.117 13.444-14.584 13.444-10.02 0-15.974-7.46-15.974-17.561 0-10.894 5.339-19.545 17.145-19.545 9.375 0 12.949 6.726 13.414 12.819h-5.804m33.633 5.357c-.963.754-2.451 1.29-9.921 2.243-2.926.366-7.661 1.229-7.661 5.674 0 3.82 1.986 6.101 6.52 6.101 5.585 0 11.062-3.541 11.062-8.235zm-22.027-6.49c.279-8.392 5.954-11.686 14.785-11.686 2.878 0 13.274.813 13.274 9.802v20.18c0 1.488.716 2.065 1.986 2.065.544 0 1.26-.119 1.953-.249v4.298c-1.011.267-1.905.663-3.274.663-5.329 0-6.152-2.677-6.35-5.387-2.352 2.512-5.954 5.735-12.918 5.735-6.579 0-11.242-4.117-11.242-10.14 0-2.936.894-9.784 10.894-10.993l9.893-1.212c1.468-.13 3.155-.673 3.155-4.166 0-3.673-2.728-5.687-8.412-5.687-6.848 0-7.79 4.069-8.207 6.777h-5.537m58.539-.673c-.069-2.233-.892-5.905-8.483-5.905-1.854 0-7.094.625-7.094 4.963 0 2.875 1.836 3.541 6.479 4.691l6.022 1.488c7.442 1.806 10.051 4.486 10.051 9.248 0 7.241-6.081 11.587-14.137 11.587-14.188 0-15.209-8.016-15.407-12.263h5.832c.201 2.758 1.013 7.173 9.497 7.173 4.315 0 8.184-1.687 8.184-5.555 0-2.827-1.953-3.772-7.094-5.032l-6.965-1.666c-5.009-1.24-8.283-3.691-8.283-8.532 0-7.719 6.497-11.211 13.543-11.211 12.799 0 13.69 9.276 13.69 11.013h-5.834m80.792 25.083h-9.555v-40.243h-.147l-9.179 40.243h-10.04l-8.958-40.243h-.15v40.243h-9.545v-48.181h14.953l8.88 37.98h.13l8.781-37.98h14.833v48.181m33.7-20.34c-.345-5.418-2.677-10.447-10.02-10.447-5.527 0-9.891 5.029-9.891 10.447zm5.735 9.327c-.229 1.687-1.834 6.647-6.35 9.593-1.666 1.092-3.967 2.41-9.723 2.41-10.071 0-16.022-7.44-16.022-17.561 0-10.874 5.357-19.525 17.183-19.525 10.32 0 15.379 8.036 15.379 20.457h-26.113c0 7.302 3.492 11.539 10.386 11.539 5.707 0 9.03-4.295 9.258-6.914h6.002m21.481 6.915c3.82 0 9.774-2.479 9.774-11.806 0-5.705-.973-14.882-9.654-14.882-9.296 0-9.792 8.631-9.792 13.124 0 7.711 3.094 13.563 9.672 13.563m15.847 4.1h-5.677v-4.844h-.147c-2.581 4.783-6.678 5.855-10.17 5.855-12.184 0-15.727-11.211-15.727-19.596 0-9.873 5.377-17.511 14.902-17.511 6.5 0 9.228 3.967 10.668 5.971l.147-.465v-17.592h6.004v48.181m8.48.001h6.032v-35.105h-6.032zm0-41.455h6.032v-6.726h-6.032v6.726m22.426 11.263v22.791c0 2.776 2.41 2.776 3.619 2.776h2.134v4.625l-4.514.434c-5.923 0-7.244-3.244-7.244-7.46v-23.167h-4.882v-4.892h4.882v-9.792h6.004v9.792h5.753v4.892h-5.753m36.264 9.853c-.348-5.418-2.68-10.447-9.992-10.447-5.535 0-9.921 5.029-9.921 10.447zm5.753 9.327c-.216 1.687-1.854 6.647-6.368 9.593-1.669 1.092-3.97 2.41-9.723 2.41-10.051 0-15.976-7.44-15.976-17.561 0-10.874 5.309-19.525 17.137-19.525 10.317 0 15.377 8.036 15.377 20.457h-26.113c0 7.302 3.492 11.539 10.419 11.539 5.674 0 9.027-4.295 9.225-6.914h6.022m14.488 11.014h-6.022v-35.085h5.674v5.834h.13c2.38-4.087 5.555-6.845 10.071-6.845a5.31 5.31 0 0 1 1.557.198v6.101h-2.253c-5.606 0-9.157 4.298-9.157 9.395v20.401m22.768.001h-6.022v-35.085h5.677v5.834h.13c2.4-4.087 5.524-6.845 10.04-6.845a5.39 5.39 0 0 1 1.587.198v6.101h-2.253c-5.606 0-9.159 4.298-9.159 9.395v20.401m32.049-39.767h-4.564l6.081-9.474h7.412zm5.705 21.849c-.963.754-2.482 1.29-9.941 2.243-2.929.366-7.671 1.229-7.671 5.674 0 3.82 2.014 6.101 6.528 6.101 5.626 0 11.084-3.541 11.084-8.235zm-22.047-6.49c.297-8.392 5.954-11.686 14.783-11.686 2.878 0 13.266.813 13.266 9.802v20.18c0 1.488.775 2.065 1.984 2.065.546 0 1.321-.119 2.014-.249v4.298c-1.072.267-1.963.663-3.304.663-5.357 0-6.149-2.677-6.368-5.387-2.314 2.512-5.954 5.735-12.928 5.735-6.548 0-11.211-4.117-11.211-10.14 0-2.936.892-9.784 10.863-10.993l9.921-1.212c1.44-.13 3.157-.673 3.157-4.166 0-3.673-2.73-5.687-8.435-5.687-6.825 0-7.788 4.069-8.184 6.777h-5.557m67.387 24.409h-6.022v-21.61c0-6.073-1.765-9.177-7.668-9.177-3.393 0-9.426 2.151-9.426 11.676v19.111h-6.022v-35.085h5.654v4.961h.15c1.308-1.885 4.663-5.971 10.815-5.971 5.507 0 12.519 2.233 12.519 12.202v23.893m33.517-20.34c-.378-5.418-2.68-10.447-10.002-10.447-5.555 0-9.921 5.029-9.921 10.447zm5.725 9.327c-.201 1.687-1.836 6.647-6.35 9.593-1.659 1.092-3.99 2.41-9.695 2.41-10.071 0-16.022-7.44-16.022-17.561 0-10.874 5.326-19.525 17.163-19.525 10.32 0 15.379 8.036 15.379 20.457h-26.124c0 7.302 3.472 11.539 10.399 11.539 5.674 0 9.027-4.295 9.225-6.914h6.025m29.466-6.905c-.963.754-2.431 1.29-9.891 2.243-2.977.366-7.671 1.229-7.671 5.674 0 3.82 1.963 6.101 6.5 6.101 5.606 0 11.062-3.541 11.062-8.235zm-21.996-6.49c.249-8.392 5.954-11.686 14.755-11.686 2.857 0 13.243.813 13.243 9.802v20.18c0 1.488.775 2.065 2.014 2.065.546 0 1.29-.119 1.986-.249v4.298c-1.044.267-1.915.663-3.304.663-5.309 0-6.152-2.677-6.35-5.387-2.332 2.512-5.954 5.735-12.918 5.735-6.579 0-11.211-4.117-11.211-10.14 0-2.936.892-9.784 10.833-10.993l9.952-1.212c1.44-.13 3.147-.673 3.147-4.166 0-3.673-2.748-5.687-8.405-5.687-6.845 0-7.788 4.069-8.214 6.777h-5.527m58.538-.673c-.079-2.233-.894-5.905-8.514-5.905-1.834 0-7.094.625-7.094 4.963 0 2.875 1.836 3.541 6.479 4.691l6.022 1.488c7.473 1.806 10.051 4.486 10.051 9.248 0 7.241-6.081 11.587-14.117 11.587-14.188 0-15.202-8.016-15.4-12.263h5.804c.198 2.758 1.041 7.173 9.497 7.173 4.295 0 8.214-1.687 8.214-5.555 0-2.827-1.966-3.772-7.125-5.032l-6.944-1.666c-5.011-1.24-8.306-3.691-8.306-8.532 0-7.719 6.52-11.211 13.543-11.211 12.819 0 13.693 9.276 13.693 11.013h-5.804" fill="#fff"/></svg>