<svg xmlns="http://www.w3.org/2000/svg" viewBox="0 0 512 512"><path fill="#00acc8" d="M 256,0 A 256,256 0 0 0 0,256 256,256 0 0 0 256,512 256,256 0 0 0 512,256 256,256 0 0 0 256,0 Z m -2.48828,40.654297 c 149.63101,-6e-6 261.39698,149.500523 201.66992,296.439453 7.87249,-108.31953 -80.26826,-197.50194 -185.70312,-197.50195 -60.15959,0 -93.23243,29.29512 -93.23243,71.45898 0,49.98096 53.80262,73.21016 84.03516,65.10938 20.63726,-5.52975 35.25781,9.68285 35.25781,25.28906 0,26.29441 -29.30358,31.72102 -52.93554,31.20898 C 162.34499,330.91921 96.630859,269.8479 96.630859,188.67188 96.630859,127.48785 140.6413,40.654295 253.51172,40.654297 Z M 57.201172,174.98438 c -7.872493,108.31963 80.268148,197.5 185.703128,197.5 60.15965,0 93.23242,-29.29509 93.23242,-71.45899 0,-49.98101 -53.80259,-73.21017 -84.03516,-65.10937 -20.63728,5.52974 -35.25781,-9.6809 -35.25781,-25.28711 0,-26.29444 29.3055,-31.72103 52.9375,-31.20899 80.25861,1.73899 145.97266,62.80826 145.97266,143.98438 0,61.18409 -44.01229,148.01953 -156.88282,148.01953 -149.63117,0 -261.3970382,-149.50037 -201.669918,-296.43945 z"/></svg>