<svg xmlns="http://www.w3.org/2000/svg" viewBox="0 0 491.215 135.467" fill="#119dd2"><path d="M41.82 57.765c-1.755 1.385-4.643 2.514-11.949 3.642-6.539 1.129-11.949 2.769-11.949 10.062 0 6.168 4.784 8.05 8.179 8.05 7.796 0 15.719-5.035 15.719-13.214zm17.244 19.498c0 7.924 1.768 9.683 3.898 10.437v2.641H43.971c-1.01-3.152-1.265-4.148-1.64-7.923-4.026 4.157-9.691 9.695-21.64 9.695-10.062 0-20.384-5.678-20.384-19.51 0-13.079 8.298-19.75 19.502-21.386l15.856-2.398c2.769-.371 6.156-1.504 6.156-5.283 0-7.424-7.037-7.795-11.574-7.795-8.797 0-10.309 5.41-10.812 9.299H2.449c2.011-20.49 16.23-23.4 29.935-23.4 9.436 0 26.68 2.91 26.68 19.37v36.252m67.307-11.331c-.63 6.927-6.041 26.182-30.565 26.182-25.168 0-30.962-19.255-30.962-33.347 0-21.648 9.448-37.125 32.077-37.125 10.578 0 27.938 4.793 29.578 25.675h-17.871c-.746-4.405-3.515-11.319-11.707-10.829-11.062 0-13.951 11.077-13.951 19.383 0 7.292.248 21.768 13.582 21.768 8.933 0 11.957-8.563 11.957-11.707h17.862m66.677 24.41h-16.857v-9.444h-.248c-4.034 7.187-11.076 11.216-20.383 11.216-13.214 0-22.778-7.565-22.778-24.665v-44.04h17.616v41.514c0 10.322 6.036 12.341 11.458 12.341 5.781 0 13.589-3.267 13.589-15.238V23.408h17.603V90.34m47.434-32.575c-1.768 1.385-4.652 2.514-11.958 3.642-6.539 1.129-11.949 2.769-11.949 10.062 0 6.168 4.78 8.05 8.179 8.05 7.796 0 15.728-5.035 15.728-13.214zm17.245 19.498c0 7.924 1.746 9.683 3.885 10.437v2.641h-18.986c-1.014-3.152-1.256-4.148-1.64-7.923-4.025 4.157-9.692 9.695-21.641 9.695-10.066 0-20.383-5.678-20.383-19.51 0-13.079 8.307-19.75 19.498-21.386l15.86-2.398c2.769-.371 6.164-1.504 6.164-5.283 0-7.424-7.05-7.795-11.574-7.795-8.809 0-10.322 5.41-10.82 9.299h-16.989c2.014-20.49 16.231-23.4 29.947-23.4 9.435 0 26.68 2.91 26.68 19.37v36.252m97.743 13.079h-17.606V14.855h-.255L320.74 90.34h-18.488l-16.474-75.485h-.255V90.34h-17.614V0h27.548l16.358 71.214h.256L328.164 0h27.306v90.341m50.831-40.137c-1.01-10.82-7.933-14.092-13.589-14.092-8.307 0-12.704 5.295-13.717 14.092zm17.359 20.511c-4.652 16.103-17.998 21.398-29.436 21.398-18.872 0-33.343-9.065-33.343-36.618 0-8.059 2.769-33.854 32.086-33.854 13.206 0 31.451 6.292 31.451 36.87v3.144h-45.935c.511 5.035 1.525 16.366 15.741 16.366 4.899 0 9.938-2.521 11.322-7.306h18.114m35.102 6.923c11.196 0 15.605-9.321 15.605-19.255 0-10.693-3.025-21.513-15.102-21.513-11.194 0-14.964 9.934-14.964 20.512 0 7.923 3.143 20.256 14.462 20.256m32.452 12.703h-17.223v-8.434h-.264c-4.273 7.565-12.077 10.206-19.362 10.206-19.885 0-28.2-17.619-28.2-35.997 0-23.144 13.099-34.462 27.818-34.462 11.318 0 16.613 6.164 19.369 10.437h.256V0h17.606v90.341M7.284 121.302h5.368l-2.611-8.179h-.064zm-2.641 7.83H0l7.519-20.687h5.078l7.425 20.687h-4.784l-1.35-4.273H6.1l-1.457 4.273m23.963-1.76c1.64 0 4.196-1.064 4.196-5.069 0-2.441-.417-6.39-4.145-6.39-3.992 0-4.205 3.719-4.205 5.635 0 3.311 1.329 5.824 4.153 5.824m6.654.525c0 2.147-.03 7.569-7.135 7.569-1.819 0-5.368-.49-5.866-4.494h2.577c.477 2.386 2.854 2.386 3.459 2.386 4.473 0 4.388-3.502 4.388-5.291v-.639h-.064v.128c-.669 1.065-2.032 2.002-4.09 2.002-5.218 0-6.739-4.805-6.739-8.405 0-4.23 2.309-7.518 6.398-7.518 2.782 0 3.962 1.703 4.579 2.564h.055v-2.13h2.437v13.828m13.591 1.235v-2.199l-.051-.051c-1.086 1.768-2.407 2.684-4.878 2.684-2.258 0-4.997-1.073-4.997-4.677v-10.82h2.59v9.994c0 2.48 1.299 3.31 2.969 3.31 3.259 0 4.23-2.811 4.23-5.006v-8.298h2.577v15.064h-2.441m15.69-7.694c-.418.324-1.057.554-4.26.963-1.257.157-3.293.528-3.293 2.436 0 1.64.865 2.619 2.79 2.619 2.407 0 4.763-1.52 4.763-3.536zm-9.457-2.786c.115-3.603 2.556-5.018 6.348-5.018 1.223 0 5.686.349 5.686 4.208v8.664c0 .639.328.887.86.887.234 0 .554-.051.844-.107v1.845c-.438.115-.822.285-1.406.285-2.292 0-2.641-1.149-2.726-2.313-1.014 1.079-2.556 2.462-5.551 2.462-2.82 0-4.822-1.768-4.822-4.353 0-1.261.383-4.201 4.665-4.72l4.269-.52c.609-.056 1.341-.289 1.341-1.788 0-1.577-1.171-2.442-3.609-2.442-2.939 0-3.344 1.747-3.514 2.91H55.08m25.135-.29c-.034-.959-.383-2.536-3.642-2.536-.787 0-3.046.268-3.046 2.131 0 1.234.788 1.52 2.778 2.014l2.59.639c3.204.775 4.311 1.926 4.311 3.971 0 3.109-2.606 4.975-6.079 4.975-6.083 0-6.509-3.442-6.603-5.265h2.501c.077 1.184.439 3.08 4.082 3.08 1.84 0 3.514-.724 3.514-2.385 0-1.214-.843-1.619-3.058-2.16l-2.983-.715c-2.151-.532-3.557-1.585-3.557-3.663 0-3.314 2.791-4.814 5.815-4.814 5.496 0 5.87 3.983 5.87 4.729h-2.492m20.05 9.008c1.64 0 4.196-1.064 4.196-5.069 0-2.449-.406-6.39-4.133-6.39-3.991 0-4.204 3.706-4.204 5.635 0 3.311 1.321 5.824 4.141 5.824m6.816 1.76h-2.437v-2.08h-.063c-1.108 2.053-2.876 2.514-4.38 2.514-5.218 0-6.752-4.814-6.752-8.414 0-4.239 2.322-7.518 6.403-7.518 2.791 0 3.971 1.703 4.579 2.564l.064-.2v-7.553h2.586v20.687m14.156-8.733c-.161-2.326-1.149-4.485-4.293-4.485-2.386 0-4.26 2.159-4.26 4.485zm2.458 4.004c-.085.724-.787 2.854-2.726 4.119-.702.469-1.703 1.035-4.175 1.035-4.311 0-6.867-3.194-6.867-7.54 0-4.669 2.288-8.383 7.37-8.383 4.431 0 6.603 3.45 6.603 8.783h-11.216c0 3.135 1.503 4.954 4.472 4.954 2.429 0 3.868-1.844 3.962-2.968h2.577m11.502 4.729h2.59v-20.687h-2.59v20.687m15.839-7.693c-.418.324-1.065.554-4.261.963-1.269.157-3.292.528-3.292 2.436 0 1.64.852 2.619 2.79 2.619 2.407 0 4.764-1.52 4.764-3.536zm-9.457-2.786c.115-3.603 2.555-5.018 6.347-5.018 1.223 0 5.687.349 5.687 4.208v8.664c0 .639.328.887.86.887.234 0 .554-.051.843-.107v1.845c-.438.115-.822.285-1.406.285-2.291 0-2.641-1.149-2.726-2.313-1.013 1.079-2.555 2.462-5.551 2.462-2.82 0-4.821-1.768-4.821-4.353 0-1.261.383-4.201 4.664-4.72l4.26-.52c.618-.056 1.35-.289 1.35-1.788 0-1.577-1.171-2.442-3.608-2.442-2.939 0-3.345 1.747-3.515 2.91h-2.385m25.134-.29c-.035-.959-.384-2.536-3.642-2.536-.788 0-3.046.268-3.046 2.131 0 1.234.787 1.52 2.778 2.014l2.59.639c3.203.775 4.311 1.926 4.311 3.971 0 3.109-2.607 4.975-6.079 4.975-6.084 0-6.509-3.442-6.603-5.265h2.501c.076 1.184.438 3.08 4.081 3.08 1.84 0 3.515-.724 3.515-2.385 0-1.214-.844-1.619-3.046-2.16l-2.995-.715c-2.152-.532-3.557-1.585-3.557-3.663 0-3.314 2.79-4.814 5.815-4.814 5.495 0 5.87 3.983 5.87 4.729h-2.492m27.889-3.145c-.35-1.236-1.023-3.566-4.665-3.566-2.117 0-5.227 1.376-5.227 7.221 0 3.715 1.492 7.063 5.227 7.063 2.442 0 4.145-1.354 4.665-3.889h4.409c-.882 4.494-3.877 7.625-9.159 7.625-5.61 0-9.636-3.719-9.636-10.851 0-7.232 4.261-10.917 9.692-10.917 6.313 0 8.869 4.26 9.104 7.314h-4.409m17.435 13.913v-2.199l-.056-.051c-1.086 1.768-2.407 2.684-4.877 2.684-2.259 0-4.985-1.073-4.985-4.677v-10.82h2.59v9.994c0 2.48 1.278 3.31 2.961 3.31 3.247 0 4.217-2.811 4.217-5.006v-8.298h2.586v15.064h-2.436m16.89-8.734c-.148-2.326-1.149-4.485-4.293-4.485-2.386 0-4.26 2.159-4.26 4.485zm2.458 4.004c-.085.724-.787 2.854-2.726 4.119-.711.469-1.703 1.035-4.162 1.035-4.324 0-6.88-3.194-6.88-7.54 0-4.669 2.288-8.383 7.37-8.383 4.431 0 6.603 3.45 6.603 8.783h-11.216c0 3.135 1.491 4.954 4.464 4.954 2.437 0 3.877-1.844 3.971-2.968h2.577m15.796 4.729h-2.578v-9.278c0-2.607-.767-3.94-3.292-3.94-1.457 0-4.047.924-4.047 5.013v8.205h-2.586v-15.064h2.436v2.13h.056c.563-.809 2.002-2.564 4.644-2.564 2.373 0 5.368.959 5.368 5.239v10.259m13.426-9.993c-.328-2.02-1.47-3.238-3.642-3.238-3.203 0-4.238 3.008-4.238 5.678 0 2.586.651 5.793 4.208 5.793 1.725 0 3.216-1.265 3.672-3.578h2.492c-.255 2.398-1.768 5.772-6.262 5.772-4.302 0-6.858-3.203-6.858-7.54 0-4.677 2.292-8.392 7.361-8.392 4.025 0 5.56 2.888 5.759 5.504h-2.492m14.441 2.301c-.413.324-1.052.554-4.26.963-1.256.157-3.289.528-3.289 2.436 0 1.64.853 2.619 2.799 2.619 2.398 0 4.749-1.52 4.749-3.536zm-9.457-2.786c.12-3.603 2.556-5.018 6.348-5.018 1.236 0 5.699.349 5.699 4.208v8.664c0 .639.308.887.853.887.233 0 .541-.051.839-.107v1.845c-.434.115-.818.285-1.406.285-2.288 0-2.641-1.149-2.726-2.313-1.01 1.079-2.556 2.462-5.547 2.462-2.825 0-4.827-1.768-4.827-4.353 0-1.261.384-4.201 4.677-4.72l4.248-.52c.63-.056 1.354-.289 1.354-1.788 0-1.577-1.171-2.442-3.612-2.442-2.94 0-3.345 1.747-3.524 2.91h-2.377m25.134-.29c-.029-.959-.383-2.536-3.642-2.536-.796 0-3.046.268-3.046 2.131 0 1.234.788 1.52 2.782 2.014l2.586.639c3.195.775 4.315 1.926 4.315 3.971 0 3.109-2.611 4.975-6.07 4.975-6.092 0-6.53-3.442-6.615-5.265h2.504c.086 1.184.435 3.08 4.078 3.08 1.853 0 3.514-.724 3.514-2.385 0-1.214-.839-1.619-3.046-2.16l-2.99-.715c-2.151-.532-3.556-1.585-3.556-3.663 0-3.314 2.79-4.814 5.815-4.814 5.495 0 5.878 3.983 5.878 4.729h-2.505m34.687 10.768h-4.103v-17.279h-.063l-3.941 17.279h-4.311l-3.846-17.279h-.064v17.279h-4.098v-20.687h6.42l3.813 16.307h.056l3.77-16.307h6.369v20.687m14.469-8.733c-.148-2.326-1.149-4.485-4.302-4.485-2.373 0-4.247 2.159-4.247 4.485zm2.462 4.004c-.098.724-.787 2.854-2.726 4.119-.715.469-1.703 1.035-4.175 1.035-4.324 0-6.879-3.194-6.879-7.54 0-4.669 2.3-8.383 7.378-8.383 4.431 0 6.603 3.45 6.603 8.783h-11.212c0 3.135 1.5 4.954 4.459 4.954 2.45 0 3.877-1.844 3.975-2.968h2.577m9.223 2.969c1.64 0 4.196-1.064 4.196-5.069 0-2.449-.418-6.39-4.145-6.39-3.991 0-4.204 3.706-4.204 5.635 0 3.311 1.328 5.824 4.153 5.824m6.804 1.76h-2.437v-2.08h-.063c-1.108 2.053-2.867 2.514-4.367 2.514-5.231 0-6.753-4.814-6.753-8.414 0-4.239 2.309-7.518 6.398-7.518 2.791 0 3.962 1.703 4.58 2.564l.063-.2v-7.553h2.578v20.687m3.642 0h2.59V114.06h-2.59zm0-17.799h2.59v-2.888h-2.59v2.888m9.629 4.836v9.785c0 1.192 1.035 1.192 1.554 1.192h.916v1.986l-1.938.186c-2.543 0-3.11-1.393-3.11-3.203v-9.947h-2.096v-2.1h2.096v-4.204h2.578v4.204h2.47v2.1h-2.47m15.569 4.231c-.149-2.326-1.15-4.485-4.29-4.485-2.376 0-4.26 2.159-4.26 4.485zm2.47 4.004c-.093.724-.796 2.854-2.734 4.119-.717.469-1.705 1.035-4.175 1.035-4.315 0-6.86-3.194-6.86-7.54 0-4.669 2.279-8.383 7.358-8.383 4.43 0 6.602 3.45 6.602 8.783h-11.212c0 3.135 1.5 4.954 4.473 4.954 2.436 0 3.876-1.844 3.961-2.968h2.586m6.222 4.729h-2.586v-15.064h2.436v2.505h.056c1.022-1.755 2.385-2.939 4.324-2.939a2.28 2.28 0 0 1 .669.085v2.619h-.967c-2.407 0-3.931 1.845-3.931 4.034v8.759m9.775.001h-2.586v-15.064h2.437v2.505h.056c1.031-1.755 2.372-2.939 4.311-2.939.332 0 .481.034.682.085v2.619h-.967c-2.407 0-3.933 1.845-3.933 4.034v8.759m13.76-17.073h-1.96l2.611-4.068h3.182zm2.449 9.381c-.413.324-1.065.554-4.268.963-1.257.157-3.293.528-3.293 2.436 0 1.64.865 2.619 2.803 2.619 2.416 0 4.759-1.52 4.759-3.536zm-9.466-2.786c.128-3.603 2.556-5.018 6.347-5.018 1.236 0 5.696.349 5.696 4.208v8.664c0 .639.333.887.852.887.234 0 .567-.051.865-.107v1.845c-.46.115-.843.285-1.419.285-2.3 0-2.64-1.149-2.734-2.313-.993 1.079-2.556 2.462-5.551 2.462-2.811 0-4.814-1.768-4.814-4.353 0-1.261.383-4.201 4.664-4.72l4.26-.52c.618-.056 1.356-.289 1.356-1.788 0-1.577-1.172-2.442-3.622-2.442-2.93 0-3.344 1.747-3.514 2.91h-2.386m28.934 10.479h-2.586v-9.278c0-2.607-.758-3.94-3.292-3.94-1.457 0-4.047.924-4.047 5.013v8.205h-2.586v-15.064h2.428v2.13h.064c.562-.809 2.002-2.564 4.644-2.564 2.364 0 5.375.959 5.375 5.239v10.259m14.391-8.733c-.163-2.326-1.151-4.485-4.295-4.485-2.385 0-4.26 2.159-4.26 4.485zm2.458 4.004c-.086.724-.788 2.854-2.726 4.119-.712.469-1.713 1.035-4.163 1.035-4.324 0-6.879-3.194-6.879-7.54 0-4.669 2.287-8.383 7.369-8.383 4.431 0 6.603 3.45 6.603 8.783h-11.216c0 3.135 1.491 4.954 4.465 4.954 2.436 0 3.876-1.844 3.961-2.968h2.587m12.65-2.964c-.413.324-1.044.554-4.247.963-1.278.157-3.293.528-3.293 2.436 0 1.64.843 2.619 2.791 2.619 2.407 0 4.749-1.52 4.749-3.536zm-9.444-2.786c.107-3.603 2.556-5.018 6.335-5.018 1.227 0 5.686.349 5.686 4.208v8.664c0 .639.333.887.865.887.234 0 .554-.051.853-.107v1.845c-.448.115-.822.285-1.419.285-2.279 0-2.641-1.149-2.726-2.313-1.001 1.079-2.556 2.462-5.547 2.462-2.825 0-4.814-1.768-4.814-4.353 0-1.261.383-4.201 4.651-4.72l4.273-.52c.618-.056 1.351-.289 1.351-1.788 0-1.577-1.18-2.442-3.609-2.442-2.939 0-3.344 1.747-3.527 2.91h-2.373m25.135-.29c-.034-.959-.384-2.536-3.655-2.536-.787 0-3.046.268-3.046 2.131 0 1.234.788 1.52 2.782 2.014l2.586.639c3.208.775 4.315 1.926 4.315 3.971 0 3.109-2.611 4.975-6.061 4.975-6.092 0-6.527-3.442-6.612-5.265h2.492c.085 1.184.447 3.08 4.078 3.08 1.844 0 3.527-.724 3.527-2.385 0-1.214-.844-1.619-3.059-2.16l-2.982-.715c-2.152-.532-3.566-1.585-3.566-3.663 0-3.314 2.799-4.814 5.815-4.814 5.504 0 5.879 3.983 5.879 4.729h-2.492"/></svg>