<svg xmlns="http://www.w3.org/2000/svg" viewBox="0 0 356.48 237.76"><defs class="svg-src"><linearGradient x1="0" y1="0" x2="1" y2="0" gradientUnits="userSpaceOnUse" gradientTransform="matrix(9.426033,-10.108183,-10.108183,-9.426033,381.97266,277.32275)" spreadMethod="pad" id="etiquetas-adhegrafic-adhegrafic-a"><stop offset="0" stop-color="#e8b0a9"/><stop offset="1" stop-color="#b83039"/></linearGradient><clipPath id="etiquetas-adhegrafic-adhegrafic-d"><path d="M313.177 339.244l.278-.177c.084-.054.198-.044.27.031h0c.082.084.081.22-.004.303h0l-.005.005-.004.003-.234.228h0z"/></clipPath><clipPath id="etiquetas-adhegrafic-adhegrafic-f"><path d="M289.268 340.878l-.034-.019-.007-.005-.277-.147h0l1.223-1.882.272.206a1.1 1.1 0 0 1 .309 1.391h0c-.197.372-.578.583-.971.583h0a1.11 1.11 0 0 1-.515-.127"/></clipPath><path id="etiquetas-adhegrafic-adhegrafic-j" d="M333.168 296.476l1.782 2.122 2.675-1.337a6.72 6.72 0 0 1 7.781-5.448l.785-4.456c-6.114-1.078-11.944 3.005-13.023 9.119"/></defs><g transform="matrix(1.333333 0 0 -1.333333 -201.285411 557.179752)"><g><g fill="#a80f25"><path d="M179.126 248.666c-13.356 0-24.224 10.868-24.226 24.224l-.006 116.712c.001 13.357 10.869 24.226 24.227 24.228l205.899-.018c13.356 0 24.224-10.869 24.225-24.228l.003-103.15-36.269-37.787z"/></g><g fill="#a80f25"><path d="M179.126 249.647c-12.836-.001-23.243 10.406-23.244 23.242l-.007 116.712c0 12.845 10.407 23.246 23.246 23.248l205.898-.017c12.836 0 23.246-10.408 23.246-23.248l.003-102.755-35.707-37.202z"/><path d="M234.734 362.422c0 22.218 18.011 40.229 40.229 40.229s40.229-18.011 40.229-40.229-18.011-40.229-40.229-40.229-40.229 18.011-40.229 40.229" fill-rule="evenodd"/></g><path d="M234.734 362.422c0 22.218 18.011 40.229 40.229 40.229s40.229-18.011 40.229-40.229-18.011-40.229-40.229-40.229-40.229 18.011-40.229 40.229z" fill="none" stroke="#fff" stroke-width="1.08" stroke-miterlimit="10"/><g fill="#a80f25" fill-rule="evenodd"><path d="M289.925 355.988l5.401 6.435 8.11-4.053c1.953-11.075 12.514-18.471 23.591-16.518l2.381-13.51c-18.538-3.268-36.212 9.11-39.483 27.646"/><path d="M295.326 367.281h13.719c0-11.246 9.117-20.363 20.363-20.363v-13.719c-18.824 0-34.082 15.259-34.082 34.082"/></g><path d="M337.09 329.665c-11.79 4.028-28.045 18.334-28.045 32.758 0 18.823-15.26 34.082-34.082 34.082s-34.081-15.259-34.081-34.082 15.258-34.081 34.081-34.081c9.364 0 17.845 3.778 24.004 9.891a33.88 33.88 0 0 0-7.567 12.204c-3.704-5.07-9.677-8.377-16.437-8.377-11.248 0-20.363 9.117-20.363 20.363s9.115 20.363 20.363 20.363 20.363-9.116 20.363-20.363c0-18.822 15.258-34.081 34.082-34.081l7.443.111c.351.004.632.284.632.63a.63.63 0 0 1-.393.582" fill="#fff" fill-rule="evenodd"/></g><g clip-path="url(#etiquetas-adhegrafic-adhegrafic-d)" fill="#01abec"><path d="M314.18 338.602l.037.051s6.879-5.165-.697.499l-.064-.086c7.576-5.664.725-.464.725-.464z"/><path d="M314.217 338.653l.038.051s6.905-5.13-.671.533l-.065-.085.697-.499z"/><path d="M314.255 338.704l.038.051s6.931-5.095-.646.568l-.063-.086.671-.533z"/><path d="M314.293 338.755l.037.05s6.958-5.06-.618.604l-.065-.086c7.576-5.663.646-.568.646-.568zm-.838.311l.064.086-.802.572-.099-.123.836-.535z"/><path d="M313.519 339.152l.065.085-.768.609-.099-.122.802-.572z"/><path d="M313.584 339.237l.063.086-.733.646-.098-.123.768-.609z"/><path d="M313.647 339.323l.065.086-.699.684-.099-.123.733-.646z"/></g><g><g fill="#01abec"><path d="M313.455 339.066l.065.086-.802.572-.099-.123.836-.535z"/><path d="M313.519 339.152l.064.085-.768.609-.099-.122.802-.572z"/><path d="M313.584 339.237l.063.086-.733.646-.098-.123.768-.609z"/><path d="M313.647 339.323l.065.086-.699.684-.099-.123.733-.646zm-1.028.278l.099.123c-1.479 1.088-2.893 2.292-4.14 3.663l-.305-.261c1.314-1.347 2.809-2.497 4.346-3.525z"/><path d="M312.717 339.724l.099.122c-1.419 1.147-2.755 2.406-3.934 3.802l-.305-.261c1.247-1.371 2.661-2.575 4.14-3.663z"/><path d="M312.816 339.846l.098.123a29.96 29.96 0 0 0-3.727 3.939l-.305-.261c1.179-1.396 2.515-2.654 3.934-3.802z"/><path d="M312.914 339.969l.099.123c-1.3 1.266-2.477 2.632-3.52 4.078l-.306-.262a29.96 29.96 0 0 1 3.727-3.939zm-4.641 3.157l.305.261-1.386 1.612-.39-.287 1.471-1.586z"/></g><path d="M306.802 344.712l.39.287-1.271 1.712-.478-.304 1.359-1.695z" fill="#06abeb"/><path d="M308.578 343.387l.305.261-1.302 1.64-.389-.288 1.386-1.612z" fill="#01abec"/><path d="M307.192 345l.389.288-1.182 1.728-.479-.304 1.271-1.712z" fill="#06abeb"/><path d="M308.882 343.648l.305.261-1.218 1.666-.389-.287 1.302-1.64z" fill="#01abec"/><path d="M307.581 345.288l.389.287-1.092 1.744-.479-.304 1.182-1.728z" fill="#06abeb"/><path d="M309.187 343.909l.306.262-1.134 1.692-.39-.288 1.218-1.666z" fill="#01abec"/><path d="M307.969 345.575l.39.288-1.003 1.76-.479-.304 1.092-1.744z" fill="#06abeb"/><path d="M305.443 346.408l.478.304c-1.038 1.483-1.913 3.085-2.644 4.751-.003-.012-.233-.105-.694-.279.805-1.687 1.744-3.3 2.86-4.775z" fill="#11a9e8"/><path d="M302.583 351.183l.694.279c-.729 1.667-1.347 3.397-1.734 5.189l-.899-.182c.443-1.839 1.143-3.601 1.939-5.287z" fill="#25a4e2"/><path d="M305.921 346.711l.479.304c-.962 1.491-1.771 3.08-2.429 4.728l-.693-.28c.73-1.666 1.605-3.268 2.644-4.751z" fill="#11a9e8"/><path d="M303.277 351.462l.693.28c-.66 1.646-1.196 3.346-1.529 5.09l-.898-.181c.388-1.792 1.006-3.522 1.734-5.189z" fill="#25a4e2"/><path d="M306.399 347.015l.479.304c-.886 1.499-1.627 3.076-2.218 4.702l-.689-.278c.657-1.647 1.467-3.236 2.429-4.728z" fill="#11a9e8"/><path d="M303.97 351.743l.689.278c-.591 1.626-1.032 3.3-1.319 4.992l-.899-.181c.333-1.744.869-3.444 1.529-5.09z" fill="#25a4e2"/><path d="M306.878 347.319l.479.304c-1.63 3.008-2.669 6.277-3.116 9.572l-.899-.182a28.47 28.47 0 0 1 3.537-9.694z" fill="#11a9e8"/><g fill="#3a9edc"><path d="M300.643 356.47l.899.182c-.425 1.882-.673 3.81-.734 5.75 0 0-.355 0-1.066-.001a31.5 31.5 0 0 1 .901-5.931z"/><path d="M301.543 356.652l.898.181a29.71 29.71 0 0 0-.567 5.57c-.355 0-.711-.001-1.065-.001a30.52 30.52 0 0 1 .734-5.75z"/><path d="M302.441 356.833l.899.181c-.303 1.784-.437 3.591-.4 5.391l-1.066-.001a29.71 29.71 0 0 1 .567-5.57z"/><path d="M303.34 357.013l.899.182a27.65 27.65 0 0 0-.233 5.209h-1.066a28.71 28.71 0 0 1 .4-5.391z"/></g><g fill="#4e96d6"><path d="M299.742 362.401l1.066.001-.002.021h-1.066l.002-.022z"/><path d="M300.808 362.402l1.065.001-1.067.019.002-.021z"/><path d="M301.874 362.403l1.066.001-1.066.019z"/><path d="M302.94 362.404h1.066l-1.066.019zm-3.2.018h1.066l-.188 2.402a80.09 80.09 0 0 1-1.128-.104l.25-2.298z"/></g><path d="M299.49 364.72l1.128.104c-.092.796-.277 1.578-.401 2.367l-1.177-.221.45-2.251z" fill="#5692d2"/><path d="M300.806 362.422h1.067l-.127 2.507-1.129-.104.188-2.402z" fill="#4e96d6"/><path d="M300.618 364.825l1.129.104c-.075.832-.239 1.654-.354 2.482l-1.176-.22.401-2.367z" fill="#5692d2"/><path d="M301.874 362.422h1.066l-.065 2.61-1.128-.104.127-2.507z" fill="#4e96d6"/><path d="M301.747 364.929l1.128.104c-.058.869-.2 1.732-.306 2.6l-1.177-.221.354-2.482z" fill="#5692d2"/><path d="M302.94 362.422h1.066l-.004 2.715-1.128-.104.065-2.61z" fill="#4e96d6"/><path d="M302.875 365.033a79.16 79.16 0 0 1 1.128.104c-.039.905-.16 1.809-.258 2.715l-1.176-.22.306-2.6z" fill="#5792d2"/><g fill="#5f8dcf"><path d="M299.04 366.971l1.177.221a25.67 25.67 0 0 1-3.952 9.257l-1.177-.772c1.861-2.582 3.221-5.554 3.952-8.705z"/><path d="M300.216 367.192l1.176.22c-.651 3.488-2.005 6.842-3.951 9.81l-1.177-.772a25.67 25.67 0 0 0 3.952-9.257z"/><path d="M301.392 367.412l1.177.221c-.611 3.656-1.962 7.201-3.95 10.36l-1.178-.771c1.946-2.968 3.3-6.321 3.951-9.81z"/><path d="M302.569 367.632l1.176.22a29.54 29.54 0 0 1-3.949 10.913l-1.177-.772c1.988-3.159 3.339-6.704 3.95-10.36z"/></g><g fill="#8278c2"><path d="M295.088 375.676l1.177.772c-1.907 2.77-4.314 5.192-7.107 7.039l-.883-1.29c2.657-1.689 4.94-3.951 6.813-6.521z"/><path d="M296.264 376.449l1.177.772c-1.942 2.969-4.473 5.553-7.402 7.558l-.882-1.291c2.793-1.847 5.2-4.27 7.107-7.039z"/><path d="M297.441 377.221l1.178.771c-1.979 3.169-4.632 5.914-7.698 8.076l-.882-1.29c2.93-2.005 5.46-4.589 7.402-7.558z"/><path d="M298.619 377.993l1.177.772c-2.014 3.368-4.791 6.274-7.993 8.595l-.882-1.291c3.066-2.162 5.72-4.907 7.698-8.076z"/></g><g fill="#a35eb4"><path d="M288.274 382.198l.883 1.29c-2.785 1.859-5.933 3.135-9.194 3.786l-.342-1.651c3.045-.588 6.012-1.715 8.653-3.425z"/><path d="M289.157 383.488l.882 1.291c-2.928 2.007-6.256 3.431-9.733 4.146l-.343-1.651c3.262-.651 6.409-1.927 9.194-3.786z"/><path d="M290.039 384.779l.882 1.29c-3.07 2.156-6.578 3.729-10.273 4.509l-.342-1.652c3.478-.716 6.806-2.14 9.733-4.146z"/><path d="M290.921 386.069l.882 1.291c-3.213 2.304-6.901 4.024-10.812 4.869l-.343-1.651c3.695-.78 7.203-2.353 10.273-4.509z"/></g><path d="M279.621 385.623l.342 1.651-2.559.375c-.001-.003-.059-.569-.174-1.699l2.391-.327z" fill="#c13da4"/><path d="M277.23 385.95l.174 1.699-2.584.11-.001-1.73 2.411-.079z" fill="#c934a0"/><path d="M279.963 387.274l.343 1.651-2.728.423-.174-1.699 2.559-.375z" fill="#c13da4"/><path d="M277.404 387.649l.174 1.699-2.757.141-.001-1.729 2.584-.11z" fill="#c934a0"/><path d="M280.305 388.925l.342 1.652-2.896.471-.174-1.7 2.728-.423z" fill="#c13da4"/><path d="M277.578 389.348l.174 1.7-2.93.171-.001-1.73 2.757-.141z" fill="#c934a0"/><path d="M280.647 390.578l.343 1.651-3.064.519-.174-1.699 2.896-.471z" fill="#c13da4"/><path d="M277.752 391.048c0 .003.059.569.174 1.699l-3.103.201-.001-1.729 2.93-.171z" fill="#c934a0"/><g fill="#cf2a9c"><path d="M274.819 386.029l.001 1.73c-.019 0-.019-.576-.019-1.729z"/><path d="M274.82 387.759l.001 1.729-.019-1.73z"/><path d="M274.821 389.489l.001 1.73-.022.001.001-1.73z"/><path d="M274.822 391.219l.001 1.729c-.008.001-.015.001-.022.001v-1.729c.007-.001.015-.001.022-.001zm-.021-5.189v1.729l-2.387-.134c-.001-.003.054-.581.163-1.734l2.224.139z"/></g><path d="M272.578 385.891l-.163 1.734-2.361-.353.329-1.723 2.195.341z" fill="#d62198"/><path d="M274.801 387.759v1.73l-2.551-.129.164-1.735 2.387.134z" fill="#cf2a9c"/><path d="M272.415 387.626l-.164 1.735-2.525-.365.328-1.723 2.361.353z" fill="#d62198"/><path d="M274.801 389.49l-.001 1.73-2.713-.125.163-1.734 2.551.129z" fill="#cf2a9c"/><path d="M272.251 389.361l-.163 1.734-2.691-.378.329-1.722 2.525.365z" fill="#d62198"/><path d="M274.8 391.22v1.729l-2.876-.12.163-1.734 2.713.125z" fill="#cf2a9c"/><path d="M272.088 391.095c.001.003-.054.581-.163 1.734l-2.856-.39.328-1.723 2.691.378z" fill="#d62198"/><path d="M270.383 385.55l-.329 1.723c-.889-.161-1.751-.443-2.629-.654.001-.004.173-.567.517-1.688l2.441.62z" fill="#dd1894"/><path d="M267.941 384.93l-.517 1.688-2.543-.936.698-1.63 2.361.877z" fill="#e5098e"/><path d="M270.053 387.273l-.328 1.723c-.951-.169-1.877-.463-2.817-.687l.517-1.689 2.629.654z" fill="#dd1894"/><path d="M267.424 386.619l-.517 1.689-2.725-.995.698-1.63 2.543.936z" fill="#e5098e"/><path d="M269.725 388.996l-.329 1.722c-1.014-.176-2.003-.481-3.004-.721l.516-1.688 2.817.688z" fill="#dd1894"/><path d="M266.908 388.308l-.516 1.688-2.906-1.054.697-1.63 2.725.995z" fill="#e5098e"/><path d="M269.396 390.717l-.328 1.723c-1.077-.184-2.129-.5-3.192-.754l.517-1.689 3.004.721z" fill="#dd1894"/><path d="M266.392 389.997c-.001.004-.174.567-.517 1.689l-3.088-1.113.698-1.63 2.906 1.054z" fill="#e5098e"/><g fill="#ea018b"><path d="M265.58 384.053l-.698 1.63-2.038-.982.841-1.56 1.896.912z"/><path d="M263.684 383.141l-.841 1.56-1.938-1.168.977-1.478 1.803 1.086z"/><path d="M264.882 385.683l-.698 1.63-2.181-1.053.841-1.56 2.038.982z"/><path d="M262.843 384.701l-.841 1.56-2.074-1.25.977-1.478 1.938 1.168z"/><path d="M264.183 387.313l-.697 1.63-2.325-1.122.842-1.561 2.181 1.053z"/><path d="M262.003 386.26l-.842 1.561-2.209-1.333.977-1.478 2.074 1.25z"/><path d="M263.486 388.943l-.698 1.63-2.468-1.192.841-1.56 2.325 1.122z"/><path d="M261.161 387.821l-.841 1.56-2.345-1.415.977-1.478 2.209 1.333zm.721-5.766l-.977 1.478c-.533-.333-1.015-.743-1.525-1.109l1.083-1.4 1.419 1.032z"/><path d="M260.905 383.533l-.977 1.478c-.569-.357-1.086-.793-1.632-1.187l1.083-1.4 1.525 1.109z"/><path d="M259.928 385.01l-.977 1.478c-.605-.382-1.157-.844-1.737-1.264l1.082-1.4 1.632 1.187z"/><path d="M258.952 386.488l-.977 1.478c-.643-.406-1.229-.894-1.844-1.341l1.083-1.4 1.737 1.264zm1.511-5.465l-1.083 1.4-1.542-1.296s.428-.419 1.189-1.31l1.436 1.205z"/></g><path d="M259.027 379.818l-1.189 1.31-1.441-1.409 1.289-1.211 1.342 1.311z" fill="#ea048b"/><path d="M257.685 378.507l-1.289 1.211a26.14 26.14 0 0 1-2.54-3.129l1.462-.991c.713 1.029 1.506 2.002 2.367 2.909z" fill="#eb0c8b"/><path d="M259.38 382.423l-1.083 1.4-1.648-1.387 1.189-1.31 1.542 1.296z" fill="#ea018b"/><path d="M257.838 381.127l-1.189 1.31-1.54-1.508 1.288-1.211 1.441 1.409z" fill="#ea048b"/><path d="M256.396 379.718l-1.288 1.211c-.988-1.043-1.897-2.162-2.714-3.348l1.462-.992a26.14 26.14 0 0 0 2.54 3.129z" fill="#eb0c8b"/><path d="M258.297 383.824l-1.082 1.4-1.756-1.478 1.189-1.31 1.648 1.387z" fill="#ea018b"/><path d="M256.648 382.437l-1.189 1.31-1.639-1.605 1.288-1.212 1.54 1.508z" fill="#ea048b"/><path d="M255.108 380.929l-1.288 1.212c-1.052-1.112-2.019-2.305-2.888-3.567l1.462-.992c.816 1.186 1.726 2.305 2.714 3.348z" fill="#eb0c8b"/><path d="M257.215 385.224l-1.083 1.4-1.862-1.567 1.189-1.311 1.756 1.478z" fill="#ea018b"/><path d="M255.459 383.747s-.429.419-1.189 1.311l-1.738-1.705 1.289-1.211 1.639 1.605z" fill="#ea048b"/><path d="M253.82 382.141l-1.289 1.211a31.42 31.42 0 0 1-3.061-3.786l1.462-.992c.869 1.263 1.836 2.455 2.888 3.567z" fill="#eb0c8b"/><g fill="#ec1f8a"><path d="M255.318 375.598l-1.462.991c-1.863-2.746-3.195-5.851-3.884-9.102l1.689-.344c.667 3.022 1.93 5.895 3.656 8.454z"/><path d="M253.856 376.589l-1.462.992c-2-2.934-3.401-6.271-4.11-9.75l1.688-.344c.688 3.251 2.021 6.355 3.884 9.102z"/><path d="M252.394 377.582l-1.462.992c-2.136-3.122-3.607-6.691-4.338-10.397l1.689-.345c.709 3.479 2.11 6.816 4.11 9.75z"/><path d="M250.932 378.574l-1.462.992c-2.272-3.31-3.813-7.112-4.565-11.046l1.689-.344c.73 3.706 2.202 7.275 4.338 10.397z"/></g><path d="M251.662 367.144l-1.689.344-.398-2.512c.003.001.569-.056 1.698-.17l.39 2.338z" fill="#ee4485"/><path d="M251.272 364.806l-1.698.17-.146-2.543 1.689-.001.155 2.374z" fill="#ef4d82"/><path d="M249.972 367.488l-1.688.344-.407-2.685 1.697-.171.398 2.512z" fill="#ee4485"/><path d="M249.574 364.976l-1.697.171-.138-2.713 1.688-.001.146 2.543z" fill="#ef4d82"/><path d="M248.284 367.832l-1.689.345-.416-2.859 1.698-.17.407 2.685z" fill="#ee4485"/><path d="M247.877 365.147l-1.698.17-.128-2.882 1.688-.001.138 2.713z" fill="#ef4d82"/><path d="M246.594 368.176l-1.689.344-.424-3.032 1.697-.171.416 2.859z" fill="#ee4485"/><path d="M246.178 365.317a790.86 790.86 0 0 0-1.697.171l-.119-3.053h1.688l.128 2.882z" fill="#ef4d82"/><g fill="#f0557f"><path d="M251.117 362.432l-1.689.001c0-.019.563-.019 1.688-.019z"/><path d="M249.427 362.433l-1.688.001v-.021l1.688.001z"/><path d="M247.739 362.434l-1.688.001v-.022h1.688v.021z"/><path d="M246.05 362.435h-1.688v-.022l1.688.001v.022z"/></g><path d="M251.116 362.415h-1.688l.107-2.435c.002 0 .557.053 1.664.159l-.083 2.275z" fill="#f0567f"/><path d="M251.199 360.139l-1.664-.159.337-2.413 1.625.315-.298 2.257z" fill="#f05e7c"/><path d="M249.427 362.415c-.562 0-1.126 0-1.688-.001l.131-2.594 1.665.16-.107 2.435z" fill="#f0567f"/><path d="M249.535 359.98l-1.665-.16.377-2.569 1.625.316-.337 2.413z" fill="#f05e7c"/><path d="M247.739 362.414h-1.688l.155-2.753 1.664.159-.131 2.594z" fill="#f0567f"/><path d="M247.87 359.82l-1.664-.159.416-2.726 1.625.315-.377 2.569z" fill="#f05e7c"/><path d="M246.05 362.414s-.563 0-1.688-.001l.18-2.912 1.664.16-.155 2.753z" fill="#f0567f"/><path d="M246.206 359.661c-.002-.001-.557-.054-1.664-.16l.456-2.881 1.624.315-.416 2.726z" fill="#f05e7c"/><g fill="#f16679"><path d="M251.497 357.882l-1.625-.315c.605-3.274 1.846-6.439 3.668-9.252l1.274.848c-1.678 2.671-2.782 5.656-3.317 8.72z"/><path d="M249.872 357.567l-1.625-.316c.676-3.484 2.053-6.829 4.019-9.784l1.274.849c-1.822 2.813-3.062 5.978-3.668 9.252z"/><path d="M248.247 357.251l-1.625-.315c.746-3.695 2.259-7.22 4.369-10.317l1.274.849c-1.966 2.955-3.343 6.3-4.019 9.784z"/><path d="M246.622 356.935l-1.624-.315c.815-3.905 2.464-7.61 4.719-10.851l1.274.849c-2.11 3.098-3.623 6.622-4.369 10.317z"/></g><g fill="#f38767"><path d="M254.814 349.163l-1.274-.848a26.31 26.31 0 0 1 6.95-7.217l.768 1.14c-2.567 1.897-4.77 4.256-6.443 6.925z"/><path d="M253.54 348.315l-1.274-.849c1.964-2.956 4.508-5.528 7.456-7.508l.769 1.14a26.31 26.31 0 0 0-6.95 7.217z"/><path d="M252.265 347.466l-1.274-.849c2.109-3.099 4.824-5.779 7.963-7.799l.768 1.14c-2.948 1.979-5.492 4.552-7.456 7.508z"/><path d="M250.991 346.618l-1.274-.849c2.255-3.241 5.141-6.029 8.47-8.09l.768 1.14c-3.139 2.02-5.854 4.7-7.963 7.799z"/></g><g fill="#f6a751"><path d="M261.258 342.238l-.768-1.14c2.759-1.94 5.915-3.315 9.226-4.066l.229 1.146c-3.141.809-6.114 2.162-8.687 4.061z"/><path d="M260.49 341.098l-.769-1.14c2.945-1.982 6.283-3.378 9.765-4.073l.229 1.146c-3.311.751-6.467 2.126-9.226 4.066z"/><path d="M259.721 339.959l-.768-1.14c3.131-2.024 6.651-3.44 10.303-4.08l.229 1.146c-3.481.695-6.819 2.091-9.765 4.073z"/><path d="M258.954 338.819l-.768-1.14c3.316-2.065 7.02-3.503 10.841-4.087l.229 1.146c-3.651.64-7.172 2.056-10.303 4.08z"/></g><path d="M269.945 338.177l-.229-1.146 2.521-.442c-.003.002.034.368.108 1.1l-2.4.488z" fill="#f8c535"/><path d="M272.345 337.689l-.108-1.1 2.561-.193v1.041l-2.452.252z" fill="#f9cc2d"/><path d="M269.716 337.032l-.229-1.146 2.643-.396.108 1.1-2.521.442z" fill="#f8c535"/><path d="M272.237 336.589l-.108-1.1 2.668-.136.001 1.042-2.561.193z" fill="#f9cc2d"/><path d="M269.486 335.885l-.229-1.146 2.764-.349.108 1.1-2.643.396z" fill="#f8c535"/><path d="M272.129 335.49l-.108-1.1 2.776-.077v1.041l-2.668.136z" fill="#f9cc2d"/><path d="M269.257 334.739l-.229-1.146 2.884-.303.109 1.101-2.764.349z" fill="#f8c535"/><path d="M272.02 334.39a64.56 64.56 0 0 0-.109-1.101l2.886-.019v1.042l-2.776.077z" fill="#f9cc2d"/><g fill="#fad425"><path d="M274.798 337.437v-1.041c.019-.001.019.346.019 1.04z"/><path d="M274.798 336.396l-.001-1.042h.021l-.001 1.041z"/><path d="M274.797 335.354v-1.041h.021v1.041h-.021z"/><path d="M274.797 334.313v-1.042c.007.001.014.001.022.001l-.001 1.041h-.021z"/></g><g fill="#fad424"><path d="M274.816 337.436v-1.041c1.69-.025 3.393.081 5.07.373l-.178.883c-1.632-.227-3.273-.279-4.893-.215z"/><path d="M274.816 336.395l.001-1.041c1.76.014 3.522.173 5.247.531l-.178.883c-1.678-.292-3.38-.398-5.07-.373z"/><path d="M274.817 335.354v-1.041c1.83.053 3.653.266 5.425.689l-.178.883c-1.725-.358-3.487-.518-5.247-.531z"/><path d="M274.817 334.313l.001-1.041c1.9.092 3.784.358 5.602.848l-.178.883c-1.771-.424-3.595-.637-5.425-.689z"/></g><path d="M279.709 337.651l.178-.883 2.363.514-.237.793-2.304-.424z" fill="#fbe213"/><path d="M282.012 338.075l.237-.793 2.313.73-.28.698-2.271-.636z" fill="#fbea08"/><path d="M279.886 336.768l.178-.883 2.423.604-.237.793-2.363-.514z" fill="#fbe213"/><path d="M282.25 337.282l.237-.793 2.356.826-.28.697-2.313-.73z" fill="#fbea08"/><path d="M280.064 335.885l.178-.883 2.482.694-.237.792-2.423-.604z" fill="#fbe213"/><path d="M282.487 336.489l.237-.792 2.399.92-.28.698-2.356-.826z" fill="#fbea08"/><path d="M280.242 335.002l.178-.883 2.542.784-.237.793-2.482-.694z" fill="#fbe213"/><path d="M282.724 335.697l.237-.793 2.442 1.015-.28.698-2.399-.92z" fill="#fbea08"/><g fill="#fcef01"><path d="M284.283 338.71l.28-.698c1.425.515 2.81 1.153 4.139 1.9l-.309.5a27.24 27.24 0 0 0-4.11-1.702z"/><path d="M284.563 338.012l.28-.697a27.69 27.69 0 0 1 4.167 2.098l-.309.5c-1.329-.747-2.714-1.386-4.139-1.9z"/><path d="M284.843 337.315l.28-.698c1.463.648 2.871 1.413 4.195 2.296l-.309.5a27.69 27.69 0 0 0-4.167-2.098z"/><path d="M285.124 336.617l.28-.698c1.482.716 2.901 1.543 4.224 2.494l-.309.5c-1.324-.883-2.732-1.647-4.195-2.296zm3.269 3.796l.309-.5.829.485-.305.456-.833-.441z"/><path d="M288.702 339.913l.309-.5.825.529-.305.456-.829-.485z"/><path d="M289.01 339.413l.309-.5.821.573-.305.456-.825-.529z"/><path d="M289.319 338.913l.309-.5.817.617-.305.456-.821-.573z"/></g></g><g clip-path="url(#etiquetas-adhegrafic-adhegrafic-f)" fill="#fcef01"><path d="M288.394 340.413l.309-.5.829.485-.305.456-.833-.441z"/><path d="M288.703 339.913l.309-.5.825.529-.305.456-.829-.485z"/><path d="M289.011 339.413l.309-.5.821.573-.305.456-.825-.529z"/><path d="M289.32 338.913l.309-.5.817.617-.305.456-.821-.573zm-.093 1.941l.305-.456c7.865 5.255 3.799 2.213 3.799 2.213l-.208.312s3.97 3.187-3.896-2.068z"/><path d="M289.532 340.398l.305-.456 3.702 2.358-.208.311s4.066 3.042-3.799-2.213z"/><path d="M289.836 339.942l.305-.456 3.605 2.503-.208.312s4.163 2.896-3.702-2.358z"/><path d="M290.141 339.486l.305-.456c7.865 5.255 3.509 2.647 3.509 2.647l-.208.312s4.26 2.752-3.605-2.503z"/></g><g fill-rule="evenodd"><path d="M372.572 249.627l1.045 20.388c.526 5.942 5.553 10.323 11.07 11.308l23.58 5.577z" fill="#231f20"/></g><g><path d="M395.331 285.994c-4.359-.194-11.363-5.216-13.736-11.355h0l-9.023-25.011 35.696 37.273z" fill="url(#etiquetas-adhegrafic-adhegrafic-a)"/></g><g><g fill="#fff"><path d="M360.7 315.993c-3.982 0-7.16-3.311-7.16-7.293l7.16-.381v-4.028h-7.16v-16.918h-4.028V308.7c0 6.309 4.922 11.142 11.188 11.142zm-94.647-10.897c-2.902 0-5.375-1.758-6.506-4.252h13.008c-1.127 2.494-3.601 4.252-6.502 4.252m-7.095-8.278c.477-3.497 3.448-6.31 7.095-6.31 2.631 0 4.914 1.466 6.156 3.598h4.431c-1.493-4.407-5.619-7.448-10.587-7.448-6.266 0-11.188 4.835-11.188 11.144s4.922 11.144 11.188 11.144 11.187-4.835 11.187-11.144c0-.332-.014-.661-.041-.984h-1.965-2.089zm56.769 8.278c-3.982 0-7.16-3.311-7.16-7.294v-10.429h-4.027v10.429c0 6.309 4.923 11.144 11.187 11.144zm51.826-17.723h-4.026v20.946h4.026zm-152.346 3.139c3.982 0 7.16 3.312 7.16 7.294-.016 3.955-3.187 7.295-7.16 7.295-3.983 0-7.16-3.356-7.16-7.295 0-3.982 3.177-7.294 7.16-7.294m0-3.848c-6.266 0-11.188 4.833-11.188 11.142s4.922 11.144 11.188 11.144c2.737 0 5.216-.921 7.143-2.486l-.038 11.347h4.082v-20.005c0-6.309-4.922-11.142-11.187-11.142m172.935 20.894v-5.192c-1.611 1.835-3.579 2.819-5.995 2.819-3.941 0-6.982-3.49-6.982-7.338 0-4.296 2.998-7.43 7.249-7.43 2.329 0 4.206 1.076 5.728 2.776v-5.147c-1.834-.984-3.669-1.388-5.773-1.388-6.174 0-11.233 4.743-11.233 11.009 0 6.49 5.012 11.279 11.457 11.279 1.88 0 3.938-.448 5.549-1.388m-154.158-20.185h-4.029v30.438h4.081l-.037-11.347c1.926 1.565 4.408 2.486 7.143 2.486 6.267 0 11.189-4.833 11.189-11.144s-4.922-11.148-11.188-11.148l-.001 3.849c3.985 0 7.162 3.317 7.162 7.299 0 3.939-3.177 7.295-7.162 7.295-3.972 0-7.145-3.345-7.158-7.299zm131.556 33.341c1.52 0 2.773-1.253 2.773-2.819 0-1.522-1.253-2.729-2.773-2.729s-2.776 1.207-2.776 2.729c0 1.566 1.254 2.819 2.776 2.819"/><g fill-rule="evenodd"><path d="M328.233 305.315a6.72 6.72 0 0 1-6.717-6.717 6.72 6.72 0 0 1 6.717-6.717 6.72 6.72 0 0 1 6.717 6.717 6.72 6.72 0 0 1-6.717 6.717m0 4.524c6.208 0 11.241-5.032 11.241-11.241s-5.033-11.242-11.241-11.242-11.242 5.033-11.242 11.242 5.033 11.241 11.242 11.241"/></g></g><use href="#etiquetas-adhegrafic-adhegrafic-j" fill="#a80f25" fill-rule="evenodd"/><g fill="#fff" fill-rule="evenodd"><path d="M348.648 287.394c.114 0 .206.093.206.207 0 .087-.053.161-.129.191-3.889 1.33-9.251 6.048-9.251 10.806h-4.524c0-6.209 5.032-11.242 11.241-11.242l2.455.037m-160.669 17.922a6.72 6.72 0 0 1-6.717-6.717 6.72 6.72 0 0 1 6.717-6.717 6.72 6.72 0 0 1 6.717 6.717 6.72 6.72 0 0 1-6.717 6.717m0 4.524c6.208 0 11.241-5.032 11.241-11.241s-5.033-11.242-11.241-11.242-11.241 5.033-11.241 11.242 5.032 11.241 11.241 11.241"/></g><path d="M192.911 296.476l1.782 2.122 2.675-1.337a6.72 6.72 0 0 1 7.781-5.448l.785-4.456c-6.114-1.078-11.944 3.005-13.023 9.119" fill="#a80f25" fill-rule="evenodd"/><g fill="#fff"><path d="M208.392 287.394c.114 0 .207.093.207.207 0 .087-.054.161-.13.191-3.889 1.33-9.251 6.048-9.251 10.806h-4.524c0-6.209 5.032-11.242 11.241-11.242l2.455.037" fill-rule="evenodd"/><path d="M296.783 288.583c2.919-1.978 4.801-5.315 4.801-9.218 0-6.31-4.921-11.143-11.187-11.143s-11.188 4.833-11.188 11.143h4.028c0-3.938 3.178-7.295 7.16-7.295s7.161 3.357 7.161 7.295c0 3.983-3.179 7.293-7.161 7.293-6.263 0-11.188 4.835-11.188 11.144s4.925 11.144 11.188 11.144c.109 0 .213-.012.321-.015v.013c3.983 0 7.161 3.313 7.161 7.295h4.025c0-3.979-1.96-7.367-4.976-9.33 2.832-1.991 4.656-5.272 4.656-9.107 0-3.903-1.882-7.24-4.801-9.219m-6.386 16.513c-3.982 0-7.16-3.311-7.16-7.294 0-3.939 3.178-7.294 7.16-7.294s7.161 3.355 7.161 7.294c0 3.983-3.179 7.294-7.161 7.294"/></g></g></g></svg>