<svg xmlns="http://www.w3.org/2000/svg" viewBox="0 0 291.8 78.5"><g class="svg-src" fill="#a61519"><path d="M53.1 29.3c-1-.6-2.2-.9-3.5-.9-2.5 0-5.3 1.2-8 3.1 1.5 1.6 3 3.4 4.2 5.5 3.5 5.9 4.8 12.1 3.9 17 1.2-1.3 2.3-2.8 3.3-4.4 2.5-4.1 3.8-8.5 3.7-12.5 0-3.6-1.3-6.4-3.6-7.8zM32.2 37c1.2-2 2.7-3.9 4.2-5.5-2.6-2-5.4-3.1-8-3.1-1.3 0-2.5.3-3.5.9-2.3 1.4-3.6 4.1-3.6 7.8-.1 4 1.2 8.4 3.7 12.5 1 1.7 2.1 3.2 3.4 4.5-.2-.9-.3-1.7-.3-2.7-.2-4.6 1.3-9.7 4.1-14.4zm6.8-3.1c-1.4 1.4-2.7 3.1-3.8 5-2.5 4.1-3.8 8.5-3.7 12.5.1 3.7 1.4 6.4 3.6 7.8 1.3.5 2.6.9 3.9.9 1.2 0 2.5-.4 3.8-.9 2.4-1.4 3.6-4.4 3.6-8.3s-1.3-8.1-3.7-12c-1-1.9-2.3-3.6-3.7-5zM39.3 0C17.6 0 0 17.6 0 39.3s17.6 39.2 39.3 39.2a39.14 39.14 0 0 0 39.2-39.2C78.5 17.6 61 0 39.3 0zm-1.2 22.8l7.4-7.4c.3-.3.8-.5 1.2-.5.5 0 .9.2 1.2.5a1.75 1.75 0 0 1 0 2.5l-7.4 7.4c-.3.3-.8.5-1.2.5-.5 0-.9-.2-1.2-.5a1.75 1.75 0 0 1 0-2.5zm18 28.6c-3.1 5.2-7.4 9.1-11.8 10.9-1.5.8-3.1 1.2-4.9 1.2h-.3-.3c-1.8 0-3.4-.4-4.9-1.2-4.4-1.9-8.7-5.7-11.8-10.9-2.8-4.7-4.3-9.8-4.2-14.4.1-4.9 2-8.7 5.3-10.7 1.6-.9 3.3-1.4 5.3-1.4 3.5 0 7.2 1.5 10.6 4.2 3.4-2.7 7.1-4.2 10.6-4.2 1.9 0 3.7.5 5.3 1.4 3.3 2 5.2 5.8 5.3 10.7.1 4.7-1.4 9.8-4.2 14.4zm41-1.8V28.9h-3v-.8h7.2l6.8 17.3 7-17.3h6.8v.8h-3v20.7h3v.8H112v-.8h3.5V29.4h-.1l-8.5 21.3h-.5l-8.3-21.3H98v20.2h3.4v.8h-7.3v-.8h3zm29.9-7.8l1.9-.4 3.4-1v-1.3c0-1.2-.2-2.1-.5-2.7s-1-.9-1.9-.9-1.5.2-1.9.5c-.4.4-.7 1-.7 2 0 .6-.1 1-.4 1.3-.2.2-.6.4-1.2.4-1 0-1.4-.4-1.4-1.2 0-.9.3-1.7.9-2.3a4.45 4.45 0 0 1 2.1-1.2c.8-.2 1.6-.3 2.6-.3 2.2 0 3.7.4 4.5 1.2s1.2 1.9 1.2 3.4v7.9c0 .6 0 1 .1 1.4.1.3.2.6.5.7.2.1.5.2.7.3h1.1v.8h-2.4c-1 0-1.8-.1-2.3-.4-.5-.2-.9-.8-1.1-1.7-.6.9-1.3 1.5-2 1.9-.8.4-1.7.5-2.8.5-1.6 0-2.7-.4-3.3-1.1-.6-.8-1-1.9-1-3.4 0-1.3.3-2.2 1-2.9.5-.7 1.5-1.2 2.9-1.5zm5.3-.5l-3.2 1c-1 .3-1.6.7-1.9 1.2s-.5 1.4-.5 2.8c0 2.4.7 3.6 2 3.6.8 0 1.5-.3 2.1-1s1-1.4 1.2-2.2.3-1.6.3-2.4v-3z"/><path d="M140.1 49.6V35.9h-2.7v-.8h5.9v3.6h.1c.4-1.1.9-2 1.7-2.8.7-.8 1.6-1.2 2.7-1.2.9 0 1.6.3 2.1.8s.7 1.3.7 2.2c0 1.4-.5 2.1-1.6 2.1-.4 0-.8-.1-1.1-.4s-.5-.7-.5-1.2c0-.1 0-.4.1-.8s.1-.7.1-.8c0-.2-.1-.4-.2-.6-.1-.1-.3-.2-.6-.2-.8 0-1.6.7-2.3 2.2s-1.1 3-1.1 4.7v6.8h2.6v.8h-8.4v-.8h2.5zm12.7 0V35.9h-2v-.8h5.2v14.5h2.7v.8h-8.5v-.8h2.6z"/><path d="M158.1 49.6h2.7V35.9h-2.7v-.8h5.9V38h.1c1-2.2 2.8-3.3 5.4-3.3 1.6 0 2.7.3 3.5 1 .7.7 1.1 1.8 1.1 3.3v10.5h2.5v.8h-8.1v-.8h2.5V39.3c0-1-.2-1.9-.5-2.5s-1-.9-2-.9c-1.4 0-2.4.6-3.2 1.7s-1.2 2.4-1.2 4v8.1h2.5v.8h-8.3v-.9zm39.7-8.5l-2.3 8c-.3.3-1.4.6-3.2 1.1-1.8.4-3.3.7-4.6.7-1.5 0-2.9-.2-4.1-.7s-2.1-1.1-2.8-1.9-1.2-1.7-1.6-2.6-.5-1.9-.5-2.9c0-2.5.7-4.9 2-7.2s3.1-4.1 5.3-5.5 4.6-2.1 7.1-2.1c2.2 0 4.5.6 6.9 1.8l-1.7 6.4h-.8a14.36 14.36 0 0 0 .2-2.4c0-1.6-.5-2.8-1.4-3.7s-2.2-1.4-3.7-1.4c-1.1 0-2.2.3-3.2.8-1 .6-1.9 1.3-2.7 2.2a14.05 14.05 0 0 0-2.1 3.1c-.6 1.1-1.1 2.3-1.5 3.5a25.8 25.8 0 0 0-.9 3.5c-.2 1.1-.3 2.1-.3 3 0 1 .2 1.9.5 2.7.4.7.8 1.3 1.4 1.7s1.2.6 1.7.8c.6.2 1.2.2 1.8.2.8 0 1.6-.1 2.2-.3s1.2-.4 1.6-.7a3.61 3.61 0 0 0 1.1-1.3l.8-1.6c.2-.5.4-1.2.7-2.1l.8-2.9H191l.2-.8h6.7l-.1.6h0zm6.3-5.2h-2.8l.2-1h2.3 3.5l-3.4 12.2c-.2.7-.3 1.1-.3 1.3 0 .4.2.6.7.6.7 0 2-1.2 3.7-3.7l.6.4c-.3.5-.7 1-1.2 1.6l-1.4 1.6c-.4.5-1 .9-1.6 1.3-.6.3-1.2.5-1.8.5s-1.1-.2-1.5-.5c-.4-.4-.6-.8-.6-1.3 0-.4.2-1.2.5-2.4l3.1-10.6zm1.8-4.7a1.58 1.58 0 0 1-.5-1.2c0-.5.2-.9.5-1.2a1.58 1.58 0 0 1 1.2-.5c.5 0 .9.2 1.2.5a1.58 1.58 0 0 1 .5 1.2c0 .5-.2.9-.5 1.2a1.58 1.58 0 0 1-1.2.5c-.5 0-.9-.2-1.2-.5zm3.3 19.2l3.8-14.5h-2.7l.2-1h2.3 3.5l-1.1 4.3h.1l1.4-1.7c.3-.4.8-.8 1.4-1.3s1.2-.9 1.8-1.1 1.3-.3 2.1-.3c.9 0 1.6.2 2.2.6s.9 1 .9 1.9c0 .6-.1 1.1-.3 1.5h.1c.6-1 1.6-1.9 2.7-2.7 1.2-.8 2.3-1.2 3.5-1.2.9 0 1.6.2 2.3.7a2.32 2.32 0 0 1 .9 1.9c0 .3-.1.8-.3 1.3l-2.2 7.3c-.4 1.2-.6 2.1-.6 2.5 0 .5.2.7.7.7.7 0 1.3-.5 2-1.6s1.2-2 1.4-2.9l.8.2c-1.5 3.9-3.4 5.9-5.8 5.9-.6 0-1.1-.2-1.5-.6s-.6-.9-.6-1.4c0-.6.1-1.3.4-2.2L231 39c.2-.8.4-1.4.4-1.8 0-.7-.4-1.1-1.3-1.1-1.2 0-2.5.8-3.8 2.3-1.4 1.5-2.3 3.1-2.7 4.8l-1.9 7.4h-3l2.6-9.8c.4-1.2.5-2.2.5-3.1 0-1.1-.5-1.7-1.4-1.7s-2.1.8-3.5 2.3-2.4 3.5-3.1 6l-1.7 6.3h-2.9z"/><use href="#marin-gimenez-b"/><path d="M247.8 50.4l4-14.5H249l.2-1h2.3 3.5l-1.2 3.8h.1c.6-1 1.6-1.9 2.7-2.7 1.2-.8 2.3-1.2 3.5-1.2.9 0 1.6.2 2.3.7a2.32 2.32 0 0 1 .9 1.9c0 .3-.1.8-.2 1.3l-2.2 7.3c-.4 1.2-.6 2.1-.6 2.5 0 .5.2.7.7.7.7 0 1.3-.5 2-1.6s1.2-2 1.4-2.9l.8.2c-1.5 3.9-3.4 5.9-5.8 5.9-.6 0-1.1-.2-1.5-.6s-.6-.9-.6-1.4c0-.6.1-1.3.4-2.2l2.4-7.7c.2-.8.4-1.4.4-1.8 0-.7-.4-1.1-1.3-1.1-1.2 0-2.5.8-3.8 2.3-1.4 1.5-2.3 3.1-2.7 4.8l-1.9 7.4h-3z"/><use href="#marin-gimenez-b" x="29.1"/><path d="M277.4 40.6l2.7-5.4h11.7l-11.5 10.6c.9.1 1.8.3 2.7.8.9.4 1.5.8 1.9 1.2s1 .9 1.9 1.6c.3.3.7.5 1.1.5.3 0 .5-.1.7-.2s.3-.3.3-.6-.2-.5-.5-.9a1.92 1.92 0 0 1-.4-1.2c0-.4.1-.7.4-1 .2-.3.6-.5 1-.5 1 0 1.5.6 1.5 1.8 0 .7-.2 1.3-.5 1.8s-.7.9-1.2 1.1-.9.4-1.3.5-.7.1-1.1.1c-1 0-2-.2-3.1-.6l-3.1-1.3c-.9-.4-1.6-.7-2.1-.7-.4 0-.7.1-1.1.3s-.9.6-1.6 1.3l-.5-.6 12.5-11.5h-8.1l-1.6 3-.7-.1z"/><use href="#marin-gimenez-c"/><use href="#marin-gimenez-c" x="90.5"/></g><defs ><path id="marin-gimenez-b" d="M246.4 45l.7.2c-.8 1.6-1.8 2.9-3 4-1.3 1.1-2.7 1.6-4.5 1.6-2.9 0-4.4-1.7-4.4-4.9 0-1.8.4-3.5 1.3-5.2s2-3.1 3.4-4.2 2.9-1.6 4.4-1.6c.9 0 1.7.2 2.4.7.7.4 1 1.1 1 2 0 .4-.1.9-.4 1.3l-.9 1.2c-.4.3-.8.7-1.5 1-.6.4-1.2.6-1.6.9-.4.2-1 .5-1.8.7l-1.5.6-1.3.4c-.3 1.2-.5 2.3-.5 3.3 0 1.9.8 2.9 2.5 2.9 2.1-.3 4-1.8 5.7-4.9zm-1.1-7.8c0-.5-.1-.9-.4-1.2s-.6-.5-1.1-.5c-1 0-1.8.6-2.6 1.7-.7 1.2-1.5 2.9-2.3 5.2 4.3-1.3 6.4-3.1 6.4-5.2z"/><path id="marin-gimenez-c" d="M154.7 33.3c-.3 0-.5-.1-.7-.3-.4-.4-.4-1 0-1.4l1.4-1.4c.4-.4 1-.4 1.4 0s.4 1 0 1.4l-1.4 1.4a1.08 1.08 0 0 1-.7.3z"/></defs></svg>