<svg xmlns="http://www.w3.org/2000/svg" viewBox="0 0 1223 512"><g transform="matrix(.559275 0 0 .559532 .493422 .073041)"><path vector-effect="non-scaling-stroke" d="M2184 220.1q-1.25-48.69-19.95-92.97c-9.64-22.82-23.59-42.32-40.31-60.5-25-27.18-58.36-46.29-93.93-56.2-168.03-46.79-315.17 84.36-286.02 257.07 14.26 84.51 77.39 149.16 163.2 159.85q34.47 4.3 66.85-7.17a.36.35-82.4 0 1 .41.54l-149.19 212.37a.26.26 0 0 0 .21.41h136.46q.41 0 .64-.34 83.52-123.78 166.73-247.76c31.54-46.98 52.95-98 54.9-154.84M0 912.36l19.04.09q.46 0 .46-.46V779.72q0-.59-.59-.59L0 779.17" fill="none" stroke="#8e8e8e" stroke-width="2"/><path d="M1960.594.867c-136.711.48-241.856 118.21-216.805 266.633 14.26 84.51 77.391 149.16 163.201 159.85 22.98 2.867 45.263.477 66.85-7.17a.35.36 7.6 0 1 .41.541L1825.061 633.09a.26.26 0 0 0 .209.41h136.461a.73.73 0 0 0 .639-.34L2129.1 385.4c31.54-46.98 52.95-98 54.9-154.84V220.1c-.833-32.46-7.483-63.449-19.949-92.969-9.64-22.82-23.591-42.32-40.311-60.5-25-27.18-58.36-46.291-93.93-56.201-23.629-6.58-46.846-9.641-69.217-9.563zm4.16 106.885c42.643.741 82.533 27.196 96.207 70.129 7.253 22.767 7.7 45.645 1.34 68.639-15.68 56.71-74.42 86.85-130.24 70.93-33.01-9.41-58.561-37.289-68.051-70.219-16.46-57.13 11.36-119.51 71.07-135.77a105.87 105.87 0 0 1 29.674-3.709zM198.84 255.88c45.09 20.61 91.6 37.48 133.71 64.06 42.6 26.89 72.17 64.96 76.97 116.56 3.71 39.84-3.11 83.38-23 118.54-41.7 73.69-122.37 94.57-202.02 87.2C72.6 631.89 10.12 554.8 10.6 445.39a.4.4 0 0 1 .4-.39h117.26q.54 0 .57.53c1.93 34.99 13.68 69.06 46.08 86.8 53.24 29.14 118.52-12.21 117.33-72.11-.76-37.76-28.49-54.85-59.08-68.6-28.08-12.62-56.67-23.72-85.3-34.99-64.05-25.21-118.84-67.37-126.59-140.88C11.08 119.19 74.58 44.41 165.94 23.93c47.34-10.61 99.01-6.49 142.58 15.02 61.93 30.56 91.54 87.05 93.98 154.96a.32.32 0 0 1-.32.34H285.76a.76.76 0 0 1-.75-.64c-7.11-43.5-27.67-76.13-77-73.32-36.65 2.09-65.88 26.39-68.7 63.92-1.94 25.7 8.47 41.87 29.27 55.47q12.03 7.87 30.26 16.2zM767.518 18.371c-67.074.938-133.075 22.633-187.277 64.859-80.82 62.96-121.33 161.729-117.66 263.449 2.92 81.02 37.709 159.241 97.359 214.631 135.28 125.64 355.971 105.809 464.48-45.641 81.48-113.72 76.959-275.259-11.391-384.199-39.42-48.61-93.549-84.88-154.389-101.49-29.925-8.172-60.635-12.036-91.123-11.609zm3.912 106.463c10.636-.013 21.541.847 32.67 2.646 98.08 15.86 160.401 109.77 159.451 205.02-1.18 119.07-92.872 220.04-217.941 202.41-109.02-15.36-172.239-119.76-163.359-224.16 8.854-104.074 86.369-185.792 189.18-185.916zM1289.81 525.5h262.9a.3.3 0 0 1 .25.47l-72.53 106.15a.3.3 0 0 1-.25.13h-309.6a.3.3 0 0 1-.3-.3l.01-601.91a.3.3 0 0 1 .3-.3l118.58.01a.3.3 0 0 1 .3.3l.04 495.15a.3.3 0 0 0 .3.3z" fill="#1c1c1c"/><path fill="#37a6de" d="M1660.66 525.5h133.39a.4.4 0 0 1 .33.62l-72.35 107.2a.4.4 0 0 1-.33.18h-136.33a.4.4 0 0 1-.33-.63l75.29-107.2a.4.4 0 0 1 .33-.17z"/><path d="M1012.268 776.824c-28.63.406-56.997 18.572-63.447 54.137-6.61 36.42 11.269 74.489 49.689 82.299 52.77 10.73 89.299-34.32 78.779-84.02-7.5-35.47-36.392-52.822-65.022-52.416zm2.342 17.98c22.331.649 38.367 15.758 42.811 37.705 7.49 36.95-16.99 73.73-58.26 62.33-45.78-12.66-41.62-96.981 10.9-99.971 1.543-.087 3.06-.108 4.549-.064zM1619.01 860h-40.76q-.5 0-.5-.5v-16.34q0-.66.66-.66h60.34q.5 0 .5.5v48.01a1.33 1.3-24.1 0 1-.35.89q-23.78 25.07-57.22 22.82c-22.01-1.47-41.4-12.37-53.01-31.39-11.19-18.31-12.75-43.78-5.22-63.89 7.93-21.19 25.7-36.43 48.02-40.95q41.17-8.34 66.51 24.34.34.44-.14.72l-14.8 8.73q-.5.3-.87-.14-16.93-19.98-41.66-16.95c-33.38 4.09-47.9 38.71-38.83 68.13 10.56 34.22 51.01 44.69 77.5 20.9a.97.93 69.7 0 0 .31-.71l.03-23q0-.51-.51-.51zm226.73-83.117c-51.113-.145-78.679 51.946-60.16 98.297 12.28 30.75 44.199 44.581 75.609 37.971 70.84-14.89 65.99-128.371-7.74-135.861-2.625-.267-5.195-.399-7.709-.406zm1.02 17.832c11.92.269 23.738 5.021 31.871 14.256 20.25 23.01 16.87 68.689-12.66 83.289-15.67 7.74-35.671 5.841-49.031-5.699-20.54-17.73-21.869-54.53-5.889-75.48 8.558-11.215 22.199-16.67 35.709-16.365zM0 912.36V779.17l18.91-.04q.59 0 .59.59v132.27q0 .46-.46.46zm139.94-34.05l.28-98.8q0-.51.52-.51h18.35q.59 0 .59.59l-.07 132.19q0 .46-.46.46l-18.15.04q-.36 0-.57-.29L68.87 810.83a.17.17 0 0 0-.31.1l-.25 100.93q0 .41-.42.41l-18.65-.03q-.49 0-.49-.5V779.5a.5.5 0 0 1 .5-.5H68.5q.41 0 .65.34l70.53 99.08a.16.14-65 0 0 .26-.11zm100.31-81.06v114.64a.64.64 0 0 1-.64.64l-18.35-.09q-.53 0-.52-.52l-.2-87.48q-.14-12.46.35-26 .06-1.69-1.63-1.69h-38.51q-.75 0-.75-.75v-16.35a.6.59 0 0 1 .6-.59l99.25.15a.65.64 0 0 1 .65.64v16.4q0 .5-.5.5h-39.25q-.5 0-.5.5zm80.25 56.39v40.72a.39.39 0 0 0 .39.39h67.47a.39.39 0 0 1 .39.39v16.97a.39.39 0 0 1-.39.39h-86.97a.39.39 0 0 1-.39-.39V779.45a.39.39 0 0 1 .39-.39l86.97-.08a.39.39 0 0 1 .39.39v16.78a.39.39 0 0 1-.39.39l-67.47.27a.39.39 0 0 0-.39.39v37.89a.39.39 0 0 0 .39.39l65.97.32a.39.39 0 0 1 .39.39l.02 16.67a.39.39 0 0 1-.39.39h-65.99a.39.39 0 0 0-.39.39zm106.139-74.644l-12.699.033c-.46 0-.689.231-.689.691v132.17c0 .42.214.629.641.629l18.42-.07c.293 0 .439-.146.439-.439v-50.26a.75.75 0 0 1 .75-.75h23.23a.92.93 74.4 0 1 .789.439l30.801 50.631c.173.293.433.439.779.439l21.631-.029a.29.29 0 0 0 .25-.451L478.01 859.47a.3.3 0 0 1 .201-.451c42.57-8.08 42.369-67.909 2.799-78.309-3.72-.98-9.127-1.501-16.221-1.561l-38.15-.154zm6.672 17.623l33.26.121A23.51 22.68.2 0 1 490 819.5v1.359a23.51 22.68.2 0 1-23.59 22.602l-33.26-.121a.39.39 0 0 1-.391-.391l.16-45.939a.39.39 0 0 1 .391-.391zM554 811.27v100.67a.34.34 0 0 1-.34.34l-19.06-.04a.34.34 0 0 1-.34-.34l.07-132.56a.34.34 0 0 1 .34-.34h19.62a.34.34 0 0 1 .28.14l70.52 99.04a.34.34 0 0 0 .62-.19l.04-98.65a.34.34 0 0 1 .34-.34h18.82a.34.34 0 0 1 .34.34v132.55a.34.34 0 0 1-.34.34l-18.54.06a.34.34 0 0 1-.28-.14l-71.47-101.08a.34.34 0 0 0-.62.2zm182.85-32.29l-23.939.059a.37.37 0 0 0-.34.24L660.891 912a.37.37 0 0 0 .34.5h20.789a.37.37 0 0 0 .34-.24l10.42-27.27a.37.37 0 0 1 .34-.24h63.521a.37.37 0 0 1 .34.24l10.49 27.27a.37.37 0 0 0 .34.24h20.729a.37.37 0 0 0 .342-.5l-51.691-132.779a.37.37 0 0 0-.34-.24zm-11.98 18.057a.3.3 0 0 1 .281.193l25.82 69.359a.3.3 0 0 1-.281.41h-51.639a.3.3 0 0 1-.281-.41l25.82-69.359a.3.3 0 0 1 .279-.193zm98.42-.287h-39.58a.46.46 0 0 1-.46-.46v-16.78a.46.46 0 0 1 .46-.46l99.58-.01a.46.46 0 0 1 .46.46v16.79a.46.46 0 0 1-.46.46h-39.57a.46.46 0 0 0-.46.46l-.01 114.83a.46.46 0 0 1-.46.46h-18.58a.46.46 0 0 1-.46-.46V797.21a.46.46 0 0 0-.46-.46zm100.38 115.21a.54.54 0 0 1-.54.54h-18.5a.54.54 0 0 1-.54-.54V779.54a.54.54 0 0 1 .54-.54h18.5a.54.54 0 0 1 .54.54zm199.38-100.89q-.48-.68-.49.15l-.28 100.8q0 .23-.24.23h-18.79q-.5 0-.5-.5V779.5a.5.5 0 0 1 .5-.5h19.17q.51 0 .8.41l70.29 98.77a.27.27 0 0 0 .49-.15V779.5a.5.5 0 0 1 .5-.5h18.75a.5.5 0 0 1 .5.5v132.24q0 .5-.49.5l-18.12.04a.99.97-16.9 0 1-.81-.42zM1281.44 779a.46.46 0 0 0-.42.289l-51.65 132.58a.46.46 0 0 0 .432.631h20.58a.46.46 0 0 0 .43-.301l10.439-27.148a.46.46 0 0 1 .43-.301h63.311a.46.46 0 0 1 .43.289l10.48 27.172a.46.46 0 0 0 .43.289h20.529a.46.46 0 0 0 .43-.631l-51.609-132.58a.46.46 0 0 0-.42-.289zm11.85 18.166a.35.35 0 0 1 .33.234l25.75 69.129a.35.35 0 0 1-.33.471h-51.5a.35.35 0 0 1-.328-.471l25.75-69.129a.35.35 0 0 1 .328-.234zm158.96 98.114v16.69a.53.53 0 0 1-.53.53h-77.94a.53.53 0 0 1-.53-.53V779.53a.53.53 0 0 1 .53-.53h18.44a.53.53 0 0 1 .53.53v114.69a.53.53 0 0 0 .53.53h58.44a.53.53 0 0 1 .53.53zm260.406-116.444c-1.94-.003-4.026.019-6.256.064-14.14.3-27.611-.09-41.451.16-.427.013-.639.23-.639.65l-.07 132.139c0 .413.203.621.609.621l18.52.039c.42.007.631-.202.631-.629V861.5c0-.333.167-.5.5-.5h23.381a.92.91 74 0 1 .779.439l30.709 50.531a1.03 1.03 0 0 0 .941.529h21.43c.427 0 .525-.179.299-.539l-32.84-52.4c-.207-.327-.118-.526.262-.6 23.01-4.19 34.249-23.031 31.389-45.301-2.41-18.78-15.549-31.55-34.639-34.15-3.215-.44-7.733-.665-13.555-.674zm-28.316 17.895h33.279a23.4 22.31 0 0 1 23.4 22.309v2.08a23.4 22.31 0 0 1-23.4 22.311h-33.279a.34.34 0 0 1-.34-.34v-46.02a.34.34 0 0 1 .34-.34zm359.68-17.651q.36-.18.73-.06.5.16.5.69 0 41.02 0 82.04c0 38.65-29.06 57.33-64.92 52.39-29.41-4.04-44.78-23.73-44.81-53.29q-.04-40.69-.01-81.35a.5.5 0 0 1 .5-.5h18.7q.52 0 .52.52.06 40.65 0 81.22c-.03 24.22 15.84 37.96 40.18 35.83 20.99-1.84 30.08-17.96 30.08-37.77q-.01-39.57.02-79.14 0-.54.53-.56 8.8-.39 17.24.12.39.02.74-.14zm43.845-.09l-12.686.049c-.453 0-.68.231-.68.691v132.02c0 .5.25.75.75.75h17.93c.5 0 .75-.247.75-.74l.26-50.25c0-.34.17-.51.51-.51l28.481-.029c8.707-.02 14.99-.531 18.85-1.531 38.81-10.03 39.12-68.259.32-78.699-3.7-1-9.159-1.533-16.379-1.6l-38.106-.15zm6.824 17.629l32.99.121a23.4 22.5.2 0 1 23.32 22.58v1.799a23.4 22.5.2 0 1-23.481 22.42l-32.99-.119a.43.43 0 0 1-.43-.43l.16-45.939a.43.43 0 0 1 .43-.432z" fill="#1c1c1c"/></g></svg>