<svg xmlns="http://www.w3.org/2000/svg" viewBox="0 0 1024 213"><g fill="#05589a"><path d="M427.488 58.919c-.005-.02-.013-.039-.029-.059a.23.23 0 0 1-.044-.142l.054-57.394c-.005-.604.297-.904.901-.901l39.201.069a.58.58 0 0 1 .583.578l-.02 57.648c0 .33.165.495.495.495l23.976-.113c.316 0 .573.257.573.573l-.093 35.675a.47.47 0 0 1-.475.47c-7.561-.054-15.578-.299-23.109.637-.145.02-.254.145-.255.294l.02 50.357c.005 1.352.285 2.482 1.645 2.982 5.97 2.195 15.857 2.685 19.314-2.395.165-.242.543-.127.539.167a709.77 709.77 0 0 0 .215 34.142c.029.847-.518 1.199-1.17 1.572-5.827 3.333-11.684 5.46-17.894 5.215-6.421-.253-12.943-1.195-18.8-3.732-6.539-2.834-12.171-6.761-16.895-11.782-8.114-8.634-8.722-21.018-8.727-32.414v-41.36c0-1.082-.147-2.326-.127-3.511a.2.2 0 0 0-.201-.201l-16.19.034c-.534.003-.971-.428-.979-.965l-.142-31.978a38.37 38.37 0 0 1 .191-3.624c.02-.17.114-.253.284-.25l16.797.348a.37.37 0 0 0 .362-.436zm266.435-13.271c-2.718 2.287-1.871 9.711-2.008 13.154-.004.074.023.146.075.2s.124.084.199.084h21.454q.896 0 .896.896l-.108 34.887a.92.92 0 0 1-.274.65.91.91 0 0 1-.652.261q-5.754-.069-11.591.02-4.559.069-5.485.309c-2.458.637-5.352 3.105-5.367 5.95q-.201 40.034-.142 80.067.005 1.518.201 3.134a.89.89 0 0 1-.213.694.88.88 0 0 1-.658.3l-37.046.122q-1.283.005-1.308-1.283c-.22-12.047.015-24.04-.02-36.057q-.064-23.55-.122-47.1-.005-2.321-1.224-4.045-.147-.206-.382-.294c-5.984-2.204-12.287-1.724-18.428-1.641q-1.023.01-1.019-1.014l.064-35.381c0-.16.065-.314.18-.426s.271-.174.432-.171l18.79.284q.304.005.353-.299c.5-3.325.808-6.494 1.474-9.897.402-2.076.622-4.246 1.141-6.17 5.157-19.118 19.549-36.503 40.435-38.623q10.774-1.097 22.36-1.009a.58.58 0 0 1 .573.583l-.118 38.285c0 .16-.129.291-.289.294-6.954.093-16.714-1.347-22.174 3.237zm79.308 141.319c0 .23-.186.416-.416.416h-41.762c-.23 0-.416-.186-.416-.416V4.287c0-.23.186-.416.416-.416h41.762c.23 0 .416.186.416.416zm-710.432-83.93c.201.304.568.455.891.377a.82.82 0 0 0 .637-.73c.098-1.097.201-2.179.48-3.271l7.385-28.579c2.605-9.74 8.428-17.35 18.638-19.701 6.479-1.489 13.922-1.092 19.882 1.675 7.669 3.56 11.89 10.431 13.986 18.531l8.031 30.891c.152.593.529 1.023 1.063 1.244.418.173.888-.094.96-.544.264-1.738.563-3.32 1.097-5.059l12.664-42.183a1.22 1.22 0 0 1 1.17-.877l36.522-.024c.37.002.613.384.455.715-.784 1.68-.891 3.408-1.2 4.907-6.9 33.501-14.055 62.967-22.585 96.585-1.156 4.559-2.184 9.206-4.109 12.977-5.656 11.102-16.968 16.758-29.275 15.259-14.192-1.724-19.201-12.86-22.311-25.039-2.419-9.471-5.116-19.072-8.09-28.805-.121-.398-.362-.495-.725-.289-.206.121-.413.322-.622.602-.144.196-.266.454-.367.774-2.595 8.243-4.45 14.635-5.568 19.172-2.447 9.927-4.011 17.184-8.678 24.265-6.043 9.182-18.579 11.371-28.54 8.271-8.33-2.591-14.774-9.3-17.909-17.336-.473-1.211-1.371-4.347-2.693-9.407-8.609-32.892-16.369-65.983-23.281-99.273a30.81 30.81 0 0 0-.739-2.85.52.52 0 0 1 .534-.666c3.327.248 6.725.348 10.196.299l24.334-.142c.583.005 1.797-.255 2.698-.098.17.029.279.127.328.294l14.015 46.811c.142.465.46.823.725 1.224zm300.082-6.029c2.821 2.963 9.652 5.876 14.128 7.404 9.455 3.226 16.523 5.785 21.204 7.679 5.656 2.287 11.165 8.457 14.598 13.379 3.232 4.628 6.023 11.841 5.387 17.463-1.459 12.889-7.111 23.49-16.954 31.802-11.082 9.363-32.409 13.81-46.478 11.831-9.419-1.322-18.212-4.296-26.381-8.922a1.28 1.28 0 0 1-.646-1.112c-.024-11.518.176-23.124-.24-34.706a.35.35 0 0 1 .548-.299c12.533 7.497 23.279 11.696 36.914 8.447 4.496-1.136 10.744-2.928 12.096-7.796.788-2.826-3.134-4.442-5.269-5.225-5.764-2.111-13.966-3.193-21.116-6.606-11.058-5.279-20.382-15.088-24.691-26.669-.405-1.094-.661-2.367-.769-3.82-.171-2.272-.784-4.789-.514-6.753.397-2.919.632-5.676 1.2-8.178 2.032-8.937 6.699-14.52 14.113-19.706 15.458-10.819 32.704-14.505 51.738-11.058 3.823.695 7.537 2.024 11.141 3.986a.59.59 0 0 1 .294.382c.271 1.084.41 2.37.416 3.859l-.147 32.903c-.006.26-.237.456-.495.421-8.624-1.156-15.857-2.86-23.232-7.679-3.545-2.316-17.664-1.303-18.09 5.622-.078 1.277.336 2.393 1.244 3.35z"/><path d="M207.218 170.523c-10.494-9.77-17.943-19.99-21.097-34.054-1.802-8.056-2.287-18.134-.661-26.885.573-3.07.774-6.307 1.704-9.109 5.921-17.899 18.384-31.611 35.034-40.048 11.836-5.994 25.768-6.988 38.422-5.504 14.404 1.691 27.21 6.964 38.418 15.818 11.038 8.717 17.164 22.169 20.416 35.695 1.846 7.669 2.831 19.206-2.145 25.866-2.346 3.134-5.832 3.673-9.966 3.668-31.41-.049-57.634 0-78.671.147-.519.003-1.059.175-1.621.514-.131.082-.183.198-.157.348.544 2.963 1.851 4.368 4.089 7.331 4.956 6.557 11.851 9.138 19.956 9.711 2.409.171 5.558-.377 8.002-.877a51.46 51.46 0 0 0 15.44-5.857c1.401-.808 2.155-2.801 4.27-2.845 7.091-.153 14.912-.202 23.462-.147 4.079.024 8.433-.304 12.767-.397.415-.01.591.191.529.602-13.238 25.026-32.815 42.678-65.371 42.678-15.668 0-33.122-7.86-42.82-16.655zm26.111-65.395l38.334-.064c.138-.003.234-.138.191-.269-1.485-4.548-4.309-8.049-8.472-10.504-7.218-4.254-14.391-4.218-21.518.108-4.481 2.723-6.518 6.205-8.736 10.396-.082.151.029.335.201.333zm310.426 82.363c-32.654-10.602-52.345-45.053-44.549-78.485 8.232-35.323 41.13-57.359 77.036-51.659 23.026 3.658 41.439 19.495 50.895 40.67 3.247 7.272 4.398 14.094 4.853 21.704 1.489 25.137.705 48.618.284 65.968a.72.72 0 0 1-.715.7q-13.389.103-26.914-.127c-2.894-.054-3.781-5.333-8.021-3.203-16.782 8.433-34.906 10.269-52.869 4.432zm47.144-63.804a26.05 26.05 0 0 0-26.053-26.053 26.05 26.05 0 0 0-26.053 26.053 26.05 26.05 0 0 0 26.053 26.053 26.05 26.05 0 0 0 26.053-26.053zm230.867 15.059c.637 5.274 6.161 11.381 10.641 13.937 4.525 2.576 9.422 3.937 14.691 3.937 12.198 0 16.665-3.521 22.938-7.507 1.406-.893 1.543-2.361 3.639-2.375l36.513-.24c.32-.002.566.274.48.583-2.68 9.301-7.448 17.269-14.632 23.53-15.008 13.08-31.957 19.123-45.895 19.123-11.683 0-24.481-2.716-33.937-7.008-9.02-4.172-16.488-10.979-22.913-18.81-8.222-10.029-12.879-21.684-13.633-34.715-.005-.016-.134-1.221-.392-3.614-.25-2.336.304-4.574.353-6.567.333-13.584 4.717-25.698 13.154-36.341 8.247-10.401 20.842-20.151 33.937-23.535 23.388-6.043 48.677-.524 67.403 14.206 12.081 9.51 18.878 26.572 21.337 41.228 1.239 7.375.475 19.113-7.096 23.065-1.459.759-3.041.676-4.711.73l-81.61.069c-.199.007-.287.108-.264.304zm6.552-31.214l38.173.167c.229 0 .307-.109.235-.328-2.64-7.904-8.756-12.174-16.616-13.648-1.688-.317-3.323-.346-4.907-.088-8.077 1.309-13.787 5.818-17.13 13.526-.077.174.052.369.245.372zM957.141 88.82l17.399-28.98c.246-.41.691-.659 1.17-.656l38.256-.402c.327-.048.542.332.333.588l-38.021 62.482c-.284.464-.286.927-.005 1.391l37.394 62.33c.097.159-.02.361-.206.357-12.35-.049-25.533.387-37.174-.059-.754-.029-1.234-.235-1.832-.666a.43.43 0 0 1-.127-.137l-16.944-28.192c-.3-.513-.784-.694-1.45-.544a.53.53 0 0 0-.348.269c-.343.671-.881 1.205-1.219 1.778l-15.431 25.661c-.926 1.513-1.337 1.876-3.252 1.876l-36.277.005c-.597-.003-.726-.248-.387-.735l36.4-60.263c.833-1.405 1.655-1.9.597-3.643l-37.208-62.1a.27.27 0 0 1 .264-.372l37.585.343c.666-.003 1.17.279 1.513.847l17.468 28.829c.5.826.999.824 1.499-.005z"/></g><path d="M.016 205.738h1023.967v6.823H.016z" fill="#e92128" stroke="#000" paint-order="stroke fill markers" stroke-width=".032"/></svg>