<svg xmlns="http://www.w3.org/2000/svg" viewBox="0 0 714 512"><g transform="matrix(1.032966 0 0 -1.032966 -78.105959 563.452131)"><path d="M75.845 209.392c-.06-.394-.03-.646.074-.885s.327-.49.536-.602c.757-.489 1.686-.233 2.884-.088 6.078.724 11.96 1.75 17.762 3.835 8.094 2.91 16.386 4.886 24.906 6.023a186.34 186.34 0 0 0 14.5 1.372c8.281.449 16.564.612 24.855.396l24.516-.584a519.79 519.79 0 0 1 23.492-.199c3.656.049 7.317.182 10.965.409 5.076.317 10.141.764 15.172 1.551.645.101 1.307.273 2.174.117-.397-.529-.673-.94-.995-1.313-4.659-5.424-9.538-10.641-14.579-15.71-8.958-9.002-18.357-17.527-27.995-25.788l-29.398-24.992c-10.099-8.598-20.054-17.358-29.566-26.61-5.451-5.304-10.735-10.769-15.822-16.423-1.412-1.572-2.9-3.081-4.392-4.581l-17.829-18.3c-3.72-4.038-7.346-8.155-10.711-12.496-2.034-2.62-3.972-5.311-5.623-8.192-1.08-1.888-2.096-3.818-2.535-5.97-.181-.885-.298-1.826-.197-2.713.206-1.799.912-2.078 2.245-2.279 2.108-.132 4.23-.281 6.335-.193l16.949.92c4.731.322 9.452.794 14.177 1.195l9.738.815 10.423.855c2.741.237 5.483.17 8.224.034l9.758-.526 15.055-.981 11.115-.821 14.004-1.21 9.395-.806 10.073-.896 9.737-.811 11.279-.911 5.301-.389 21.056-1.172 10.624-.404c.677-.027 1.349-.17 2.024-.259h22.985c.868.391 1.799.272 2.705.298 7.432.198 14.843.689 22.245 1.386 5.633.533 11.245 1.228 16.845 2.047 9.276 1.361 18.484 3.066 27.603 5.249 10.57 2.533 20.949 5.677 30.992 9.874 7.136 2.984 13.997 6.452 20.358 10.909 5.666 3.969 11.375 7.874 16.785 12.193 2.593 2.068 5.144 4.188 7.444 6.589 1.02 1.073 1.987 2.212 2.868 3.403.499.674.863 1.484 1.138 2.283.385 1.125-.049 2.058-1.144 2.525-.617.265-1.304.424-1.978.501-1.825.21-3.65.106-5.464-.202-2.26-.387-4.461-.989-6.633-1.703-4.841-1.593-9.5-3.633-14.115-5.77l-15.658-7.431c-2.961-1.36-5.833-2.479-9.006-3.256l-13.854-3.207c-9.643-1.96-19.39-3.233-29.187-4.076-6.774-.581-13.567-1.026-20.358-1.369-6.679-.342-13.368-.52-20.055-.691l-22.808-.446-32.925-.627-16.807-.15a1608.75 1608.75 0 0 0-60.201.384c-8.002.199-15.997.517-23.988 1.005-6.448.395-12.81.701-19.209 1.612-2.772.393-5.612 1.05-8.285 1.91a19.79 19.79 0 0 0-2.837 1.187c-1.153.584-1.639 1.59-1.379 2.856.195.946.398 1.92.806 2.787.703 1.493 1.496 2.957 2.379 4.352 1.717 2.709 3.765 5.173 5.862 7.599 3.556 4.109 7.349 7.997 11.231 11.799 8.133 7.964 16.626 15.531 25.23 22.98 11.715 10.143 23.689 19.975 35.629 29.85l10.884 9.174 5.692 4.685c2.12 1.648 4.293 3.232 6.485 4.784l23.529 16.627c10.367 7.325 20.675 14.726 30.662 22.564 5.759 4.521 11.414 9.164 16.701 14.237 2.27 2.179 4.463 4.432 6.436 6.889 1.15 1.426 2.228 2.903 3.059 4.544.301.593.654 1.176.706 1.889-.146-.032-.277-.021-.338-.08-1.378-1.36-3.062-2.203-4.871-2.776-1.904-.605-3.827-1.172-5.772-1.608-5.419-1.217-10.929-1.87-16.45-2.339-6.664-.563-13.339-.995-20.014-1.377-5.423-.311-10.852-.511-16.28-.673l-30.346-.811-16.632-.44-24.853-.889-10.28-.452-6.336-.365-12.141-.889-9.221-.821-12.925-1.625c-5.264-.744-10.485-1.735-15.619-3.132-3.2-.87-6.346-1.905-9.331-3.384-2.168-1.074-4.136-2.411-5.795-4.204-1.25-1.314-2.758-2.74-4.093-4.153l-5.684-6.186c-1.471-1.676-2.866-3.259-3.766-5.336-.09-.207-.209-.467-.327-.921m437.721-7.153c-.021-.002-.037-.004-.058-.005.144-1.764.244-3.535.448-5.292.166-1.418.423-2.831 1.005-4.152.966-2.195 2.437-2.53 4.083-.822.826.853 1.524 1.86 2.118 2.89 1.526 2.639 2.523 5.49 3.159 8.474.3 1.409.431 2.823.34 4.256-.032.507-.119 1.027-.285 1.504-.474 1.348-1.42 1.924-2.805 1.595-.819-.194-1.653-.524-2.35-.987-1.326-.886-2.626-1.835-3.818-2.893-2.283-2.032-1.796-1.335-1.837-4.053v-.515m8.182-19.573l-1.392-1.111c-1.295-1.022-2.777-1.608-4.418-1.658-1.08-.033-2.172.047-3.241.199-2.39.337-4.641 1.195-6.911 1.968l-6.175 2.061c-2.25.7-4.555 1.073-6.928.97-2.744-.118-5.103-1.135-7.117-2.98-1.146-1.052-2.075-2.281-2.883-3.605-1.111-1.812-1.958-3.746-2.66-5.744-1.542-4.383-2.472-8.916-3.125-13.504-.159-1.118-.145-2.289-.029-3.418.268-2.674 1.846-4.346 4.474-4.964 1.303-.306 2.608-.284 3.918-.106 2.796.384 5.454 1.255 8.014 2.409 8.295 3.742 15.498 8.993 21.631 15.712a35.48 35.48 0 0 1 4.117 5.476c.952 1.567 1.778 3.197 2.274 4.974.274.983.598 1.965.451 3.321M226.4 130.518c.122-4.143 1.929-7.473 5.066-10.079 1.707-1.419 3.752-1.85 5.964-1.519 2.195.33 4.153 1.231 6.014 2.377 2.398 1.478 4.53 3.291 6.539 5.252 3.693 3.612 6.911 7.617 9.864 11.844 4.067 5.827 7.648 11.93 10.385 18.504.879 2.112 1.647 4.264 2.054 6.526.109.617.173 1.248.177 1.872.006.908-.312 1.238-1.255 1.239-.737.001-1.496-.046-2.206-.228-1.438-.369-2.881-.753-4.259-1.29-10.148-3.972-19.408-9.441-27.636-16.609-2.376-2.07-4.543-4.349-6.42-6.887-1.23-1.66-2.304-3.413-3.08-5.331-.738-1.814-1.223-3.686-1.207-5.671m432.349 53.116l.069-.968c.253-2.909 1.536-5.334 3.423-7.509 2.632-3.032 5.84-3.802 9.591-2.551 1.585.529 3.044 1.31 4.435 2.22a36.16 36.16 0 0 1 5.954 4.888c8.938 9.065 15.755 19.545 20.72 31.243.646 1.519 1.085 3.128 1.545 4.718.236.817.36 1.677.444 2.526.124 1.276-.354 1.776-1.672 1.79-.568.006-1.15-.037-1.699-.173-1.273-.318-2.546-.652-3.787-1.073-3.252-1.107-6.349-2.578-9.383-4.181-6.694-3.538-12.985-7.675-18.645-12.73-2.35-2.099-4.527-4.363-6.424-6.886-1.417-1.881-2.625-3.879-3.489-6.077-.655-1.667-.983-3.397-1.082-5.237m107.327 22.95c-4.997-6.349-10.737-11.997-16.572-17.551-7.626-7.261-15.592-14.125-24.072-20.378-4.376-3.227-8.875-6.258-13.643-8.879-3.261-1.795-6.617-3.376-10.195-4.448-2.316-.694-4.672-1.07-7.101-.911-3.426.229-5.944 1.863-7.535 4.892-1.109 2.106-1.603 4.397-1.788 6.746-.116 1.425-.106 2.858-.162 4.285-.013.322.122.687-.299 1.024-.188-.125-.429-.244-.62-.415-5.868-5.334-12.793-8.537-20.5-10.12-4.404-.907-8.837-1.143-13.276-.179-1.742.376-3.423.927-4.991 1.773-4.442 2.395-6.769 6.168-7.177 11.155-.275 3.348.255 6.612 1.217 9.811.229.765.505 1.518.742 2.282.079.257.096.533.163.924-.722-.18-1.074-.65-1.499-.998l-13.662-11.194c-6.758-5.378-13.741-10.451-21.08-15.022-4.321-2.69-8.75-5.188-13.459-7.15-2.431-1.011-4.911-1.859-7.512-2.339-1.592-.293-3.188-.378-4.783-.208-2.952.315-5.129 1.79-6.404 4.514-.839 1.788-1.171 3.693-1.286 5.649-.265 4.474.576 8.755 2.23 12.899 1.251 3.145 2.845 6.119 4.736 8.917 1.92 2.84 3.941 5.614 5.958 8.386l6.132 8.262c1.884 2.591 3.615 5.284 5.11 8.121 1.097 2.077 2.042 4.216 2.732 6.464.095.308.114.64.167.942-.507.267-.866.013-1.215-.109-15.755-5.564-30.051-13.612-42.447-24.907-4.527-4.125-8.832-8.467-13.025-12.921l-13.999-14.857c-4.536-4.761-9.267-9.328-14.169-13.714-5.27-4.71-11.003-8.746-17.348-11.885-3.701-1.832-7.533-3.302-11.604-4.098-2.937-.571-5.883-.773-8.856-.237-4.151.75-7.427 2.833-9.814 6.311-1.676 2.44-2.668 5.169-3.32 8.032-.638 2.793-.938 5.634-1.027 8.498l-.065 1.653c-.537.278-.832-.072-1.146-.281l-6.278-4.188c-4.346-2.859-8.724-5.666-13.268-8.208-2.492-1.396-5.028-2.715-7.699-3.748-1.601-.619-3.237-1.114-4.959-1.3-3.134-.34-5.296.809-6.703 3.646-.975 1.969-1.396 4.101-1.752 6.247-.553 3.332-.742 6.703-.95 10.068-.208 3.422-.291 6.853-.454 10.279l-.56 10.79c-.018.333-.092.666-.16 1.136-.329-.178-.612-.256-.784-.438-1.128-1.212-2.323-2.379-3.33-3.687-2.333-3.036-4.651-6.089-6.838-9.23l-14.181-20.634c-3.439-4.916-6.987-9.759-10.564-14.578-2.249-3.031-4.691-5.912-7.387-8.566-.691-.682-1.413-1.334-2.155-1.963-.521-.442-1.073-.86-1.653-1.221-2.574-1.607-3.732-1.705-6.578.251-1.198.827-2.04 1.991-2.68 3.294-.762 1.559-1.191 3.216-1.39 4.928-.353 3.025-.226 6.049.162 9.063.945 7.41 3.048 14.526 5.476 21.557.988 2.861 2.083 5.684 3.121 8.528.213.579.402 1.169.649 1.894-.409.034-.7.144-.921.063-.635-.237-1.306-.466-1.846-.857-.923-.667-1.844-1.375-2.611-2.21-1.969-2.148-3.966-4.285-5.747-6.585l-11.991-15.873c-3.703-4.94-7.415-9.873-11.377-14.614-2.899-3.467-5.904-6.836-9.25-9.885-1.65-1.504-3.376-2.914-5.276-4.098-1.314-.816-2.684-1.515-4.191-1.924-3.171-.862-5.73-.031-7.763 2.559-1.252 1.594-2.04 3.429-2.69 5.331l-.681 1.964c-.749-.158-1.135-.686-1.596-1.07-5.325-4.432-10.917-8.497-16.832-12.102-4.059-2.474-8.24-4.7-12.702-6.368-2.095-.781-4.226-1.429-6.435-1.764-2.045-.309-4.093-.39-6.134.086-2.725.637-4.721 2.212-6.057 4.653-.889 1.625-1.423 3.376-1.653 5.197-.201 1.586-.255 3.187-.367 4.783-.034.502-.041 1.006-.067 1.657-.308-.142-.529-.189-.678-.32-5.39-4.705-11.702-7.723-18.404-10.014-3.306-1.131-6.7-1.933-10.178-2.296-2.678-.281-5.366-.307-8.028.232-5.907 1.202-9.718 4.884-10.338 11.554-.338 3.615.102 7.19.873 10.724 1.555 7.134 4.523 13.662 8.616 19.666 8.87 13.015 20.569 22.567 35.223 28.427 4.698 1.879 9.591 2.991 14.607 3.589 4.768.567 9.54 1.074 14.345 1.233 3.035.102 6.056 0 9.058-.494 1.246-.204 2.457-.535 3.599-1.082 2.405-1.154 3.416-2.866 3.097-5.525-.135-1.121-.436-2.259-.882-3.293-.788-1.833-1.659-3.644-2.647-5.377-1.641-2.878-3.397-5.693-5.113-8.529-2.01-3.329-3.942-6.699-5.56-10.24-1.336-2.918-2.43-5.917-3.074-9.067-.877-4.298-.76-8.524.862-12.644.229-.585.479-1.168.789-1.71.7-1.234 1.805-1.762 3.177-1.487.828.167 1.672.448 2.405.861 1.238.705 2.465 1.462 3.564 2.363 1.721 1.409 3.389 2.899 4.979 4.457 4.177 4.081 7.966 8.514 11.682 13.012 6.995 8.464 13.599 17.231 20.152 26.039l15.676 21.04c1.61 2.147 3.339 4.21 5.044 6.285 1.516 1.843 3.463 3.149 5.58 4.193.704.349 1.494.592 2.273.708 1.14.171 1.862-.308 2.231-1.417.195-.583.28-1.223.307-1.842.097-2.194-.384-4.318-.89-6.43-1.068-4.453-2.559-8.773-4.122-13.068l-5.087-13.834c-.391-1.072-.714-2.171-1.044-3.263-.164-.541-.348-1.097-.011-1.746.303.102.668.131.907.32.846.675 1.739 1.326 2.449 2.13 1.552 1.755 3.084 3.536 4.474 5.418 2.448 3.308 4.797 6.687 7.16 10.058l11.598 16.58c1.827 2.557 3.793 5.016 5.787 7.445 1.303 1.588 2.723 3.09 4.181 4.536.97.961 2.065 1.807 3.171 2.611.638.462 1.381.82 2.127 1.086 1.761.631 3.128.151 4.16-1.397.878-1.317 1.253-2.817 1.469-4.351.366-2.613.357-5.233.179-7.868-.431-6.346-1.572-12.582-2.7-18.825l-1.416-7.93c-.058-.33-.062-.669-.103-1.186.359.167.647.21.794.38.898 1.036 1.849 2.039 2.619 3.167 1.45 2.122 2.862 4.277 4.158 6.495l7.291 12.816c2.213 3.872 4.528 7.683 7.131 11.309 1.839 2.558 3.802 5.01 6.061 7.21 1.728 1.684 3.591 3.188 5.722 4.34 2.356 1.271 4.847 1.99 7.553 1.91 1.505-.045 2.946-.358 4.359-.833 1.599-.538 2.747-1.602 3.52-3.084.615-1.179.963-2.438 1.182-3.743.493-2.899.425-5.815.197-8.723-.432-5.474-1.349-10.884-2.135-16.312-.631-4.356-1.291-8.71-1.221-13.134.022-1.429.026-2.866.409-4.254.215-.766.484-1.524.812-2.247.318-.704.955-1.004 1.703-.846.608.128 1.235.308 1.765.616 1.133.66 2.274 1.335 3.291 2.155 2.004 1.609 4.001 3.244 5.864 5.011l12.314 11.937 19.841 19.455c5.469 5.284 11.164 10.326 17.139 15.042 3.677 2.908 7.47 5.661 11.514 8.053 2.411 1.429 4.898 2.71 7.528 3.7 1.827.689 3.694 1.209 5.633 1.435 4.748.553 8.527-1.041 11.172-5.106 1.2-1.839 1.994-3.857 2.573-5.957.764-2.761 1.189-5.581 1.455-8.435.283-3.021.317-6.048.308-9.08-.003-.436.056-.874.101-1.478.535.231.955.363 1.327.583l6.909 4.148 17.592 11.32c4.063 2.554 8.194 5.005 12.363 7.377 2.758 1.57 4.974 3.628 6.651 6.293 1.131 1.794 2.041 3.701 2.867 5.652.91 2.156 1.756 4.345 2.744 6.467a55.03 55.03 0 0 0 2.657 4.984c1.186 1.983 2.779 3.62 4.644 4.995 1.613 1.189 3.228 2.375 5.069 3.189.933.411 1.917.77 2.911.973 1.781.363 3.157-.382 3.894-2.042.295-.67.473-1.406.608-2.13.468-2.513.154-5.019-.178-7.513-.648-4.879-1.907-9.634-3.075-14.407-.203-.829-.376-1.669-.527-2.511-.091-.511.164-.882.621-1.109.675-.335 1.392-.487 2.146-.521 1.616-.069 3.201.162 4.76.529l9.477 2.354c1.886.474 3.78.927 5.727 1.028.847.043 1.72.001 2.549-.161 1.233-.246 1.851-1.055 1.855-2.32 0-.62-.058-1.272-.255-1.852-.386-1.132-.798-2.275-1.367-3.32-.95-1.756-1.973-3.481-3.074-5.148a107.09 107.09 0 0 0-9.877-12.723l-7.541-8.44c-2.419-2.746-4.736-5.583-6.841-8.578-1.882-2.671-3.572-5.448-4.858-8.46-.697-1.632-1.287-3.302-1.609-5.051-.051-.272-.073-.546-.127-.992.389.097.668.101.865.228l4.175 2.703 24.428 16.835 43.227 29.443c3.349 2.193 5.753 3.689 9.226 5.673 2.498 1.427 7.492 3.212 9.99 3.925 2.051.446 5.143 1.266 7.135 1.427 6.958.892 13.378 1.07 22.655.714 3.2-.034 6.268-.161 9.443-.612 1.071-.15 2.129-.414 3.18-.674.436-.109.86-.311 1.255-.536.811-.467 1.026-.98.698-1.868-.316-.856-.693-1.696-1.118-2.501l-6.153-11.485-8.893-17.015c-2.127-4.176-4.048-8.457-5.518-12.915-.572-1.73-1.012-3.512-1.384-5.299-.193-.937-.211-1.938-.133-2.897.176-2.178 1.536-3.272 3.717-3.061 1.377.133 2.673.595 3.934 1.14 2.895 1.245 5.657 2.743 8.317 4.425 4.068 2.573 7.855 5.521 11.479 8.678 4.75 4.135 9.188 8.59 13.539 13.132l6.379 6.715 1.326 1.396c.548-.142 1.039-.256 1.521-.401l6.055-1.831z" fill="#554a54" fill-rule="evenodd"/><path d="M415.559 545.293c-26.397-1.82-38.751-16.157-48.043-25.33l-35.676-35.319c.476.12 1.427.239 2.676.477 8.33 1.587 38.4 4.468 52.145 5.232 16.055.892 47.526 1.894 60.649 2.259 11.46.319 12.23.373 51.609 2.973l-27.945 27.946c-5.725 5.724-22.365 21.937-50.315 21.939-1.661 0-3.359-.058-5.1-.177" fill="#26a9b2"/><path d="M502.907 324.926c-3.512-.817-9.44-2.052-15.682-2.706-5.018-.527-17.851-.734-23.739-.862-8.205-.178-21.762.535-27.648 1.07l-24.972 2.498c-4.638.356-24.419 2.459-29.433 3.031-6.242.714-16.578 1.467-23.189 1.25-11.76-.388-14.969-.566-19.073-.923s-18.208-2.111-18.208-2.111l14.627-14.804c2.676-2.675 15.518-16.59 20.871-21.229s16.411-18.369 30.145-26.755c13.277-8.103 24.616-9.095 38.531-9.095 14.027 0 29.232 8.232 34.604 12.129 8.444 6.123 17.481 16.231 22.118 20.691s13.486 13.973 17.66 17.837c4.815 4.459 14.092 14.271 18.908 18.729s8.383 8.742 8.383 8.742-11.759-4.669-23.903-7.492" fill="#009b68"/><path d="M450.183 477.215c-4.074-.503-15.697-1.189-20.454-1.665s-28.065-1.428-36.627-1.665-25.21-1.189-43.761-3.33c-18.29-2.111-26.819-5.218-33.003-6.883s-6.953-2.154-6.953-2.154-4.016-3.643-7.373-7.135c-3.383-3.519-10.102-8.964-16.886-19.266-6.422-9.75-8.343-20.743-9.514-29.966-1.902-14.984 4.077-29.741 9.989-39.719 3.805-6.422 21.88-25.448 21.88-25.448l2.141 2.616c.952 1.189 5.825 7.03 8.8 10.464 4.638 5.352 16.887 18.552 23.546 24.974 3.755 3.621 17.768 16.305 22.831 20.453 5.264 4.309 38.405 29.73 43.764 33.772 5.373 4.054 32.106 26.162 38.291 31.633s14.269 14.745 14.269 14.745l-10.94-1.426" fill="#fad304"/><path d="M501.908 481.955l-17.124-12.13c-5.946-4.281-14.983-9.752-22.833-14.984-7.408-4.94-13.614-8.649-25.923-17.391-9.236-6.559-14.152-10.078-21.169-15.668l-31.393-24.972c-5.232-4.52-19.996-15.442-30.919-26.637-9.513-9.753-11.416-14.271-11.892-15.698s.119-3.448 2.854-4.282c3.48-1.06 7.136-2.14 12.368-3.091s39.242-5.471 45.188-5.708 39.957-2.854 46.378-3.092 34.125.115 39.601.506c3.331.239 10.348.536 13.202 1.072 4.676.876 6.659 1.16 11.772 2.318 7.487 1.697 18.005 5.635 24.079 8.205 6.186 2.617 16.708 8.353 16.708 8.353l4.042 5.708c6.422 9.276 8.562 22.832 9.514 31.87s-.476 17.837-5.946 31.632c-4.885 12.317-19.741 25.686-25.687 31.632l-26.874 26.4-5.946-4.043" fill="#d45e3f"/><path d="M751.819 67.634v17.363l14.806 22.545h-3.836l-12.585-19.449-12.989 19.449h-3.836l15.345-22.545V67.634zm-58.016 0v36.072l24.094-36.072h3.701v39.908h-2.692v-36.61l-24.093 36.61h-3.701V67.634zm-40.585 15.344l8.413 21.469 8.21-21.469zm-5.922-15.344l5.114 12.787h18.44l5.115-12.787h3.096l-15.613 39.908h-3.366l-15.815-39.908zm-36.952 20.459v16.825h14.873c1.974 0 3.656-.831 5.048-2.49 1.39-1.706 2.086-3.747 2.086-6.125 0-2.288-.696-4.217-2.086-5.787-1.392-1.616-3.074-2.423-5.048-2.423zm0-20.459v17.902h15.344c2.602 0 4.801 1.098 6.596 3.297 1.839 2.198 2.759 4.846 2.759 7.942 0 2.961-.92 5.495-2.759 7.604-1.795 2.109-3.994 3.163-6.596 3.163h-18.036V67.634zm-53.44 0v36.813l14.874-36.813h2.49l14.873 36.813V67.634h2.692v39.908h-4.24l-14.537-36.543-14.603 36.543h-4.24V67.634zm-34.124 2.019c-4.576 0-8.234 1.637-10.97 4.913-2.737 3.23-4.105 7.559-4.105 12.988 0 5.563 1.368 10.028 4.105 13.393s6.394 5.048 10.97 5.048 8.232-1.683 10.969-5.048 4.106-7.83 4.106-13.393c0-5.429-1.369-9.758-4.106-12.988-2.737-3.276-6.393-4.913-10.969-4.913m0-2.49c5.384 0 9.691 1.861 12.921 5.586s4.846 8.658 4.846 14.805c0 6.371-1.615 11.463-4.846 15.277s-7.537 5.721-12.921 5.721-9.691-1.908-12.922-5.721-4.845-8.906-4.845-15.277c0-6.147 1.615-11.082 4.845-14.805s7.538-5.586 12.922-5.586m-44.287-.538c4.442 0 8.098 1.3 10.97 3.903 2.916 2.601 4.553 6.079 4.912 10.431h-2.692c-.314-3.59-1.682-6.461-4.105-8.614-2.378-2.153-5.407-3.231-9.085-3.231-4.307 0-7.987 1.794-11.037 5.384-3.052 3.635-4.577 7.986-4.577 13.056s1.525 9.422 4.577 13.057c3.05 3.589 6.73 5.384 11.037 5.384 3.32 0 6.214-.921 8.681-2.76 2.513-1.84 4.015-4.15 4.509-6.932h2.692c-.672 3.724-2.445 6.685-5.316 8.884-2.872 2.243-6.394 3.365-10.566 3.365-5.07 0-9.378-2.042-12.922-6.124-3.59-4.129-5.384-9.086-5.384-14.874s1.794-10.723 5.384-14.805c3.544-4.084 7.852-6.124 12.922-6.124" fill="#554a54" fill-rule="evenodd"/></g></svg>