<svg xmlns="http://www.w3.org/2000/svg" xmlns:xlink="http://www.w3.org/1999/xlink" viewBox="0 0 512 80"><style>.D{fill:none}.E{stroke-linecap:round}.F{fill:#eac102}.G{fill:#ed1c24}.H{fill:#e3e4e5}.I{fill-rule:evenodd}.J{stroke-width:3}.K{stroke-width:5.25}.L{stroke-width:4.75}.M{stroke-width:4.25}.N{stroke-width:3.75}.O{stroke-width:3.25}.P{stroke-width:2.75}.Q{stroke-width:2.25}.R{stroke-width:1.75}.S{stroke-width:1.25}.T{stroke-width:5.75}</style><g transform="translate(4 -1)scale(.98616)"><g fill="#313131"><path d="m334.3 39.9.2-8q0-.7.6-.8l1.2-.1q.7-.1.7.6v27.6q0 .6-.5.7c-5 1.6-11.8 1.9-15.1-2.8q-3.3-4.7-1.3-10.4 3-9 13.6-6.4.6.2.6-.4m.1 17v-13a2 2 0 0 0-1.7-1.8h-3.5a7 7-90 0 0-7 7v2.5a7 7 90 0 0 7 7h3.5a2 2 0 0 0 1.7-1.8m146.4-17.2V32a1 1 0 0 1 .6-.8l1.4-.1q.5 0 .5.4v28a1 1-8.1 0 1-.5.6c-5.7 1.6-13.9 1.7-16.2-5.4-2-6 .7-13.5 7.5-14.7 1.9-.3 4.2.1 6.2.2q.5 0 .5-.4m.2 17V44a2 2 0 0 0-2.1-2h-3.1a7.2 7 89.8 0 0-7 7.2v2.4a7.2 7 89.8 0 0 7 7.2h3.1a2 2 0 0 0 2-2.1m-93-11.8a.2.2 0 0 0 0 .4q5 .9 6 6c1.4 9.3-10.5 10.7-17 9q-.4-.2-.4-.7l.2-27.1q0-.6.5-.7 4.8-.8 9.3 0a6.8 6.8 0 0 1 1.4 13m-8.8-10.5v8.9a1 1 0 0 0 .7.7h4a5.3 4.7.2 0 0 5.4-4.6v-1a5.3 4.7.2 0 0-5.3-4.7h-4a1 1 0 0 0-.8.7m0 12.5V58a1 1 0 0 0 .5.4h4A7.2 5.6 0 0 0 391 53v-1a7.2 5.6 0 0 0-7.2-5.6h-4.1a1 1 0 0 0-.4.5M60 59.5l9-26.7a2 2 0 0 1 3.7 0l9 27a.4.4 0 0 1-.4.6h-1.7a1 1 82.3 0 1-.7-.6l-1.9-6q-.2-.5-.7-.5l-11.1-.1q-.5 0-.6.4l-1.8 6.2q-.2.5-.8.6l-1.2.1q-1.2.2-.8-1m5.6-9.4a.5.5 0 0 0 .5.7h9.2a.5.5 0 0 0 .5-.7l-4.6-14.4a.5.5 0 0 0-1 0z"/><rect width="3.4" height="3.4" x="-1.7" y="-1.7" rx="1.3" transform="rotate(1.3 -1364.9 9732)"/><rect width="3.4" height="3.5" x="-1.7" y="-1.7" rx="1.1" transform="rotate(1 -1672.6 28230.8)"/><path d="M154.8 42.6q-.7 7.3.1 14.5 0 .6.6.9 1.9 1 4 .7a1 1 0 0 1 .5 1.8q-4.2 1.4-7-1.8a1.6 1.5 24.7 0 1-.5-1l-.1-15a1 1 0 0 0-.5-.5h-2.3a1 1 45.6 0 1 0-2.2h2.6a.3.3 82.2 0 0 .3-.4q-1-3.1 1.4-5.2.7-.6.7.3l.1 4.7q0 .5.6.6h4.5a.7.7 11.1 0 1 .7 1l-.3.8a1 1 0 0 1-.8.5l-4-.2q-.5 0-.6.5m120.5 13.7c.3-4.5 0-9 0-13.5q0-.5-.6-.5h-2.2a1 1 0 0 1-.7-.8v-.7a1 1 0 0 1 .7-.8h2.2q.5 0 .7-.5.3-1.1 0-2.4-.1-.6.3-1l1.3-1.5q.5-.6.5.2v4.6q.1.6.7.6h4.5a1 1 0 0 1 .5 1.8q-1.4.9-3.5.4-1.7-.3-1.8 1.4-.5 5.3-.2 11.4.3 4.7 4.8 3.6.5-.1.7.3l.3.5q.3.7-.4 1c-3.2 1.3-8 0-7.8-4m-143.7-13c4.3-5.3 12.7-5 13.3 2.8q.3 3.1 0 13.9 0 .7-.7.5l-1.4-.3q-.5-.1-.5-.7c.3-3.3.8-13.4-1-16-2.2-3-7-1-8.5 1.4-2 3.3-1.6 10.7-1.5 14.7q0 .7-.7.7h-.9q-.6 0-.6-.6c-.2-5.5-1.3-14-.1-19.2q.1-.6.7-.5h1q.8.2.6.9l-.3 2a.4.4 0 0 0 .6.4m44.6 4.7c1.1-6.4-4.5-6.7-9.5-5.5q-.5.1-.7-.4l-.3-1q-.2-.6.5-.7c15.3-4.2 13.4 9.6 12.7 19q0 .5-.5.6-5.5 1.5-10.3.5c-5.6-1.2-5.3-9.2-.8-11.4q3.7-1.9 8.4-.7.4 0 .5-.4m.4 9.3-.3-6a1.2 1.2 0 0 0-1.3-1.2l-3.8.2a5.2 4-2.6 0 0-5 4.3v.3a5.2 4-2.6 0 0 5.4 3.8l3.8-.1a1.2 1.2 0 0 0 1.2-1.3m12-14.2c2.2-3.6 8.5-5.2 10.5-.4a.5.5 0 0 0 1 .1c5-6.3 12.8-2.7 12.2 5.2q-.5 6.7-.2 11.7 0 .5-.5.6l-1 .1q-.8.1-.7-.7.5-9-.4-14.2c-1-5.9-9-3.5-9.2 1.3v12.5a1 1 0 0 1-1 1.2q-.8.1-1.3-.5-.3-.4-.3-1.1c.3-5.1.9-10.7-1-15.6l-.5-.7c-5-2.9-7.9 2.6-8 6.7v10.5q0 .7-.7.6l-1.2-.1a1 1 0 0 1-.6-.7V40.8q0-.7.7-.7l.9-.1a1 1 0 0 1 .6.5l.2 2.5q0 .7.5 0m42.4 8c-.4 7.6 6.5 8.7 12.1 7a1 1 0 0 1 .7 1.7q-2.1 1-5.3 1-10.4-.1-10-10.7c.5-15.2 19-12.5 16.6 0q0 .3-.5.3l-13 .2q-.5 0-.6.5m.5-2.4h11.1a.3.3 0 0 0 .4-.3v-.7a5.7 5.5-89.6 0 0-5.5-5.7h-.7a5.7 5.5-89.6 0 0-5.6 5.6v.8a.3.3 0 0 0 .4.3m23.2-5.5q4.3-5.3 10.7-2.5a1.5 1.4-3.8 0 1 .7.6c3 4.8 2 13 1.9 18.5a.6.6 0 0 1-.7.6l-1.6-.2a1 1 0 0 1-.5-.7q.3-5.8.1-11.7c-.3-9-9.1-6.5-10.6-.4q-1 3.8-.2 12.4a1 1-.3 0 1-.7.7l-1.5-.2q-.5 0-.5-.6v-19a1 1 0 0 1 .6-.6h1.3q.9 0 .6.8-.4 1.2 0 2.2 0 .5.4 0M296.3 61a10.7 9.1 89.8 0 1-9.1-10.7 10.7 9.1 89.8 0 1 9-10.7 10.7 9.1 89.8 0 1 9.2 10.7 10.7 9.1 89.8 0 1-9 10.7m0-2a8.6 6.6 90.5 0 0 6.7-8.6 8.6 6.6 90.5 0 0-6.6-8.7 8.6 6.6 90.5 0 0-6.6 8.6 8.6 6.6 90.5 0 0 6.5 8.7m49.6-7.8c-.7 7.4 6.3 8.2 12 6.8a1 1-17 0 1 .9.4l.3.9a1 1 0 0 1-.4.7c-21 5.5-18.7-21-6.6-20.3 5.9.3 8.5 4.2 8.3 9.9a1.2 1.2 0 0 1-1.3 1.2h-12.7q-.5 0-.5.4m.5-2.4 11-.2a1 1 0 0 0 .5-.5A6.1 5.7 88.8 0 0 352 42h-.6a6.1 5.7 88.8 0 0-5.6 6.3 1 1 0 0 0 .5.5m77.4 2.5c.1 7.2 6.3 8.8 12.3 6.7q.5-.2.7.3l.3 1a1 1 77.1 0 1-.6.9c-4.3.6-7.8 1.5-11.6-1.1-7.1-4.8-4.3-20.2 5.9-19.3 5.5.5 8.3 5 7.4 10.4l-.5.4-13.3.1q-.6 0-.6.6m.4-2.6 11.4-.2.3-.2v-.5A6 5.8 89.2 0 0 430 42h-.5a6 5.8 89.2 0 0-5.7 6v.4zm23.5-5.5c3.8-4.8 12.4-5.2 12.7 2.6q.2 6.7.2 13.5 0 .4-.3.7-1 .8-1.8.1-.4-.4-.4-1.3V45.6c-.1-5.4-7.7-4-9.7-.3C446.5 48.5 447 56 447 60q0 .7-.6.5l-1.2-.3q-.5-.1-.5-.7l-.2-18.8q0-.5.5-.6h1.2a1 1 88.4 0 1 .7.6V43a.3.3 0 0 0 .6.2m64.9 4.6c1.1-6.5-5.3-6.3-9.5-5.4q-.7.2-1-.5-.4-1.4.7-1.7 5.9-1.3 9.7.6c3.8 1.8 2.6 14.9 2.5 18.7q0 .5-.5.6c-4.6.9-15.2 2.3-14.3-6 .6-6 7-6.3 11.8-5.8q.5 0 .6-.5m.3 9.6v-6a1.3 1.3 0 0 0-1.4-1.2h-4a5 4-.9 0 0-4.9 4.2v.4a5 4-.9 0 0 5.1 4l4-.1a1.3 1.3 0 0 0 1.2-1.3"/><rect width="2.4" height="21.5" x="-1.2" y="-10.8" rx=".3" transform="rotate(340.5 189.8 -230.8)"/><path d="M85.8 68c3.1.7 4.3.1 5.3-3l8.2-24.5q.2-.6.9-.5l1.2.1a1 1 0 0 1 .3.6L93.6 65c-1.4 4.2-3.4 6.6-8 5q-.6-.3-.5-.8l.2-.8a1 1 0 0 1 .6-.4m35.8-28q.7.1.7.8v18.4q0 .6-.6.7c-16.8 5.4-16.4-8-15.6-19.3q0-.6.7-.6h1.2a1 1-88.8 0 1 .7.7c-.4 7.4-2.6 21.6 10.5 17.6q.6-.2.6-.8V40.8q0-.8.8-.8zm97.8 2h-1.2a.9.9 0 0 1-.2-1.8q2-.4 4-.1.6 0 .6.7l-.1 18.8q0 .5-.6.6l-1.1.3a.6.6-5.6 0 1-.8-.7V42.7q0-.6-.6-.6m196 17.5a1 1-5.4 0 1-.6.6c-18 3-15.2-6.1-15.4-19.3q0-.7.7-.7l1.3-.1q.6 0 .6.6c0 7.4-3.2 21.2 10.2 17.8q.6-.2.6-.7l.3-17q0-.6.6-.6h.7q.8 0 .8.7zM494.7 41l-.3 18.6q0 .8-.7.8h-1a1 1 88.4 0 1-.7-.6V42.5q0-.5-.5-.5h-1.2q-.4 0-.6-.3-.8-1.5.6-1.6 2-.2 3.5 0a1 1 0 0 1 .9.9"/></g><g stroke="#000" stroke-linejoin="round" transform="translate(-4 1.8)scale(.08266)"><path d="M126.9 160.4c-47.4-2-88.5 19.5-105.3 46l50.6 73.3 46.9 30.6L275 298.7l156 11.6 46.8-30.6 50.6-73.2c-16.8-26.6-57.9-48.2-105.3-46.1-49.8 2.1-74.6-23.7-148.1-23.7s-98.3 25.8-148.1 23.7z" class="G"/><path d="M271 46V19.4H259v-7.8H271V.5h7.8v11h12.2v8H279V46z" class="F"/><path fill="#0071bc" d="M296.6 58a21.6 21.6 0 1 1-43.2 0 21.6 21.6 0 0 1 43.2 0z" class="I"/><g class="F"><path d="M296.9 62.2c.8-2 .3-8.3 0-8.6 0-1.4-7.6-2.5-17.6-2.8V35.9l-4.3-.4-4.3.4v14.9c-10 .3-17.6 1.4-17.6 2.8-.3.3-.8 6.5 0 8.6 0-1.6 9.8-2.9 21.9-2.9s21.9 1.3 21.9 3zm-258.7 145c-19.6-30.6-14.8-52.7-2.8-70.6-24.1 20.5-30.4 51.6-9.2 87z"/><path d="M265.4 96.5c-32.4 9.8-67.8 20.8-99.8 16.1-149-22-159.5 60-131.2 94.3l-8.2 16.7 7.7 2.5 9.7-19.6c-32.7-34.4-17.8-107 120.8-86.6 33.4 5 70.1-6.3 103.4-16.3z"/></g><path d="m34.4 207 9.2-.5" class="D E"/><g class="H"><use xlink:href="#B"/><use xlink:href="#B" x="-77.5" y="1.9"/><use xlink:href="#B" x="-58.3" y="4.2"/><use xlink:href="#B" x="19" y="-4.8"/><use xlink:href="#B" x="37.8" y="-10.2"/><use xlink:href="#B" x="-202.5" y="112.3"/><use xlink:href="#B" x="-210" y="94.7"/><path d="M16 176.7a7.8 7.8 0 1 1-15.5 0 7.8 7.8 0 0 1 15.6 0z"/><use xlink:href="#B" x="-210.3" y="57.8"/><use xlink:href="#B" x="-200.8" y="41.3"/><use xlink:href="#B" x="-188.3" y="26.5"/><use xlink:href="#B" x="-172.8" y="15.5"/><use xlink:href="#B" x="-155" y="7.5"/><use xlink:href="#B" x="-136" y="3"/><use xlink:href="#B" x="-116.5" y="1"/><use xlink:href="#B" x="-97" y=".8"/><use xlink:href="#B" x="-38.8" y="5.5"/><use xlink:href="#B" x="-19.3" y="3.8"/></g><g class="F"><use xlink:href="#C"/><use xlink:href="#D"/></g><path d="M156 181.6h8.1" class="D E"/><g class="H"><use xlink:href="#B" x="43.3" y="-14.1"/><use xlink:href="#B" x="33.7" y="-14.9"/><use xlink:href="#B" x="25.6" y="-16.6"/><use xlink:href="#B" x="17.5" y="-18.8"/><use xlink:href="#B" x="-83.5" y="82.7"/><use xlink:href="#B" x="-91.2" y="64.7"/><use xlink:href="#B" x="-95.4" y="45.8"/><use xlink:href="#B" x="-94.9" y="27.1"/><use xlink:href="#B" x="9.1" y="-20.7"/><use xlink:href="#B" x=".4" y="-22.6"/><use xlink:href="#B" x="-8.8" y="-24.2"/><use xlink:href="#B" x="-18.3" y="-25.3"/><use xlink:href="#B" x="-29" y="-25.2"/><use xlink:href="#B" x="-40.9" y="-23.4"/><use xlink:href="#B" x="-53.8" y="-19.8"/><use xlink:href="#B" x="-67.5" y="-13.7"/><use xlink:href="#B" x="-79.9" y="-3.4"/><use xlink:href="#B" x="-89.3" y="10.5"/></g><g transform="matrix(-1 0 0 1 1473.5 -725.2)"><g class="F"><path d="M961.7 932.5c-19.6-30.7-14.8-52.8-2.8-70.7-24.1 20.6-30.4 51.6-9.1 87z"/><path d="M1188.9 821.8c-32.4 9.7-67.8 20.7-99.8 16-149-21.9-159.4 60-131.2 94.4l-8.1 16.7 7.6 2.4 9.7-19.6c-32.7-34.3-17.8-107 120.9-86.5 33.3 4.9 70-6.4 103.3-16.4z"/></g><path d="m957.9 932.2 9.2-.5" class="D E"/><g class="H"><use xlink:href="#B" x="923.5" y="725.2"/><use xlink:href="#B" x="846" y="727.1"/><use xlink:href="#B" x="865.3" y="729.4"/><use xlink:href="#B" x="942.5" y="720.4"/><use xlink:href="#B" x="961.3" y="715"/><use xlink:href="#B" x="721.1" y="837.5"/><use xlink:href="#B" x="713.6" y="819.9"/><use xlink:href="#B" x="709.9" y="801.5"/><use xlink:href="#B" x="713.3" y="783"/><use xlink:href="#B" x="722.8" y="766.5"/><use xlink:href="#B" x="735.3" y="751.7"/><use xlink:href="#B" x="750.8" y="740.7"/><use xlink:href="#B" x="768.5" y="732.7"/><use xlink:href="#B" x="787.5" y="728.2"/><use xlink:href="#B" x="807" y="726.2"/><use xlink:href="#B" x="826.5" y="726"/><use xlink:href="#B" x="884.8" y="730.7"/><use xlink:href="#B" x="904.3" y="729"/></g></g><g transform="matrix(-1 0 0 1 1423.8 -808.3)"><g class="F"><use xlink:href="#C" x="873.8" y="808.3"/><use xlink:href="#D" x="873.8" y="808.3"/></g><path d="m1029.9 990 8-.1" class="D E"/><g class="H"><use xlink:href="#B" x="917.1" y="794.2"/><use xlink:href="#B" x="907.4" y="793.4"/><use xlink:href="#B" x="899.4" y="791.7"/><use xlink:href="#B" x="891.3" y="789.5"/><use xlink:href="#B" x="790.3" y="891"/><use xlink:href="#B" x="782.6" y="873"/><use xlink:href="#B" x="778.3" y="854.1"/><use xlink:href="#B" x="778.9" y="835.4"/><use xlink:href="#B" x="882.9" y="787.6"/><use xlink:href="#B" x="874.2" y="785.7"/><use xlink:href="#B" x="864.9" y="784.1"/><use xlink:href="#B" x="855.5" y="783"/><use xlink:href="#B" x="844.8" y="783.1"/><use xlink:href="#B" x="832.8" y="784.9"/><use xlink:href="#B" x="820" y="788.5"/><use xlink:href="#B" x="806.3" y="794.6"/><use xlink:href="#B" x="793.9" y="804.9"/><use xlink:href="#B" x="784.5" y="818.8"/></g></g><g class="F"><path d="M300.3 178c-9.3-24.4-5.9-66-12-88.3-2.4-9-8.6-13.2-13.3-13.2s-11 4.2-13.4 13.2c-6 22.3-2.6 63.9-11.9 88.3l25.3 26z"/><path d="M284.2 92.2c5.8 26.8 1.5 56.6 10.3 84.4L275 197l-19.5-20.5c8.8-27.8 4.5-57.6 10.3-84.4 1-4.7 4.7-10.7 9.2-10.7s8.2 6 9.2 10.7z"/></g><path d="m249.7 178 5.8-1.4m44.8 1.4-5.8-1.4" class="D E"/><g class="H"><use xlink:href="#B" x="53.1" y="-28.2"/><use xlink:href="#B" x="53.1" y="-25.7"/><use xlink:href="#B" x="53.1" y="-21.9"/><use xlink:href="#B" x="53.1" y="-15.2"/><use xlink:href="#B" x="53.1" y="76.8"/><use xlink:href="#B" x="53.1" y="59.5"/><use xlink:href="#B" x="53.1" y="41.4"/><use xlink:href="#B" x="53.1" y="-6.6"/><use xlink:href="#B" x="53.1" y="5.7"/><use xlink:href="#B" x="53.1" y="22.9"/></g><g class="F"><path d="M495.4 261.7c-9 15.2-24.4 32.7-39.4 43.6l-12.4-6c23.3-9 38.1-23.1 51.8-37.6zm-440.8 0c9 15.2 24.4 32.7 39.4 43.6l12.4-6c-23.3-9-38.1-23.1-51.8-37.6zm142.7-31.6a25 25 0 0 1-15.9 11c3 2.6 3.9 5.7 4.2 9.5-10.8-3.7-16.2-.5-22-5l-6.7-5-2.6-12.4 4.4-6.1c3.7-5.2 11-3.9 19-9.2 1.3 3.7 1.7 6.8-.1 9.8 7.3-.3 14 3.1 19.6 7.4zm155.4 0c3.8 5.3 8.7 9.9 15.9 11-3 2.6-3.9 5.7-4.2 9.5 10.8-3.7 16.2-.5 22-5l6.7-5 2.6-12.4-4.4-6.1c-3.7-5.2-11-3.9-19-9.2-1.3 3.7-1.7 6.8.1 9.8-7.3-.3-14 3.1-19.7 7.4z"/><path d="M280 231.8v16.4c0 26.8 47.2 39 54.6.2.4-2.3 2.7-3.8 5-3.5s4 2.4 3.9 4.7c-1.7 36.3 42.2 31.2 48.8 1.7l3.9-17.2c.5-2.5 3.4-4.2 6-3.6s4.3 3.3 3.8 5.8l-4 17.2c-6.5 29 20.6 39.2 46.8 3.4 1.5-2 4.4-2.7 6.4-1.4s2.5 4.2 1.4 6.4c-20.4 43.8 9 21 32.1-7 1.7-2 5.1-2.4 7.2-.8s2.3 5.1.6 7.2c-43 53.8-58.8 34.5-56.2 19-18.2 14.6-40.5 13.3-47.5-8.5-16.1 18.2-45.3 18.8-55.9-3.7-17.4 23.2-49.6 16.9-61.9-2.5-12.3 19.4-44.5 25.7-62 2.5-10.5 22.5-39.7 21.9-55.8 3.7-7 21.8-29.3 23-47.4 8.5 2.5 15.5-13.2 34.8-56.3-19-1.7-2-1.5-5.5.6-7.2s5.5-1.2 7.2.9c23 27.8 52.5 50.7 32 6.9-1-2.2-.6-5.1 1.5-6.4s5-.6 6.4 1.4c26.2 35.8 53.3 25.6 46.7-3.4l-3.9-17.2c-.5-2.5 1.4-5.3 3.9-5.8s5.4 1.1 6 3.6l3.8 17.2c6.6 29.5 50.5 34.6 48.8-1.7a4.5 4.5 0 0 1 8.9-1.2c7.4 38.7 54.7 26.6 54.7-.2v-16.4c0-2.6 2.3-5 4.9-5s5 2.4 5 5z"/></g><use xlink:href="#B" x="-11.6" y="145.6" class="H"/><path d="M102.3 240a31 31 0 0 0 19.7 7.4c-1.8 3-1.4 6.1-.2 9.8 10-6 15.4-4 19.1-9.2l4.4-6.2-2.6-12.4-6.7-5c-5.7-4.2-11.5-1.4-22-5 .3 3.9 1.2 7 4.2 9.5a25 25 0 0 0-15.9 11z" class="F"/><path d="M141.4 236.1c-15.1-.2-19.4 1.8-32.6 3.2m32-8c-9.5-6-16.2-3.5-22.3-7.7m24.2 17.7c-6.6 6.3-11.5 4-17.2 9.5" class="D E"/><path d="M137.5 184.8c-2 6.7-5 12.7-2 20.3-3.2-2.3-7-3.1-10.5-2.3 6.8 10.4 5.3 16.4 11.2 21.3l6.5 5.4 11.6-1.2 4-6.5c3.4-5.4 0-11.5 2-22.6-3.5-.1-6.4.4-8.4 3.2a29 29 0 0 0-14.4-17.6z" class="F"/><path d="M152 226c3.1-7.3.4-14.2 4.3-22.3m-12.2 23.7c-7.8-7.8-7.3-15-13-20.7m16.8 19.3c-4.9-13-3.7-23-8.2-34.5m15.9 38.4c6.5-7 12.1-5.1 18.6-11m-17 19.5c9.3 3.7 12.4 1.5 22.3 7.3m-21.2-11.3c14.1-3.9 20-1.2 32.8-3.6" class="D E"/><path d="M159.5 235a10 10 0 1 1-20 0 10 10 0 0 1 10-10 10 10 0 0 1 10 10z" class="G I"/><g class="F"><path d="M45 247c-6.9-9.7-12.6-16-33.6-17.9 7.2-10.8 22.2-14 32-4 .9-2.7 1.4-3.6 4-6.1 2.3 7 12.5 12.4 8.5 25l-4 12.4z"/><path d="M84.5 243.9c-1.5 5.8-4 11-8.6 13.5 2.4 2 3.5 4.8 4.4 8.4 0 0-10.5-.8-15 .2-5.3 1.2-9.3-1-10.2-1.9l-5-9.7c3.9-6.8 4.6-10.5 7.5-14.2 2.8-3.7 7.5-7 10.8-9.8 1.5 3.4 2.4 6.4 1.7 9.6 4.8-1.5 9.9.7 14.4 3.9z"/></g><path d="M49 252.6c-.5-5.2 1.2-9.8 1-14-.7-7.6-3.1-10-2.8-14m5.6 34.2c8.2-6.6 15.7-7.8 25.5-13.4m-27 9.7c3.6-6 11-9.3 15-18.7m-12.4 25.8c7 1 11.3-3.1 19.8 0" class="D E"/><path d="M55.1 264.1a10 10 0 0 1-4.4 1 10 10 0 0 1-5.7-18 25 25 0 0 1 10.1 17z" class="G I"/><path d="M307 220.7c2.5-2.7 2.7-5.9 2.3-9.6-12 5-17 2.3-22.1 7l-6 5.7v12.5l6 5.6c5 4.8 10 2 22 7 .5-3.7.3-6.8-2.3-9.6 7.8-.4 14-4.5 19.1-9.3-5-4.8-11.3-8.8-19-9.3z" class="F"/><path d="M284.1 230h34.7m-36.2 4c10.2 6.3 14.4 4.4 21.9 9.7m-21.9-17.6c10.2-6.4 14.4-4.5 21.9-9.7" class="D E"/><path d="M243 220.7c-2.5-2.7-2.7-5.9-2.3-9.6 12 5 17 2.3 22.1 7l6 5.7v12.5l-6 5.6c-5 4.8-10 2-22 7-.5-3.7-.3-6.8 2.3-9.6-7.8-.4-14-4.5-19.1-9.3 5-4.8 11.3-8.8 19-9.3z" class="F"/><path d="M265.9 230h-34.7m36.2 4c-10.2 6.3-14.4 4.4-21.9 9.7m21.9-17.6c-10.2-6.4-14.4-4.5-21.9-9.7" class="D E"/><path d="M284.3 198c2.8-2.5 5.9-2.7 9.7-2.2-5 12-2.4 17-7.2 22l-5.6 6h-12.4l-5.6-6c-4.8-5-2.2-10-7.2-22 3.8-.5 7-.3 9.7 2.3.5-7.8 4.5-14 9.3-19 4.8 5 8.8 11.2 9.3 19z" class="F"/><path d="M275 221v-34.8m-4 36.2c-6.3-10.2-4.4-14.3-9.7-21.9m17.7 22c6.3-10.3 4.4-14.4 9.7-22" class="D E"/><path d="M275 220a10.1 10.1 0 1 1 0 20.1 10.1 10.1 0 0 1 0-20.2z" class="G I"/><g class="H"><use xlink:href="#E"/><use xlink:href="#E" x="114.4" y="10.9"/></g><path d="M447.7 240a31 31 0 0 1-19.7 7.4c1.8 3 1.4 6.1.2 9.8-10-6-15.4-4-19.1-9.2l-4.4-6.2 2.6-12.4 6.7-5c5.7-4.2 11.5-1.4 22-5-.3 3.9-1.2 7-4.2 9.5a25 25 0 0 1 15.9 11z" class="F"/><path d="M408.6 236.1c15.1-.2 19.4 1.8 32.6 3.2m-32-8c9.5-6 16.2-3.5 22.3-7.7m-24.2 17.7c6.6 6.3 11.6 4 17.2 9.5" class="D E"/><path d="M412.5 184.8c2 6.7 5 12.7 2 20.3 3.2-2.3 7-3.1 10.5-2.3-6.8 10.4-5.3 16.4-11.2 21.3l-6.5 5.4-11.6-1.2-4-6.5c-3.4-5.4 0-11.5-2-22.6 3.5-.1 6.4.4 8.4 3.2a29 29 0 0 1 14.4-17.6z" class="F"/><path d="M398 226c-3.1-7.3-.4-14.2-4.3-22.3m12.2 23.7c7.8-7.8 7.3-15 13-20.7M402.1 226c4.9-13 3.7-23 8.2-34.5m-15.9 38.4c-6.5-7-12.1-5.1-18.6-11m17 19.5c-9.3 3.7-12.4 1.5-22.3 7.3m21.2-11.3c-14.1-3.9-20-1.2-32.8-3.6" class="D E"/><path d="M390.5 235a10 10 0 0 0 10 10 10 10 0 1 0 0-20 10 10 0 0 0-10 10z" class="G I"/><path d="M505 247c6.9-9.7 12.6-16 33.6-17.9-7.2-10.8-22.2-14-32-4-.9-2.7-1.4-3.6-4-6.1-2.3 7-12.5 12.4-8.5 25l4 12.4z" class="F"/><path d="M501 252.6c.5-5.2-1.2-9.8-1-14 .6-7.6 3.1-10 2.8-14" class="D E"/><path d="M465.5 243.9c1.5 5.8 4 11 8.6 13.5-2.4 2-3.5 4.8-4.4 8.4 0 0 10.5-.8 15 .2 5.3 1.2 9.3-1 10.2-1.9l5-9.7c-3.9-6.8-4.6-10.5-7.5-14.2-2.8-3.7-7.5-7-10.8-9.8-1.5 3.4-2.4 6.4-1.7 9.6-4.8-1.5-9.9.7-14.4 3.9z" class="F"/><path d="M497.2 258.8c-8.2-6.6-15.7-7.8-25.5-13.4m27 9.7c-3.6-6-11-9.3-15-18.7m12.4 25.8c-7 1-11.3-3.1-19.8 0" class="D E"/><path d="M494.9 264.1a10 10 0 0 0 4.4 1 10 10 0 0 0 5.7-18 25 25 0 0 0-10.1 17z" class="G I"/><use xlink:href="#B" x="-126" y="156.5" class="H"/><path d="M104.2 348.7c0 6.9 37.5 21 170.8 21s170.8-14.1 170.8-21-37.5-21-170.8-21-170.8 14.1-170.8 21z" class="G"/><g class="D E"><path stroke-width="5.5" d="M125.4 339.5V358"/><path d="M131.9 338v21.4" class="K"/><path stroke-width="5" d="M138.3 337v23.3"/><path d="M144.7 335.9v25.6" class="L"/><path stroke-width="4.5" d="M151.2 334.8v27.8"/><path d="M157.6 333.9v29.6" class="M"/><path stroke-width="4" d="M164 333v31.5"/><path d="M170.5 332.1v33.2" class="N"/><path stroke-width="3.5" d="M177 331.6v34.2"/><path d="M183.4 331v35.4" class="O"/><path d="M189.8 330v37.3" class="J"/><path d="M196.2 329.6v38.2" class="P"/><path stroke-width="2.5" d="M202.7 329.3v38.8"/><path d="M209.1 328.8v39.8" class="Q"/><path stroke-width="2" d="M215.5 328.3v40.8"/><path d="M222 328v41.4" class="R"/><path stroke-width="1.5" d="M228.4 327.6v42.2"/><path d="M234.9 327.3v42.8" class="S"/><path d="M241.3 326.5v44.4"/><path stroke-width=".8" d="M247.7 326.5v44.4"/><path stroke-width=".5" d="M254.2 326.5v44.4"/><path stroke-width=".3" d="M260.6 326.5v44.4"/><path stroke-width="6" d="M112.5 344v9.4"/><path d="M119 341.6v14.2" class="T"/><path stroke-width="5.5" d="M424.6 339.5V358"/><path d="M418.1 338v21.4" class="K"/><path stroke-width="5" d="M411.7 337v23.3"/><path d="M405.3 335.9v25.6" class="L"/><path stroke-width="4.5" d="M398.8 334.8v27.8"/><path d="M392.4 333.9v29.6" class="M"/><path stroke-width="4" d="M386 333v31.5"/><path d="M379.5 332.1v33.2" class="N"/><path stroke-width="3.5" d="M373 331.6v34.2"/><path d="M366.6 331v35.4" class="O"/><path d="M360.2 330v37.3" class="J"/><path d="M353.8 329.6v38.2" class="P"/><path stroke-width="2.5" d="M347.3 329.3v38.8"/><path d="M340.9 328.8v39.8" class="Q"/><path stroke-width="2" d="M334.5 328.3v40.8"/><path d="M328 328v41.4" class="R"/><path stroke-width="1.5" d="M321.6 327.6v42.2"/><path d="M315.1 327.3v42.8" class="S"/><path d="M308.7 326.5v44.4"/><path stroke-width=".8" d="M302.3 326.5v44.4"/><path stroke-width=".5" d="M295.8 326.5v44.4"/><path stroke-width=".3" d="M289.4 326.5v44.4"/><path stroke-width="6" d="M437.5 344v9.4"/><path d="M431 341.6v14.2" class="T"/></g><g class="F"><path d="M466.1 309c0 10.4-24.2 17-57 21.3H140.9c-32.8-4.2-57-10.9-57-21.2 0-23.3 122.8-28 191.1-28s191.1 4.7 191.1 28zm-370.5 0c0 2.3 41.2 18 179.4 18s179.4-15.7 179.4-18-41.2-18-179.4-18-179.4 15.8-179.4 18z"/><path d="m376.7 330.3 67.9 14.8c2.5-12.2 6.5-22.8 12.9-33.9 0-9.4-73.3-21-182.5-21s-182.5 11.6-182.5 21a110 110 0 0 1 13 34l67.8-14.9z"/></g><path fill="#008f4c" d="m155 306 35-3.3a6.4 6.4 0 0 1 7 5.8 6.4 6.4 0 0 1-5.7 7l-35.1 3.3a6.4 6.4 0 0 1-7-5.8 6.4 6.4 0 0 1 5.7-7z" class="I"/><g class="H"><use xlink:href="#F"/><use xlink:href="#F" x="93.7" y="-8.5"/></g><path d="M255.9 299.6H294l10 6.7-10 6.7H256l-10-6.7z" class="G"/><path d="m294.1 299.6-9.1 6 9.1 7.4M256 299.6l9.1 6-9.1 7.4m-10-6.7 19.1-.7h20l19 .7" class="D E"/><path d="m93.9 327.3 2.6-8.6 14 2L102 332z" class="G"/><path d="m93.9 327.3 16.7-6.6" class="D E"/><path fill="#008f4c" d="m395 306-35-3.3a6.4 6.4 0 0 0-7 5.8 6.4 6.4 0 0 0 5.7 7l35.1 3.3c3.6.3 6.7-2.2 7-5.8a6.4 6.4 0 0 0-5.7-7z" class="I"/><g class="H"><use xlink:href="#G"/><use xlink:href="#G" x="-93.7" y="-8.5"/></g><path d="m456.1 327.3-2.6-8.6-14 2L448 332z" class="G"/><path d="m456.1 327.3-16.7-6.6" class="D E"/><path d="M109.6 348.7c0-2.2 38.7-16.6 165.4-16.6s165.4 14.4 165.4 16.6-38.7 16.6-165.4 16.6-165.4-14.4-165.4-16.6zm-10.8 0c0-22 117.7-25.8 176.2-25.8s176.2 3.8 176.2 25.8-117.7 25.8-176.2 25.8-176.2-3.8-176.2-25.8z" class="F I"/><path d="M25.5 360.5V710a249.6 249.6 0 0 0 499 0V360.5z" class="G"/><path d="M132.4 748.6c-13.9 0-26.5 4.3-35.6 11.2S75 771.1 61.2 771.1a61 61 0 0 1-29.9-7.4 249.7 249.7 0 0 0 487.4 0 61 61 0 0 1-29.9 7.4c-13.9 0-26.5-4.3-35.6-11.3s-21.7-11.2-35.6-11.2-26.5 4.3-35.7 11.2-21.7 11.3-35.6 11.3-26.5-4.3-35.6-11.3-21.8-11.2-35.7-11.2-26.5 4.3-35.7 11.2-21.7 11.3-35.6 11.3-26.5-4.3-35.6-11.3-21.7-11.2-35.7-11.2z" class="H"/><path fill="#0071bc" d="M132.4 790.8c-13.9 0-26.5 4.3-35.6 11.2S75 813.3 61.2 813.3q-7.4 0-14-1.5 10.2 22.8 24.5 42.8a56 56 0 0 0 25-10.4c9.2-7 21.8-11.3 35.7-11.3s26.5 4.4 35.7 11.3 21.7 11.3 35.6 11.3 26.5-4.3 35.6-11.3S261.1 833 275 833s26.5 4.4 35.7 11.3 21.7 11.3 35.6 11.3 26.5-4.3 35.6-11.3 21.7-11.3 35.7-11.3 26.5 4.4 35.6 11.3a56 56 0 0 0 25 10.4 249 249 0 0 0 24.6-42.8q-6.6 1.5-14 1.5c-13.9 0-26.5-4.3-35.6-11.3s-21.7-11.3-35.6-11.3-26.5 4.4-35.7 11.3-21.7 11.3-35.6 11.3-26.5-4.3-35.6-11.3-21.8-11.3-35.7-11.3-26.5 4.4-35.7 11.3-21.7 11.3-35.6 11.3-26.5-4.3-35.6-11.3-21.7-11.3-35.7-11.3zm0 84.3c-13.4 0-25.5 4-34.6 10.5a251 251 0 0 0 38.6 31.8 58 58 0 0 1 31.7 11.2c9 7 21.7 11.2 35.6 11.2s26.5-4.2 35.6-11.2 21.8-11.3 35.7-11.3 26.5 4.3 35.7 11.3 21.7 11.2 35.6 11.2 26.5-4.2 35.6-11.2a58 58 0 0 1 31.7-11.2 251 251 0 0 0 38.6-31.8 59 59 0 0 0-34.6-10.5c-14 0-26.5 4.3-35.7 11.3s-21.7 11.3-35.6 11.3-26.5-4.3-35.6-11.3-21.8-11.3-35.7-11.3-26.5 4.3-35.7 11.3-21.7 11.3-35.6 11.3-26.5-4.3-35.6-11.3-21.7-11.3-35.7-11.3z"/><path d="M275 400.7 260.2 474l-3.9.7c-11.3-34.5-34-24.9-42.3-62-8.8 34.1 15.8 36 14.8 73.2l-4.1 2.8-62.5-41.4 41.5 62.4q-1.2 1.6-2.2 3.3c-32.5-16.5-41.7 6.4-73.8-14 18 30.4 36.6 14.3 62.2 41.3l-1 5-73.4 14.8 73.4 14.8.8 3.9c-34.6 11.3-25 34-62 42.3 34.2 8.8 36-15.9 73.2-14.8l2.8 4.1-41.5 62.4 62.5-41.4 3.2 2.2c-16.4 32.4 6.4 41.7-14 73.8 30.5-18 14.3-36.7 41.4-62.2l4.9 1 14.8 73.4 14.8-73.5 4-.7c11.3 34.5 34 24.9 42.3 62 8.8-34.2-16-36-14.9-73.2l4.1-2.8 62.5 41.4-41.4-62.3 2.2-3.3c32.4 16.4 41.6-6.5 73.8 13.9-18-30.4-36.7-14.3-62.2-41.3l1-4.9 73.3-14.8-73.4-14.9-.7-3.9c34.5-11.3 24.9-34 62-42.3-34.2-8.8-36 15.9-73.2 14.8l-2.8-4.1 41.4-62.4-62.4 41.4-3.3-2.2c16.4-32.4-6.4-41.7 14-73.8-30.4 18-14.3 36.7-41.3 62.3q-2.4-.6-5-1z" class="F"/><path d="M354.4 560.2a79.3 79.3 0 1 1-158.7 0 79.3 79.3 0 0 1 158.7 0z" class="D"/><path d="M266.5 531c-9.9-14-37.6-14.6-55 6.2a48 48 0 0 1 55-6.3z"/><path d="M221.8 547.3c13.4-11.2 26-9.5 35.1.8a32 32 0 0 1-35.1-.8z" class="D"/><path d="M246.5 546.3a6.5 6.5 0 1 1-12.9 0 6.5 6.5 0 0 1 13 0z"/><path d="M215.4 546.4c11.3-13.5 29.5-12.9 36.3-8.2 4.6 3.1 7.3 6.3 12 7.3m-43.6 6.3c21.5 11.1 31.3 5.3 40.8-1.3m2.7 23.8c8.4-11 9-35.2 3-43.4m-9.9 45.2c-9.2 7.7 5.7 16.4 8.4 6.2 1 3.3 5.5 5.2 10 5.2s9-2 10-5.2c2.7 10.2 17.6 1.5 8.4-6.2m-44.3 32.3c20.8-3.7 17.5 0 25.9 0s5-3.7 26 0" class="D E"/><path d="M283.7 531c9.9-14 37.6-14.6 55 6.2a48 48 0 0 0-55-6.3z"/><path d="M328.5 547.3c-13.5-11.2-26.1-9.5-35.2.8a32 32 0 0 0 35.2-.8z" class="D"/><path d="M303.7 546.3a6.5 6.5 0 1 0 12.9 0 6.5 6.5 0 0 0-13 0z"/><g class="D"><path d="M334.8 546.4c-11.3-13.5-29.5-12.9-36.3-8.2-4.6 3.1-7.2 6.3-12 7.3m43.6 6.3c-21.5 11.1-31.3 5.3-40.8-1.3m-2.7 23.8c-8.4-11-9-35.2-3-43.4" class="E"/><path d="M301 608.4c-9.2-4.9-12-14.7-25.9-8.3-14-6.4-16.7 3.4-26 8.3 15.9.9 11.7 10.2 26 10.2s10.1-9.3 26-10.2z"/><path d="M26.5 361.5V710a248.6 248.6 0 0 0 497 0V361.5z" class="J"/></g></g></g><defs><path id="B" d="M229.7 100.4a7.8 7.8 0 1 1-15.6 0 7.8 7.8 0 0 1 15.6 0"/><path id="C" d="M190 83.3c-58.7 8.3-67.6 61.3-37.2 98.7l-11.2 18.1 7.3 1.2 15.2-19.7c-38.5-45.7-16.7-84.6 27-89.8 31.5-3.8 52 13.6 83.9 10.5v-8.5c-24.7 3.6-57.3-14.4-85-10.5"/><path id="D" d="m141.6 200.1 14.5-18.5c-27.9-29.7-24.6-83 20.6-95.5-77.2 18-51.4 73-52.5 102.3z"/><path id="E" d="M331.9 246a7.8 7.8 0 1 0 15.5 0 7.8 7.8 0 0 0-15.5 0"/><path id="F" d="M136.3 316a7.8 7.8 0 1 1-15.6 0 7.8 7.8 0 0 1 15.6 0"/><path id="G" d="M413.7 316a7.8 7.8 0 1 0 15.6 0 7.8 7.8 0 0 0-15.6 0"/></defs></svg>