<svg xmlns="http://www.w3.org/2000/svg" width="848.02" height="423.56" viewBox="0 0 848.02 423.56"><path fill="#fff" d="M0 0h848.02v423.56H0Z"/><path fill="#0097b2" d="M712.07 357.85V72.6h90.38v285.25zM255.98 357.85V72.69h124.15v285.16z" opacity=".49"/><path fill="red" d="M499.99 20.41c-.21.15-.3.53-.5.74a1 1 0 0 1-.48.25 1 1 0 0 1-.07.37q0 .03-.05.07h-.06l-.27-.01.1.3q.03.17.16.23.09.02.12.07v.08q-.05.16.06.28l.17.25a.6.6 0 0 1 .05.36 1 1 0 0 1-.13.35q.04.15.03.3a.4.4 0 0 1-.13.27.4.4 0 0 1-.24.09 1 1 0 0 1-.46-.1q-.15.18-.38.24c-.1.03-.22.03-.32.09l-.02.1q0 .02-.02 0l-.07-.01q-.04 0-.06.04l.01.07q.02.1-.03.21t-.06.2q.25.14.3.44.04.18-.04.35t-.26.21q.02.17-.02.3a.4.4 0 0 1-.15.23q-.16.09-.34.1l-.4.08q-.12 0-.2.08a.5.5 0 0 0-.43-.18l-.17.02q-.14-.01-.27-.12v.19q0 .03 0 .07-.03.04-.1.04l-.2.06c.05.14.03.32-.02.46q-.07.22-.15.42a.6.6 0 0 0-.03.35q-.25.07-.47.22c-.15.08-.31.15-.48.12a1 1 0 0 1-.28-.14l-.21-.23a.6.6 0 0 1-.3.13.3.3 0 0 1-.28-.1.4.4 0 0 1-.07-.21q0-.09-.02-.16a.5.5 0 0 1-.26.08h-.08l-.04.06a.3.3 0 0 0 0 .18q-.1-.03-.2.04-.09.07-.14.16l-.1.18a1 1 0 0 1-.42.27.7.7 0 0 1-.52.51h-.06a.7.7 0 0 1-.52-.5q-.25-.1-.41-.28l-.11-.18a1 1 0 0 0-.13-.16q-.1-.07-.21-.04a.3.3 0 0 0 0-.18l-.04-.05q-.03-.02-.08-.01a1 1 0 0 1-.26-.08c-.02.07-.01.09-.02.16a.4.4 0 0 1-.07.2.3.3 0 0 1-.29.11.6.6 0 0 1-.29-.12v-.01l-.2.23a1 1 0 0 1-.29.14c-.17.03-.33-.04-.48-.12q-.22-.16-.47-.22a.6.6 0 0 0-.03-.35l-.15-.42a1 1 0 0 1-.02-.46l-.2-.06q-.07.01-.1-.04 0-.04 0-.07v-.19q-.12.1-.27.12l-.17-.02a.5.5 0 0 0-.44.18q-.07-.07-.19-.08l-.4-.08a1 1 0 0 1-.34-.1.4.4 0 0 1-.15-.23 1 1 0 0 1-.02-.3q-.18-.04-.26-.21a.6.6 0 0 1-.05-.35.6.6 0 0 1 .32-.45q-.01-.1-.07-.19-.05-.1-.03-.21 0-.04 0-.07t-.05-.04l-.07.02h-.02v-.01l-.02-.1c-.1-.06-.22-.06-.32-.09a.7.7 0 0 1-.38-.24 1 1 0 0 1-.46.1.4.4 0 0 1-.24-.1.4.4 0 0 1-.13-.26l.03-.3a1 1 0 0 1-.13-.35.6.6 0 0 1 .05-.36l.17-.25q.1-.12.07-.28-.01-.04-.01-.08.03-.05.12-.07.12-.06.16-.23l.1-.3-.27.02-.06-.01q-.04-.03-.05-.07a1 1 0 0 1-.07-.37 1 1 0 0 1-.49-.25c-.19-.2-.28-.59-.49-.74q.17-.21.27-.45.12-.24.32-.4.16-.11.37-.17v-.24a.3.3 0 0 1 .13-.19.3.3 0 0 1 .17-.03c.06 0 .17.04.23.06-.04-.1-.1-.16-.14-.27l-.05-.18a.3.3 0 0 0-.23-.16q.02-.12-.05-.25l-.12-.26q-.1-.15-.13-.3a.5.5 0 0 1 .12-.44.6.6 0 0 1 .05-.51q.06-.12.16-.18a1 1 0 0 1 .25-.06h.2q.1.02.18.08l.2-.15a1 1 0 0 1 .22-.08l.13-.01q.06-.01.11-.05c.03-.03.03-.12.01-.16l.06.03.07-.01q.02-.04.02-.09v-.14q.04-.15.13-.28-.13-.06-.25-.16a.5.5 0 0 1-.14-.24.5.5 0 0 1 .08-.33q.1-.14.24-.24 0-.16.05-.32a.5.5 0 0 1 .17-.25 1 1 0 0 1 .27-.08q.15 0 .29-.03a1 1 0 0 0 .36-.13q.05.07.14.1.08.04.15.05l.21.02q.08-.01.13-.01.07 0 .12.04l.12.07c.03-.08-.01-.17.03-.24q.05-.07.14-.08.08 0 .16-.04a.7.7 0 0 1-.02-.44c.04-.12.12-.21.16-.33q.07-.22.04-.45c.22-.05.42-.2.63-.29q.15-.07.3-.05.07.02.16.08l.26.17q.16-.06.33-.07a.4.4 0 0 1 .3.12q.06.08.09.18l.08.2q.12-.06.25-.06.08.01.16.04l.15.02q.08.01.14.05v-.01a.7.7 0 0 1-.06-.46 1 1 0 0 1 .11-.22q.16-.23.43-.3.1-.2.23-.35.14-.15.34-.2a1 1 0 0 1 .34.2q.14.15.23.35.26.08.43.3.08.1.1.22a.7.7 0 0 1-.04.46H492q.07-.03.14-.04.08 0 .15-.02.07-.01.15-.04.14 0 .26.07l.08-.21.1-.18a.4.4 0 0 1 .3-.12q.15.01.32.07l.26-.17q.07-.05.17-.08.15-.02.3.05c.2.1.4.24.62.3q-.03.22.04.44c.04.12.12.21.16.33a.7.7 0 0 1-.02.44q.07.03.16.04.09 0 .14.08c.04.07 0 .16.03.24l.12-.07.12-.04h.13q.1.02.2 0l.16-.05q.09-.04.14-.11.16.1.36.13l.29.03q.15 0 .27.08.12.1.17.25.06.16.05.32.15.1.24.24.1.15.08.33a.5.5 0 0 1-.15.24q-.1.1-.24.16.09.13.12.28v.14q0 .05.03.09l.07.01.06-.03c-.02.04-.02.13 0 .16q.05.04.12.05h.13q.12.03.22.1l.2.14a.4.4 0 0 1 .19-.08h.2q.12 0 .24.06.1.06.16.18c.09.15.12.35.05.51q.16.19.12.44-.03.15-.13.3l-.12.26q-.08.13-.05.25a.3.3 0 0 0-.23.16l-.05.18c-.03.1-.1.16-.14.27l.23-.06q.1 0 .17.03.1.07.12.2.03.1.01.23.2.06.37.16.2.17.31.41.13.25.28.45zm-9.04-9.14h.02z"/><path fill="#827970" d="M481.76 11.2h18.4v18.38h-18.4Z"/><path fill="none" stroke="#a4a4a4" stroke-miterlimit="10" d="M71.12 358.85V73.1"/><path fill="#827970" d="M79.4 357.85v-231.5h23.2v231.5z"/><path fill="#827970" d="M79.4 126.3h23.2v231.55H79.4z" clip-rule="evenodd"/><path fill="#827970" d="M109.67 357.85v-207.4h23.2v207.4z"/><path fill="#827970" d="M109.67 150.46h23.2v207.39h-23.2z" clip-rule="evenodd"/><path fill="#827970" d="M139.95 357.85V136.93h23.2v220.92z"/><path fill="#827970" d="M139.95 136.9h23.2v220.95h-23.2z" clip-rule="evenodd"/><path fill="#827970" d="M170.22 357.85V173.64h23.2v184.2z"/><path fill="#827970" d="M170.22 173.6h23.2v184.25h-23.2z" clip-rule="evenodd"/><path fill="#827970" d="M200.5 357.85v-169.8h23.2v169.8z"/><path fill="#827970" d="M200.5 188.1h23.2v169.75h-23.2z" clip-rule="evenodd"/><path fill="#827970" d="M230.77 357.85V209.97h23.2v147.88z"/><path fill="#827970" d="M230.77 209.97h23.2v147.88h-23.2z" clip-rule="evenodd"/><path fill="#827970" d="M259.86 357.85V300h22.85v57.84z"/><path fill="#827970" d="M259.86 299.96h22.85v57.89h-22.85z" clip-rule="evenodd"/><path fill="#827970" d="M288.23 357.85v-73.98h24.18v73.98z"/><path fill="#827970" d="M288.23 283.91h24.18v73.94h-24.18z" clip-rule="evenodd"/><path fill="#827970" d="M321.6 357.85V234.53h23.19v123.32z"/><path fill="#827970" d="M321.6 234.53h23.19v123.32h-23.2z" clip-rule="evenodd"/><path fill="#827970" d="M352.94 357.85v-76.5h20.22v76.5z"/><path fill="#827970" d="M352.94 281.31h20.22v76.54h-20.22z" clip-rule="evenodd"/><path fill="#827970" d="M382.14 357.85V173.64h23.2v184.2z"/><path fill="#827970" d="M382.14 173.6h23.2v184.25h-23.2z" clip-rule="evenodd"/><path fill="#827970" d="M412.41 357.85v-207.4h23.2v207.4z"/><path fill="#827970" d="M412.41 150.46h23.2v207.39h-23.2z" clip-rule="evenodd"/><path fill="#827970" d="M442.69 357.85V137.49h23.2v220.36z"/><path fill="#827970" d="M442.69 137.53h23.2v220.32h-23.2z" clip-rule="evenodd"/><path fill="#827970" d="M472.96 357.85V110.2h23.2v247.64z"/><path fill="#827970" d="M472.96 110.22h23.2v247.63h-23.2z" clip-rule="evenodd"/><path fill="#827970" d="M503.24 357.85V95.63h23.2v262.22z"/><path fill="#827970" d="M503.24 95.63h23.2v262.22h-23.2z" clip-rule="evenodd"/><path fill="#827970" d="M533.5 357.85V69.08h23.2v288.77z"/><path fill="#827970" d="M533.5 69.07h23.2v288.78h-23.2z" clip-rule="evenodd"/><path fill="#827970" d="M563.78 357.85V89.83h23.2v268.02z"/><path fill="#827970" d="M563.78 89.8h23.2v268.05h-23.2z" clip-rule="evenodd"/><path fill="#827970" d="M594.06 357.85V109.7h23.2v248.15z"/><path fill="#827970" d="M594.06 109.71h23.2v248.14h-23.2z" clip-rule="evenodd"/><path fill="#827970" d="M624.33 357.85v-207.4h23.2v207.4z"/><path fill="#827970" d="M624.33 150.46h23.2v207.39h-23.2z" clip-rule="evenodd"/><path fill="#827970" d="M654.6 357.85V173.64h23.2v184.2z"/><path fill="#827970" d="M654.6 173.6h23.2v184.25h-23.2z" clip-rule="evenodd"/><path fill="#827970" d="M684.87 357.85V212.99h23.2v144.86z"/><path fill="#827970" d="M684.87 212.95h23.2v144.9h-23.2Z" clip-rule="evenodd"/><path fill="#827970" d="M715.15 357.85V234.89h23.2v122.96z"/><path fill="#827970" d="M715.15 234.94h23.2v122.9h-23.2z" clip-rule="evenodd"/><path fill="#827970" d="M745.42 357.85v-85.42h23.2v85.42z"/><path fill="#827970" d="M745.42 272.46h23.2v85.39h-23.2z" clip-rule="evenodd"/><path fill="#827970" d="M775.7 357.85V254.19h23.2v103.66z"/><path fill="#827970" d="M775.7 254.16h23.2v103.69h-23.2z" clip-rule="evenodd"/><path fill="none" stroke="#a4a4a4" stroke-miterlimit="10" stroke-width=".99" d="M71.12 358.35h747.8"/><path fill="red" d="M714.98 20.41c-.21.15-.3.53-.5.74a1 1 0 0 1-.47.25 1 1 0 0 1-.08.37q0 .03-.05.07h-.06l-.27-.01.1.3q.05.17.17.23.08.02.11.07v.08q-.04.16.06.28l.17.25a.6.6 0 0 1 .05.36 1 1 0 0 1-.13.35q.04.15.03.3a.4.4 0 0 1-.12.27.4.4 0 0 1-.25.09 1 1 0 0 1-.46-.1q-.16.18-.37.24c-.11.03-.23.03-.33.09l-.01.1q-.01.02-.03 0l-.07-.01q-.04 0-.05.04 0 .03 0 .07.03.1-.03.21-.04.1-.06.2.25.14.3.44.05.18-.04.35t-.25.21q0 .17-.03.3a.4.4 0 0 1-.15.23q-.15.09-.34.1l-.4.08c-.06 0-.15.03-.19.08a.5.5 0 0 0-.43-.18l-.18.02q-.14-.01-.26-.12v.19l-.01.07q-.03.04-.1.04l-.2.06c.05.14.03.32-.02.46q-.07.22-.15.42a.6.6 0 0 0-.03.35q-.24.07-.46.22c-.15.08-.32.15-.49.12a1 1 0 0 1-.28-.14l-.2-.23h-.01a.6.6 0 0 1-.3.13.3.3 0 0 1-.28-.1.4.4 0 0 1-.07-.21q0-.09-.02-.16a.5.5 0 0 1-.26.08h-.08l-.04.06a.3.3 0 0 0 0 .18q-.1-.03-.2.04-.09.07-.14.16l-.1.18a1 1 0 0 1-.41.27h-.01a.7.7 0 0 1-.52.51h-.06a.7.7 0 0 1-.52-.5q-.24-.1-.41-.28l-.1-.18a1 1 0 0 0-.14-.16q-.1-.07-.2-.04a.3.3 0 0 0-.01-.18l-.03-.05q-.05-.02-.08-.01a.5.5 0 0 1-.27-.08l-.02.16a.4.4 0 0 1-.07.2.3.3 0 0 1-.29.11 1 1 0 0 1-.28-.12v-.01l-.22.23a1 1 0 0 1-.28.14c-.16.03-.33-.04-.48-.12q-.22-.16-.47-.22a.6.6 0 0 0-.02-.35q-.09-.2-.16-.42a1 1 0 0 1-.02-.46l-.2-.06q-.07.01-.1-.04v-.26q-.12.1-.27.12l-.17-.02a.5.5 0 0 0-.44.18q-.07-.07-.19-.08l-.4-.08a1 1 0 0 1-.34-.1.4.4 0 0 1-.15-.23 1 1 0 0 1-.02-.3q-.18-.04-.26-.21a.6.6 0 0 1-.04-.35.6.6 0 0 1 .3-.45q0-.1-.06-.19-.05-.1-.03-.21.02-.04 0-.07 0-.04-.05-.04l-.07.02h-.02v-.01l-.02-.1c-.1-.06-.21-.06-.32-.09a.7.7 0 0 1-.38-.24 1 1 0 0 1-.46.1.4.4 0 0 1-.24-.1.4.4 0 0 1-.13-.26l.03-.3a1 1 0 0 1-.13-.35.6.6 0 0 1 .05-.36q.08-.12.18-.25.09-.12.06-.28-.01-.04-.01-.08.03-.05.12-.07.13-.06.16-.23l.1-.3-.27.02-.06-.01q-.04-.03-.05-.07a1 1 0 0 1-.07-.37 1 1 0 0 1-.48-.25c-.2-.2-.28-.59-.5-.74q.17-.21.28-.45t.32-.4q.16-.11.36-.17v-.24a.3.3 0 0 1 .14-.19.3.3 0 0 1 .16-.03c.06 0 .17.04.23.06-.04-.1-.1-.16-.14-.27q-.02-.09-.05-.18a.3.3 0 0 0-.23-.16q.03-.12-.04-.25l-.13-.26q-.08-.15-.13-.3a.5.5 0 0 1 .13-.44.6.6 0 0 1 .04-.51q.07-.12.16-.18a1 1 0 0 1 .25-.06h.2q.1.02.19.08l.19-.15a1 1 0 0 1 .23-.08l.12-.01q.07-.01.12-.05c.03-.03.03-.12 0-.16l.06.03.07-.01q.03-.04.03-.09v-.14c0-.1.07-.19.12-.28q-.13-.06-.24-.16a.5.5 0 0 1-.15-.24.5.5 0 0 1 .08-.33q.1-.14.24-.24 0-.16.05-.32a.5.5 0 0 1 .18-.25 1 1 0 0 1 .27-.08q.14 0 .28-.03a1 1 0 0 0 .36-.13q.06.07.14.1.08.04.15.05l.22.02q.06-.01.13-.01.06 0 .1.04l.13.07c.03-.08 0-.17.03-.24q.06-.07.14-.08t.16-.04a.7.7 0 0 1-.02-.44q.08-.17.16-.33.07-.22.04-.45c.22-.05.42-.2.63-.29q.15-.07.3-.05.07.02.16.08l.26.17q.16-.06.33-.07a.4.4 0 0 1 .3.12q.06.08.1.18l.07.2q.12-.06.26-.06.07.01.15.04l.15.02q.08.01.14.05v-.01a.7.7 0 0 1-.06-.46 1 1 0 0 1 .11-.22q.17-.23.43-.3.1-.2.23-.35.15-.15.34-.2a1 1 0 0 1 .34.2q.14.15.23.35.26.08.43.3.08.1.11.22a.7.7 0 0 1-.05.46q.05-.03.13-.04.07 0 .15-.02.07-.01.16-.04.13 0 .26.07l.07-.21.1-.18a.4.4 0 0 1 .3-.12q.15.01.32.07l.26-.17q.08-.05.17-.08.15-.02.3.05c.2.1.4.24.62.3 0 .14-.02.3.04.44.04.12.12.21.16.33a.7.7 0 0 1-.02.44q.07.03.16.04.08 0 .14.08c.04.07 0 .16.03.24l.12-.07.12-.04h.13q.1.02.2 0l.16-.05q.08-.04.14-.11.17.1.36.13l.29.03q.15 0 .27.08.12.1.18.25.04.16.05.32.13.1.23.24.1.15.08.33a.5.5 0 0 1-.14.24q-.12.1-.25.16.09.13.13.28v.14q0 .05.03.09l.06.01.06-.03c-.02.04-.02.13 0 .16q.06.04.12.05h.13q.13.03.22.1l.2.14a.4.4 0 0 1 .19-.08h.2q.13 0 .24.06t.17.18c.08.15.11.35.04.51q.16.19.12.44-.04.15-.12.3l-.13.26q-.07.13-.05.25a.3.3 0 0 0-.23.16l-.04.18c-.04.1-.11.16-.15.27l.23-.06q.1 0 .17.03.1.07.13.2v.23q.2.06.37.16.2.17.32.41.11.25.27.45zm-9.04-9.14h.01z"/><path fill="#0097b2" d="M696.75 11.2h18.4v18.38h-18.4z"/><path fill="#a4a4a4" d="M50.24 11.98h2.03v15.51h-2.33l-7.92-12.53h-.05v12.53h-2V11.98h2.45L50.2 24.5h.05zm10.45 7.9v1.03H54.3v-1.03zm-1.23-4.72q0-1.09-.5-1.78a1.7 1.7 0 0 0-1.47-.69 1.7 1.7 0 0 0-1.47.7 3 3 0 0 0-.5 1.77q0 1.12.5 1.78.5.68 1.47.68.96 0 1.47-.66.5-.65.5-1.8m1.44 0q0 1.74-.91 2.66-.9.93-2.5.92-1.63 0-2.53-.92t-.9-2.66q0-1.76.91-2.67a3.4 3.4 0 0 1 2.52-.92q1.6 0 2.5.94.9.92.9 2.65m7.68 6.64q0 2.1.83 3.24.84 1.14 2.22 1.14 1.32 0 2.2-.97.9-.98.9-2.84 0-2.38-.78-3.58a2.5 2.5 0 0 0-2.28-1.22q-1.47 0-2.28.97-.81.95-.81 3.26m8.06 5.7h-1.8v-1.56h-.04a3.5 3.5 0 0 1-3.25 1.88q-2.37 0-3.66-1.8a7.6 7.6 0 0 1-1.28-4.51q0-2.52 1.28-4.08t3.44-1.56q2.1 0 3.37 1.92l.04-.13v-5.68h1.9zm10.14-6.56q-.15-1.84-.99-2.6a3 3 0 0 0-2.17-.77q-1.4 0-2.25.97a3.7 3.7 0 0 0-.89 2.4zm1.81 3a4.8 4.8 0 0 1-1.72 2.91 5.2 5.2 0 0 1-3.25.99 5 5 0 0 1-3.78-1.55 6 6 0 0 1-1.39-4.14q0-2.97 1.44-4.63a5 5 0 0 1 3.98-1.65q2.3 0 3.58 1.72 1.3 1.7 1.3 4.87h-8.27q0 1.77.81 2.75.83.97 2.49.97 1.16 0 1.98-.7.85-.7.93-1.54zm15.94 3.55h-1.92V20.1q0-1.35-.53-1.94-.53-.6-1.7-.59-1.48 0-2.32.95-.84.96-.84 2.82v6.15H95.3V11.98h1.9v5.71h.04a3.9 3.9 0 0 1 3.31-1.82q1.86 0 2.9.97 1.07.96 1.07 2.96zm3.55-5.67q0 1.9.85 3.1a2.8 2.8 0 0 0 2.44 1.23q1.62 0 2.46-1.27.85-1.28.85-3.06a5.3 5.3 0 0 0-.85-3.03 2.8 2.8 0 0 0-2.46-1.25q-1.53 0-2.41 1.17a5 5 0 0 0-.88 3.11m-1.95 0q0-2.52 1.4-4.23a4.7 4.7 0 0 1 3.84-1.72q2.46 0 3.85 1.75a6.5 6.5 0 0 1 1.4 4.2q0 2.5-1.4 4.25a4.6 4.6 0 0 1-3.85 1.75q-2.42 0-3.83-1.7a6.5 6.5 0 0 1-1.4-4.3m14.14 5.67h-1.9V16.2h1.79v1.88h.04q1.24-2.2 3.18-2.2.3 0 .5.06v1.97h-.72q-1.27 0-2.08.87a3 3 0 0 0-.81 2.14zm11.53-5.76q-.22.21-.85.36-.6.12-2.3.35-1.23.15-1.82.61-.58.45-.58 1.22 0 .93.49 1.46.5.51 1.59.51 1.35 0 2.4-.78 1.07-.78 1.07-1.89zm-6.95-2.1q.05-1.9 1.23-2.83 1.17-.93 3.42-.93 1.8 0 3 .8a2.7 2.7 0 0 1 1.22 2.35v6.5q0 .67.61.67.24 0 .62-.07v1.37q-.51.22-1.07.22-.98 0-1.46-.42-.46-.42-.48-1.31a5.2 5.2 0 0 1-4.1 1.84q-1.6 0-2.57-.9t-.97-2.37q0-1.5.84-2.4a3.8 3.8 0 0 1 2.47-1.11l3.34-.42q.93-.13.93-1.33 0-.9-.68-1.36a3.4 3.4 0 0 0-2-.49q-1.19 0-1.82.54-.65.52-.77 1.65zm17.84-.22q-.04-1.01-.73-1.45-.68-.45-1.94-.45-.93 0-1.6.42a1.3 1.3 0 0 0-.65 1.17q0 .6.4.9.38.3 1.68.62l1.87.48q1.7.42 2.44 1.1.74.66.74 1.87a3.4 3.4 0 0 1-1.22 2.72 5 5 0 0 1-3.25 1.03q-2.38 0-3.6-.98-1.2-.99-1.23-2.97h1.83q.04 1.17.78 1.75.73.56 2.2.56 1.19 0 1.9-.47.7-.48.7-1.33 0-.6-.46-.97-.45-.35-1.8-.65l-2.2-.55a4 4 0 0 1-1.98-1 2.4 2.4 0 0 1-.64-1.73q0-1.68 1.19-2.64 1.2-.97 3.12-.97 2.04 0 3.13 1 1.08.98 1.17 2.54zm10.16 2.4q0 2.1.83 3.23.84 1.14 2.22 1.14 1.32 0 2.2-.97.9-.98.89-2.84 0-2.38-.77-3.58a2.5 2.5 0 0 0-2.28-1.22q-1.47 0-2.28.97-.81.95-.81 3.26m8.06 5.68h-1.8v-1.55h-.04a3.5 3.5 0 0 1-3.25 1.88q-2.37 0-3.66-1.8a7.6 7.6 0 0 1-1.28-4.51q0-2.52 1.28-4.08t3.44-1.56q2.1 0 3.37 1.92l.04-.13v-5.68h1.9zm10.14-6.55q-.15-1.84-.99-2.6a3 3 0 0 0-2.17-.77q-1.4 0-2.25.97a3.7 3.7 0 0 0-.89 2.4zm1.81 3a4.8 4.8 0 0 1-1.72 2.91 5.2 5.2 0 0 1-3.25.99 5 5 0 0 1-3.78-1.55 6 6 0 0 1-1.39-4.14q0-2.97 1.44-4.63a5 5 0 0 1 3.98-1.65q2.3 0 3.58 1.72 1.3 1.7 1.3 4.87h-8.27q0 1.77.81 2.75.83.97 2.49.97 1.16 0 1.98-.7.85-.7.92-1.54zm14.67-2.14q0-2.26-.8-3.25-.8-.98-2.3-.98-1.5.03-2.27 1.19a6 6 0 0 0-.77 3.33q0 2.23.92 3.17a3 3 0 0 0 2.18.92q1.4 0 2.21-1.16.84-1.15.83-3.22m-7.95 5.7V11.97h1.9v5.64h.04a3.8 3.8 0 0 1 3.28-1.75q2.1 0 3.4 1.56a6.2 6.2 0 0 1 1.3 4.08q0 2.82-1.31 4.58a4.3 4.3 0 0 1-3.66 1.73 3.4 3.4 0 0 1-3.1-1.73h-.05v1.4zm13.06-5.68q0 1.9.84 3.1a2.8 2.8 0 0 0 2.44 1.23q1.62 0 2.47-1.27.84-1.28.84-3.06a5.3 5.3 0 0 0-.84-3.03 2.8 2.8 0 0 0-2.47-1.25q-1.52 0-2.4 1.17a5 5 0 0 0-.88 3.11m-1.95 0q0-2.52 1.4-4.23a4.7 4.7 0 0 1 3.83-1.72q2.46 0 3.86 1.75a6.5 6.5 0 0 1 1.39 4.2q0 2.5-1.4 4.25a4.6 4.6 0 0 1-3.85 1.75q-2.4 0-3.83-1.7a6.5 6.5 0 0 1-1.4-4.3m12.23-5.63h1.8v1.6h.04a3.9 3.9 0 0 1 3.4-1.92q2.13 0 3.02 1.82a6 6 0 0 1 1.56-1.4q.76-.42 1.9-.42 1.46 0 2.48.97 1 .95 1.01 2.84v7.81h-1.9v-7.3q0-1.32-.5-1.96-.5-.66-1.6-.66-1.12 0-1.89.9-.75.91-.76 2.13v6.9h-1.9v-7.82a2.4 2.4 0 0 0-.46-1.55 1.6 1.6 0 0 0-1.31-.56q-1.37 0-2.18 1.02-.8 1-.8 2.75v6.15h-1.91zm25.41 5.61q0-2.26-.8-3.25-.8-.98-2.3-.98-1.5.03-2.28 1.19a6 6 0 0 0-.76 3.33q0 2.23.92 3.17a3 3 0 0 0 2.17.92q1.41 0 2.22-1.16.83-1.15.83-3.22m-7.95 5.7V11.97h1.9v5.64h.03a3.8 3.8 0 0 1 3.29-1.75q2.1 0 3.4 1.56a6.2 6.2 0 0 1 1.3 4.08q0 2.82-1.31 4.58a4.3 4.3 0 0 1-3.66 1.73 3.4 3.4 0 0 1-3.11-1.73h-.05v1.4zm19.5-6.56q-.16-1.84-1-2.6a3 3 0 0 0-2.16-.77q-1.4 0-2.25.97a3.7 3.7 0 0 0-.9 2.4zm1.8 3a4.8 4.8 0 0 1-1.71 2.91 5.2 5.2 0 0 1-3.25.99 5 5 0 0 1-3.78-1.55 6 6 0 0 1-1.4-4.14q0-2.97 1.44-4.63a5 5 0 0 1 3.99-1.65q2.3 0 3.57 1.72 1.3 1.7 1.3 4.87h-8.26q0 1.77.8 2.75.84.97 2.5.97 1.14 0 1.98-.7t.92-1.54zm3.26-2.12q0 1.9.84 3.1a2.8 2.8 0 0 0 2.44 1.23q1.62 0 2.47-1.27.84-1.28.84-3.06a5.3 5.3 0 0 0-.84-3.03 2.8 2.8 0 0 0-2.47-1.25q-1.53 0-2.41 1.17a5 5 0 0 0-.87 3.11m-1.96 0q0-2.52 1.4-4.23a4.7 4.7 0 0 1 3.84-1.72q2.46 0 3.86 1.75a6.5 6.5 0 0 1 1.39 4.2q0 2.5-1.4 4.25a4.6 4.6 0 0 1-3.85 1.75q-2.41 0-3.83-1.7a6.5 6.5 0 0 1-1.4-4.3m14.93-3.19h-2.25v-2.3h2.25zm0 8.86h-2.25v-2.3h2.25zm7-14.86h10.5v1.66a22 22 0 0 0-3.95 5.97 25 25 0 0 0-2.3 7.23h-2.08q.31-2.86 2.1-6.6a29 29 0 0 1 4.1-6.41h-8.37zm0 0" aria-label="Nº de horas de bombeo: 7"/><path fill="#a4a4a4" d="M332.24 16.65a3.8 3.8 0 0 0-1.47-2.4 4.7 4.7 0 0 0-2.87-.82q-2.3 0-3.7 1.67-1.38 1.65-1.38 4.49 0 3.26 1.31 4.85 1.32 1.6 3.83 1.6 1.64 0 2.83-1.08a5.7 5.7 0 0 0 1.6-3.17h2.04q-.41 2.98-2.27 4.55a6.8 6.8 0 0 1-4.51 1.56q-3.18 0-5.08-2.17-1.91-2.2-1.9-6.08 0-3.75 1.98-5.9a6.8 6.8 0 0 1 5.25-2.18q2.7 0 4.37 1.39a5.6 5.6 0 0 1 2 3.69zm5.37 5.17q0 1.9.84 3.1a2.8 2.8 0 0 0 2.44 1.23q1.62 0 2.47-1.27.84-1.27.84-3.06a5.3 5.3 0 0 0-.84-3.03 2.8 2.8 0 0 0-2.47-1.25q-1.52 0-2.4 1.17a5 5 0 0 0-.88 3.1m-1.96 0q0-2.52 1.41-4.23a4.7 4.7 0 0 1 3.83-1.72q2.46 0 3.86 1.75a6.5 6.5 0 0 1 1.39 4.2q0 2.5-1.4 4.25a4.6 4.6 0 0 1-3.85 1.75q-2.4 0-3.83-1.7a6.5 6.5 0 0 1-1.4-4.3m18.61-2.4q-.05-1.02-.73-1.46-.68-.45-1.94-.45-.94 0-1.6.42a1.3 1.3 0 0 0-.65 1.17q0 .6.39.9t1.69.62l1.87.48q1.7.42 2.44 1.1.73.67.73 1.87a3.4 3.4 0 0 1-1.22 2.72 5 5 0 0 1-3.25 1.03q-2.37 0-3.59-.98-1.22-.99-1.23-2.97h1.82q.06 1.17.79 1.75.73.56 2.2.56 1.19 0 1.89-.47.7-.49.7-1.33 0-.6-.45-.97-.45-.35-1.8-.65l-2.2-.55a4 4 0 0 1-1.99-1 2.4 2.4 0 0 1-.64-1.73q0-1.68 1.2-2.64t3.12-.97q2.04 0 3.12 1 1.1.98 1.17 2.54zm6.25-1.66v7.36q0 .43.23.67.24.22.85.22h.73v1.48q-1.03.14-1.42.14-1.2 0-1.75-.56t-.55-1.84v-7.47h-1.53v-1.57h1.53v-3.15h1.91v3.15h1.81v1.57zm10.98 3.18q-.16-1.84-.99-2.6a3 3 0 0 0-2.17-.77q-1.4 0-2.25.97a3.7 3.7 0 0 0-.9 2.4zm1.8 3a4.8 4.8 0 0 1-1.71 2.91 5.2 5.2 0 0 1-3.25.99 5 5 0 0 1-3.78-1.55 6 6 0 0 1-1.4-4.14q0-2.97 1.45-4.63a5 5 0 0 1 3.98-1.65q2.3 0 3.58 1.72 1.3 1.7 1.3 4.87h-8.27q0 1.77.81 2.75.82.97 2.49.97 1.16 0 1.98-.7.84-.7.92-1.54zm14.5-3q-.16-1.84-1-2.6a3 3 0 0 0-2.16-.77q-1.4 0-2.25.97a3.7 3.7 0 0 0-.9 2.4zm1.8 3a4.8 4.8 0 0 1-1.71 2.91 5.2 5.2 0 0 1-3.25.99 5 5 0 0 1-3.78-1.55 6 6 0 0 1-1.4-4.14q0-2.97 1.44-4.63a5 5 0 0 1 3.99-1.65q2.3 0 3.57 1.72 1.3 1.7 1.3 4.87h-8.26q0 1.77.8 2.75.84.97 2.5.97 1.14 0 1.98-.7.83-.7.92-1.54zm11.15 3.55h-1.93v-6.95q0-1.6-.56-2.28-.55-.7-1.84-.7t-2.14.98q-.85.97-.85 2.8v6.15h-1.9V16.2h1.8v1.6h.04a4 4 0 0 1 3.4-1.92q1.94 0 2.94 1.01 1.04 1.02 1.04 2.92zm9.99-6.55q-.16-1.84-.99-2.6a3 3 0 0 0-2.17-.77q-1.4 0-2.25.97a3.7 3.7 0 0 0-.89 2.4zm1.81 3a4.8 4.8 0 0 1-1.72 2.91 5.2 5.2 0 0 1-3.25.99 5 5 0 0 1-3.78-1.55 6 6 0 0 1-1.39-4.14q0-2.97 1.44-4.63a5 5 0 0 1 3.98-1.65q2.3 0 3.58 1.72 1.3 1.7 1.3 4.87h-8.27q0 1.77.81 2.75.82.97 2.49.97 1.15 0 1.98-.7.85-.7.92-1.54zm3.83 3.55h-1.9V16.2h1.79v1.88h.05q1.23-2.2 3.17-2.2.3 0 .5.06v1.97h-.72q-1.27 0-2.08.87a3 3 0 0 0-.81 2.14zm6.05-5.69q0 2.1.8 3.24.83 1.14 2.24 1.14 1.36 0 2.22-.99.88-.99.88-2.82 0-2.38-.77-3.58a2.5 2.5 0 0 0-2.3-1.22q-1.55 0-2.3 1.03-.77 1.04-.77 3.2m7.95 5.05q0 2.71-1.31 4.06-1.32 1.35-3.94 1.35-1.9 0-3.03-.9a3.5 3.5 0 0 1-1.3-2.5h1.9q.15.84.76 1.32a3 3 0 0 0 1.8.48q1.59 0 2.4-.86.81-.84.81-2.76v-.8h-.03a3.5 3.5 0 0 1-3.01 1.58q-2.44 0-3.7-1.78a7.6 7.6 0 0 1-1.27-4.53q0-2.52 1.28-4.08 1.29-1.56 3.42-1.56 2.14 0 3.38 1.92h.04v-1.6h1.8zm4.17.64h-1.9V16.2h1.9zm-.46-12.81h-1.42l1.52-3.05h2.28zm10 7.05q-.22.21-.84.36-.6.12-2.3.35-1.23.15-1.82.61t-.58 1.22q0 .93.48 1.46.5.51 1.6.51 1.35 0 2.4-.78 1.06-.78 1.06-1.9zm-6.95-2.1q.06-1.9 1.24-2.83 1.17-.93 3.42-.93 1.8 0 3 .8a2.7 2.7 0 0 1 1.22 2.35v6.5q0 .67.6.67.24 0 .63-.07v1.37q-.51.22-1.08.22-.97 0-1.45-.42-.47-.42-.49-1.31a5.2 5.2 0 0 1-4.09 1.84q-1.59 0-2.58-.9-.97-.9-.97-2.37 0-1.5.85-2.4a3.8 3.8 0 0 1 2.47-1.11l3.34-.42q.92-.13.92-1.33 0-.9-.67-1.36a3.4 3.4 0 0 0-2-.49q-1.2 0-1.83.54-.64.52-.76 1.65zm15.93 8.27h-1.46l5.33-16.33h1.42zm19.89-.4h-1.92v-7.4q0-1.35-.54-1.94-.51-.6-1.7-.6-1.47 0-2.31.96t-.85 2.82v6.15h-1.9V11.98h1.9v5.71h.04a3.9 3.9 0 0 1 3.3-1.82q1.88 0 2.91.97 1.07.96 1.07 2.96zm0 0" aria-label="Coste energía / h"/><path fill="#a4a4a4" d="M549.59 11.98h6.81q2 0 3.19 1.09a3.6 3.6 0 0 1 1.2 2.81q0 1.06-.53 1.9a3.4 3.4 0 0 1-1.55 1.34q1.44.55 2.11 1.47.69.9.69 2.32 0 2.01-1.45 3.3a5.5 5.5 0 0 1-3.82 1.28h-6.65zm2.06 13.71h4.48q1.64 0 2.46-.76t.83-2.06q0-1.32-.93-1.96a4.6 4.6 0 0 0-2.7-.65h-4.14zm0-7.15h3.81q1.68 0 2.44-.6.78-.6.78-1.9 0-1.1-.73-1.69-.74-.58-2.46-.58h-3.84zm12.98 3.28q0 1.9.84 3.1a2.8 2.8 0 0 0 2.44 1.23q1.62 0 2.47-1.27.84-1.28.84-3.06a5.3 5.3 0 0 0-.84-3.03 2.8 2.8 0 0 0-2.47-1.25q-1.51 0-2.4 1.17a5 5 0 0 0-.88 3.11m-1.95 0q0-2.52 1.4-4.23a4.7 4.7 0 0 1 3.83-1.72q2.47 0 3.86 1.75a6.5 6.5 0 0 1 1.4 4.2q0 2.5-1.4 4.25a4.6 4.6 0 0 1-3.86 1.75q-2.4 0-3.83-1.7a6.5 6.5 0 0 1-1.4-4.3m12.22-5.63h1.8v1.6h.05a3.9 3.9 0 0 1 3.4-1.92q2.13 0 3.02 1.82a6 6 0 0 1 1.56-1.4q.76-.42 1.9-.42 1.46 0 2.48.97 1 .95 1.01 2.84v7.81h-1.9v-7.3q0-1.32-.5-1.96-.5-.66-1.6-.66-1.12 0-1.89.9-.75.91-.76 2.13v6.9h-1.91v-7.82a2.4 2.4 0 0 0-.45-1.55 1.6 1.6 0 0 0-1.32-.56q-1.36 0-2.17 1.02-.81 1-.81 2.75v6.15h-1.9zm25.42 5.61q0-2.26-.8-3.25-.8-.98-2.3-.98-1.5.03-2.28 1.19a6 6 0 0 0-.76 3.33q0 2.23.92 3.17a3 3 0 0 0 2.17.92q1.41 0 2.22-1.16.83-1.15.83-3.22m-7.95 5.7V11.97h1.9v5.64h.03a3.8 3.8 0 0 1 3.28-1.75q2.11 0 3.41 1.56a6.2 6.2 0 0 1 1.3 4.08q0 2.82-1.32 4.58a4.3 4.3 0 0 1-3.65 1.73 3.4 3.4 0 0 1-3.11-1.73h-.05v1.4zm19.5-6.56q-.16-1.84-1-2.6a3 3 0 0 0-2.17-.77q-1.38 0-2.25.97a3.7 3.7 0 0 0-.89 2.4zm1.8 3a4.8 4.8 0 0 1-1.72 2.91 5.2 5.2 0 0 1-3.25.99 5 5 0 0 1-3.78-1.55 6 6 0 0 1-1.39-4.14q0-2.97 1.44-4.63a5 5 0 0 1 3.98-1.65q2.3 0 3.58 1.72 1.3 1.7 1.3 4.87h-8.27q0 1.77.82 2.75.83.97 2.48.97 1.15 0 1.99-.7.83-.7.92-1.54zm3.25-2.12q0 1.9.85 3.1a2.8 2.8 0 0 0 2.43 1.23q1.63 0 2.47-1.27.85-1.28.85-3.06a5.3 5.3 0 0 0-.85-3.03 2.8 2.8 0 0 0-2.47-1.25q-1.5 0-2.4 1.17a5 5 0 0 0-.88 3.11m-1.95 0q0-2.52 1.4-4.23a4.7 4.7 0 0 1 3.83-1.72q2.47 0 3.86 1.75a6.5 6.5 0 0 1 1.4 4.2q0 2.5-1.4 4.25a4.6 4.6 0 0 1-3.86 1.75q-2.4 0-3.82-1.7a6.5 6.5 0 0 1-1.4-4.3m23.9-.1q-.21.22-.84.36-.6.13-2.3.36-1.23.15-1.82.61-.58.45-.58 1.22 0 .93.48 1.46.5.51 1.6.51 1.35 0 2.4-.78 1.07-.78 1.07-1.9zm-6.95-2.09q.07-1.9 1.24-2.83t3.42-.93q1.8 0 3 .8a2.7 2.7 0 0 1 1.22 2.35v6.5q0 .67.6.67.24 0 .63-.07v1.37q-.51.22-1.08.22-.96 0-1.45-.42-.47-.42-.48-1.31a5.2 5.2 0 0 1-4.1 1.84q-1.6 0-2.57-.9t-.97-2.37q0-1.5.84-2.4a3.8 3.8 0 0 1 2.47-1.11l3.34-.42q.92-.13.92-1.33 0-.9-.67-1.36a3.4 3.4 0 0 0-2-.49q-1.19 0-1.83.54-.63.52-.76 1.65zm18.61.36q-.42-2.42-2.68-2.42-1.41 0-2.27 1.12-.84 1.13-.84 3.13 0 2.19.78 3.28a2.7 2.7 0 0 0 2.31 1.08q1.02 0 1.75-.75t.95-1.94h1.83a5.2 5.2 0 0 1-1.48 3.22q-1.2 1.1-3.1 1.1-2.22 0-3.65-1.5a5.9 5.9 0 0 1-1.43-4.16q0-2.85 1.43-4.57a5 5 0 0 1 4-1.71q1.87 0 3 1.12a4.6 4.6 0 0 1 1.23 3zm5.76-2.23v7.36q0 .43.24.67.24.22.84.22h.74v1.48q-1.04.15-1.42.14-1.21 0-1.75-.56-.55-.57-.55-1.84v-7.47h-1.53v-1.57h1.53v-3.15h1.9v3.15h1.82v1.57zm3.21-3.63v-2.15h1.9v2.15zm1.9 13.36h-1.9V16.2h1.9zm9.48-11.3h2.08l-4.31 11.3h-2.03l-4.13-11.3h2.2l2.96 9.2h.03zm4.48 5.63q0 1.9.84 3.1a2.8 2.8 0 0 0 2.44 1.23q1.62 0 2.47-1.27.84-1.28.84-3.06a5.3 5.3 0 0 0-.84-3.03 2.8 2.8 0 0 0-2.47-1.25q-1.51 0-2.4 1.17a5 5 0 0 0-.88 3.1m-1.96 0q0-2.52 1.41-4.24a4.7 4.7 0 0 1 3.83-1.71q2.46 0 3.86 1.75a6.5 6.5 0 0 1 1.39 4.2q0 2.5-1.4 4.25a4.6 4.6 0 0 1-3.85 1.75q-2.4 0-3.83-1.7a6.5 6.5 0 0 1-1.4-4.3m0 0" aria-label="Bombeo activo"/><path fill="#a4a4a4" d="M34.48 269.27a3.8 3.8 0 0 0-2.39 1.47 4.7 4.7 0 0 0-.83 2.88q0 2.3 1.68 3.68 1.66 1.4 4.48 1.4 3.27 0 4.86-1.32t1.6-3.83q0-1.63-1.09-2.82a5.7 5.7 0 0 0-3.17-1.61v-2.03q3 .4 4.55 2.26a6.8 6.8 0 0 1 1.56 4.52q0 3.16-2.17 5.07-2.19 1.91-6.08 1.91-3.73 0-5.9-1.98a6.8 6.8 0 0 1-2.18-5.25q0-2.7 1.4-4.38a5.6 5.6 0 0 1 3.68-2zm5.17-5.36q1.9 0 3.11-.85a2.8 2.8 0 0 0 1.22-2.44q0-1.62-1.26-2.46a5.4 5.4 0 0 0-3.07-.85 5.3 5.3 0 0 0-3.03.85 2.8 2.8 0 0 0-1.25 2.46q0 1.53 1.17 2.41 1.19.88 3.11.88m0 1.95a6.5 6.5 0 0 1-4.23-1.4 4.7 4.7 0 0 1-1.72-3.84q0-2.46 1.75-3.86a6.5 6.5 0 0 1 4.2-1.39q2.5 0 4.25 1.4a4.6 4.6 0 0 1 1.75 3.85q0 2.42-1.7 3.83a6.5 6.5 0 0 1-4.3 1.4m-2.4-18.6q-1.02.04-1.46.73-.45.68-.45 1.94 0 .93.42 1.59t1.18.66q.6 0 .9-.4.29-.38.61-1.68l.49-1.88a6 6 0 0 1 1.09-2.44 2.4 2.4 0 0 1 1.87-.73q1.68 0 2.72 1.22 1.03 1.22 1.03 3.25 0 2.37-.98 3.6-.98 1.2-2.97 1.23v-1.83q1.17-.04 1.75-.78.57-.75.56-2.2 0-1.2-.47-1.9-.48-.7-1.32-.7-.61 0-.97.45t-.66 1.8l-.55 2.2q-.32 1.35-1 1.99a2.4 2.4 0 0 1-1.73.64q-1.67 0-2.64-1.19a4.8 4.8 0 0 1-.97-3.12q0-2.05 1-3.13a3.5 3.5 0 0 1 2.55-1.17zM35.59 241h7.36q.45 0 .67-.23t.22-.84v-.74h1.49q.14 1.03.14 1.42 0 1.2-.57 1.75-.55.55-1.84.55h-7.47v1.53h-1.56v-1.53h-3.16V241h3.16v-1.82h1.56zm3.19-10.97q-1.84.15-2.61.98-.76.81-.77 2.17 0 1.4.97 2.25.98.85 2.4.9zm3-1.82q1.76.34 2.9 1.72.97 1.24.99 3.25a5 5 0 0 1-1.55 3.78 6 6 0 0 1-4.14 1.4q-2.96 0-4.62-1.44a5 5 0 0 1-1.66-3.99q0-2.3 1.72-3.58 1.7-1.3 4.87-1.3v8.27q1.77 0 2.75-.8.97-.84.97-2.5 0-1.14-.7-1.98t-1.53-.92zm-3-14.48q-1.84.15-2.61.98-.76.82-.77 2.18 0 1.4.97 2.25.98.84 2.4.89zm3-1.81q1.76.33 2.9 1.72.97 1.23.99 3.25a5 5 0 0 1-1.55 3.78 6 6 0 0 1-4.14 1.39q-2.96 0-4.62-1.44a5 5 0 0 1-1.66-3.98q0-2.3 1.72-3.58 1.7-1.3 4.87-1.3v8.27q1.77 0 2.75-.82.97-.82.97-2.48 0-1.16-.7-1.98-.7-.85-1.53-.93zm3.55-11.14v1.92h-6.96q-1.6 0-2.28.56-.69.55-.69 1.84 0 1.3.97 2.15t2.8.84h6.16v1.9h-11.3v-1.8h1.6v-.04a4 4 0 0 1-1.93-3.4q0-1.93 1.02-2.94 1.02-1.03 2.92-1.03zm-6.55-10q-1.84.17-2.61.99-.76.8-.77 2.17 0 1.4.97 2.25.98.84 2.4.9zm3-1.8q1.76.31 2.9 1.71.97 1.23.99 3.25a5 5 0 0 1-1.55 3.78 6 6 0 0 1-4.14 1.4q-2.96 0-4.62-1.44a5 5 0 0 1-1.66-3.99q0-2.3 1.72-3.58 1.7-1.3 4.87-1.3v8.27q1.77 0 2.75-.81.97-.82.97-2.49 0-1.16-.7-1.98-.7-.84-1.53-.92zm3.55-3.84v1.91h-11.3v-1.8h1.87v-.04q-2.2-1.23-2.2-3.18 0-.3.06-.5h1.97v.72q0 1.27.88 2.08a3 3 0 0 0 2.14.81zm-5.7-6.04q2.1 0 3.24-.82a2.6 2.6 0 0 0 1.14-2.23q0-1.35-.98-2.22a4.2 4.2 0 0 0-2.83-.87q-2.37 0-3.58.76a2.5 2.5 0 0 0-1.22 2.3q0 1.54 1.04 2.31 1.02.77 3.2.77m5.06-7.96q2.7 0 4.06 1.32 1.35 1.3 1.34 3.93 0 1.92-.89 3.04a3.5 3.5 0 0 1-2.5 1.3v-1.91q.83-.15 1.31-.75a3 3 0 0 0 .49-1.8q-.01-1.59-.86-2.4-.84-.82-2.77-.82h-.8v.03a3.5 3.5 0 0 1 1.58 3.02q0 2.42-1.78 3.7a7.6 7.6 0 0 1-4.53 1.27 6.2 6.2 0 0 1-4.08-1.29 4.2 4.2 0 0 1-1.56-3.42q0-2.13 1.92-3.37v-.05h-1.6v-1.8zm.64-4.16v1.9h-11.3v-1.9zm-12.82.45v1.42l-3.04-1.51v-2.29zm7.05-10q.23.23.36.84.13.6.36 2.3.15 1.23.6 1.83.47.57 1.23.58.92 0 1.45-.49.52-.5.52-1.6 0-1.35-.79-2.4-.77-1.06-1.89-1.06zm-2.1 6.95q-1.89-.06-2.82-1.23-.94-1.17-.94-3.42 0-1.8.81-3a2.7 2.7 0 0 1 2.35-1.22h6.5q.67 0 .67-.61 0-.24-.08-.63h1.38q.21.52.21 1.08 0 .97-.42 1.45t-1.31.49a5.2 5.2 0 0 1 1.84 4.1q0 1.58-.9 2.57-.91.97-2.36.97-1.5 0-2.4-.84a3.8 3.8 0 0 1-1.12-2.47l-.42-3.35q-.12-.92-1.33-.92-.89 0-1.36.67-.48.66-.48 2 0 1.2.53 1.83t1.66.77zm0 0" aria-label="Coste energía"/><path fill="#a4a4a4" d="M92.13 383.58H90.6v-8.1h-2.67v-1.15a4.4 4.4 0 0 0 2.08-.45q.69-.4 1-1.74h1.12zm0 0" aria-label="1"/><path fill="#a4a4a4" d="M117.6 376.24q0-2.02 1.03-3.05 1.05-1.05 2.92-1.05a3.6 3.6 0 0 1 2.58.96q1 .95 1 2.47 0 1.17-.58 1.98a5 5 0 0 1-1.7 1.4l-1.97 1.08q-1.74.96-1.97 2.2h6.22v1.35h-7.83q.06-1.6.69-2.67a5.4 5.4 0 0 1 2-1.86l2.05-1.19a4 4 0 0 0 1.18-.97q.38-.5.38-1.39 0-.87-.61-1.47-.6-.6-1.66-.6-1.16 0-1.73.76a3.4 3.4 0 0 0-.58 2.05zm0 0" aria-label="2"/><path fill="#a4a4a4" d="M151.89 377.08q.36.03.75.03 1 0 1.6-.47.57-.46.57-1.4 0-.77-.55-1.28-.53-.54-1.56-.54-1.14 0-1.67.68a3 3 0 0 0-.55 1.78h-1.4q0-1.78.93-2.75.94-.99 2.75-.99 1.6 0 2.57.83t.96 2.19q0 1.74-1.46 2.36v.03a2.6 2.6 0 0 1 1.9 2.66 3.5 3.5 0 0 1-1.08 2.65q-1.05 1.03-3.03 1.03a4 4 0 0 1-2.65-.84q-1.04-.84-1.16-2.97h1.47q.03 1.34.64 1.92.62.6 1.8.6 1.12 0 1.8-.63.7-.62.7-1.58 0-1.02-.66-1.56-.65-.54-2.02-.55l-.65.02zm0 0" aria-label="3"/><path fill="#a4a4a4" d="M178.76 379.57h3.69v-5.2h-.03zm5.1 1.23v2.78h-1.41v-2.78h-5v-1.4l5.23-7.26h1.19v7.43h1.67v1.23zm0 0" aria-label="4"/><path fill="#a4a4a4" d="M210.04 376.93a3.6 3.6 0 0 1 2.22-.72q1.53 0 2.64 1.03 1.1 1.02 1.1 2.64 0 1.75-1.06 2.89a4 4 0 0 1-3 1.14q-1.67 0-2.64-.81a3.4 3.4 0 0 1-1.12-2.35h1.47q.1.93.72 1.43.6.48 1.7.48 1.05 0 1.73-.73.67-.75.67-1.88 0-1.15-.7-1.84a2.5 2.5 0 0 0-1.83-.7q-1.26 0-2.12 1.07l-1.24-.06.86-6.11h5.94v1.37h-4.86zm0 0" aria-label="5"/><path fill="#a4a4a4" d="M240.07 380.07q0 1.13.65 1.82.68.7 1.75.7 1.02 0 1.63-.71.6-.72.6-1.9 0-1.02-.58-1.71-.6-.69-1.7-.69-1.09 0-1.73.67a2.6 2.6 0 0 0-.62 1.82m4.48-4.88a2.2 2.2 0 0 0-.65-1.31q-.5-.45-1.32-.45-1.3 0-2.01 1.3a6 6 0 0 0-.7 2.93l.03.03a3 3 0 0 1 2.72-1.4q1.42 0 2.5.95a3.4 3.4 0 0 1 1.07 2.68q0 1.72-1.01 2.85a3.5 3.5 0 0 1-2.74 1.12 3.5 3.5 0 0 1-3.01-1.4q-1.03-1.42-1.03-4.24 0-2.68 1.04-4.39a3.5 3.5 0 0 1 3.18-1.72q1.35 0 2.3.82t1.04 2.23zm0 0" aria-label="6"/><path fill="#a4a4a4" d="M268.17 372.4h7.9v1.24a17 17 0 0 0-2.99 4.49q-1.35 2.82-1.72 5.45h-1.56q.23-2.16 1.58-4.97t3.07-4.83h-6.28zm0 0" aria-label="7"/><path fill="#a4a4a4" d="M302.69 376.99q.9 0 1.45-.5.58-.53.58-1.35 0-.74-.55-1.23-.54-.48-1.57-.48-.91 0-1.41.51-.5.5-.5 1.28 0 .84.6 1.3.63.47 1.4.47m.01 1.22q-1.09 0-1.73.62a2 2 0 0 0-.62 1.5q-.01 1.02.64 1.64.64.63 1.8.63 1.05 0 1.66-.63.63-.62.63-1.65 0-.9-.63-1.5-.62-.61-1.75-.61m3.5-3.11q0 1.73-1.46 2.4a3 3 0 0 1 1.87 2.78q0 1.64-1.05 2.63t-2.82.98a4.6 4.6 0 0 1-2.74-.84q-1.17-.86-1.17-2.78 0-1.93 1.94-2.75-1.55-.63-1.55-2.24a3 3 0 0 1 .9-2.23q.93-.9 2.55-.9 1.63 0 2.58.84t.95 2.1m0 0" aria-label="8"/><path fill="#a4a4a4" d="M332.06 378.47q.98 0 1.59-.65.6-.66.61-1.96 0-1.04-.58-1.73-.58-.7-1.73-.7-1 0-1.61.7-.6.71-.61 1.87 0 1.2.56 1.85.57.62 1.77.62m-.2 1.3a3.5 3.5 0 0 1-2.62-1.02 3.7 3.7 0 0 1-.98-2.68q0-1.7.98-2.8a3.4 3.4 0 0 1 2.7-1.13q1.96 0 2.98 1.33 1 1.34 1.01 3.99 0 2.73-1.05 4.59a3.4 3.4 0 0 1-3.1 1.84q-1.62 0-2.5-.9a3 3 0 0 1-.9-2.16h1.44q.06.86.55 1.38.5.5 1.37.5 1.25 0 1.88-1.11.64-1.11.87-3.17l-.03-.04a3 3 0 0 1-2.6 1.38m0 0" aria-label="9"/><path fill="#a4a4a4" d="M358.44 383.58h-1.54v-8.1h-2.67v-1.15a4.4 4.4 0 0 0 2.08-.45q.69-.4 1-1.74h1.13zm9.75-5.56q0-2.3-.61-3.44t-1.79-1.15q-1.14 0-1.76 1.15-.63 1.13-.63 3.44 0 2.24.61 3.4.63 1.18 1.78 1.18 1.18 0 1.79-1.13.6-1.13.6-3.45m1.53 0q0 2.8-1.02 4.34a3.3 3.3 0 0 1-2.9 1.53q-1.97 0-2.94-1.57a8 8 0 0 1-.97-4.3q0-2.76 1-4.31a3.2 3.2 0 0 1 2.9-1.57q1.89 0 2.91 1.55t1.02 4.33m0 0" aria-label="10"/><path fill="#a4a4a4" d="M390.8 383.58h-1.53v-8.1h-2.67v-1.15a4.4 4.4 0 0 0 2.08-.45q.68-.4 1-1.74h1.12zm8.69 0h-1.53v-8.1h-2.67v-1.15a4.4 4.4 0 0 0 2.08-.45q.67-.4 1-1.74h1.12zm0 0" aria-label="11"/><path fill="#a4a4a4" d="M421.17 383.58h-1.53v-8.1h-2.67v-1.15a4.4 4.4 0 0 0 2.07-.45q.7-.4 1-1.74h1.13zm3.56-7.34q0-2.02 1.03-3.05 1.05-1.05 2.93-1.05a3.6 3.6 0 0 1 2.57.96q1 .95 1 2.47 0 1.17-.57 1.98a5 5 0 0 1-1.7 1.4l-1.98 1.08q-1.72.96-1.97 2.2h6.22v1.35h-7.82q.05-1.6.68-2.67a5.4 5.4 0 0 1 2-1.86l2.05-1.19a4 4 0 0 0 1.19-.97q.37-.5.37-1.39 0-.87-.6-1.47-.62-.6-1.66-.6-1.16 0-1.74.76a3.4 3.4 0 0 0-.58 2.05zm0 0" aria-label="12"/><path fill="#a4a4a4" d="M451.17 383.58h-1.54v-8.1h-2.67v-1.15a4.4 4.4 0 0 0 2.08-.45q.69-.4 1-1.74h1.13zm6.48-6.5q.36.03.75.03 1.01 0 1.6-.47.57-.46.57-1.4 0-.77-.54-1.28-.54-.54-1.57-.54-1.14 0-1.67.68a3 3 0 0 0-.55 1.78h-1.4q0-1.78.94-2.75.92-.99 2.75-.99 1.6 0 2.56.83t.97 2.19q0 1.74-1.47 2.36v.03a2.6 2.6 0 0 1 1.9 2.66 3.5 3.5 0 0 1-1.07 2.65q-1.07 1.03-3.04 1.03a4 4 0 0 1-2.65-.84q-1.04-.84-1.16-2.97h1.47q.03 1.34.64 1.92.63.6 1.8.6 1.12 0 1.81-.63.69-.62.69-1.58 0-1.02-.66-1.56-.65-.54-2.01-.55l-.66.02zm0 0" aria-label="13"/><path fill="#a4a4a4" d="M480.52 383.58h-1.53v-8.1h-2.68v-1.15a4.4 4.4 0 0 0 2.08-.45q.7-.4 1-1.74h1.13zm4.56-4.01h3.69v-5.2h-.03zm5.1 1.23v2.78h-1.41v-2.78h-5v-1.4l5.23-7.26h1.19v7.43h1.67v1.23zm0 0" aria-label="14"/><path fill="#a4a4a4" d="M511.88 383.58h-1.53v-8.1h-2.67v-1.15a4.4 4.4 0 0 0 2.08-.45q.67-.4 1-1.74h1.12zm5.24-6.65a3.6 3.6 0 0 1 2.21-.72q1.53 0 2.64 1.03 1.11 1.02 1.11 2.64 0 1.75-1.06 2.89a4 4 0 0 1-3 1.14q-1.68 0-2.64-.81a3.4 3.4 0 0 1-1.12-2.35h1.46q.11.93.72 1.43.61.48 1.7.48 1.07 0 1.74-.73.67-.75.67-1.88 0-1.15-.7-1.84a2.5 2.5 0 0 0-1.83-.7q-1.26 0-2.12 1.07l-1.24-.06.86-6.11h5.94v1.37h-4.86zm0 0" aria-label="15"/><path fill="#a4a4a4" d="M540.99 383.58h-1.54v-8.1h-2.67v-1.15a4.4 4.4 0 0 0 2.08-.45q.69-.4 1-1.74H541zm5.14-3.51q0 1.13.65 1.82.67.7 1.75.7 1.02 0 1.63-.71.6-.72.6-1.9 0-1.02-.59-1.71-.6-.69-1.7-.69-1.09 0-1.72.67a2.6 2.6 0 0 0-.62 1.82m4.48-4.88a2.2 2.2 0 0 0-.66-1.31q-.49-.45-1.3-.45-1.32 0-2.02 1.3a6 6 0 0 0-.7 2.93l.02.03a3 3 0 0 1 2.72-1.4q1.44 0 2.5.95a3.4 3.4 0 0 1 1.08 2.68q0 1.72-1.01 2.85a3.5 3.5 0 0 1-2.74 1.12 3.5 3.5 0 0 1-3.01-1.4q-1.05-1.42-1.04-4.24 0-2.68 1.05-4.39a3.5 3.5 0 0 1 3.17-1.72q1.37 0 2.3.82.95.81 1.05 2.23zm0 0" aria-label="16"/><path fill="#a4a4a4" d="M572.35 383.58h-1.53v-8.1h-2.67v-1.15a4.4 4.4 0 0 0 2.07-.45q.7-.4 1-1.74h1.13zm3.46-11.19h7.89v1.25a17 17 0 0 0-2.99 4.49q-1.35 2.82-1.72 5.45h-1.56q.23-2.16 1.58-4.97 1.34-2.8 3.08-4.83h-6.28zm0 0" aria-label="17"/><path fill="#a4a4a4" d="M601.48 383.58h-1.53v-8.1h-2.67v-1.15a4.4 4.4 0 0 0 2.07-.45q.7-.4 1-1.74h1.13zm7.33-6.6q.88 0 1.45-.5.58-.5.58-1.34 0-.74-.55-1.23-.55-.48-1.58-.48-.9 0-1.4.51-.5.5-.5 1.28 0 .84.6 1.3.63.47 1.4.47m.01 1.23q-1.09 0-1.73.62a2 2 0 0 0-.63 1.5q0 1.02.64 1.64.64.63 1.82.63 1.02 0 1.65-.63.63-.62.63-1.65 0-.9-.63-1.5-.63-.61-1.75-.61m3.5-3.11q0 1.72-1.47 2.4a3 3 0 0 1 1.88 2.78q0 1.64-1.05 2.63t-2.83.98a4.6 4.6 0 0 1-2.73-.84q-1.17-.86-1.17-2.78 0-1.93 1.93-2.75-1.54-.62-1.54-2.24a3 3 0 0 1 .9-2.23q.92-.9 2.55-.9t2.58.84q.95.84.95 2.1m0 0" aria-label="18"/><path fill="#a4a4a4" d="M631.9 383.58h-1.53v-8.1h-2.68v-1.15a4.4 4.4 0 0 0 2.08-.45q.69-.4 1-1.74h1.13zm7.33-5.1q.98 0 1.6-.66.6-.66.6-1.96 0-1.05-.58-1.73-.57-.7-1.73-.7-1 0-1.61.7-.6.71-.61 1.87 0 1.2.56 1.85.59.62 1.77.62m-.2 1.29a3.5 3.5 0 0 1-2.61-1.02 3.7 3.7 0 0 1-.99-2.68q0-1.7.99-2.8a3.4 3.4 0 0 1 2.68-1.13q1.97 0 2.99 1.33 1 1.34 1.01 3.99 0 2.73-1.04 4.59a3.4 3.4 0 0 1-3.11 1.84q-1.61 0-2.5-.9a3 3 0 0 1-.9-2.16H637q.07.86.55 1.38.5.5 1.38.5 1.24 0 1.87-1.11t.88-3.17l-.04-.04a3 3 0 0 1-2.6 1.38m0 0" aria-label="19"/><path fill="#a4a4a4" d="M659.14 376.24q0-2.02 1.03-3.05 1.05-1.05 2.92-1.05a3.6 3.6 0 0 1 2.58.96q1 .95 1 2.47 0 1.17-.58 1.98a5 5 0 0 1-1.7 1.4l-1.97 1.08q-1.73.96-1.97 2.2h6.22v1.35h-7.83q.06-1.6.69-2.67a5.4 5.4 0 0 1 2-1.86l2.05-1.19a4 4 0 0 0 1.18-.97q.38-.5.38-1.39 0-.87-.61-1.47-.6-.6-1.66-.6-1.16 0-1.73.76a3.4 3.4 0 0 0-.58 2.05zm14.87 1.78q0-2.3-.6-3.44-.61-1.15-1.79-1.15-1.14 0-1.76 1.15-.63 1.13-.63 3.44 0 2.24.61 3.4.62 1.18 1.78 1.18t1.78-1.13q.61-1.13.61-3.45m1.53 0q0 2.8-1.01 4.34a3.3 3.3 0 0 1-2.9 1.53q-1.96 0-2.94-1.57a8 8 0 0 1-.97-4.3q0-2.76 1-4.31a3.2 3.2 0 0 1 2.9-1.57q1.9 0 2.9 1.55 1.02 1.55 1.02 4.33m0 0" aria-label="20"/><path fill="#a4a4a4" d="M687.5 376.54q0-2.01 1.04-3.04 1.05-1.05 2.92-1.05a3.6 3.6 0 0 1 2.58.95q1 .96 1 2.47 0 1.18-.58 1.98a5 5 0 0 1-1.7 1.41l-1.97 1.08q-1.74.96-1.97 2.2h6.22v1.35h-7.83q.06-1.6.69-2.68a5.4 5.4 0 0 1 2-1.86l2.04-1.18a4 4 0 0 0 1.2-.97q.36-.51.37-1.4 0-.86-.61-1.46t-1.66-.61q-1.16 0-1.73.77a3.4 3.4 0 0 0-.58 2.04zm13.82 7.35h-1.53v-8.11h-2.67v-1.14a4.4 4.4 0 0 0 2.07-.46q.7-.4 1-1.73h1.13zm0 0" aria-label="21"/><path fill="#a4a4a4" d="M717.87 376.24q0-2.02 1.03-3.05 1.05-1.05 2.93-1.05a3.6 3.6 0 0 1 2.57.96q1 .95 1 2.47 0 1.17-.57 1.98a5 5 0 0 1-1.7 1.4l-1.98 1.08q-1.72.96-1.96 2.2h6.21v1.35h-7.82q.06-1.6.68-2.67a5.4 5.4 0 0 1 2-1.86l2.05-1.19a4 4 0 0 0 1.19-.97q.37-.5.37-1.39 0-.87-.6-1.47-.62-.6-1.66-.6-1.16 0-1.74.76a3.4 3.4 0 0 0-.58 2.05zm8.69 0q0-2.02 1.03-3.05 1.05-1.05 2.92-1.05a3.6 3.6 0 0 1 2.58.96q1 .95 1 2.47 0 1.17-.58 1.98a5 5 0 0 1-1.7 1.4l-1.97 1.08q-1.73.96-1.97 2.2h6.22v1.35h-7.83q.06-1.6.7-2.67a5.4 5.4 0 0 1 2-1.86l2.04-1.19a4 4 0 0 0 1.19-.97q.37-.5.37-1.39 0-.87-.6-1.47-.62-.6-1.67-.6-1.16 0-1.73.76a3.4 3.4 0 0 0-.58 2.05zm0 0" aria-label="22"/><path fill="#a4a4a4" d="M748.94 376.24q0-2.02 1.03-3.05 1.05-1.05 2.93-1.05a3.6 3.6 0 0 1 2.57.96q1 .95 1 2.47 0 1.17-.57 1.98a5 5 0 0 1-1.7 1.4l-1.98 1.08q-1.72.96-1.96 2.2h6.21v1.35h-7.82q.06-1.6.68-2.67a5.4 5.4 0 0 1 2-1.86l2.05-1.19a4 4 0 0 0 1.19-.97q.37-.5.37-1.39 0-.87-.6-1.47-.62-.6-1.66-.6-1.16 0-1.74.76a3.4 3.4 0 0 0-.57 2.05zm11.62.84q.35.03.75.03 1 0 1.59-.47.58-.46.58-1.4 0-.77-.55-1.28-.52-.54-1.56-.54-1.14 0-1.67.68a3 3 0 0 0-.55 1.78h-1.4q0-1.78.93-2.75.94-.99 2.75-.99 1.61 0 2.56.83.97.83.97 2.19 0 1.74-1.47 2.36v.03a2.6 2.6 0 0 1 1.91 2.66 3.5 3.5 0 0 1-1.08 2.65q-1.06 1.03-3.03 1.03a4 4 0 0 1-2.66-.84q-1.03-.84-1.15-2.97h1.47q.03 1.33.64 1.92.62.6 1.8.6 1.12 0 1.8-.63.7-.62.7-1.58 0-1.02-.66-1.56-.66-.55-2.02-.55l-.65.02zm0 0" aria-label="23"/><path fill="#a4a4a4" d="M781.6 376.24q0-2.02 1.03-3.05 1.05-1.05 2.93-1.05a3.6 3.6 0 0 1 2.57.96q1 .95 1 2.47 0 1.17-.57 1.98a5 5 0 0 1-1.7 1.4l-1.98 1.08q-1.72.96-1.96 2.2h6.21v1.35h-7.82q.06-1.6.68-2.67a5.4 5.4 0 0 1 2-1.86l2.05-1.19a4 4 0 0 0 1.19-.97q.37-.5.37-1.39 0-.87-.6-1.47-.62-.6-1.66-.6-1.16 0-1.74.76a3.4 3.4 0 0 0-.57 2.05zm9.7 3.33h3.68v-5.2h-.03zm5.1 1.23v2.78h-1.42v-2.78h-5v-1.4l5.23-7.26h1.19v7.43h1.67v1.23zm0 0" aria-label="24"/><path fill="#a4a4a4" d="M415.7 411.53h-2.09v-7.23h-8.1v7.23h-2.07v-15.51h2.06v6.42h8.11v-6.42h2.1zm4.04-5.67q0 1.9.84 3.11a2.8 2.8 0 0 0 2.44 1.22q1.62 0 2.47-1.26.84-1.29.84-3.07a5.3 5.3 0 0 0-.84-3.03 2.8 2.8 0 0 0-2.47-1.25q-1.52 0-2.4 1.17a5 5 0 0 0-.88 3.11m-1.96 0q0-2.5 1.4-4.23a4.7 4.7 0 0 1 3.84-1.72q2.46 0 3.86 1.75a6.5 6.5 0 0 1 1.39 4.2q0 2.5-1.4 4.25a4.6 4.6 0 0 1-3.85 1.75q-2.41 0-3.83-1.7a6.5 6.5 0 0 1-1.4-4.3m14.14 5.67h-1.9v-11.3h1.79v1.88h.05q1.23-2.2 3.17-2.2.3 0 .5.06v1.97h-.72q-1.27 0-2.08.88a3 3 0 0 0-.81 2.14zm11.53-5.76q-.23.22-.84.36-.6.12-2.3.36-1.23.15-1.83.6-.57.47-.58 1.23 0 .92.49 1.45.5.51 1.6.51 1.35 0 2.4-.78 1.06-.78 1.06-1.89zm-6.95-2.1q.06-1.89 1.23-2.82 1.17-.94 3.42-.94 1.8 0 3 .81a2.7 2.7 0 0 1 1.22 2.35v6.5q0 .67.61.67.24 0 .63-.08v1.37q-.52.22-1.08.22-.97 0-1.45-.42t-.49-1.31a5.2 5.2 0 0 1-4.1 1.84q-1.58 0-2.57-.9-.97-.91-.97-2.36 0-1.5.84-2.4a3.8 3.8 0 0 1 2.47-1.12l3.35-.42q.92-.12.92-1.33 0-.9-.67-1.36a3.4 3.4 0 0 0-2-.48q-1.2 0-1.83.53-.64.52-.77 1.66zm0 0" aria-label="Hora"/></svg>