<svg xmlns="http://www.w3.org/2000/svg" viewBox="0 0 363 122"><path fill="#69fdff" d="M248.04 31.25l-.36 6.16q-5.14 2.3-3.47 8.67l-8.91 3.5c-3.42-9.69 2.64-18.14 12.74-18.33z"/><path fill="#62bfff" d="M248.04 31.25l3.07.23q1.18 3.74-.11 5.74l-3.32.19.36-6.16z"/><path fill="#b769ff" d="M251.11 31.48q11.05 2.53 10.58 12.78l-6.1-2.54q-.63-3.58-4.59-4.5 1.29-2 .11-5.74z"/><path fill="#ffda69" d="M19.91 42.89c9.66-12.14 25.11-4.16 17.76 11.29q-3.34 7.01-10.91 14.96-.55.58.25.58c7.75-.01 16.81-.66 18.2 9.47q2.03 14.7-10.65 22.63c-4 2.51-12.52 3.23-14.47-2.43q-1.25-3.6 2.3-6.51.42-.34.87-.05c7.63 4.86 10.08-9.7 9.41-14-1.1-7.14-9.7-5.18-13.52-1.4q-.33.32-.34.78-.41 11.73-.3 23.39c.02 1.41.3 2.62.71 3.95a.74.73-25.7 0 1-.3.84c-2.99 1.97-9.75 2.63-11.68-1.42-1.41-2.95-.9-12.42-.73-14.72q1.46-19.74 3.07-40.09a.63.63 0 0 0-.81-.65Q4.64 50.79 1.31 48a.93.93 0 0 1 .4-1.62q6.15-1.34 8.11-7.45c.86-2.68 2.11-4.28 5.03-3.7q5.69 1.15 4.56 7.43-.2 1.12.5.23zm-.33 27.04c5.55-4.68 8.28-17.38 7.28-24.2a2.04 2.04 0 0 0-2.68-1.63c-3.49 1.19-4.73 3.37-4.68 7.16q.14 9.22-.38 18.44a.28.28 0 0 0 .46.23z"/><path fill="#69fdff" d="M335.32 40.87q-5.69.46-11 4.83l-.95-4.49a1.14 1.12 55.7 0 1 .15-.85c2.71-4.22 11.85-9.1 11.8.51z"/><path fill="#7968ff" d="M335.32 40.87l-2.75 33.43-3.21.79q-.49.12-.77.54l-7.66 11.7q-4.54 3.22-9.18 4.04l-9.45 1.31.16-2.01q.04-.49-.33-.8l-3.37-2.88 13.58.45q4.87-.51 8.27-5.1.28-.38.33-.85l3.38-35.79q5.31-4.37 11-4.83z"/><path d="M255.59 41.72l6.1 2.54c-.96 4.1-7.49 2.58-6.1-2.54zm-11.38 4.36c5.93 12.5 17.85 22.29 25.08 33.14q7.56 11.35.93 23.05-13.67 6.32-28.55 5.85c-6.31-1.78-10.52-9.67-11.6-15.81a.41.41 0 0 0-.78-.09c-2.34 5.45-14.88 33.21-23.4 17.2-2.42-4.55-2.11-10.4-1.55-15.41q.29 1.22 1.85.43 5.33-2.71 7.98-3.59-1.65 9.25-.84 18.22.05.55.57.73 1.78.63 3-1.2c4.76-7.09 10.96-16.82 12.63-25.23.89-4.49 8.71-8.14 9.54-2.49a.89.86-28.8 0 1-.23.74q-2.79 3.07-1.19 7.21c5.88 15.23 30.01 12.01 17.51-6.5-6.74-9.98-16.08-21.35-19.86-32.75l8.91-3.5z" fill="#62bfff"/><path fill="#ffda69" d="M59.16 102.74l-7.81 3.06c-5.3-10.56.32-33.56 2.39-45.3q.68-3.92.09-7.82-.08-.51.27-.88c3.58-3.86 10.33-5.47 9.06 2.72-2.71 17.42-6.34 33.95-4 48.22z"/><path fill="#62bfff" d="M309.91 68.01l-8.91.1q-.04-.36-.36-.8-.37-.5-.84-.1l-.42.35-5.25-1.46q4.31-4.06-3.68-.88l-6.88-2.34c3.79-3.2 11.54-7.3 13.69-.36q.15.49.63.31 8.08-3.09 12.02 5.18z"/><path d="M283.57 62.88l6.88 2.34q-5.11 4.67-4.44 12.5-2.28-.74-1.69-3.34a.93.91 29.1 0 0-.25-.85l-2.44-2.38a.58.58 0 0 1-.17-.41q-.02-2.44-1.9-3.09l4.01-4.77zm10.56 3.22l5.25 1.46q-.24 7.64 2.79 15.52.51 1.35.53-.09.07-7.03-1.7-14.88l8.91-.1q3.68 8.57 2.43 19.43l-13.58-.45c-4.99-5.11-8.36-13.81-4.63-20.89z" fill="#764fff"/><path fill="#69eec1" d="M138.62 68.9q-.66 2.72.63 7.86.52 2.03-1.18 4.8-.28.45-.14.96 1.11 3.89-1.36 7.03a1.66 1.6 65.1 0 0-.33.96c-.04 2.69-.18 9.41-3.39 9.74q-1.51-11.69.2-23.53.22-1.54.22-2.63a1.07 1.07 0 0 0-1.75-.81c-7.78 6.47-7.88 13.35-7.53 22.98.14 3.99-1.92 5.82-5.73 5.77q.88-3.56.31-6.87c.65-5.15 3.88-7.73 5.1-12.23q1.28-4.74 2.78-10.17 2.68-4.77 8.55-5.26 2.12-.18 3.62 1.4z"/><path fill="#69fdff" d="M214.17 90.85q-2.65.88-7.98 3.59-1.56.79-1.85-.43-.05-.39.04-.68a.28.28 0 0 0-.51-.21c-3.19 6.21-11.36 14.88-17.21 5.01a1.22 1.17 25.2 0 1-.14-.36l-.72-3.51a.4.4 0 0 0-.75-.11c-4.03 7.49-12.35 16.52-21.32 13.12q-7.68-2.92-9.07-10.93a.47.47 0 0 0-.89-.13q-3.21 6.57-8.89 11.29c-5.78 4.81-10.66-2.35-12.03-7.25 3.21-.33 3.35-7.05 3.39-9.74a1.66 1.6 65.1 0 1 .33-.96q2.47-3.14 1.36-7.03-.14-.51.14-.96 1.7-2.77 1.18-4.8-1.29-5.14-.63-7.86c4.95 9.28 3.65 23.8 3.78 34.44a1.37 1.37 0 0 0 2.04 1.18c3-1.68 6.61-8.52 8.33-11.57q1.07-1.9 1.5-4.74c.94-6.16 6.66-21.06 14.79-20.69 2.17.1 6.14 1.99 5.1 4.78q-.16.43-.58.61l-2.3.99q-.45.2-.63.65-4.88 12.46-2.15 25.7c.36 1.74 1.29 3.38 3.34 3.25 5.69-.36 14.25-15.79 16.09-20.32 3.66-8.99 10.8-17.68 21.74-11.93a.59.59 0 0 0 .86-.53c-.12-4.12 6.61-2.78 7.62.26q.55 1.67-.65 4.85-2.77 7.34-3.33 15.02zM209 73.89c-8.42-1.3-12.75 12.31-12.77 18.5 0 2.19 1.92 3.1 3.53 1.22 4.27-5.02 7.34-13.12 9.5-19.28a.34.33-76.1 0 0-.26-.44z"/><path fill="#7968ff" d="M279.56 67.65q1.88.65 1.9 3.09a.58.58 0 0 0 .17.41l2.44 2.38a.93.91 29.1 0 1 .25.85q-.59 2.6 1.69 3.34-.12 9.12 3.7 18.13l-10.81 1.11q-6.92-15.21.66-29.31z"/><path fill="#ffda69" d="M101.6 78.28l-9.28 1.48 1.97-5.02q.17-.44-.25-.64c-4.83-2.43-10.25 6.74-11.53 10.83l-11.27 4.29C73.4 78.57 81.55 64.46 94.81 71.2q.49.26.66-.27c1.91-5.83 10.27-1.96 7.59 3.84q-.87 1.89-1.46 3.51z"/><path fill="#62bfff" d="M329.94 68.44q.24-.5.84-.43a.41.41 0 0 1 .16.75l-2.33 1.39a.31.31 0 0 1-.42-.44q.65-.97 1.75-1.27z"/><path fill="#ffda69" d="M126.45 72.76q-1.5 5.43-2.78 10.17c-1.22 4.5-4.45 7.08-5.1 12.23q-1.15.47-2.08.24-.49-.12-.49-.63v-2.8q0-.65-.62-.86-1.23-.41-1.59-3.65c2.01-3.33 1.29-13.49.74-17.85q-.07-.57.49-.67 4.63-.85 8.03 2.41a1.43 1.42 22.2 0 1 .43 1.02l.03 2.63a.37.37 0 0 0 .64.25l2.3-2.49z"/><path fill="#b769ff" d="M332.57 74.3c-.56 6.7-1.81 26.02 2.57 29.58a1.08 1.07 57 0 0 .91.2c6.06-1.53 13.43-21.42 15.39-27.16q.17-.51.71-.55l1.99-.16a.64.64 0 0 1 .66.83c-3.1 9.61-11.39 30.59-21.97 33.46-11.59 3.14-12.48-15.52-11.9-23.17l7.66-11.7q.28-.42.77-.54l3.21-.79z"/><path fill="#faf02b" d="M101.6 78.28q-3.69 14.88-3.32 30.39a1.41 1.41 0 0 0 2.27 1.09c4.98-3.82 10.43-16.18 13.24-22.3q.36 3.24 1.59 3.65.62.21.62.86v2.8q0 .51.49.63.93.23 2.08-.24.57 3.31-.31 6.87c-4.41-.35-4.31-3.78-4.26-7.19a.41.4-33.3 0 0-.78-.16c-2.26 5.55-11.3 24.2-19.36 18.26-4.96-3.66-5.48-12.66-4.48-17.87q.89-4.63-1.12-.37c-3.31 7-13.73 12.43-17.01 1.49q-.2-.67-.53-.05c-2.8 5.28-12.86 18.98-19.37 9.66l7.81-3.06q2.08 1.67 3.4.32 5.65-5.75 8.68-13.84l11.27-4.29c-.82 2.35-3 10.21 1.34 9.74a1.13 1.11-75.8 0 0 .79-.48q4.89-7.02 7.68-14.43l9.28-1.48z"/><path fill="#62bfff" d="M280.17 88.15a.4.4 0 0 1 .01.8q-.72.11-1.45-.23a.38.38 0 0 1 .21-.73l1.23.16z"/><path fill="#b769ff" d="M311.75 91.37c-2.05 10.79-8.9 21.85-21.5 17.09q-7.44-2.81-11.35-11.5l10.81-1.11q1.44 4.26 4.56 7.8c5.8 6.6 7.94-8.66 8.03-10.97l9.45-1.31z"/><path fill="#764fff" d="M270.22 102.27c-6.24 9.71-19.12 9.55-28.55 5.85q14.88.47 28.55-5.85z"/></svg>