<svg xmlns="http://www.w3.org/2000/svg" viewBox="0 0 140.68 72.7"><path d="M27.17,0a1.52,1.52,0,0,0-1.52,1.52V5.29c-2,1.28-4.16,5.14-5.59,8.11l-.47-.82a1.51,1.51,0,0,0-1.85-.67c-3,1.14-5.72,6.14-7.32,9.71l-.09-.24a1.51,1.51,0,0,0-2.67-.3C3.07,27.85,2.11,37.41,1.91,41.66A1.5,1.5,0,0,0,0,43.39C2.55,57.1,9.71,63,15.28,65.56a25.42,25.42,0,0,0,10.33,2.27h0v3.36a1.52,1.52,0,0,0,3,0V1.52A1.52,1.52,0,0,0,27.17,0m-19,45.05c.23-1.43,1.57-8.16,6.82-11.94a82.66,82.66,0,0,1,7.6,11.28,42,42,0,0,0-6.16,8.92,37.84,37.84,0,0,0-8.26-8.26M19.78,34.37c.31-.79,1.38-3.54,2.77-6.31A26.15,26.15,0,0,1,25.65,23V42.34l-.07,0a3.59,3.59,0,0,0-.51.2,74.47,74.47,0,0,0-5.29-8.19M25.65,9.65v9.46a6,6,0,0,0-1.92,1.48c-.5-1.16-1.16-2.5-1.87-3.87a49,49,0,0,1,3.79-7.07m-7.91,5.83a58.27,58.27,0,0,1,3.87,8c-.55.89-1.14,2-1.78,3.24-.89,1.79-1.66,3.55-2.19,4.84-.65-.84-1.08-1.35-1.14-1.43a1.52,1.52,0,0,0-1.93-.34c-.34.2-.66.4-1,.62-.33-1.07-.83-2.55-1.6-4.63,1.33-3.54,3.73-8.37,5.75-10.29m-9.11,10c1.11,3,2.1,5.81,2.43,7A22.6,22.6,0,0,0,5.44,43.28L4.91,43c.06-2.57.5-10.91,3.72-17.52M16.54,62.8c-6.42-2.94-10.75-8.66-12.89-17a28.23,28.23,0,0,1,4.27,2.92A40.47,40.47,0,0,1,19,63.75a24.68,24.68,0,0,1-2.46-1m6.11,1.78a52.92,52.92,0,0,0-4.26-8.43c1.84-3.62,4.78-8.35,7-10.19a1.24,1.24,0,0,0,.18-.14l.13-.1V64.8a21.35,21.35,0,0,1-3-.22" fill="#e8a600"/><g fill="#00121b"><path d="M49 46a3.88 3.88 0 0 1 2.49.93.893.893 0 0 0 1.17-1.35 5.58 5.58 0 1 0 0 8.44.893.893 0 0 0-1.17-1.35A3.8 3.8 0 1 1 49 46m11.45-1.76A5.59 5.59 0 1 0 66 49.83a5.6 5.6 0 0 0-5.58-5.59m0 9.39a3.8 3.8 0 1 1 3.8-3.8 3.81 3.81 0 0 1-3.8 3.8m16.19-9.4a.89.89 0 0 0-.89.9v6.69l-5.41-7.22a.91.91 0 0 0-1.63.54v9.38a.92.92 0 0 0 .91.89.89.89 0 0 0 .89-.89v-6.69L75.85 55a.87.87 0 0 0 .72.36.91.91 0 0 0 .94-.89v-9.34a.9.9 0 0 0-.9-.9M84 46a2.8 2.8 0 0 1 2.25.77.89.89 0 0 0 1.26 0 .91.91 0 0 0 0-1.26 4.57 4.57 0 0 0-3.67-1.28 3.28 3.28 0 0 0-2 1 2.8 2.8 0 0 0-.88 2.23c.16 1.8 1.58 2.56 3 3.18 1.6.7 1.89 1.09 1.94 1.71a1.34 1.34 0 0 1-1.24 1.26 2.77 2.77 0 0 1-2.24-.77.894.894 0 0 0-1.26 1.27 4.55 4.55 0 0 0 3.21 1.3 3.25 3.25 0 0 0 2.45-1 2.81 2.81 0 0 0 .87-2.23c-.16-1.8-1.58-2.56-3-3.19-1.59-.69-1.88-1.08-1.94-1.71A1.4 1.4 0 0 1 84 46m13.37 7.66h-4.45v-2.9h3.84a.9.9 0 1 0 0-1.79h-3.84v-2.91h4.44a.89.89 0 0 0 0-1.78h-5.3a.9.9 0 0 0-.94.86v9.38a1 1 0 0 0 .95.93h5.3a.9.9 0 0 0 0-1.79m11.69-5.76a3.62 3.62 0 0 0-3.64-3.62h-2.9a.84.84 0 0 0-.87.86v9.38a.88.88 0 0 0 .88.89.89.89 0 0 0 .89-.89v-3h1.41l2.61 3.52a.91.91 0 0 0 .72.35.9.9 0 0 0 .72-1.43l-2-2.76a3.6 3.6 0 0 0 2.22-3.32m-3.65 1.85h-2v-3.67h2a1.85 1.85 0 1 1 0 3.69M120 44.3a.89.89 0 0 0-1.16.49l-2.95 7.33-3-7.33a.89.89 0 0 0-1.65.67l3.78 9.38a.89.89 0 0 0 1.65 0l3.78-9.38a.88.88 0 0 0-.5-1.16m6.55.5a.89.89 0 0 0-1.65 0l-3.78 9.38a.9.9 0 0 0 .49 1.17.92.92 0 0 0 1.18-.5l1.06-2.64h3.76l1.06 2.64a.91.91 0 0 0 .83.56 1 1 0 0 0 .33-.06.9.9 0 0 0 .5-1.17zm-2 5.62l1.17-2.89 1.16 2.89zM135.44 46a2.8 2.8 0 0 1 2.25.77.898.898 0 1 0 1.31-1.23 4.56 4.56 0 0 0-3.66-1.28 3.3 3.3 0 0 0-2 1 2.76 2.76 0 0 0-.87 2.23c.15 1.8 1.57 2.56 3 3.18 1.6.7 1.89 1.09 1.94 1.71a1.33 1.33 0 0 1-1.24 1.26 2.79 2.79 0 0 1-2.24-.77.894.894 0 0 0-1.26 1.27 4.57 4.57 0 0 0 3.21 1.3 3.25 3.25 0 0 0 2.45-1 2.77 2.77 0 0 0 .87-2.23c-.16-1.8-1.57-2.56-3-3.19-1.6-.69-1.89-1.08-2-1.71a1.4 1.4 0 0 1 1.24-1.31m-78.06-8.56a1.75 1.75 0 0 0-1.75-1.75h-8.7V30h7.52a1.75 1.75 0 1 0 0-3.49h-7.52v-5.69h8.68a1.75 1.75 0 0 0 0-3.5H45.25A1.77 1.77 0 0 0 43.41 19v18.37a1.92 1.92 0 0 0 1.86 1.82h10.36a1.75 1.75 0 0 0 1.75-1.75"/><path d="M61.6 39.19H72a1.75 1.75 0 0 0 0-3.5h-8.72V19a1.75 1.75 0 0 0-3.5 0v18.37a1.88 1.88 0 0 0 1.82 1.82m28.55-14.78A7.09 7.09 0 0 0 83 17.32h-5.66A1.66 1.66 0 0 0 75.63 19v18.37a1.73 1.73 0 0 0 1.73 1.75 1.76 1.76 0 0 0 1.75-1.75v-5.84h2.75L87 38.42a1.75 1.75 0 0 0 1.4.7 1.78 1.78 0 0 0 1.42-2.8l-4-5.4a7.08 7.08 0 0 0 4.35-6.51M83 28h-3.89v-7.18H83A3.61 3.61 0 1 1 83 28m38.48 10a1.79 1.79 0 0 0 1.62 1.09 1.64 1.64 0 0 0 .65-.13 1.74 1.74 0 0 0 1-2.27l-7.39-18.37a1.75 1.75 0 0 0-3.24 0L108.22 33l-5.88-14.6a1.74 1.74 0 0 0-3.23 0l-7.39 18.32a1.73 1.73 0 0 0 1 2.27A1.78 1.78 0 0 0 95 38l2.07-5.18h7.37L106.5 38a1.78 1.78 0 0 0 1.62 1.09h.15A1.76 1.76 0 0 0 110 38l2-5.15h7.36zm-23-8.68l2.28-5.67 2.24 5.7zm15 0l2.27-5.67 2.25 5.7zm15.09 9.87h10.36a1.75 1.75 0 0 0 0-3.5h-8.68V19a1.75 1.75 0 1 0-3.5 0v18.37a1.88 1.88 0 0 0 1.82 1.82"/></g></svg>