<svg xmlns="http://www.w3.org/2000/svg" viewBox="0 0 512 655"><g transform="matrix(.81802 0 0 .81802 -71.135041 .291654)"><path vector-effect="non-scaling-stroke" d="M87.96 0l.41 800M711.63 0l-.38 50.75.44 407.81-.03 93.13.19 248.31" fill="none" stroke="#8ac0a5" stroke-width="2"/><path fill="#15814b" d="M87.96 0h623.67l-.38 50.75.44 407.81-.03 93.13.19 248.31H88.37z"/><path d="M456.81 218.34c-.6-1.187-1.203-1.187-1.81 0L382.49 360.8a.64.64 0 0 1-1.14 0c-16.737-31.091-36.476-64.213-52.16-91.38a1.65 1.65 0 0 1-.04-1.58L455.17 22.35a.53.53 0 0 1 .86-.11l126.49 249.87-51.06 89.98c-.653 1.273-1.303 1.27-1.95-.01zM198.14 54.65c-4.93-7.06-25.61-6.93-33.94-5.72-6.93 1.02-22.52 8.7-13.68 17.69 9.86 10.02 29.37 8.63 41.5 4.85 2.19-.69 3.79-1.59 5.27-3.2a1.94 1.93 43.7 0 1 2.79-.06c2.57 2.56 10.59 9.91 10.91 13.19q.05.51-.46.6-25.57 4.77-51.53 2.8-10.68-.81-19.41-4.91c-8.92-4.18-15.9-14.04-11.75-24.3 5.58-13.79 25.14-18.47 38.34-19.26q21.21-1.28 42.74 3.89 2.12.51.52 1.99-6.07 5.63-10.07 12.85-.21.37-.58.16-.43-.25-.65-.57zm-27.095 32.325c-9.361-.162-18.605 1.455-27.734 4.855-8.92 3.31-18.7 11.6-18.08 21.9.68 11.25 12.729 19.959 22.959 22.109 12.81 2.69 30.891 3.029 42.801-.391 10-2.88 21.681-10.75 21.561-22.41-.13-12.42-14.021-21.3-24.531-23.85-5.7-1.38-11.358-2.117-16.975-2.215zm-3.574 11.936c7.13-.062 14.38 2.159 19.59 6.279 4.52 3.57 7.159 10.051 2.219 14.451-8.86 7.91-21.839 9.199-32.719 5.299-7.13-2.56-14.621-11.54-7.961-18.6 4.73-5.02 11.741-7.367 18.871-7.43zm22.069 67.859q.21-12.81-1.31-25.54a1.43 1.43 0 0 1 1.4-1.6l19.01-.19q.67 0 .63.67l-.81 7.87q-.27 15.76-.36 31.52-.02 5.11 1.52 10.17a.76.76 0 0 1-1.17.84l-1.58-1.13a.49.44-24.1 0 0-.28-.09l-16.63-.16a.49.45 64.6 0 1-.32-.13c-12.27-11.68-27.17-21.43-40.57-31.67a.57.57 0 0 0-.92.46l.48 30.05a1.06 1.06 0 0 1-1.03 1.07l-17.03.41q-1.11.02-1.1-1.08.03-20.68.04-40.4c0-2.57-.45-4.83-1-7.24a1.04 1.04 0 0 1 1.04-1.27l26.46.6q.6.02.84.57 1.82 4.28 4.33 6.32 10.85 8.81 28.04 20.12.31.21.32-.17zm15.27 27.77q.55-2.24 3.06-1.97a.22.22 0 0 1 .14.37q-5.38 6.24-8.42 13.97-.22.57-.73.22-5.39-3.77-8.16-4.3-17.24-3.3-34.69-1.86-1.69.13-4.38 1.48-.39.19-.39.62l.02 3.2a1.11 1.11 0 0 0 1.06 1.1q21.36 1.05 42.42 4.38c7.33 1.16 15.63 7.48 13.78 15.72-4.49 19.99-60.44 12.8-75.02 10.29-2.63-.45-5.01 4.02-.18 4.21q34.51 1.39 63.71.53c3.75-.11 6.74-.69 9.78-2.35a.65.65 0 0 1 .96.58l-.1 14.48a.62.62 0 0 1-.75.6c-8.68-1.93-17.82-1.64-26.68-1.54q-.54 0-.55.55-.47 15.89.21 31.59.12 2.81.59 4.81.3 1.26-.99 1.26l-21.29.03q-.71 0-.64-.7c1.28-12.08 1.06-24.31 1.26-36.47q.01-.65-.64-.65l-27.78.19a.54.54 0 0 1-.55-.59q.59-8.29-.33-16.8-.28-2.48 1.53-5.21c2.72-4.12 4.05-6.68 5.86-10.37a.78.78 0 0 1 1.34-.12c6.66 9.13 29.14 9.77 39.04 8.36 3.01-.43 11.23-2.43 12.26-5.75a1.03 1.03 0 0 0-.73-1.3c-10.71-2.77-22.25-2.93-33.25-4.07-7.43-.77-27.76-2.65-23.46-15.42 2.75-8.16 15.41-11.59 22.95-11.91q16.45-.69 32.92.28c4.53.27 9.54 2.03 14.82 1.74q.5-.03.86.33l.64.63q.38.38.5-.14zm124.86 271.21l-52.42-91.03c-2.16-3.65-1.2-4.04.4-7.11l45.87-88.78a.25.25 0 0 1 .43-.01l51.98 91.47a3.87 3.87 0 0 0 3.37 1.96l153.95-.24c.99-.04 2.33-.84 2.96-1.8 6.55-10.02 13.71-22.86 18.32-30.68l32.32-55.43c.533-.927 1.043-.913 1.53.04l47.1 92.88c.184.36.106.799-.19 1.08-1.71 1.58-3.17 3.33-4.4 5.47l-47.64 81.71c-1.33 2.25-3.91.95-5.46.95-104.89.11-168.16-.86-247.26-.05-.36 0-.647-.143-.86-.43zM131.635 293.793c-.262.005-.316.152-.164.438 1.347 2.473 2.02 5.396 2.02 8.77l.01 36.98a1.11 1.11 0 0 1-.48.949l-3.85 2.84a.61.61 0 0 0-.24.76 28.05 28.05 0 0 1 1.49 10.301c-.3 7.09-1.59 22.73 1.9 28.6 7.95 13.34 33.05 13.691 46.25 12.721 12.6-.92 28.43-6.39 28.9-21.34l.91-26.58c.033-1.007-.451-1.497-1.451-1.471l-20.061.461c-.413.013-.602.225-.568.639a246.18 246.18 0 0 1 .459 24.102c-.37 12.26-12.12 12.799-21.4 11.949-7.97-.72-13.699-2.02-13.789-11.16-.1-10.073.09-18.437.57-25.09.02-.34-.14-.524-.48-.551-5.773-.46-11.556-.699-17.35-.719-1.58-.007-2.984-.287-4.211-.84a.53.53 0 0 1 .23-1.021l25.67.66a1.12 1.12 0 0 0 1.07-1.539c-2.267-5.667-2.974-11.568-2.121-17.701.047-.34.24-.525.58-.559 4.04-.4 11.27-1.021 14.59 1.789 5.75 4.87 12.251 9.431 14.021 17.121a1.4 1.4 0 0 0 1.459 1.08 168.76 168.76 0 0 1 23.939-.041 1.44 1.44 0 0 0 .941-2.609c-2.42-1.73-5.21-3.1-7.35-4.99-4.093-3.62-7.864-7.563-11.311-11.83a.6.6 0 0 1 .24-.93c1.493-.6 3.107-1.085 4.84-1.451 17.66-3.72 19.249-22.409 1.109-27.029-5.38-1.373-9.633-2.049-12.76-2.029a2179.94 2179.94 0 0 1-40.189-.111c-6.107-.073-10.541-.259-13.301-.559-.046-.005-.088-.009-.125-.008zm24.086 11.047l24.18.121a8.54 3.82.3 0 1 8.52 3.869l-.019 2.82a8.54 3.82.3 0 1-8.561 3.77l-24.18-.119a.68.68 0 0 1-.67-.691l.039-9.1a.68.68 0 0 1 .691-.67zm73.839 225.64a1.61 1.61 0 0 1-1.61-1.59q-.25-30.95.41-61.89c.04-1.84.17-3.4 1.04-5.11l40.27-79.03a.91.9 42.8 0 1 1.6-.06l52.08 89.94a4.05 4.03-46.8 0 1 .11 3.85l-27.02 53.34a1.05 1.05 0 0 1-.94.58zm386.81-.2a2.67 2.67 0 0 1-2.38-1.49q-12.76-25.62-24.77-51.78c-.97-2.12 1.3-4.22 2.09-5.6l47.99-83.13q.93-1.58 1.76.06l36.76 73.12c1.07 2.21 1.48 5.24 1.47 7.67q-.2 30.35.19 60.52a.86.86 0 0 1-.87.87zm-483-93.65c-9.95-8.65-8.83-20.11.52-28.2 12.54-10.86 29.67-10.3 46.1-10.42 10.26-.08 19.93 1.21 29.85 2.71a.88.88 0 0 1 .46 1.53q-6.56 5.79-10.78 13.47a.91.91 0 0 1-1.41.24l-3.87-3.45q-.33-.3-.76-.43c-12.58-3.79-37.25-5.79-44.97 7.41-3.72 6.36 8.12 13.24 12.8 14.4q19.76 4.88 36.4-4.47a2.72 2.72 0 0 1 3.5.73q4.52 5.95 10.33 10.57a1.71 1.71 0 0 1-.84 3.03c-9.94 1.34-20.89 3.67-30.01 4.07-15.05.66-35.14-.59-47.32-11.19zm17.66 59.56c-27.76-5.12-34.96-31.73-4.78-43.2q8.48-3.22 19.99-3.59c18.03-.57 28.91.29 42.54 2.02a1.14 1.14 0 0 1 .76 1.81l-10.58 14.15a.65.65 0 0 1-1.02.02c-7.59-9.41-37.84-8.08-46.35-.19-8.48 7.87.2 15.31 7.7 17.55 12.02 3.59 28.87 3.09 39.26-4.23a1.03 1.02-39.3 0 1 1.34.13l11.83 12.46a1.06 1.06 0 0 1-.69 1.79c-11.44.89-24.35 4.23-33.78 4.07q-12.19-.21-26.22-2.79zm28.19 53.31c-6.18.24-12.25-.44-20.73.49q-.64.07-.45-.54c.27-.82.41-1.08.42-1.95q.21-20.43-.21-40.85c-.04-1.96-.51-3.56-1.2-5.3a.88.88 0 0 1 .85-1.2l22.46.63q.47.01.27.44c-.52 1.15-.74 1.6-.77 2.9q-.54 22.42-.13 44.84.01.52-.51.54zm-7.712 1.109c-14.329-.359-37.425 5.236-44.437 18.83-7.73 14.98 9.03 28.301 21.93 30.811 11.133 2.167 22.136 2.56 33.01 1.18 10.49-1.33 26.49-6.939 29.83-18.279 6.37-21.62-22.32-31.061-37.59-32.391-.87-.076-1.787-.126-2.742-.15zm-5.547 12.721c9.37-.26 27.669 3.449 25.609 16.789-.83 5.33-9.381 8.95-14.031 10.17-8.69 2.26-24.608 1.122-29.658-7.898-6.97-12.44 8.91-18.801 18.08-19.061zm119.779 38.02c-.893-.067-1.497.317-1.811 1.15l-55.17 146.76a1.06 1.05 10.1 0 0 1 1.42l31.18-.25a.98.97 8.9 0 0 .91-.66l10.73-31.609c.147-.44.45-.66.91-.66l52.84-.07c.86 0 1.437.401 1.73 1.201 3.087 8.407 5.906 16.529 8.459 24.369.72 2.2 2.451 7.749 5.301 7.689a988.17 988.17 0 0 1 30.16-.16c.367 0 .522-.179.469-.539-.92-6.57-4.679-13.81-7.029-20.09l-46.8-126.391c-.66-1.8-1.619-1.94-3.369-1.85-10.107.573-19.943.469-29.51-.311zm15.406 38.611a.34.34 0 0 1 .244.219l17.67 52.68a.34.34 0 0 1-.32.451l-36.76-.121a.34.34 0 0 1-.32-.449l18.42-51.9a.34.34 0 0 1 .08-.119l.67-.67a.34.34 0 0 1 .316-.09zm221.745-38.221c-4.09-.05-9.04.38-13.59.24a.5.5 0 0 0-.521.5l.111 144.77c0 1.08.203 2.077.609 2.99a.31.32 78.8 0 0 .289.189l30.551.1a1.62 1.63.2 0 0 1.631-1.629l-.26-50.33c-.007-1.093.536-1.634 1.629-1.621l35.721.021c21.29-.17 40.899-11.562 46.189-33.182 6.85-27.97-5.83-55.739-35.65-60.639a84.09 84.09 0 0 0-13.6-1.131c-21.12 0-38.823-.093-53.109-.279zm49.91 25.689a20.53 22.56 89.7 0 1 22.67 20.41l.019 3.041a20.53 22.56 89.7 0 1-22.451 20.648l-30.85.16a.29.29 0 0 1-.299-.289l-.221-43.52a.29.29 0 0 1 .279-.291zM420.13 723.24l69.05.03a1.4 1.4 0 0 1 1.4 1.37l.5 24.43a1.4 1.4 0 0 1-1.4 1.43H387.23a1.4 1.4 0 0 1-1.4-1.4l-.36-145.67a1.4 1.4 0 0 1 1.4-1.4l30.14-.02a1.4 1.4 0 0 1 1.4 1.4l.32 118.43a1.4 1.4 0 0 0 1.4 1.4zm228.51 27.31a1.68 1.68 0 0 1-1.68-1.68V608.29a6.26 1.2 90 0 1 1.2-6.26h30.82a6.26 1.2-90 0 1 1.2 6.26v140.58a1.68 1.68 0 0 1-1.68 1.68zM189.66 631.23q.39-13.49-1.66-26.78a.37.36 85.1 0 1 .35-.42l20.65-.36a1.53 1.53 0 0 1 1.05 2.67q-1.54 1.37-1.59 4.09-.32 19.77-.14 39.53 0 .3.17.55 2.12 3.17-.13 6.08a1.78 1.71 66.6 0 0-.37.99l-.48 9.95a.8.79 10.4 0 1-1.04.71q-4.66-1.5-9.72-1.44-18.89.23-37.79.48-.5.01-.46.51l.54 6.13q.05.56.62.57c9.71.03 21.14 1.12 30.49-1.47q.56-.16.78.38c.79 1.93-.2 3.91-.21 5.47q-.02 3.13.29 6.07a.91.91 0 0 1-.99 1.01q-15.29-1.45-30.65-.82a.65.64-1.4 0 0-.62.64v7.3q0 .56.57.56l42.35-.19a.71.7 17.8 0 0 .57-.29q1.65-2.2 4.47-1.88.52.06.57.57c.79 7.66.41 18.73-4.89 24.36q-.33.35-.42.82-.59 3.04-2.27 5.6-.31.47-.81.21c-3.19-1.7-6.21-3.77-9.77-4.4q-13.26-2.34-26.73-1.64c-3.19.17-11.68-.89-11.42 4.4a1.98 1.98 0 0 0 1.83 1.88c12.98.95 26.19 1.69 39.02 3.85 6.91 1.17 17.69 5.35 16.85 14.07-2.14 22.08-58 15.32-71.29 12.66-2.71-.54-4.99-.47-7.57-.09a1.03 1.02 13.3 0 1-.99-1.6q4.62-6.6 7.6-14.07a.71.7 33.9 0 1 1.16-.22c8.13 8.41 25.18 9.16 36.13 8.74 4.33-.16 15.52-1.64 15.48-7.22q0-.47-.44-.61c-2.07-.68-4.16-1.31-6.39-1.47q-11.56-.78-23.11-1.67c-9.34-.72-35.64-3.22-25.54-18.88 9.58-14.86 53.45-9.13 68.22-6.7 1.54.25 3.37-.55 3.36-2.13a2.26 2.26 0 0 0-2.17-2.24c-15.77-.62-31.48-.43-47.25-.63-7.31-.09-13.59.42-20.41 1.43a.49.49 0 0 1-.45-.8q2.51-3.02 2.52-7.05.06-15.98-.08-31.95-.06-5.98-2.45-10.11-.3-.51.29-.64 4.6-.95 9.21-.73 25.68 1.24 36.76.46c9.52-.68 16.9-.14 25.15-1.13a.32.32 0 0 0 .03-.63q-6.43-1.28-13.22-.52c-4.32.48-5.08-2.1-7.63-3.98q-16.95-12.48-35.74-26.72-1.54-1.17-1.52.77l.35 29.24a.59.58 1.4 0 1-.63.59q-9.1-.6-18.05 1.12-.57.11-.55-.47c.46-14.13-.45-28.27.28-42.35.13-2.51-.69-4.08-1.8-6.17a1.19 1.19 0 0 1 1.07-1.75l27.73.52a.77.76-7 0 1 .73.56q1.24 4.48 2.85 5.88 9.7 8.41 28.98 21 .36.23.37-.2z" fill="#fff"/></g></svg>