<svg xmlns="http://www.w3.org/2000/svg" viewBox="0 0 480.001 104.867" fill="#ebb701"><path d="M26.08 1.703C30.658.028 35.604-.108 40.422.049c2.126.054 4.259.154 6.357.509 1.065.195 2.152.437 3.094.993.848.503 1.432 1.474 1.35 2.473l-.411 5.583c-.126 1.055-.178 2.166-.69 3.12-.285.545-.9.856-1.504.852-3.698.04-7.416-.578-11.103-.05-2.719.387-5.42 1.618-7.115 3.84-2.154 2.763-2.775 6.371-2.924 9.786-.094 2.874-.024 5.753-.044 8.629l14.994.002c1.091.018 2.292.223 3.084 1.043.74.764.892 1.889.914 2.908v5.773c-.008 1.015-.211 2.118-.975 2.85-.854.826-2.102 1.007-3.241 1.023-4.925.004-9.85-.004-14.773.002l-.006 50.388c-.006 1.133-.311 2.398-1.279 3.094-.886.644-2.033.698-3.09.672-2.787-.006-5.575 0-8.364-.002-1.045.004-2.194-.247-2.904-1.073-.686-.788-.844-1.881-.852-2.89l.002-50.187c-2.274-.01-4.55.002-6.826-.004-1.045-.014-2.19-.14-3.006-.866C.27 47.777.029 46.6.007 45.529l-.006-5.803c-.018-1.039.231-2.158.997-2.908.752-.76 1.859-1.025 2.898-1.033l7.045-.002c-.074-6.297-.008-12.704 1.753-18.804 1.009-3.525 2.603-6.942 5.049-9.704 2.226-2.549 5.152-4.446 8.336-5.573zM461.551.101c.822-.108 1.847-.259 2.503.377.533.658.457 1.572.499 2.37l.004 76.788c.052 2.276.11 4.576.652 6.8.365 1.494 1.051 2.982 2.28 3.963 1.4 1.111 3.245 1.426 4.991 1.45 1.67.074 3.341-.271 5.009-.078.912.094 1.4.997 1.53 1.817l.874 6.074c.124.828.237 1.745-.235 2.493-.722 1.177-2.102 1.697-3.373 2.039-2.743.676-5.593.686-8.4.652-3.746-.126-7.586-.73-10.911-2.551-2.487-1.332-4.536-3.427-5.878-5.902-1.624-2.944-2.354-6.285-2.767-9.595-.541-4.496-.419-9.032-.431-13.55l-.002-65.636c.004-1.059.024-2.224.708-3.102.754-.943 1.947-1.366 3.064-1.713 3.281-.943 6.543-1.981 9.884-2.697zM349.504 6.975c3.85-.632 7.893 1.259 10.013 4.5 1.723 2.527 2.067 5.918.884 8.739-1.472 3.654-5.254 6.263-9.208 6.237-2.928.056-5.892-1.199-7.751-3.489-2.627-3.152-2.884-7.919-.949-11.478 1.396-2.561 4.155-4.173 7.011-4.51zM60.012 39.182c5.549-3.652 12.357-4.835 18.904-4.704 5.922.08 12.052 1.223 17.049 4.568 2.974 1.975 5.4 4.725 7.101 7.857 1.923 3.515 3.004 7.43 3.592 11.376.535 3.764.722 7.584.513 11.38-.152 1.787-.389 3.71-1.544 5.156-.947 1.173-2.519 1.568-3.967 1.568-12.441.004-24.882-.002-37.323.004.058 3.469.419 7.185 2.555 10.059 1.983 2.703 5.264 4.047 8.464 4.654 4.269.79 8.651.712 12.958.327a43.44 43.44 0 0 0 8.896-1.863c1.073-.307 2.134-.754 3.263-.786.79.154 1.283.878 1.719 1.492 1.083 1.703 1.805 3.614 2.382 5.541.283.979.592 2.126-.034 3.044-.947 1.442-2.577 2.218-4.107 2.89-3.8 1.534-7.869 2.266-11.92 2.745-4.895.559-9.854.459-14.747-.076-4.171-.503-8.346-1.436-12.14-3.287-2.763-1.33-5.288-3.182-7.297-5.507-2.228-2.553-3.798-5.631-4.843-8.843-1.396-4.307-1.947-8.839-2.142-13.345-.285-7.169.156-14.521 2.687-21.3 1.913-5.19 5.302-9.928 9.982-12.952m14.936 8.829c-3.036.427-6.016 1.939-7.747 4.536-2.368 3.497-2.811 7.873-2.84 11.988l26.53-.002c.038-2.703-.024-5.448-.776-8.065-.748-2.769-2.362-5.404-4.853-6.916-3.058-1.887-6.844-2.035-10.313-1.542zm61.995-12.613c4.789-.997 9.722-1.111 14.587-.736 1.534.18 3.154.339 4.498 1.169.704.425 1.113 1.273.955 2.088-.319 2.483-.848 4.931-1.247 7.402-.188 1.005-.489 2.206-1.498 2.687-1.067.429-2.236.08-3.337.002-5.521-.692-11.382.072-16.213 2.96l-.006 48.605c-.014 1.043-.186 2.18-.926 2.972-.708.744-1.777.991-2.771.991H121.8c-1.035-.008-2.176-.269-2.856-1.111-.68-.856-.752-2.001-.77-3.048l-.004-55.427c5.44-4.321 11.994-7.145 18.774-8.555zm44.478.269a46.18 46.18 0 0 1 11.198-1.191c2.324.022 4.672.06 6.958.533 1.003.235 2.094.549 2.773 1.378.421.523.401 1.227.313 1.855l-1.155 6.75c-.16.882-.325 1.827-.92 2.533-.433.519-1.129.722-1.785.686-1.47-.056-2.922-.339-4.392-.393-4.827-.275-9.814.652-14.001 3.14l-.006 48.424c-.012 1.069-.136 2.234-.856 3.082-.702.82-1.843 1.075-2.878 1.077-3.072-.002-6.144.006-9.214-.004-1.115-.006-2.366-.357-2.98-1.364-.688-1.137-.578-2.519-.59-3.792l.012-54.44c5.1-4.059 11.2-6.776 17.524-8.274zm49.977-.967c4.285-.363 8.615-.319 12.88.259 4.023.57 8.025 1.709 11.523 3.82 2.326 1.384 4.386 3.205 6.056 5.334 2.214 2.825 3.73 6.146 4.723 9.581 1.139 3.89 1.634 7.937 1.857 11.974.207 5.196.078 10.432-.834 15.565-1.035 5.898-3.277 11.835-7.628 16.099-2.601 2.581-5.868 4.432-9.333 5.581-3.786 1.265-7.781 1.779-11.755 1.919-4.342.122-8.725-.076-12.972-1.043-3.345-.754-6.61-2.013-9.447-3.961-2.791-1.883-5.094-4.444-6.774-7.354-2.073-3.565-3.261-7.574-3.956-11.617-.963-5.815-1.039-11.751-.598-17.619.565-6.457 2.043-13.097 5.898-18.439 3.002-4.217 7.558-7.161 12.489-8.613 2.557-.79 5.208-1.239 7.869-1.484m2.803 13.175c-2.274.193-4.596.702-6.515 1.991-1.875 1.231-3.15 3.186-3.918 5.26-1.129 3.048-1.464 6.317-1.666 9.541-.203 4.656-.211 9.339.351 13.971.397 2.906 1.033 5.886 2.665 8.378 1.193 1.835 3.06 3.18 5.138 3.84 2.583.832 5.336.918 8.027.814 2.799-.134 5.737-.682 7.993-2.455 1.919-1.5 3.082-3.754 3.758-6.054 1.051-3.598 1.269-7.374 1.374-11.103.04-5.096.072-10.281-1.225-15.248-.766-2.976-2.406-5.94-5.218-7.404-3.291-1.717-7.149-1.749-10.765-1.53zm156.7-12.248c4.492-1.103 9.152-1.283 13.756-1.093 7.624.345 15.271 1.869 22.211 5.112 1.319.62 2.609 1.309 3.826 2.112v41.458c.038 1.979-.182 4.041.543 5.93.417 1.147 1.376 2.08 2.561 2.412 1.941.624 3.981.026 5.962.189.945.068 1.446 1.001 1.58 1.841a120.97 120.97 0 0 1 .993 6.573c.118.732 0 1.522-.455 2.124-.744.999-1.943 1.51-3.102 1.851-2.334.658-4.783.74-7.193.718-3.152-.056-6.381-.971-8.815-3.038-1.885-1.576-3.257-3.744-3.914-6.108-4.271 5.075-10.702 7.985-17.194 8.857-4.167.511-8.438.395-12.539-.533-3.407-.776-6.688-2.236-9.407-4.448-2.461-1.969-4.418-4.518-5.87-7.305-1.871-3.598-2.946-7.558-3.569-11.547-.758-4.983-.876-10.047-.59-15.074.423-6.465 1.711-13.065 5.1-18.676 1.646-2.721 3.818-5.13 6.395-6.995 2.89-2.112 6.251-3.523 9.72-4.36m1.995 14.073c-2.737 1.56-4.344 4.492-5.09 7.464-1.213 4.857-1.173 9.91-1.157 14.883.104 4.358.353 8.855 2.088 12.916 1.141 2.725 3.361 5.045 6.2 5.982 3.319 1.097 6.966.936 10.319.074 3.531-.936 6.752-3.178 8.629-6.337.283-.435.13-.981.17-1.466v-32.96c-3.078-1.448-6.467-2.138-9.842-2.4-3.82-.213-7.913-.114-11.316 1.843zM271.541 36.872c.61-.814 1.684-1.089 2.657-1.087l10.582.002c1.334.004 2.793.375 3.65 1.47.981 1.269 1.32 2.872 1.847 4.354l13.464 40.864 14.551-42.761c.435-1.171.868-2.469 1.931-3.227 1.061-.74 2.416-.722 3.656-.702l8.962.016c1.692.044 3.108 1.891 2.404 3.519-1.322 3.614-2.809 7.173-4.191 10.769l-19.6 49.838c-.407.991-.768 2.057-1.55 2.823-.686.654-1.68.8-2.587.79-2.667-.002-5.332.002-7.997-.002-1.101.008-2.276-.259-3.07-1.067-1.141-1.153-1.574-2.759-2.168-4.219L272.52 43c-.439-1.255-1.101-2.436-1.372-3.746-.166-.802-.134-1.711.393-2.382zm74.512-1.057l9.13-.032c1.113-.032 2.348.156 3.16.991.804.832.993 2.047 1.009 3.16l-.002 59.642c-.01 1.143-.235 2.428-1.171 3.192-.88.744-2.098.796-3.196.774-2.86-.008-5.721.006-8.579-.006-1.115-.012-2.338-.403-2.95-1.396-.676-1.059-.614-2.368-.618-3.571l.004-58.427c.002-1.089.12-2.266.822-3.152.568-.732 1.49-1.085 2.392-1.175z"/></svg>