<svg xmlns="http://www.w3.org/2000/svg" viewBox="0 0 896 140"><path fill="#020202" d="M210.5 92.07c.21-5.28 1.05-6.08-4.23-8.58-.28-.134-.49-.381-.58-.68-1.01-3.47.15-7.31-.41-10.88a.87.87 0 0 1 .93-1l19.54-.03c.407-.033.607.153.6.56l-.46 39.35a1 1 0 0 1-1.01.99l-10.31-.16a1 1 0 0 1-.79-.41l-1.96-2.66c-.149-.206-.393-.323-.65-.31l-2.76.13c-.156.006-.301.088-.39.22-1.427 2.12-3.1 3.327-5.02 3.62-32.3 4.98-31.82-36.56-27.01-55.91 3.66-14.7 12.515-20.357 26.77-20.27 6.677.041 13.341 1.757 19.21 4.06.333.136.528.48.47.83l-2.51 16.57a1.55 1.55 0 0 1-2.05 1.23c-5.927-2.1-12.08-2.89-18.46-2.37-4.07.33-5.94 9.94-6.1 12.7-.42 6.92-.64 15.25 3.05 22.85 2.07 4.26 8.01 3.32 11.72 2.74 1.69-.26 2.34-.96 2.41-2.59z"/><path d="M431.26 39.08c-15.208 5.971-16.3 23.27-16.07 36.84.37 22.07 8.471 40.191 34.311 36.391 19.94-2.93 23.626-21.87 23.561-38.59-.054-13.75-2.888-33.337-20.48-36.09-7.6-1.189-14.213-1.341-21.32 1.449zm12.17 15.547c2.03-.049 4.335.365 5.641 1.883 3.748 4.359 5.835 36.527-.84 38.551-3.424 1.038-11.138 1.469-11.691-3.9a154 154 0 0 1-.139-30.23c.394-4.206 3.646-6.221 7.029-6.303z"/><path d="M850.59 87.05c-5.139-3.759-10.883-6.523-16.09-10.05-8.5-5.76-8.72-13.77-7.58-23.03 1.63-13.35 16.114-16.48 31.2-16.48 3.872 0 7.974.659 11.92.9.4.02.577.227.53.62l-1.94 16.22c-.16 1.333-.89 1.833-2.19 1.5-5.77-1.49-18.67-6.14-20.61 2.31-.073.327-.013.627.18.9 1.02 1.453 2.04 2.453 3.06 3 9.96 5.36 21.36 9.99 23.22 21.79 1.57 9.95-1.79 21.29-11.26 25.67-7.92 3.67-20.43 2.309-29.27.09-.96-.241-1.897-.707-2.81-1.4a1.01 1.01 0 0 1-.42-.81l.03-14.92c-.06-.433.123-.603.55-.51 6.833 1.5 13.793 3.209 20.72 2.35 3.227-.4 2.69-6.738.76-8.15zm-532.21 7.56c3.89 1.24 11.02.23 11.08-4.92q.18-15.97-.04-51.59-.01-.58.57-.58l18.55-.06q.54 0 .55.54.64 34.37-.28 56.26c-.59 13.95-16.46 18.67-27.89 18.63-15.31-.06-25.62-8.7-25.62-24.92q0-24.8-.13-49.67 0-.66.65-.67l18.57-.19q1.38-.01 1.37 1.38-.17 22.6.21 44.18.09 5.01.76 9.65a2.41 2.4-85.2 0 0 1.65 1.96zm419.94-38.54l-11.52-.37a.45.45 0 0 1-.44-.46l.4-16.46c.02-.827.443-1.243 1.27-1.25l46.77-.1c.287 0 .407.14.36.42-.03.182-.988 14.953-.95 15.84.053 1.24-.54 1.9-1.78 1.98l-10.66.68c-.707.047-1.063.42-1.07 1.12l-.38 53.01c-.007 1.073-.547 1.593-1.62 1.56l-18.46-.49c-.307-.011-.55-.258-.55-.56l.37-53.1c.013-1.173-.567-1.78-1.74-1.82z" fill="#020202"/><path d="M244.449 37.467c-2.309-.007-4.48.003-6.42.023-.38.007-.568.197-.568.57l.09 72.359c0 .913.456 1.366 1.369 1.359l16.98-.09c.387-.007.58-.203.58-.59l.369-25.139a1.94 1.92 82.3 0 1 1.381-1.83c1.407-.42 2.309.292 2.709 2.139a202.27 202.27 0 0 0 7.031 24.93.62.62 0 0 0 .639.451l19.33.139c.78.007 1.051-.36.811-1.1l-8.17-27.059c-.39-1.35-.36-2.53-.32-3.9a1.18 1.18 0 0 1 .371-.85c2.087-2.007 3.802-4.265 5.148-6.771 3.97-7.4 2.301-17.81-1.119-25.08-3.73-7.9-9.62-8.33-18.16-8.91-6.945-.465-15.123-.632-22.051-.652zM257.84 56.09l2.291.01a6.32 4.24.3 0 1 6.299 4.281l-.039 8.26a6.32 4.24.3 0 1-6.34 4.199l-2.291-.01a1.29 1.29 0 0 1-1.289-1.301l.08-14.16a1.29 1.29 0 0 1 1.289-1.279zm110.969-18.611c-2.277-.005-4.556.014-6.838.061-.32.007-.477.167-.471.48l.01 72.43c0 .787.393 1.185 1.18 1.191l17.16.16c.433 0 .65-.217.65-.65V89.23a1.05 1.06 87.6 0 1 .971-1.051c7.59-.6 24.809-2.71 27.059-12.17 2.63-11.11 3.851-28.979-8.109-35.299-2.46-1.293-6.186-2.12-11.18-2.48a296.42 296.42 0 0 0-20.432-.752zM382.24 54.15h1.439a6.84 5.77 0 0 1 6.84 5.77v8.061a6.84 5.77 0 0 1-6.84 5.77h-1.439a1.54 1.54 0 0 1-1.541-1.539V55.689a1.54 1.54 0 0 1 1.541-1.539z"/><path d="M528.09 57.69l-.13 8.12a1.12 1.11 1 0 0 1.1 1.13l14.54.2a.74.74 0 0 1 .73.78l-.69 13.78q-.03.55-.58.55h-13.8a1.19 1.19 0 0 0-1.19 1.17l-.38 26.06q-.01.29.17.52.25.31.12.86a1.49 1.49 0 0 1-1.48 1.16l-19.05-.31q-.5-.01-.49-.51l.14-73a.7.7 0 0 1 .7-.7l39.34.01q1.32 0 1.26 1.32l-.84 16.54a.92.92 0 0 1-.92.88h-17.08q-1.45 0-1.47 1.44zm25.6-11.25q.12-5-.14-8.44-.04-.5.47-.5h18.48q.63 0 .64.63.22 22.49.09 44.86c-.06 10.03.72 13.13 11.97 11.43a2.03 2.03 0 0 0 1.73-2l.43-54.29q0-.51.51-.51l18.76-.15q1.32-.01 1.32 1.32-.07 26.54-.52 50.54c-.06 3.16-1.14 6.37-1.93 9.42-3.67 14.11-24.31 15.65-35.8 12.74-13.39-3.39-15.79-12.05-16.02-24.55q-.43-22.57.01-40.5zm83.96 20.53l16.51.08a.4.4 0 0 1 .4.41l-.6 14.41a.4.4 0 0 1-.4.38h-15.91a.4.4 0 0 0-.4.4v11.94a.4.4 0 0 0 .4.4l19.56.02a.4.4 0 0 1 .4.42l-.69 15.92a.4.4 0 0 1-.4.38l-38.48.03a.4.4 0 0 1-.4-.4l.15-73.26a.4.4 0 0 1 .4-.4l39.09.04a.4.4 0 0 1 .4.42l-.93 17.38a.4.4 0 0 1-.39.38l-18.72.43a.4.4 0 0 0-.39.4v9.82a.4.4 0 0 0 .4.4zm47.63 10.99l-.19 32.98a.84.83-89.3 0 1-.84.83l-16.46-.07a.65.64 90 0 1-.64-.65l.07-72.58a1.05 1.04-89.5 0 1 1.06-1.05l18.45.35q.55.01.76.52c4.28 10.18 8.36 24.43 14.99 34.63q.36.55.65-.03c.74-1.48.13-3 .13-4.17q-.02-14.99-.05-30.67a.55.55 0 0 1 .55-.55h16.98q.48 0 .48.49l-.53 73.19q-.01.61-.62.6l-17.14-.25a1.16 1.15-11.6 0 1-1.04-.68l-15.05-33.23a.82.82 0 0 0-1.56.34zm116.74 17.02l18.71.03a.7.7 0 0 1 .7.72l-.53 14.8c-.027.807-.443 1.21-1.25 1.21l-37.66.02c-.3 0-.45-.15-.45-.45l-.03-73.22c0-.433.217-.647.65-.64l39.82.22c.373 0 .562.188.52.56l-1.99 17.54c-.031.271-.252.481-.53.48h-17.81a.83.83 0 0 0-.83.82l-.13 9.15c-.005.421.333.769.76.78l16.23.33a.36.36 0 0 1 .35.37l-.42 14.1c-.005.234-.201.42-.44.42l-15.94.09c-.333 0-.5.167-.5.5v11.4c0 .507.257.763.77.77z" fill="#020202"/><path d="M84.472 6.354q-.204-.103-.382-.248c-.357-.293-.164-.732.233-.808q1.242-.24 2.439.15c.043.014.077.046.092.087.327.865-.798.592-.868 1.579q-.155 2.166-.271 4.334c-.156 2.944-2.654 3.239-4.987 2.863q-2.482-.401-2.447-3.163.022-1.668.121-3.318.046-.784-.123-1.541c-.012-.052-.045-.097-.09-.125-.222-.131-.532-.267-.637-.489-.131-.278.082-.546.36-.601.588-.114 3.818-.327 3.546.666-.084.303-.525.412-.749.552-.047.029-.079.077-.087.131-.204 1.308-.24 2.562-.298 3.931q-.046 1.071.131 1.735c.423 1.589 3.744 1.666 4.007-.26q.221-1.622.218-3.258c-.003-.659.063-1.387-.115-2.1-.013-.051-.047-.094-.093-.118zm4.798-.838a.69.69 0 0 0-.597.294c-.037.05-.05.114-.035.174a.93.93 0 0 0 .536.648c.037.017.063.044.079.08a.96.96 0 0 1 .082.486 47.12 47.12 0 0 1-.83 4.932 7.23 7.23 0 0 1-.311 1.03.19.19 0 0 1-.106.108c-.331.136-.953.274-.795.784.192.622 2.851.841 3.34.844.283.001.473-.154.571-.465a.18.18 0 0 0-.02-.15 1.43 1.43 0 0 0-.56-.514c-.106-.055-.165-.171-.147-.289l.349-2.332c.011-.073.051-.1.123-.084 2.275.555 4.734.778 5.096-2.202.196-1.62-1.049-2.442-2.483-2.657l-4.11-.669c-.064-.011-.125-.017-.183-.018zm2.879 1.564c.322-.013.702.093.917.181.771.316.994.899.8 1.715-.339 1.415-1.56 1.131-2.673.978-.047-.006-.068-.033-.063-.08.12-1.069.28-1.898.481-2.488.073-.215.288-.296.538-.306zM71.981 5.829c-.451.007-.94.089-1.465.187l-3.704.705c-.146.028-.269.112-.369.251-.443.615.483.768.795.947a.19.19 0 0 1 .09.117c.544 2.044.902 4.118 1.076 6.225.004.057-.015.104-.057.142-.183.167-.454.322-.56.499-.243.405.282.754.642.731.633-.043 2.674-.254 3.163-.811.034-.038.053-.089.051-.141-.032-.781-.831-.405-1-.973-.186-.625-.33-1.391-.431-2.3a.08.08 0 0 1 .063-.095c2.928-.894 2.13 3.412 4.465 3.343.571-.016 1.822-.213 1.95-.896.062-.322-.172-.459-.476-.465-1.365-.032-.983-2.539-3.076-2.804-.05-.006-.09-.044-.099-.094s.015-.099.059-.122c1.365-.732 1.727-2.365.801-3.575-.523-.682-1.166-.881-1.917-.87zm-1.125 1.269c.688.004 1.205.288 1.391 1.184.282 1.355-1.13 1.748-2.182 1.825-.057.004-.09-.021-.101-.075l-.303-1.848c-.052-.416-.092-.906.456-1.008.261-.049.51-.079.739-.078zm-14.365 7.35c-1.055-3.482 1.723-6.219 5.111-6.048q.084.005.139-.057c.876-.959 1.798.835 1.933 1.47q.014.071-.014.137c-.167.396-.473.44-.85.268-1.305-.592-2.409-1.036-3.696-.15q-.978.674-.831 1.974.309 2.701 2.543 4.029c1.354.805 3.386.009 2.491-1.824-.21-.431-.853-.194-1.205-.183q-.085.003-.144-.058-.191-.2-.205-.473-.005-.074.039-.134c.508-.691 2.248-1.152 3.068-1.366.413-.107 1.347-.3 1.183.516q-.016.074-.071.125l-.571.519c-.044.04-.067.098-.062.158q.049.522.077 1.027c.121 2.07-1.824 3.086-3.624 3.425-2.549.48-4.596-.989-5.312-3.354zm44.802-6.119c-.81-.017-1.614.166-2.308.582-2.16 1.292-2.945 4.332-1.738 6.528 1.639 2.983 6.107 3.332 8.014.424.932-1.423 1.109-3.351.391-4.876-.761-1.618-2.576-2.621-4.359-2.658zm.441 1.172c.599.059 1.136.494 1.493 1.209s.506 1.653.412 2.606c-.195 1.985-1.363 3.495-2.61 3.372-.599-.059-1.136-.494-1.493-1.209s-.506-1.653-.412-2.606c.195-1.985 1.363-3.495 2.61-3.372zm38.831 57.923c-.836-21.233-13.037-40.21-31.762-50.177q-.049-.027-.024-.076l.798-1.598c.015-.03.041-.053.073-.064s.067-.007.097.008c19.8 10.497 32.378 30.713 32.85 53.163.415 19.786-8.83 38.436-24.565 50.313-.011.009-.026.012-.04.01s-.027-.01-.036-.021l-1.079-1.485q-.05-.069.017-.123c15.635-11.881 24.443-30.287 23.669-49.951zM45.946 120.12c-20.643-14.418-30.255-40.006-24.464-64.568 3.977-16.869 15.281-31.389 30.465-39.659.027-.015.06-.019.09-.01s.055.029.07.057l.858 1.59q.019.033-.014.05C31.038 29.768 18.939 53.286 22.366 78.248c2.234 16.263 11.351 30.75 24.689 40.271q.076.054.022.131l-1.008 1.448q-.05.073-.123.022zm40.77-44.021H75.229c-.015 0-.029-.007-.038-.019l-7.072-9.65c-.007-.009-.01-.02-.009-.032l.751-9.462c.002-.025.022-.044.047-.044h34.669c.023-.001.043-.018.046-.041l1.049-8.188c.002-.014-.002-.027-.011-.038s-.022-.016-.036-.016h-41.96c-.024 0-.045.018-.047.043l-6.913 61.599c-.002.024-.023.043-.047.043H44.883a.05.05 0 0 1-.035-.014l-7.705-8.047c-.01-.01-.014-.024-.013-.038l8.17-71.913c.002-.024.023-.043.047-.043l70.46-.009c.012 0 .024.005.033.014l9.13 8.926c.011.01.016.025.014.039l-8.164 71.239c-.002.024-.023.043-.047.043H72.622a.05.05 0 0 1-.035-.014l-8.663-9.107c-.01-.01-.014-.024-.013-.038l2.019-17.578c.002-.024.023-.043.047-.043h19.912c.024 0 .045-.018.047-.043l.824-7.517c.001-.013-.003-.026-.012-.036s-.021-.016-.034-.016z"/><path fill="#d90200" d="M107.434 39.343l-54.832-.003q-.082 0-.092.082-1.316 11.518-2.606 23.031-.013.106-.06.194-.036.069-.041.147-.058.904-.243 2.409-.533 4.332-1.322 11.404-1.333 11.946-2.69 23.886-.011.098-.109.098h-5.919a.18.18 0 0 1-.178-.2l8.308-68.215c.007-.061.059-.108.12-.107l2.906.054q29.577.003 59.152 0l3.841-.033q.405.017.647-.024.095-.016.084.079l-7.721 68.177c-.015.14-.134.247-.276.248l-39.99.191c-.028 0-.054-.012-.073-.032a.1.1 0 0 1-.025-.077l1.645-14.608q.011-.098.11-.099c.476-.009 1.036.052 1.425.052q9.205.009 18.412 0 .082 0 .092-.082 1.164-9.74 2.254-19.479.035-.308.027-.514-.006-.192-.199-.192l-19.671-.017q-.098 0-.092-.098l.437-6.615q.006-.096.103-.099l1.977.039q15.953.019 31.836-.009c.102 0 .188-.075.202-.175l2.732-19.215q.028-.196-.17-.196z"/><path d="M50.165 125.56q.552.407 1.379.792c1.068.495 1.551-.14 2.332-.675.047-.031.108-.028.15.009l.341.301q.065.058.036.14-.434 1.227-1.443 2.027c-.582.461-.79-.08-1.188-.316q-2.106-1.24-4.23-2.441-.454-.256-.612-.593c-.06-.129-.05-.279.027-.399s.209-.192.351-.191h.573c.053 0 .103-.024.137-.066.853-1.051 1.579-2.347 2.366-3.747q.57-1.014.882-1.811.03-.074-.011-.142l-.328-.552c-.064-.108-.069-.24-.014-.356a.42.42 0 0 1 .293-.226c.723-.147 2.437 1.065 3.004 1.519.333.265.306.866-.213.852-.88-.024-1 .36-1.429 1.048q-1.079 1.731-2.292 4.061-.167.32-.177.625-.003.088.068.14zm60.384-7.482l-.195.004c-3.221.136-5.596 3.36-4.285 6.426 1.384 3.239 5.131 4.039 7.71 1.751 3.233-2.865.839-8.185-3.23-8.181zm-1.322 1.681c.951.007 2.072.599 2.941 1.554.645.709 1.087 1.549 1.23 2.335s-.026 1.455-.469 1.858-1.124.508-1.894.292-1.564-.735-2.209-1.444c-1.343-1.476-1.683-3.353-.76-4.192.293-.267.694-.406 1.161-.402zm-3.651 10.38c-2.816 2.28-6.515 1.093-7.604-2.352-1.119-3.54 1.884-6.254 5.252-6.037q.08.005.137-.054c1.164-1.194 2.769 2.704 1.003 1.925-1.196-.527-2.019-1.027-3.386-.415-2.179.975-1.016 3.931.035 5.261 1.339 1.696 4.239 1.503 4.932-.67a.37.37 0 0 1 .252-.245c.836-.238 1.216 2.166.103 1.991-.05-.008-.101.007-.139.039l-.585.557z"/><path d="M59.333 121.496c-1.033-.024-2.069.255-2.842.918-1.937 1.66-2.488 4.939-.693 6.94 2.175 2.425 6.105 2.276 7.721-.719.129-.24.243-.629.432-.92.049-.076.067-.069.052.021-.344 2.097.063 3.843 1.759 5.021 2.002 1.391 5.444 1.578 6.31-1.223.061-.199.235-.341.442-.361.464-.044 1.016-.074.809-.748a.21.21 0 0 0-.093-.12c-.424-.257-4.987-1.783-4.228-.099a.17.17 0 0 0 .09.088l.74.328c.041.018.07.054.079.096.284 1.267-.811 2.191-2.008 1.56-2.313-1.219-2.185-6.998.721-7 1.423 0 2.245.817 2.939 1.974.232.387.475.539.896.293a.24.24 0 0 0 .101-.113c.275-.645.36-2.534-.883-2.245-.053.013-.101.003-.147-.028-2.649-1.843-6.249-1.093-7.378 2.111-.043.121-.074.119-.092-.008-.038-.27.06-.62.066-.813.076-2.122-1.048-3.849-2.994-4.599a5.4 5.4 0 0 0-1.799-.354zm.263 1.162a1.47 1.47 0 0 1 .297.009c.595.08 1.115.535 1.444 1.265s.443 1.674.314 2.625-.488 1.831-1 2.447-1.133.916-1.728.836c-1.239-.168-2.026-1.909-1.758-3.889.243-1.8 1.283-3.208 2.431-3.292zm37.303 1.901c-.275.364-.634.275-.536.909q.388 2.557 1.057 5.058.114.429.287.838.032.076.109.103c.263.095.631.123.778.363.604.988-2.75 1.322-3.191 1.341-.538.022-.819-.489-.391-.877q.156-.144.322-.278.065-.05.073-.131.014-.145-.006-.292-.401-2.83-1.057-5.326-.082-.312-.287-.688c-.024-.045-.066-.08-.115-.095-.361-.117-.866-.24-.828-.617.066-.669 2.351-.997 2.893-1.092.464-.082 1.363.158.894.784zm-12.376 2.968q-.019.008-.039.014-.021.006-.019.028.041.699-.636.723-.082.003-.145-.05c-.901-.775-1.415-1.915-2.87-1.508-1.052.295-1.085 1.68-.123 2.09 1.691.719 4.297 1.398 4.034 3.786-.306 2.791-4.241 2.713-6.102 1.991-.91-.353-1.117-1.578-.967-2.429.085-.486.694-.511.94-.144.667.999 1.125 1.936 2.53 1.907.855-.017 1.469-.659 1.242-1.499-.29-1.077-3.237-1.669-4.1-2.698-.669-.795-.718-2.095-.068-2.934.948-1.221 2.912-1.398 4.301-.965.05.016.105.006.145-.027.883-.693 1.639.718 1.768 1.379.009.04.046.067.087.064s.071-.037.071-.078q.008-.85.418-1.584c.028-.048.081-.077.137-.073.282.021.555.076.822.049q2.68-.267 5.354-.577.297-.035.762-.175c.781-.235 1.287 2.15 1.12 2.712q-.028.096-.129.101l-.396.024c-.058.004-.114-.021-.15-.068-.604-.776-.917-1.709-2.174-1.333-.421.125-.442.42-.413.805.139 1.885.282 3.927.718 5.768.014.057.053.104.106.129l.577.263q.077.036.117.11c.208.391.03.667-.377.776-.442.12-3.386.795-3.456-.15-.025-.336.484-.562.696-.757a.18.18 0 0 0 .058-.139q-.085-2.949-.533-5.858-.041-.263-.17-.486-.038-.066-.112-.087c-.786-.216-1.39.025-1.705.77-.139.325-.415 1.314-.932 1.084-.323-.145-.366-.618-.358-.934q.002-.03-.027-.021zm-10.229-.849c-.265-.27-.847-.413-.686-.917q.069-.219.387-.259c.499-.062 3.212-.226 3.496.533.158.423-.435.611-.715.734q-.077.033-.096.115-.088.368-.133.726c-.282 2.319-.503 4.269-.327 5.711q.009.079.077.123.286.183.541.388c.364.293.039.723-.353.759-.435.043-3.442.185-3.453-.631-.006-.434.372-.522.691-.678q.073-.035.109-.107.103-.196.134-.412.418-2.958.387-5.943c0-.053-.021-.104-.058-.142z"/></svg>