<svg xmlns="http://www.w3.org/2000/svg" viewBox="0 0 512 128"><path d="M420.805 51.315a.47.47 0 0 1-.476.473l-6.357-.011a.47.47 0 0 1-.473-.476l.088-50.464a.47.47 0 0 1 .476-.473l6.357.011a.47.47 0 0 1 .335.14.47.47 0 0 1 .138.336zm15.255-30.479c1.503-.618 2.62-1.946 4.036-2.405 6.532-2.118 11.031 3.565 11.31 9.563q.383 8.307-.064 15.426c-.383 6.118-5.476 10.058-11.533 8.435-1.44-.383-2.01-2.245-3.557-2.895-.131-.056-.281-.048-.404.023a.46.46 0 0 0-.226.336l-.303 2.253a.31.31 0 0 1-.311.271l-5.531-.064a.63.63 0 0 1-.626-.63l.012-50.401c0-.1.04-.196.111-.266s.168-.109.268-.108l6.245.072c.18.001.352.074.478.203s.195.303.192.483l-.283 19.577q-.004.207.187.128zm3.517 4c-2.477.742-3.206 2.668-3.246 5.22-.052 3.505-.913 12.518 1.623 14.437q2.094 1.583 4.506.311c1.372-.718 1.619-2.277 1.619-3.677q-.004-5.037 0-10.058.004-2.712-.084-3.147c-.391-2.01-2.269-3.733-4.419-3.087zm29.799-21.224q.343-.889 1.32-.754 3.641.506 7.318.654c.211.008.443.148.574.287.073.076.08.195.016.279q-3.214 4.156-5.619 8.518-.263.475-1.049.973-.152.1-.331.084l-6.413-.546c-.08-.006-.151-.054-.188-.126s-.035-.158.004-.229q2.544-4.423 4.367-9.141z" fill="#727271"/><path fill="#00758c" d="M171.435 112.688q-.909.004-.913-.905-.096-23.793.064-47.286c.199-28.411 18.955-53.049 46.656-59.585 4.187-.989 9.145-1.432 13.707-1.882.17-.017.34.039.466.154s.199.278.2.449v35.302a.56.56 0 0 1-.526.562c-13.081.845-23.613 10.808-23.816 24.235q-.371 24.128-.04 48.096a.74.74 0 0 1-.738.75z"/><path fill="#727271" d="M276.778 8.545c4.108-6.947 15.589-7.474 19.079.203q.881 1.942 1.021 5.858c.112 3.29-.044 6.899 0 9.87l.04 26.799c.004.135-.047.266-.141.363s-.225.152-.361.152h-6.349q-.626 0-.626-.63 0-17.795 0-35.856c-.004-2.963-1.763-5.886-5.184-5.093-3.992.925-4.008 3.346-4.032 6.808q-.128 17.228.016 34.261a.51.51 0 0 1-.146.361.5.5 0 0 1-.357.15h-6.241a.64.64 0 0 1-.642-.646q.096-17.803.223-35.745.02-2.851-2.56-4.606c-2.225-1.511-5.216-.606-6.433 1.719q-.435.83-.443 2.608-.072 18.181.016 36.187c.001.123-.047.242-.134.33s-.205.137-.329.137l-6.313.024a.55.55 0 0 1-.391-.161c-.103-.103-.161-.243-.16-.389q.056-18.054-.096-36.347-.028-3.194.475-4.726c2.309-7.031 11.478-9.22 17.097-4.718 1.017.818 1.834 2.042 2.692 3.107q.156.191.279-.02z"/><path fill="#90be37" d="M162.876 46.216c-6.213-5.986-15.386-7.916-23.322-5.591-10.289 3.015-17.591 12.486-17.599 23.354q-.02 24.092-.008 48.187c0 .167-.136.303-.303.303l-35.673.132q-.714.004-.714-.71-.016-22.229.008-44.742.004-5.492-.479-7.948c-1.36-6.899-5.555-12.67-11.617-16.219-16.235-9.507-36.251 2.289-36.494 20.901q-.319 24.179-.084 48.024a.67.67 0 0 1-.192.474.66.66 0 0 1-.47.196l-34.847.108a1.05 1.05 0 0 1-.747-.308 1.06 1.06 0 0 1-.31-.749Q-.006 88.66.002 66.048c0-5.898.479-11.996 2.022-17.643C10.027 19.077 37.84-.061 68.5 3.668c13.368 1.627 25.428 7.486 35.095 16.881q.156.152.299-.012 1.627-1.831 3.087-3.047 15.916-13.308 36.797-14.229c14.484-.642 27.609 3.821 39.146 12.02q.678.479.092 1.069-13.204 13.384-17.671 31.681a.26.26 0 0 1-.395.156c-.893-.594-1.468-1.384-2.074-1.97z"/><path d="M365.332 17.981l-.144-6.485a1.34 1.34 0 0 1 .949-1.308l5.396-1.651q.869-.267 1.113.61.088.323.048 1.073-.211 3.92-.215 7.852c0 .121.096.219.215.219h4.582a.5.5 0 0 1 .499.499v5.838a.49.49 0 0 1-.475.487l-4.586.12q-.235.008-.235.239c.024 6.325-.435 13.109.243 19.35.015.161.146.286.307.295l3.581.219a.62.62 0 0 1 .586.638q-.076 2.508-.124 5.117-.016.774-.794.889c-2.078.315-6.014.63-7.737-.818q-3.23-2.724-3.282-7.529-.096-9.057-.032-18.014a.47.47 0 0 0-.151-.35.49.49 0 0 0-.364-.129l-2.824.215c-.204.015-.405-.053-.558-.189s-.243-.328-.252-.533l-.203-5.444c-.008-.203.067-.4.206-.547s.333-.232.535-.235l3.358-.06a.36.36 0 0 0 .254-.112c.066-.07.103-.163.101-.259zm-38.935 24.315c-.798 12.463-19.119 13.559-22.173 1.635q-.387-1.515-.502-6.042-.12-4.542.128-9.081c.363-6.831 5.296-11.023 12.183-10.792 6.971.231 10.405 5.029 10.588 11.713q.179 6.289-.223 12.566zm-7.083-13.631c0-1.039-.413-2.035-1.147-2.769a3.92 3.92 0 0 0-2.769-1.147h-.335c-1.039 0-2.035.413-2.769 1.147a3.92 3.92 0 0 0-1.147 2.769v12.778c0 1.039.413 2.035 1.147 2.769a3.92 3.92 0 0 0 2.769 1.147h.335c1.039 0 2.035-.413 2.769-1.147a3.92 3.92 0 0 0 1.147-2.769zm14.246-10.218c.069-.194.268-.31.471-.275q2.221.367 4.431.028c.53-.081 1.03.268 1.137.794l.291 1.436q.052.275.331.303c.646.06 1.312-.231 1.815-.758 2.524-2.632 7.198-2.636 9.966-.383 3.35 2.724 3.864 6.389 3.848 10.668q-.048 10.568.04 20.965c.001.154-.06.301-.168.41a.57.57 0 0 1-.41.168l-6.13-.04q-.718-.004-.718-.722-.004-10.397 0-21.16.004-2.13-.371-2.979c-.73-1.655-2.843-2.812-4.634-1.986-2.353 1.085-2.752 2.728-2.764 5.324q-.052 10.485.048 20.949c.002.159-.06.312-.171.425s-.264.177-.423.177h-6.03c-.212 0-.415-.085-.564-.235s-.232-.354-.23-.566q.148-15.298.068-30.624c-.004-.754-.136-1.085.167-1.918zm64.582 30.588q-.889.231-1.599 1.292-.881 1.316-3.115 1.743c-5.83 1.113-10.062-3.462-10.293-9.029-.167-3.948-.088-7.218-.195-11.848-.076-3.482.084-6.8 2.253-9.659q3.386-4.451 9.005-3.326c1.507.303 2.457 2.066 4.16 2.6q.271.084.319-.195l.307-1.914c.03-.191.196-.332.391-.331h5.571c.127 0 .248.05.337.139a.47.47 0 0 1 .138.335l-.032 32.419a.5.5 0 0 1-.491.499l-5.033.112c-.283.006-.556-.106-.754-.309a1.03 1.03 0 0 1-.291-.763q.036-.83-.363-1.619-.1-.199-.315-.144zm-6.489-23.25c-.642.682-1.276 1.571-1.32 2.504q-.239 5.208-.04 12.965c.148 5.759 7.753 5.4 7.781-.534q.032-7.115.012-10.548-.012-1.886-.407-2.812c-1.029-2.413-3.908-3.832-6.026-1.575zm96.391-6.871a.66.66 0 0 1 .734-.658q2.345.251 4.666-.088c.149-.023.302.021.419.12q.75.634.55 1.667c-.018.104.01.211.076.295q.814.973 1.755.116 3.198-2.911 6.915-2.293c5.731.957 7.406 6.297 7.402 11.37q0 10.983.056 21.759a.48.48 0 0 1-.139.342c-.09.091-.212.143-.34.144l-6.393.048c-.145.001-.284-.055-.386-.156a.54.54 0 0 1-.16-.382q-.004-9.069 0-18.225c0-1.3.359-3.916-.048-5.28-1.496-5.013-7.653-3.206-7.701 1.492q-.112 10.827.096 22.098c.002.123-.045.242-.131.331a.46.46 0 0 1-.327.14l-6.449.052a.59.59 0 0 1-.594-.59zM458.07 28.76c-.008-4.175 2.389-8.822 6.5-10.397 1.3-.499 4.518-.459 5.707.14 1.196.598 2.034 2.138 3.37 2.241q.175.012.207-.164l.335-1.862c.031-.175.183-.304.363-.307l5.555-.076a.6.6 0 0 1 .606.598l-.056 32.311c0 .302-.243.546-.542.546h-5.129q-.199 0-.327-.156-.614-.77-.475-1.699a.72.72 0 0 0-.945-.79c-1.081.367-1.484 1.507-2.381 2.014-6.496 3.681-12.598-2.273-12.686-8.67q-.092-6.859-.104-13.731zm10.967-4.072c-1.611.064-3.43 2.261-3.458 3.817q-.108 5.747-.148 11.497c-.008 1.647.164 3.657 1.611 4.654 2.951 2.03 6.245-.331 6.233-3.637q-.016-5.212-.052-10.421-.016-1.89-.044-2.078c-.331-2.126-1.886-3.928-4.144-3.832zM368.1 109.845q-.822.16-1.22.654c-1.109 1.38-2.074 2.217-3.912 2.437-5.894.702-9.886-3.645-10.086-9.376q-.251-7.338-.02-14.676c.187-5.815 5.176-12.219 11.529-9.583 1.252.522 2.6 1.639 3.864 2.493q.14.092.136-.076l-.152-20.191a.4.4 0 0 1 .399-.399l6.146.052c.267.002.483.218.483.483l.076 50.086c.001.236-.094.463-.264.627s-.4.254-.637.246q-2.341-.072-4.75.084-.845.056-.945-1.125-.088-1.009-.339-1.575c-.054-.117-.18-.182-.307-.16zm-6.6-4.59c3.47 2.497 6.445-.455 6.409-4.016s-.175-7.147-.008-10.708c.136-2.915-2.867-6.58-5.85-4.502-2.058 1.436-1.854 3.194-1.894 5.464q-.076 4.762-.028 9.527c.016 1.507-.024 3.234 1.372 4.235zm42.356-41.017c.136-.333.471-.539.83-.51l8.016.658a.3.3 0 0 1 .211.479l-1.982 2.584c-1.811 2.871-3.41 5.938-4.686 6.943q-.156.124-.351.088-3.206-.598-6.469-.546a.27.27 0 0 1-.232-.403q2.672-4.475 4.662-9.292zm-87.365 24.075c.562.738 1.803 1.081 2.5 1.823q3.354 3.549 3.474 8.618.152 6.289-.092 13.141a.74.74 0 0 1-.742.714h-5.966a.61.61 0 0 1-.61-.626q.179-6.006.096-12.235c-.044-3.226-2.437-7.286-6.066-7.486q-3.557-.195-7.071-.056c-.081.004-.144.073-.144.156l.084 19.509c.001.19-.073.373-.206.507a.71.71 0 0 1-.503.21l-5.874-.004a.77.77 0 0 1-.548-.228c-.145-.146-.226-.344-.225-.55q.116-20.104.024-40.399c-.016-3.912.578-6.72 4.965-6.895q5.448-.219 10.891.072c6.564.351 11.458 5.001 11.824 11.609.199 3.593-.953 10.417-5.416 11.127q-1.037.164-.395.993zm-14.656-16.821l.12 13.679c0 .035.014.068.039.093s.058.039.093.039l6.612-.06c3.494-.03 6.304-2.731 6.277-6.034l-.016-1.978c-.029-3.303-2.886-5.957-6.381-5.926l-6.612.056c-.035 0-.068.014-.093.039s-.039.058-.039.093zm31.661 40.925c-4.323-1.34-7.031-6.054-7.318-10.353q-.211-3.099-.024-9.942.112-4.175.814-6.158c3.777-10.704 21.38-9.36 22.062 2.939q.211 3.817.12 8.822-.104 5.739-.455 7.206c-1.639 6.812-8.933 9.432-15.198 7.486zm1.484-7.262c2.241 1.858 6.496.937 6.748-2.217q.323-4.08.14-12.183c-.156-6.963-8.171-6.983-8.239-.479q-.056 5.595.004 11.186c.016 1.507.255 2.788 1.348 3.693zm87.481 7.896c-5.719.63-9.747-4.578-9.834-9.894q-.056-3.214-.032-13.18c.012-6.397 4.734-13.081 11.86-10.76 1.527.499 2.018 2.305 3.825 2.193q.574-.036.538-.614-.052-.762.271-1.484.08-.183.283-.179l5.252.06a.62.62 0 0 1 .618.63q-.219 18.401-.124 36.869.036 6.7-5.005 9.519c-2.78 1.551-7.884 1.95-10.883.622q-5.695-2.52-6.058-9.456-.052-.933.459-1.4a.47.47 0 0 1 .395-.124q2.72.419 5.432.008.227-.036.395.124c1.045.981.618 2.022 1.129 2.995 1.503 2.867 4.718 2.177 6.477.048q.136-.164.152-.383l.467-8.347c.002-.048-.016-.095-.05-.128s-.081-.051-.129-.047c-1.89.164-2.867 2.648-5.436 2.927zm-1.24-7.896c1.336 1.141 2.816 1.36 4.355.423q2.233-1.356 2.245-4.53c.012-2.907.754-12.024-1.101-14.042-2.927-3.19-6.808-.746-6.764 3.067q.064 5.288-.024 10.572c-.032 1.791-.004 3.41 1.288 4.51zm66.715-2.122c-1.499 13.388-21.543 13.196-21.806.319q-.175-8.487-.108-14.169c.072-5.918 3.709-9.671 9.348-10.333q2.816-.331 5.073.283c6.816 1.854 7.96 7.976 7.055 14.209q-.463 3.178-3.067 4.371c-2.532 1.165-7.617.837-10.756.734-.27-.009-.499.194-.522.463-.215 2.604-.08 6.576 3.198 7.151 2.417.427 3.876-1.492 3.996-3.805q.056-1.057 1.212-1.009 2.504.096 4.989.14 1.571.024 1.388 1.647zm-13.655-11.398l5.065.024a1.1 1.1 0 0 0 1.105-1.093l.004-.714c.006-1.124-.346-2.205-.981-3.003s-1.498-1.25-2.401-1.256h-.455c-.903-.005-1.772.436-2.415 1.228s-1.008 1.867-1.014 2.992l-.004.714a1.1 1.1 0 0 0 1.097 1.109zm-93.99 20.989c-.198.003-.388-.074-.529-.213s-.22-.33-.22-.529l.152-32.311c0-.116.046-.227.129-.309s.194-.127.31-.126l4.869.024c.411.002.755.311.798.718q.104 1.009.586 1.886.12.215.355.14c1.543-.483 1.707-1.942 3.099-2.644 1.476-.75 4.574-.303 6.281-.12a1.02 1.02 0 0 1 .909.981l.219 6.345a.47.47 0 0 1-.694.431c-1.623-.861-3.601-1.679-5.543-1.252-2.477.542-4.056 2.321-4.068 4.929q-.052 10.76.076 21.412a.53.53 0 0 1-.151.38.54.54 0 0 1-.376.162zm-109.068-2.755c-.714.259-1.208.566-1.795 1.145-3.043 2.991-7.115 2.664-10.173-.1q-3.294-2.979-3.342-7.956-.108-11.047-.08-23.071 0-.762.766-.75l6.158.1c.366.007.658.308.654.674q-.092 10.843-.175 21.93c-.02 2.652.889 4.012 3.693 4.231 2.134.171 4.327-2.138 4.323-4.203q-.036-10.991-.076-21.954 0-.766.762-.77l5.763-.028c.234-.001.458.092.623.257s.257.39.254.624q-.132 16.554-.064 33.085c.012 2.405.211 5.456-.451 7.569q-1.583 5.041-6.947 6.465c-7.322 1.946-14.851-1.723-14.481-10.038.04-.873.483-1.129 1.3-1.061q2.389.203 4.67.052a.98.98 0 0 1 .989.646c.634 1.739.694 3.019 2.485 3.98 1.416.762 3.426-.403 4.375-1.436 1.184-1.288.929-7.166 1.065-9.172a.22.22 0 0 0-.295-.219zm129.838 2.731c-.094 0-.184-.038-.251-.105a.36.36 0 0 1-.104-.254V79.667a.54.54 0 0 1 .538-.538h6.169a.68.68 0 0 1 .682.69c-.132 10.772-.391 21.587.064 32.223a.6.6 0 0 1-.169.445.61.61 0 0 1-.441.185zm48.546.355c-4.786.622-8.798-2.784-9.894-7.31-.363-1.503-.443-3.625-.427-5.284q.1-9.675.116-19.358c0-.451-.215-1.053.04-1.655q.08-.191.283-.215c1.057-.12 2.138.183 3.007.171q1.555-.016 3.226-.223a.82.82 0 0 1 .65.201c.177.158.279.384.279.621q-.048 10.52-.14 21.288c-.02 2.465.379 4.375 2.927 4.873 2.891.566 5.069-1.89 5.069-4.718q0-10.114-.02-21.719a.48.48 0 0 1 .139-.338.47.47 0 0 1 .336-.14l6.381-.012a.55.55 0 0 1 .55.55v32.235a.65.65 0 0 1-.562.646q-2.544.347-5.081-.052c-.135-.021-.246-.123-.283-.259l-.562-2.082c-.018-.062-.055-.115-.104-.152q-.722-.534-1.404.187c-1.332 1.416-2.548 2.489-4.526 2.744zm53.974-27.146q-5.695.467-11.406.207-.355-.016-.359-.371l-.04-6.197a.32.32 0 0 1 .315-.323q6.265-.084 12.602.1c1.683.048 3.709-.08 4.905 1.137 2.373 2.417 1.731 5.316.004 8.064q-5.499 8.738-11.677 17.013-.12.16.08.16l13.468.116a.53.53 0 0 1 .526.538l-.096 5.826c-.004.288-.239.518-.526.518q-7.621.04-15.258-.012-1.842-.012-3.107-.782c-4.148-2.528-2.688-6.449-.403-9.787q5.503-8.04 11.067-16.04.132-.187-.096-.167z" fill="#727271"/></svg>