<svg xmlns="http://www.w3.org/2000/svg" viewBox="0 0 157.11 62.86"><path d="M66.46 58.75a1.05 1.05 0 0 1 .31-.8 1.1 1.1 0 0 1 .8-.3.83.83 0 0 1 .65.26.88.88 0 0 1 .24.63 1.18 1.18 0 0 1-.29.78 1 1 0 0 1-.82.33.84.84 0 0 1-.65-.26.93.93 0 0 1-.24-.64m7.61.84a1.61 1.61 0 0 1-.13.63 1.66 1.66 0 0 1-.38.49A1.9 1.9 0 0 1 73 61a2.09 2.09 0 0 1-.72.11 3.48 3.48 0 0 1-.77-.08 3.39 3.39 0 0 1-.72-.22l.12-.47a3.78 3.78 0 0 0 .67.23 2.74 2.74 0 0 0 .7.08 1.45 1.45 0 0 0 .91-.26.92.92 0 0 0 .35-.79 1 1 0 0 0-.08-.39 2.32 2.32 0 0 0-.22-.36 2.45 2.45 0 0 0-.32-.33l-.38-.33-.46-.38a3.75 3.75 0 0 1-.34-.36 1.57 1.57 0 0 1-.22-.37 1.18 1.18 0 0 1-.07-.43 1.46 1.46 0 0 1 .12-.6 1 1 0 0 1 .33-.44 1.42 1.42 0 0 1 .5-.27 2.27 2.27 0 0 1 .65-.09 2.83 2.83 0 0 1 .8.1 2.87 2.87 0 0 1 .68.28l-.14.46a4 4 0 0 0-.64-.27 2.2 2.2 0 0 0-.68-.11 1.33 1.33 0 0 0-.76.21.79.79 0 0 0-.31.69.87.87 0 0 0 0 .39 1.75 1.75 0 0 0 .17.28 3.44 3.44 0 0 0 .27.27 2.84 2.84 0 0 0 .36.29l.4.33a3 3 0 0 1 .4.4 2.19 2.19 0 0 1 .4.43 1.41 1.41 0 0 1 .12.59m4.95-2.25a.8.8 0 0 0-.44.15 2.2 2.2 0 0 0-.45.42 4.32 4.32 0 0 0-.42.58 5.37 5.37 0 0 0-.36.66l-.25 1.39a2.42 2.42 0 0 0 .36.1h.39a1.49 1.49 0 0 0 .8-.2 1.7 1.7 0 0 0 .55-.52 2.16 2.16 0 0 0 .32-.74 3.55 3.55 0 0 0 .1-.86 2.22 2.22 0 0 0 0-.37 1.06 1.06 0 0 0-.1-.33.71.71 0 0 0-.18-.23.45.45 0 0 0-.29-.08M77.23 57h.53l-.23 1.26q.14-.24.3-.48a2.69 2.69 0 0 1 .37-.44 2 2 0 0 1 .45-.31 1.14 1.14 0 0 1 .52-.12.84.84 0 0 1 .45.12 1 1 0 0 1 .33.31 1.54 1.54 0 0 1 .2.45 2.51 2.51 0 0 1 .06.55 3.63 3.63 0 0 1-.14 1 2.54 2.54 0 0 1-.43.89 2.15 2.15 0 0 1-.71.63 2 2 0 0 1-1 .23 3 3 0 0 1-.44 0 2.46 2.46 0 0 1-.41-.1l-.31 1.8h-.55zm6.3-1.22a.39.39 0 0 1 .14-.3.56.56 0 0 1 .41-.13.49.49 0 0 1 .32.09.3.3 0 0 1 .12.25.37.37 0 0 1-.16.31.63.63 0 0 1-.4.12.47.47 0 0 1-.32-.1.28.28 0 0 1-.11-.24m-1 5.25l.88-4.03h.69l-.89 4zm5.7-4.14a2 2 0 0 1 1.07.27l-.11.45a3.45 3.45 0 0 0-.46-.19 2 2 0 0 0-.5-.07 1.36 1.36 0 0 0-.67.17 1.53 1.53 0 0 0-.5.45 2.17 2.17 0 0 0-.3.67 3.12 3.12 0 0 0-.11.82 1.42 1.42 0 0 0 .25.89.93.93 0 0 0 .79.32 2 2 0 0 0 .5-.06 2.54 2.54 0 0 0 .46-.17l.11.41a2.14 2.14 0 0 1-.52.19 2.37 2.37 0 0 1-.61.07A1.59 1.59 0 0 1 87 61a1.35 1.35 0 0 1-.48-.37 1.56 1.56 0 0 1-.27-.53 2.3 2.3 0 0 1-.09-.64 3.43 3.43 0 0 1 .14-1 2.58 2.58 0 0 1 .41-.81 2.1 2.1 0 0 1 .66-.56 1.83 1.83 0 0 1 .91-.22m5.11.45a1.07 1.07 0 0 0-.53.13 1.58 1.58 0 0 0-.43.34 2 2 0 0 0-.32.47 2.25 2.25 0 0 0-.17.54l.65-.06a4.38 4.38 0 0 0 .67-.16 1.58 1.58 0 0 0 .51-.29.59.59 0 0 0 .21-.46.5.5 0 0 0-.15-.37.66.66 0 0 0-.44-.14m.06-.43a1.31 1.31 0 0 1 .41.06 1 1 0 0 1 .34.18.91.91 0 0 1 .23.28 1 1 0 0 1 .08.39.91.91 0 0 1-.13.5 1.33 1.33 0 0 1-.34.37 2.54 2.54 0 0 1-.49.26 3.43 3.43 0 0 1-.57.17l-.59.1h-.53a2 2 0 0 0 0 .34 1.39 1.39 0 0 0 .21.79.85.85 0 0 0 .73.3 2.25 2.25 0 0 0 .58-.08 3.13 3.13 0 0 0 .54-.23l.11.41a2.38 2.38 0 0 1-.59.25 2.46 2.46 0 0 1-.67.09 1.56 1.56 0 0 1-.64-.12 1.25 1.25 0 0 1-.45-.33 1.3 1.3 0 0 1-.26-.51 2 2 0 0 1-.09-.61 3.16 3.16 0 0 1 .14-1 2.51 2.51 0 0 1 .42-.85 2.13 2.13 0 0 1 .67-.6 1.84 1.84 0 0 1 .91-.23m4.35 3.85a.81.81 0 0 0 .47-.16 2.27 2.27 0 0 0 .45-.43 4.55 4.55 0 0 0 .42-.6 7.17 7.17 0 0 0 .35-.67l.23-1.34a2 2 0 0 0-.74-.13 1.44 1.44 0 0 0-.8.2 1.52 1.52 0 0 0-.55.52 2 2 0 0 0-.32.74 3.55 3.55 0 0 0-.1.86 2.17 2.17 0 0 0 0 .36 1.07 1.07 0 0 0 .08.33.47.47 0 0 0 .18.23.5.5 0 0 0 .31.09m1.85.36h-.53l.21-1.23q-.13.23-.3.45a2.6 2.6 0 0 1-.38.43 1.9 1.9 0 0 1-.45.31 1.14 1.14 0 0 1-.52.13.88.88 0 0 1-.46-.13 1.08 1.08 0 0 1-.32-.32 1.51 1.51 0 0 1-.18-.45 2.33 2.33 0 0 1-.06-.53 4 4 0 0 1 .14-1 2.73 2.73 0 0 1 .43-.89 2.26 2.26 0 0 1 .71-.63 2.07 2.07 0 0 1 1-.24 2.32 2.32 0 0 1 .85.14l.34-2h.55zm8.99-3.69a.84.84 0 0 0-.48.16 2.39 2.39 0 0 0-.45.4 3.74 3.74 0 0 0-.39.54 4.41 4.41 0 0 0-.3.56l-.27 1.55a1.53 1.53 0 0 0 .34.09 2.77 2.77 0 0 0 .42 0 1.54 1.54 0 0 0 .79-.19 1.65 1.65 0 0 0 .54-.51 2.16 2.16 0 0 0 .32-.74 3.6 3.6 0 0 0 .1-.88 1.59 1.59 0 0 0-.15-.72.49.49 0 0 0-.47-.29M107.16 55h.55l-.54 3.1a2.85 2.85 0 0 1 .29-.45 2.69 2.69 0 0 1 .36-.39 1.76 1.76 0 0 1 .44-.29 1.22 1.22 0 0 1 .5-.11.84.84 0 0 1 .45.12 1.08 1.08 0 0 1 .33.31 1.77 1.77 0 0 1 .2.46 2.47 2.47 0 0 1 .06.56 4 4 0 0 1-.13 1 2.83 2.83 0 0 1-.43.89 2.16 2.16 0 0 1-.72.62 2.12 2.12 0 0 1-1 .23h-.33a2.2 2.2 0 0 1-.37-.06l-.36-.08-.29-.11zm6.77 5.83a5.92 5.92 0 0 1-1 1.13 6.27 6.27 0 0 1-1.26.9l-.24-.39a10 10 0 0 0 1-.66 6.36 6.36 0 0 0 .79-.77 21.13 21.13 0 0 0-.43-2.13 14.56 14.56 0 0 0-.61-1.93h.55q.14.38.27.81l.25.91.21.95.16.92a10.81 10.81 0 0 0 .81-1.68 10.07 10.07 0 0 0 .47-1.91h.53a7.42 7.42 0 0 1-.23 1.12l-.36 1.06a9.13 9.13 0 0 1-.44.94 7.45 7.45 0 0 1-.43.73m10.62.2l-2.43-4.82-.84 4.82h-.52l.98-5.66h.52l2.44 4.82.84-4.82h.53l-.98 5.66h-.54zm4.69-.36a.75.75 0 0 0 .51-.24 3.62 3.62 0 0 0 .49-.62 6.12 6.12 0 0 0 .43-.81q.21-.44.36-.81l.13-.77a2.24 2.24 0 0 0-.67-.08 1.44 1.44 0 0 0-.75.19 1.7 1.7 0 0 0-.55.52 2.59 2.59 0 0 0-.34.75 3.68 3.68 0 0 0-.11.89v.37a2.13 2.13 0 0 0 .08.32.57.57 0 0 0 .15.21.36.36 0 0 0 .25.08m1.84.36h-.52l.27-1.58-.29.55a4.27 4.27 0 0 1-.37.54 1.76 1.76 0 0 1-.46.41 1 1 0 0 1-.53.17.79.79 0 0 1-.45-.12 1.05 1.05 0 0 1-.31-.32 1.28 1.28 0 0 1-.17-.45 2.24 2.24 0 0 1-.06-.52 3.58 3.58 0 0 1 .15-1 2.89 2.89 0 0 1 .43-.9 2.31 2.31 0 0 1 .72-.64 2 2 0 0 1 1-.24 3.81 3.81 0 0 1 .67.07 4.3 4.3 0 0 1 .6.17zm3.19-4.03h.71l.19-1.1h.55l-.19 1.1h1.32l-.08.44h-1.32l-.41 2.37v.16.15a.72.72 0 0 0 .11.42.52.52 0 0 0 .43.15 1.86 1.86 0 0 0 .42-.05l.38-.13.05.41a1.76 1.76 0 0 1-.43.16 2.09 2.09 0 0 1-.49 0 1 1 0 0 1-.77-.26 1 1 0 0 1-.25-.74.91.91 0 0 1 0-.17.61.61 0 0 1 0-.15l.42-2.37h-.76zm8.31 0l-.7 4h-.53l.24-1.39c-.07.15-.16.31-.26.49a2.47 2.47 0 0 1-.35.48 2.17 2.17 0 0 1-.44.36.94.94 0 0 1-.51.14.91.91 0 0 1-.45-.1.79.79 0 0 1-.32-.28 1.33 1.33 0 0 1-.18-.42 3 3 0 0 1 0-.53 1.72 1.72 0 0 1 0-.31 2.79 2.79 0 0 1 0-.32l.38-2.17h.52l-.39 2.23a1.87 1.87 0 0 0 0 .32v.29c0 .57.19.85.57.85a.75.75 0 0 0 .46-.18 2.14 2.14 0 0 0 .43-.46 4.78 4.78 0 0 0 .38-.63l.33-.7.3-1.72zm4.85.46h-.11a1.15 1.15 0 0 0-.89.41 3.42 3.42 0 0 0-.64 1.11l-.36 2.02h-.54l.7-4.05h.54l-.22 1.26a3.26 3.26 0 0 1 .21-.5 1.52 1.52 0 0 1 .29-.41 1.25 1.25 0 0 1 .37-.28 1.21 1.21 0 0 1 .48-.1h.14.11zm3.88-.14a1.09 1.09 0 0 0-.53.13 1.74 1.74 0 0 0-.43.34 2.17 2.17 0 0 0-.49 1l.66-.06a4 4 0 0 0 .66-.16 1.53 1.53 0 0 0 .52-.29.59.59 0 0 0 .21-.46.47.47 0 0 0-.16-.37.64.64 0 0 0-.44-.14m.07-.43a1.4 1.4 0 0 1 .41.06.88.88 0 0 1 .33.18.7.7 0 0 1 .23.28.85.85 0 0 1 .08.39.91.91 0 0 1-.13.5 1.19 1.19 0 0 1-.34.37 2.06 2.06 0 0 1-.49.26 3.43 3.43 0 0 1-.57.17l-.58.1h-.53a2 2 0 0 0 0 .34 1.32 1.32 0 0 0 .22.79.84.84 0 0 0 .73.3 2.24 2.24 0 0 0 .57-.08 2.58 2.58 0 0 0 .54-.23l.11.41a2.31 2.31 0 0 1-.58.25 2.54 2.54 0 0 1-.68.09 1.54 1.54 0 0 1-.63-.12 1.25 1.25 0 0 1-.45-.33 1.47 1.47 0 0 1-.27-.51 2 2 0 0 1-.09-.61 3.5 3.5 0 0 1 .14-1 2.93 2.93 0 0 1 .42-.85 2.17 2.17 0 0 1 .68-.6 1.81 1.81 0 0 1 .91-.23m3.68 1.94a1.05 1.05 0 0 1 .31-.8 1.09 1.09 0 0 1 .8-.3.86.86 0 0 1 .65.26.88.88 0 0 1 .24.63 1.18 1.18 0 0 1-.29.78 1 1 0 0 1-.83.33.86.86 0 0 1-.65-.26 1 1 0 0 1-.23-.64" fill="#3d4040"/><g fill="#2e302b"><path d="M76.35 5c3.75 0 6.26 2.78 6.26 6.64s-2.51 6.67-6.26 6.67-6.26-2.81-6.26-6.67S72.61 5 76.35 5m0 17.29c6.55 0 10.94-4.74 10.94-10.65S82.9 1 76.35 1 65.41 5.74 65.41 11.62s4.39 10.65 10.94 10.65m28.29-11.12a2.08 2.08 0 0 1 2.28 2.31v8.4h4.33v-9.42c0-2.81-1.87-5-5.47-5a7.54 7.54 0 0 0-4.89 1.69 5.45 5.45 0 0 0-4.24-1.69 8.36 8.36 0 0 0-4.39 1.31h0s-.91-1.18-3.44-1h0 0v14.1h4.3v-10a4.48 4.48 0 0 1 2.49-.73 2.08 2.08 0 0 1 2.28 2.31v8.4h4.33v-8.48l-.06-1.44a4.68 4.68 0 0 1 2.52-.76m14.96-.41a2.46 2.46 0 0 1 2.55 2.43h-5.27a2.71 2.71 0 0 1 2.72-2.43m.41 11.53a10.86 10.86 0 0 0 5.39-1.27v-3.88h-.27a7.26 7.26 0 0 1-4.44 1.58 3.67 3.67 0 0 1-3.86-2.7h9.53v-1.69c0-4.83-3.42-6.87-6.7-6.87-4.47 0-7.25 3.3-7.25 7.49 0 4 2.78 7.34 7.6 7.34m32.28-1.16h0zm-.83-2.79a3.6 3.6 0 0 1-2.31.85 1.64 1.64 0 0 1-1.81-1.58c0-.91.58-1.82 2.45-1.82.82 0 1.23.06 1.67.09zm4.3-6.09c0-3.07-2.22-4.79-6.06-4.79a15.58 15.58 0 0 0-5.46.93l-.68 3.86a14.1 14.1 0 0 1 5.53-1.31c1.61 0 2.37.73 2.37 1.9v.41a14.07 14.07 0 0 0-1.93-.09c-4.94 0-6.49 2.31-6.49 4.65s2 4.48 5.17 4.48a6.8 6.8 0 0 0 4-1.13 4 4 0 0 0 3.48.95h0zM75.23 34.21l-2.67-1.49c-1.18-.66-1.63-1.23-1.63-2.06 0-1 .91-1.69 2.38-1.69a9.82 9.82 0 0 1 5.39 2v-4.38a11.51 11.51 0 0 0-5.6-1.35c-4.12 0-6.73 2.61-6.73 5.79 0 2.41 1.32 4.13 3.61 5.36l2.26 1.26c1.81 1 2.73 1.5 2.73 2.73 0 1-1 1.92-2.67 1.92a9.06 9.06 0 0 1-5.82-2.47v4.79a11.76 11.76 0 0 0 6.17 1.46c3.9 0 7-2.35 7-6.1 0-3-2-4.39-4.41-5.77M88 42.59a4.45 4.45 0 0 1-2.49-.81v-5.93a4.59 4.59 0 0 1 2.52-.78c2.21 0 3.36 1.55 3.36 3.73s-1.08 3.79-3.39 3.79m.72-11a7.48 7.48 0 0 0-4.12 1.08s-.94-1.07-3.3-.77h0V52h4.22v-6.6a7.31 7.31 0 0 0 3.07.68c4.7 0 7.17-3.32 7.17-7.42s-2.67-7.11-7-7.11m8.37.43h4.21v13.71h-4.21zm0-6.37h4.21v4.04h-4.21zm9.78 13.16a3.43 3.43 0 0 1 3.67-3.67 6 6 0 0 1 4.42 1.78v-4.13a8.63 8.63 0 0 0-4.73-1.2c-4.68 0-7.57 3.24-7.57 7.34 0 3.9 2.55 7.19 7.62 7.19a9.59 9.59 0 0 0 5-1.2v-4.13a7.05 7.05 0 0 1-4.55 1.69 3.5 3.5 0 0 1-3.82-3.67m13.55-1.6a2.64 2.64 0 0 1 2.67-2.38 2.41 2.41 0 0 1 2.5 2.38zm2.73-5.62c-4.39 0-7.11 3.24-7.11 7.34 0 3.9 2.72 7.19 7.45 7.19a10.56 10.56 0 0 0 5.28-1.29V41h-.26a7.16 7.16 0 0 1-4.36 1.55 3.59 3.59 0 0 1-3.78-2.7h9.34v-1.57c0-4.73-3.35-6.73-6.56-6.73"/><path d="M137.43 17.91a5.67 5.67 0 0 1-2.57.58c-2.31 0-3.43-1.61-3.43-3.71s1.2-3.75 3.43-3.75a4.45 4.45 0 0 1 2.57.71zm4.33-10.15h0a4 4 0 0 0-3.19.84h0a6.84 6.84 0 0 0-4.12-1.17A7.13 7.13 0 0 0 127 15c0 3.84 2.42 7.08 7 7.08a7.14 7.14 0 0 0 3.39-.7V22c0 1.55-.94 2.84-3.74 2.84a10.36 10.36 0 0 1-5.5-1.81v4.39a15 15 0 0 0 5.91 1.17c5.61 0 7.66-3.11 7.66-6.73V7.76"/></g><path d="M20.87 17.52a8.66 8.66 0 0 0-8.65 8.65v3.68h1.21v-3.68a7.45 7.45 0 1 1 14.89 0v3.68h1.2v-3.68a8.66 8.66 0 0 0-8.65-8.65m.34 7.92c-.55 0-1 .27-1 .6v3.81h2V26c0-.33-.44-.6-1-.6m-.34-11.78A12.66 12.66 0 0 0 8.22 26.27v3.58h1.2v-3.58a11.45 11.45 0 0 1 20.63-6.84v-1.86a12.64 12.64 0 0 0-9.18-4M5.41 26.5a15.38 15.38 0 0 1 24.64-12.28v-1.48A16.59 16.59 0 0 0 4.21 26.5v3.35h1.2zm19.96 3.35v-3.79a4.57 4.57 0 0 0-9.14 0v3.79h1.2v-3.79a3.37 3.37 0 0 1 6.74 0v3.79zM1.2 26.31A19.63 19.63 0 0 1 30.05 9V7.62A20.83 20.83 0 0 0 0 26.18v3.67h1.2zM0 15.25A23.56 23.56 0 0 1 30.05 4.63V3.34A24.72 24.72 0 0 0 0 12.89z" fill="#db052c"/><g fill="#f9ba00"><path d="M43.72 1.67A10.51 10.51 0 0 0 43.89 0h-1.15a10.18 10.18 0 0 1-.15 1.46 10 10 0 0 1-9.9 8.28h-.65v1.16h.65a11.19 11.19 0 0 0 11-9.22m-4.35 19.98a22.79 22.79 0 0 0 3.78-1.52 23 23 0 0 0 8.89-8 .58.58 0 0 0-.17-.79.57.57 0 0 0-.8.17 21.88 21.88 0 0 1-8.45 7.63A21.88 21.88 0 0 1 39 20.56a21.53 21.53 0 0 1-7 .93v1.16h.61a22.94 22.94 0 0 0 6.69-1m3.09-10.35A15.14 15.14 0 0 0 46 7a15.09 15.09 0 0 0 1.86-7h-1.2A13.82 13.82 0 0 1 45 6.4a14 14 0 0 1-3.3 4 .58.58 0 0 0-.07.81.57.57 0 0 0 .81.07M39.86 1A6.51 6.51 0 0 0 40 0h-1.19a6.48 6.48 0 0 1-.08.77 6.13 6.13 0 0 1-6 5.05h-.65v1.12h.65a7.27 7.27 0 0 0 7.17-6M62 23.15a38.09 38.09 0 0 1-7 6.74h1.9A40 40 0 0 0 62 25zM32.69 3.05A3.36 3.36 0 0 0 36 .29 2.89 2.89 0 0 0 36 0h-1.12a.25.25 0 0 0 0 .08 2.23 2.23 0 0 1-2.58 1.79L32 1.8V3h.06a3 3 0 0 0 .59 0m4.17 11.44a.7.7 0 0 0 .4-.84.57.57 0 0 0-.71-.46 11.81 11.81 0 0 1-4.47.59v1.36h.67a13 13 0 0 0 4.11-.67"/><path d="M56.93 18.7a30.88 30.88 0 0 0 5-9.34V4.51A29.43 29.43 0 0 1 56 18a29.42 29.42 0 0 1-19.73 11.14 30 30 0 0 1-4.23.2v.55h6.77A30.55 30.55 0 0 0 56.93 18.7m5.07-.28v-2.25a33.67 33.67 0 0 1-14.64 13.72h2.48A34.82 34.82 0 0 0 62 18.42M61.05 31h2v-2l-2 2M54.19 6.06a.6.6 0 0 0 .73-.41A21.32 21.32 0 0 0 55.74 0h-1.2a20.72 20.72 0 0 1-.78 5.35.59.59 0 0 0 .43.71m-3.88-3.21a17.88 17.88 0 0 1-17.62 14.73h-.65v1.15h.65A19 19 0 0 0 51.44 3.05a19.81 19.81 0 0 0 .3-3h-1.16a17.18 17.18 0 0 1-.27 2.85m8.85 1.53A26.57 26.57 0 0 0 59.58 0h-1.15A26.32 26.32 0 0 1 58 4.23a25.71 25.71 0 0 1-25.31 21.18H32v1.15h.65A26.85 26.85 0 0 0 59.16 4.43"/></g><g fill="#80152a"><path d="M32.07 47v5.82a16.42 16.42 0 0 0 9.35 9.35h5.89A15.26 15.26 0 0 1 32.07 47m0 10.08v1.76a19.4 19.4 0 0 0 3.25 3.28h1.73a18.66 18.66 0 0 1-5-5m30.42.33a18.7 18.7 0 0 1-4.72 4.67h1.76a19.94 19.94 0 0 0 3-2.92zm-30.4-20.73a18.57 18.57 0 0 1 4.81-4.91h-1.76a19.57 19.57 0 0 0-3 3.12z"/><path d="M62.47 53v-4.61a15.26 15.26 0 0 1-15.16 13.73h5.89A16.4 16.4 0 0 0 62.47 53m0-16.64v-1.78a18.6 18.6 0 0 0-2.77-2.77h-1.78a18.55 18.55 0 0 1 4.55 4.55M47.33 59.19a12.33 12.33 0 0 0 6.6-22.72.56.56 0 0 0-.6.94 11.06 11.06 0 0 1 3.76 4 11.22 11.22 0 0 1-18.25 12.83.566.566 0 1 0-.84.76 12.32 12.32 0 0 0 9.33 4.23M32.07 41v5.8A15.26 15.26 0 0 1 45 31.81h-4A16.42 16.42 0 0 0 32.07 41"/><path d="M53.65 31.81h-4a15.26 15.26 0 0 1 12.82 13.55v-4.57a16.42 16.42 0 0 0-8.82-9M50 49.27a3.62 3.62 0 0 1-2.49 1.21 3.53 3.53 0 0 1-2.61-.9 3.6 3.6 0 0 1-.32-5.1 3.62 3.62 0 0 1 2.49-1.21h.22a3.62 3.62 0 0 1 3.61 3.39 3.58 3.58 0 0 1-.9 2.62m-3-7.1a4.72 4.72 0 0 0-4.42 5 4.7 4.7 0 0 0 4.7 4.43h.3a4.74 4.74 0 0 0 4.42-5 4.72 4.72 0 0 0-5-4.42m7.29 8.57a.56.56 0 0 0 .74-.27 8.54 8.54 0 1 0-3.7 3.9.564.564 0 1 0-.52-1A7.43 7.43 0 1 1 54 50a.56.56 0 0 0 .26.74M41.8 37.09a11.22 11.22 0 0 1 4.68-1.41.54.54 0 0 0 .51-.59.56.56 0 0 0-.59-.51 12.33 12.33 0 0 0-10.78 16.23.57.57 0 0 0 .53.38.47.47 0 0 0 .17 0 .55.55 0 0 0 .35-.7 11.25 11.25 0 0 1 5.13-13.4"/></g><path d="M30.05 33.44a35 35 0 0 0-4.31-1.63h-4.57a33.46 33.46 0 0 1 8.88 2.77zM5.44 31.81A34.46 34.46 0 0 0 0 34v1.17a33.53 33.53 0 0 1 10-3.34zm19.84 4.12a.52.52 0 0 0 .32.66 30.52 30.52 0 0 1 4.45 2V37.4A30.3 30.3 0 0 0 26 35.61a.53.53 0 0 0-.67.32m-3.82-.46a.52.52 0 0 0 .2-1 31.48 31.48 0 0 0-6.14-.6A31.1 31.1 0 0 0 0 38v1.2a30.44 30.44 0 0 1 21.51-3.72M1.89 41a.52.52 0 1 0 .51.9 26.76 26.76 0 0 1 27.65.78v-1.23A27.79 27.79 0 0 0 1.89 41m25.85 4.42a.51.51 0 0 0 .71-.17.52.52 0 0 0-.17-.72A24.24 24.24 0 0 0 0 46.59V48a23.2 23.2 0 0 1 27.74-2.55M3.81 48.14a.54.54 0 0 0-.13.73.52.52 0 0 0 .72.13 19.7 19.7 0 0 1 25.65 2.85v-1.49a20.71 20.71 0 0 0-26.24-2.22m-2 2.56a.72.72 0 0 0-.88 0l-.93.84v1.63a21.51 21.51 0 0 1 1.82-1.74.45.45 0 0 0 0-.73M15.57 48H14.5a.52.52 0 0 0 .06 1h1a16.27 16.27 0 0 1 14.48 9v-2a17.32 17.32 0 0 0-14.47-8M.46 59.51a16.26 16.26 0 0 1 9.26-9.36.533.533 0 0 0-.37-1A17.29 17.29 0 0 0 0 57.94v1.9a.51.51 0 0 0 .46-.33m28.3 2.16a13.77 13.77 0 0 0-5.16-7.49.52.52 0 0 0-.73.11.52.52 0 0 0 .13.71 12.66 12.66 0 0 1 4.76 6.92.61.61 0 0 0 .09.18h.83a.55.55 0 0 0 .09-.45m-13.2-9.05a12.69 12.69 0 0 1 4 .64.527.527 0 0 0 .33-1 13.66 13.66 0 0 0-17.51 9.43.55.55 0 0 0 .08.45h.84a.42.42 0 0 0 .08-.18 12.64 12.64 0 0 1 12.18-9.34m0 2.5a9.94 9.94 0 0 0-3.73.72.51.51 0 0 0-.29.67.52.52 0 0 0 .68.29 9.06 9.06 0 0 1 3.34-.64 9.15 9.15 0 0 1 8.51 6h1.1a10.2 10.2 0 0 0-9.61-7M9.48 57.8a.53.53 0 0 0-.74 0A10.15 10.15 0 0 0 6 62.12h1.1a9 9 0 0 1 2.38-3.58.53.53 0 0 0 0-.74m6.09.85a6.53 6.53 0 0 0-5.79 3.47H11a5.52 5.52 0 0 1 9.15 0h1.21a6.51 6.51 0 0 0-5.79-3.47" fill="#99c11b"/></svg>