<svg xmlns="http://www.w3.org/2000/svg" viewBox="0 0 849 650"><path fill="#1d1d1b" d="M669.64 131.71c95.3-9.41 178.96 65.17 178.48 161.28q-.39 79.34-49.97 141.63-.32.41-.33.93c-.17 12.77.3 27.27-.57 38.31-7.59 96.8-89.35 175.44-187.25 175.5q-182.25.12-364.5.16-12.81 0-19.98-.61c-90.6-7.72-164.08-79.42-173.42-170.25-1.35-13.19-.87-28.66-.89-42.93q0-.5-.31-.9C16.4 390.58-1.13 340.37.99 284.26c1.83-48.29 27.45-93.62 66.07-122.04 32.41-23.86 71.78-34.27 112.03-30.56a1.37 1.36-70.5 0 0 1.25-.6C229.4 57.69 308.52 10.54 396.59 1.9q8.42-.83 19.97-.88c10.95-.05 22.42-.36 32.9.61C538.9 9.91 618.9 56.55 668.74 131.28a.96.96 0 0 0 .9.43z"/><path fill="#fff" d="M187.25 148.62a.82.82 0 0 0 .83-.37c108.82-175.4 363.38-175.52 472.73.02a.81.8-20.1 0 0 .81.37c90.05-14.64 172.03 54.67 170.69 146.12q-1.12 75.86-50.03 134.29-.32.39-.32.89c.19 28.74.84 48.13-5.31 72.12-18.44 72.06-80.47 124.27-154.17 131.26q-7.21.69-19.98.73-235.1.67-362.25-.02c-88.84-.47-163.81-69.8-172.46-157.89-1.41-14.33-.85-30.9-.77-46.21q0-.49-.31-.87-50.18-59.79-50.2-137.56c-.04-90.04 83.44-157.62 170.74-142.88z"/><path d="M424.348 32.363c-89.002.091-177.978 44.697-228.318 133.537a.73.71 20.9 0 1-.789.34c-29.233-6.84-57.269-4.557-84.109 6.85-45.15 19.19-77.2 64.87-78.67 113.41-1.42 46.713 12.426 88.844 41.539 126.391a.91.91 0 0 0 .75.35l102.25.039c.187 0 .19-.027.01-.08-19.98-5.52-26.14-27.169-18.93-44.879 6.01-14.78 21.68-19.629 36.73-16.689 12.26 2.39 13.96 13.3 11.07 23.59a.34.35 34.2 0 1-.611.119c-4.39-5.82-14.84-6.96-21.07-3.82-11.15 5.63-12.859 27.11.721 31.07 19.03 5.55 25.651-14.17 28.561-27.99 3.57-16.99 7.71-33.94 11.57-51.02a.22.22 0 0 0-.391-.189c-14.43 19.49-42.651 23.98-61.801 8.6-24.52-19.69-22.16-61.61-11.92-87.27 15.39-38.6 52.001-59.891 93.721-51.941 20.39 3.89 33.229 20.642 25.539 41.432-4.83 13.06-21.31 11.3-30.02 4.25-.287-.227-.287-.458 0-.691 5.867-4.767 9.054-10.785 9.561-18.059 1.41-20.45-23.061-17.921-34.061-11.041-27.24 17.02-39.75 58.12-34.42 88.33 2.86 16.2 15.891 31.431 33.291 18.961 13.56-9.71 21.469-30.921 24.979-46.891a.77.77 0 0 1 .75-.609l26.432.119c.627 0 .872.307.738.92l-17.01 77.74c-6.13 27.74-12.679 56.629-43.209 66.189a.031.042 35.7 1 0 .01.07 63.53 63.53 0 0 1 2.52-.051l564.52-.229c.34 0 .614-.134.82-.4 26.187-33.807 39.963-72.244 41.33-115.311 2.8-88.16-77.979-151.49-162.799-131.25a.73.72 68.4 0 1-.801-.35C602.38 76.695 513.35 32.272 424.348 32.363zM314.279 199.551a18.66 18.66 0 0 1 0 37.318 18.66 18.66 0 0 1 0-37.318zm258.697 48.561c7.818.118 15.536 2.686 18.094 10.998a.31.3 42.6 0 0 .59-.02l1.92-9.18a.52.52 0 0 1 .51-.41h33.16c.38 0 .529.187.449.561L610.34 331.26c-.72 3.38-1.429 11.06 2.791 12.75 19.1 7.64 24.869-17.819 27.529-30.289l13.619-63.791c.06-.287.238-.43.531-.43h32.969c.353 0 .493.173.42.52l-3 13.43a.25.25 0 0 0 .41.23c6.27-6.03 14.611-12.599 22.881-14.619 25.55-6.24 29.439 32.53 5.02 33.99-12.64.76-8.09-14.24-13.75-14.57-6.5-.37-12.49 4.5-17.24 9.01a1.5 1.5 0 0 0-.449.799l-18.609 88.031c-.06.287-.238.43-.531.43h-32.969c-.367 0-.512-.176-.432-.529l2.682-12.451c.1-.44-.007-.497-.32-.17-14.81 15.53-48.091 22.25-53.811-6.439-.113-.547-.327-.591-.641-.131-8.83 13.03-21.29 22.32-37.85 20.9-11.973-1.02-20.437-7.514-25.391-19.48-.133-.327-.309-.348-.529-.068l-3.801 4.77c-8.133 10.3-18.273 15.262-30.42 14.889-23.9-.73-29.309-18.809-24.939-39.289l7.439-32.949c1.49-6.28 3.561-21.27-2.559-24.74-5.06-2.87-11.551.27-14.771 4.59-5.09 6.84-7.159 13.09-9.129 22.27l-14.561 68.26c-.08.38-.313.57-.699.57H387.52c-.42 0-.587-.206-.5-.619l17.1-81.391c1.16-5.51.961-15.92-7.619-14.91-10.61 1.25-16.671 15.769-18.561 24.709l-15.119 71.73c-.067.32-.263.48-.59.48H329.34c-.4 0-.557-.193-.471-.58l2.691-12.41a.34.34 0 0 0-.58-.299c-9.827 10.64-21.725 15.473-35.691 14.5-7.313-.513-12.975-3.447-16.988-8.801-6.65-8.87-5.951-22.22-3.691-32.99l16.191-76.27a.46.46 0 0 1 .5-.4h32.949c.367 0 .513.184.439.551l-16.119 76.1c-1.27 6.01-4.39 17.33 4.25 18.83 10.82 1.88 19.681-6.601 23.391-16.031.687-1.76 1.919-6.766 3.699-15.02l13.629-63.84c.08-.393.321-.59.721-.59h32.779c.367 0 .512.179.432.539l-2.25 10.682c-.12.573.02.642.42.209 7.02-7.627 15.422-11.77 25.209-12.43 13.6-.93 24.471 4.821 26.451 19.131a.47.48 57.5 0 0 .869.189c9.76-15.2 27.03-23.591 44.59-17.041 16.6 6.19 15.31 27.22 12.09 41l-8.209 34.871c-1.43 6.04-2.97 17.43 5.92 18.49 9.23 1.11 18.159-6.531 18.979-15.711l.721-7.9c2.75-28.77 18.761-65.749 50.471-72.369 3.119-.65 6.693-1.103 10.246-1.049zm6.111 15.041c-1.958.018-3.99.449-5.867 1.297-17.06 7.7-24.9 41.551-26.24 58.051-.527 6.54.116 12.23 1.93 17.07 2.71 7.23 11.999 6.75 17.189 3.25 6.127-4.127 9.998-9.921 11.611-17.381l10.92-51.26c1.553-7.402-3.668-11.081-9.543-11.027z" fill="#e30613"/><path fill="#ffc600" d="M229.03 617.66c-77.1-6.6-137.68-66.34-145.51-143.27-1.31-12.79-.79-27.97-.8-41.87q0-.52.53-.52h682.48a.49.49 0 0 1 .49.49c.2 20.36.73 40.22-3.94 60.71q-12.78 56.1-56.77 90.82c-30.08 23.74-64.87 34.2-103.32 34.21q-176.59.04-353.18.01-13.18 0-19.98-.58z"/><path d="M558.3 496.35l8.77-18.1a.44.44 0 0 1 .4-.25h9.56a.44.44 0 0 1 .37.68l-11.84 18.45a.44.44 0 0 1-.4.21l-6.49-.35a.44.44 0 0 1-.37-.64zm-299.25 28.93l-5.96 27.76q-.1.46-.57.46h-13.45q-.68 0-.54-.67l13.54-62.64q.13-.62.75-.7l13.65-1.84a.49.49 0 0 1 .54.58l-6.74 32.03a.57.57 0 0 0 .68.68c11.31-2.37 17.35-16.58 16.62-26.94-.95-13.43-18.56-13.03-26.74-8.09q-14.93 9.03-10.94 27.48.07.34-.27.35c-15.65.57-9.75-17.06-3.16-23.56q12.84-12.65 31.77-11.84c11.7.5 20.63 8.11 20.57 19.97-.08 15.74-14.31 26.1-29.22 26.53a.57.55-83.9 0 0-.53.44zm208.19-42.081l-13.721 1.84a.68.68 0 0 0-.629.58l-10.141 47.262c-2.31 10.81-29.441 21.979-25.141.689.06-.313.25-.483.57-.51 9.87-.96 20.529-7.521 22.109-17.951 1.03-6.77-1.868-12.18-9.328-12.34-19.53-.41-28.37 18.45-28.75 35.41-.007.333-.107.64-.301.92-2.37 3.47-6.231 6.751-10.631 4.311a1.06 1.06 0 0 1-.559-.74 10.73 10.73 0 0 1-.051-4.49l6.4-30.391a.67.67 0 0 1 .66-.539h5.02c.327 0 .517-.164.57-.49l.5-2.891c.067-.413-.106-.619-.52-.619h-4.291c-.68 0-.951-.333-.811-1l3.051-14.26a.47.47 0 0 0-.52-.561l-13.67 1.82a.89.89 0 0 0-.74.689l-2.83 12.92a.56.56 0 0 1-.6.43l-2.131-.199a.66.64 8.2 0 0-.709.52l-.602 2.92c-.1.48.097.721.59.721h1.9a.57.57 0 0 1 .561.689l-5.891 27.18a1.35 1.35 0 0 1-.559.852l-5.771 4.039a.51.51 0 0 1-.799-.51c.213-1.153.273-2.403.18-3.75l-2.141-35.09c-.02-.347-.202-.496-.549-.449l-13.932 1.818a.87.87 0 0 0-.729.621c-3.013 9.92-6.957 19.45-11.83 28.59a2.22 2.22 0 0 1-.74.811c-3.307 2.153-4.967 5.27-4.98 9.35 0 .313-.11.579-.33.799-2.233 2.213-4.781 2.635-7.641 1.262a1.08 1.08 0 0 1-.6-.762c-.34-1.633-.379-3.095-.119-4.389l7.35-34.521c.08-.36-.063-.539-.43-.539h-13.57c-.393 0-.626.193-.699.58l-.531 2.85a.38.38 0 0 1-.719.07c-1.61-4.19-6.84-4.471-10.67-3.881-15.81 2.45-23.191 22.162-23.021 36.102.23 18.27 19.232 19.289 27.852 6.439a.4.4 0 0 1 .719.15c2.25 12.27 17.58 8.35 23.4 1.76a.4.4 0 0 1 .641.061c4.41 7.45 14.399 7.828 21.529 5.238 5.32-1.94 12.02-7.568 17.43-11.398.373-.267.543-.171.51.289-.69 9.07 5.361 13.72 13.951 12.24 5.26-.9 9.493-3.677 12.699-8.33.26-.38.483-.359.67.061 2.34 5.18 6.459 7.966 12.359 8.359 11.8.78 17.471-3.74 25.361-11.48a.37.37 0 0 1 .629.271c-.18 8.57 5.822 12.429 13.771 11.109 5.24-.867 9.532-3.62 12.879-8.26.26-.36.483-.336.67.07 7.14 15.51 28.19 7.349 36.57-1.861a.34.34 0 0 1 .58.301l-1.859 8.879a.52.52 0 0 0 .51.631h13.34c.367 0 .59-.184.67-.551l7.289-34.439c.427-2.027 1.158-3.524 2.191-4.49 1.647-1.533 3.686-2.462 6.119-2.789a.7.7 0 0 1 .76.459l1.5 4.271a1.68 1.68 0 0 0 .711.879c3.68 2.28 8.61-.8 9.52-4.5 1.57-6.4-3.099-11.05-9.949-9.01-2.2.66-4.917 2.5-8.15 5.52a.33.33 0 0 1-.551-.311l.971-4.379c.14-.607-.104-.91-.73-.91h-13.061c-.373 0-.597.184-.67.551l-6.049 28.35c-1.15 5.44-6.241 9.369-10.98 11.699-3.25 1.61-10.531 3.051-13.141-.359-1.86-2.46-1.57-7.12-1.41-9.74a.68.67 89 0 1 .611-.641c10.29-.94 20.909-7.719 22.289-18.609 1.89-14.92-14.85-13.049-22.77-8.449-9.71 5.63-14.7 19.53-15.24 30.26-.4 7.8-13.981 12.859-11.551 1.27l11.432-53.77a.51.51 0 0 0-.561-.611zm28.559 25.059a3.54 3.54 0 0 1 .291.012 2.1 2.09 85.6 0 1 1.871 1.611c2.06 8.73-5.281 16.51-13.23 18.33-.48.113-.673-.071-.58-.551.827-4.321 5.558-19.39 11.648-19.402zm-65.633.068c2.468.052 2.676 3.093 2.404 4.953-1.18 8.133-5.697 13.107-13.551 14.92-.387.093-.547-.056-.48-.449.81-4.71 5.421-19.1 11.381-19.42a2.91 2.91 0 0 1 .246-.004zm-117.113.727a4.03 4.03 0 0 1 2.547 1.018c1.04.913 1.421 2.053 1.141 3.42a688.45 688.45 0 0 1-5.109 22.98c-1.63 6.77-12.37 12.82-12.66 1.67-.24-9.007 2.1-17.295 7.02-24.861 1.335-2.048 4.345-4.342 7.063-4.227zm39.955 5.152c.075.01.129.171.162.484a450.18 450.18 0 0 1 1.609 18.1c.52 7.78-.549 13.95-9.939 13.07-2.71-.25-4.6-2.51-4.25-5.24.047-.36.246-.495.6-.408 5.2 1.25 8.4-4.821 4.34-8.031-.28-.22-.337-.491-.17-.811 3.23-6.11 5.101-10.998 7.361-16.738.117-.293.212-.436.287-.426zm244.131-11.422c-16.576.308-24.486 18.692-25.668 32.787-.193 2.287-.663 3.966-1.41 5.039-3.02 4.32-12.111 6.51-10.211-2.6l7.141-34.119c.093-.427-.076-.641-.51-.641H553.19c-.387 0-.619.19-.699.57l-6.951 33.439c-.64 3.22-.726 6.05-.26 8.49 2.03 10.63 15.041 9.71 21.871 4.51 1.62-1.24 3.149-3.04 4.709-4.73.333-.36.583-.313.75.141 4.75 12.8 20.621 9.561 26.471-.199a.46.46 0 0 1 .85.129c1.287 5.467 4.441 8.276 9.461 8.43 6.1.18 8.249-4.539 10.109-9.359a.45.45 0 0 0-.551-.6c-5.36 1.59-5.849-2.66-5.059-6.51l7.08-33.701c.087-.407-.08-.609-.5-.609h-13.352c-.413 0-.655.203-.729.609l-.49 2.83a.34.34 0 0 1-.641.07c-1.15-2.7-3.54-3.799-6.49-3.949-.553-.028-1.096-.037-1.631-.027zm3.244 6.385c2.482-.031 4.596 1.492 3.877 4.992l-4.33 20.16c-.97 4.32-5.16 12.76-10.99 9.24-5.28-3.18-.729-19.35 1.121-23.93 1.527-3.773 3.524-6.714 5.99-8.82a6.98 6.98 0 0 1 4.332-1.643z" fill="#e30613"/></svg>