<svg xmlns="http://www.w3.org/2000/svg" viewBox="0 0 1110 280"><path d="M42.446.937c-.136-.008-.281.003-.434.033-.32.067-.595.213-.822.44l-.27.282a.96.96 0 0 1-.681.28h-6.76c-.256 0-.509-.074-.732-.211-1.763-1.088-3.444-1.083-5.047.012a1.69 1.69 0 0 1-1.072.299c-8.072-.401-16.114-.109-24.126.872-.274.033-.414.186-.421.46l-.092 11.857c-.007.674-.24 1.983-.7 3.926-.701 2.944.881 5.069.761 7.703-.114 2.35-.326 4.693-.64 7.03-.04.327.002.647.129.96.771 1.893-.129 3.867-.119 5.299.02 7.551.609 14.871.319 22.492-.431 11.036.05 22.264.07 33.28.01 4.527-.53 10.897-.039 16.425a1.85 1.85 0 0 1-.151.941c-.821 1.873.331 3.486.411 4.898.127 2.103.19 4.252.19 6.449a.69.69 0 0 0 .591.671c2.884.485 9.344.702 9.344.702s4.515-.485 6.782-.571c23.468-.896 70.454.54 70.454.54 2.842.022 5.268-.681 8.272-.411 5.098.481 10.446.021 15.253.231 3.665.16 7.213.127 10.645-.1 1.119-.074 1.954-1.008 1.964-2.124l1.021-118.745c.007-.761-.316-1.58-.951-2.455a.95.95 0 0 0-.782-.401c-6.82-.04-13.73-.81-20.29-.569-12.669.481-21.131-.071-29.063.299-10.355.491-20.782.241-31.158.241a.99.99 0 0 1-.87-.462c-.25-.361-.58-.551-.988-.573z" fill="#f5e5de"/><path fill="#ff916e" d="M260.858 3.725l-.3 33.95c0 .341.097.651.29.931.374.547.371 1.075-.01 1.582a1.5 1.5 0 0 0-.29.901l.14 84.275a.63.63 0 0 1-.631.631c-11.43-.087-22.857-.057-34.281.09-3.746.05-8.372-.551-12.689-.28l-22.433 1.272c.407-.507.257-.958-.451-1.352a1.03 1.03 0 0 0-.971-.02c-.434.214-.594.611-.481 1.192-.935-.641-1.552-1.359-1.853-2.153l-27.781 1.422c-6.576.107-13.253-.357-20.03-1.392a.94.94 0 0 1-.791-.961c.207-7.197.224-14.061.05-20.591-.04-1.652-.951-3.695-.06-5.849a2.12 2.12 0 0 0 .15-.931 21.15 21.15 0 0 1 .26-5.278c.007-.033-.007-.053-.04-.06-.08-.007-.17-.007-.27 0-.2.007-.317-.087-.351-.28-.581-3.425.561-6.79.541-9.644l-.21-57.866a114.96 114.96 0 0 0-.2-6.77v-.18c.053-.661.3-1.162.741-1.502.287-.22.351-.494.19-.821a14.68 14.68 0 0 1-1.602-6.289c.568-1.455.788-3.171.661-5.148-.02-.381.157-.574.531-.581 9.134-.28 18.477-1.102 27.311-1.052l86.328-.06c4.306-.04 7.151.898 8.533 2.814z"/><path d="M405.302 110.623a.74.74 0 0 0-.741-.741q-22.073-.01-44.336 0-1.072 0-1.442-.26-.651-.481-.23-1.683.31-.881 1.242-.861l7.541.17a.63.63 0 0 0 .641-.631q-.01-42.693-.26-85.317c-.04-6.85-2.313-8.423-9.033-8.312q-.701.01-.701-.691v-1.182q0-.631.621-.631h45.948q.751 0 .751-.751V5.477a.88.88 0 0 1 .02-.19q.31-1.572 1.743-.871c.489.232.801.727.801 1.272l.05 30.676c.007.605-.37 1.151-.941 1.362q-.961.361-1.462-.341-.31-.431-.25-1.282c1.592-22.123-10.586-23.415-28.633-23.104-.363.011-.651.304-.651.661l.04 23.245c.005.344.282.621.621.621h11.888a.5.5 0 0 0 .501-.501v-13.77q0-.501.501-.501h1.502q.501 0 .501.501v35.643c0 .216-.179.391-.401.391h-1.422c-.191.003-.375-.074-.509-.212a.72.72 0 0 1-.202-.52c.29-9.584-.561-18.197-12.539-17.746a.48.48 0 0 0-.461.481l.01 65.577c0 .107.043.21.119.284s.178.113.282.107c8.713-.31 21.542 1.001 26.68-8.032 2.644-4.667 2.524-12.809 2.163-18.487a1.32 1.32 0 0 1 2.444-.781c.761 1.222.13 3.135.12 4.186q-.06 15.623.01 31.246.01.641-.641.601l-1.282-.1q-.601-.04-.601-.651zm512.082-92.868c-10.936-18.838-42.413 7.561-11.147 25.248 15.283 8.653 37.175 17.756 35.292 38.818-3.235 36.234-64.005 42.533-75.562 7.812-6.93-20.801 11.177-43.765 33.82-36.825 8.943 2.744 15.984 13.13 9.875 21.923q-3.786 5.458-11.006 4.627-.911-.11-1.042-1.022c-.371-2.824 2.343-2.764 3.695-3.665q3.625-2.424 3.505-6.61c-.26-9.734-10.766-15.393-19.629-12.098-11.447 4.256-15.203 18.768-12.479 29.654 2.524 10.075 9.795 17.907 19.559 21.392 30.686 10.966 62.102-27.601 26.069-48.192q-14.111-8.062-18.728-10.836c-25.428-15.343-7.721-49.333 19.048-38.037a.82.82 0 0 0 1.122-.931q-.361-1.693-.2-3.585a1.25 1.25 0 0 1 1.293-1.101 1.25 1.25 0 0 1 1.201 1.201v36.534q0 .451-.421.631-1.012.441-1.642-.13-.441-.391-.441-1.322c.03-6.64 1.242-17.586-2.183-23.485zm-216.823 89.413q11.948.02 24.296-.05 5.879-.03 8.483-1.482c9.234-5.148 7.261-23.725 7.231-32.398q0-.601.591-.681l1.292-.16q.601-.08.601.521v41.772q0 .491-.461.641-.941.33-1.542-.12-.501-.361-.521-1.272-.05-1.753.21-3.215c.039-.208-.018-.422-.156-.585s-.341-.257-.555-.257h-49.564q-.781 0-.471-.721l40.3-94.641q.551-1.292-.861-1.382-8.352-.541-17.176.14c-6.189.481-10.085 2.944-11.207 9.043q-1.672 9.134-.891 19.048.04.631-.591.671l-1.382.08q-.701.04-.701-.661V5.607q0-.631.621-.631h1.252q.631 0 .631.631v4.136q0 .751.761.751l39.519-.02a.46.46 0 0 1 .421.641l-40.64 95.282q-.33.771.511.771zm-29.584-.671l-18.868-60.53a1.32 1.32 0 0 0-1.262-.931h-10.716q-.641 0-.791.621-5.388 22.013-10.726 43.925c-2.494 10.265-3.856 19.028 11.006 17.446a1 1 0 0 1 .847.334c.211.241.291.568.214.878l-.28 1.092q-.13.551-.701.551h-25.197q-.551 0-.571-.541l-.07-1.412q-.03-.791.761-.791l5.408-.02c.152-.001.284-.109.32-.26l23.645-100.56c.175-.759.838-1.307 1.616-1.335s1.479.47 1.709 1.215Q660.22 47.23 673.34 88.922c1.372 4.336 3.685 11.367 5.198 13.941q2.243 3.806 7.201 4.517.481.07.481.551v1.322q0 .631-.621.631h-22.664q-.371 0-.681-.21-.741-.521-.571-1.602c.088-.536.554-.93 1.102-.931l7.731-.01q.651 0 .461-.631zm-26.58-81.501l-3.726 16.134q-.15.631.501.641l8.202.08a.4.4 0 0 0 .391-.491l-3.756-16.334q.671-.791-.32-1.753-.571-.561-1.042.09-.651.921-.25 1.632zM321.658 13.118q-5.428-.28-10.766.831c-11.507 2.384-11.417 20.19-11.167 29.955a.61.61 0 0 1-.611.631h-1.472q-.501 0-.501-.501V6.228q0-.501.501-.501h1.482a.5.5 0 0 1 .501.491l.07 3.716q.01.571.581.571l52.077-.03q.621 0 .621-.621V6.358q0-.631.621-.631h1.132q.751 0 .751.751v37.315c-.002.315-.211.59-.511.671q-1.112.32-1.652-.09-.391-.3-.371-1.292c.25-8.553.22-25.508-9.885-28.643q-5.849-1.813-12.088-1.242-.521.04-.521.571-.03 42.994.01 85.968c0 8.643 6.029 7.491 12.258 7.381.195-.005.383.069.523.207s.218.327.218.524v1.282q0 .751-.751.751h-28.412q-.631 0-.631-.631v-1.492q0-.631.631-.631h7.131q.751 0 .751-.751V13.669a.55.55 0 0 0-.521-.551zM860.937 50.85c4.929 28.538-15.384 55.872-45.372 61.052-14.401 2.487-29.152-.571-41.009-8.503s-19.848-20.087-22.215-33.791c-4.929-28.538 15.384-55.872 45.372-61.052 14.401-2.487 29.152.571 41.009 8.503s19.848 20.087 22.215 33.791zm-38.569 55.956c24.377-8.251 37.079-35.798 28.371-61.527-4.182-12.356-12.843-22.631-24.078-28.566s-24.123-7.043-35.83-3.081c-24.377 8.251-37.079 35.798-28.371 61.527 4.182 12.356 12.843 22.631 24.078 28.566s24.123 7.043 35.83 3.081zM465.101 92.637q-.1-.32-.681-.431c-.13-.031-.267.011-.361.11l-.371.371a.62.62 0 0 0 .21 1.022q.981.391 1.001-.07c9.825 4.887 22.443 11.417 34.321 14.201 3.856.911 7.391.451 10.906-.911a1.13 1.13 0 0 1 1.012 2.003c-16.675 10.586-60.79-13.25-75.713-22.313q-1.032-.621-1.052.591-.13 7.782.32 14.652c.421 6.42 7.711 5.618 12.218 5.518q.641-.01.641.641v1.302q0 .561-.561.561h-28.743q-.641 0-.651-.631l-.04-1.232q-.01-.641.621-.641h7.171c.26 0 .51-.102.694-.285s.287-.429.287-.687q.01-42.413-.01-85.177 0-9.404-9.164-8.092-.521.08-.711-.411-.451-1.132.07-1.763.371-.451 1.362-.451 8.162-.07 15.783-.01a.73.73 0 0 1 .51.208c.135.133.211.314.211.503l.09 7.822a.51.51 0 0 0 .801.411q6.209-4.336 13.049-7c28.112-10.916 60.971 10.095 58.467 41.271-1.783 22.183-19.86 36.765-41.692 38.918zm-28.332-14.091c7.902 5.438 16.374 10.385 26.139 10.786 11.848.481 23.235-5.528 29.824-15.363 11.818-17.656 5.558-42.433-11.868-53.93-14.612-9.634-34.251-8.332-46.219 5.588a1.21 1.21 0 0 0-.29.791l-.02 52.238q0 1.032.831.411l.671-.501q.461-.341.931-.02zm127.56 14.071q-.991-.741-1.402-.04a.89.89 0 0 0 .681 1.332q.351.03.461-.26 10.325 5.188 20.931 9.795c7.631 3.315 16.505 6.72 24.386 3.365q.671-.28.911.411l.341.971q.24.701-.431 1.032c-19.068 9.294-59.549-12.839-75.883-22.804a.53.53 0 0 0-.811.451q-.07 6.96.16 13.941c.24 7.511 6.68 6.6 12.509 6.57q.821 0 .621.801l-.29 1.152q-.13.551-.701.551H517.52q-.761 0-.781-.761l-.03-1.102q-.01-.641.621-.641h7.171a.97.97 0 0 0 .971-.971q.03-43.034-.01-86.398c-.01-6.45-4.216-6.87-9.354-7.06q-.671-.03-.651-.711l.03-.991q.03-.761.791-.761h16.464a.75.75 0 0 1 .751.751v7.782a.54.54 0 0 0 .861.441c10.155-7.271 22.073-11.247 34.551-9.534 27.251 3.736 45.658 31.236 33.5 57.265-7.071 15.132-21.412 24.066-38.077 25.428zm-29.734-67.931q-1.092 1.172-1.092 2.774l-.02 51.176a.47.47 0 0 0 .236.4c.143.081.317.077.455-.009l.931-.571c.287-.17.65-.15.921.05q7.511 5.578 15.243 8.593c16.705 6.52 35.082-1.462 42.974-17.166 10.365-20.631-1.532-46.88-23.024-54.221-13.039-4.447-27.281-1.102-36.624 8.973z" fill="#100e13"/><path d="M209.374 26.092c-3.786-.084-7.787.597-11.4 1.017-4.256.491-8.272 2.434-12.438 3.726a137.02 137.02 0 0 0-3.425 3.576c-.227.254-.512.379-.853.379a1.23 1.23 0 0 0-.861.362c-4.106 4.046-6.849 8.221-8.712 13.729a132.14 132.14 0 0 0-6.631 33.781c-.067 1.068-.848 2.276-2.343 3.625a1.2 1.2 0 0 1-.822.311c-1.122-.007-2.18.234-3.175.722a1.52 1.52 0 0 1-.97.139c-1.936-.341-3.784-.189-5.539.452-1.232.451-2.332 1.831-3.724 2.232-.474.134-.862.477-1.054.933a1.65 1.65 0 0 0 .062 1.413c1.903 3.605.71 4.836.29 8.472-.26 2.303 1.563 5.729 1.993 8.262a.68.68 0 0 0 .622.61c.614.087.964.441 1.05 1.062.053.374.268.597.642.671 2.654.531 4.646 2.254 7.46 1.162a.77.77 0 0 1 .982.28c.554.741 1.359.929 2.414.561a.51.51 0 0 1 .661.581c-.841 4.039-2.337 8.045-4.487 12.018l1.181.221a.42.42 0 0 1 .391.46v.581c0 .274.131.444.391.511 1.108.28 1.746-.093 1.913-1.121a.43.43 0 0 1 .479-.411h.501c.454 0 .576.2.362.601l-1.072 2.044c-.16.3-.247.62-.26.96l-.18 5.579c-.007.32.146.508.46.561l.651.11c-.113.154-.441.213-.982.18l.01 1.602c0 .367.173.498.52.391l1.082-.321c.32-.093.496.028.522.362.12 1.589.416 3.13.89 4.626.621 1.953-.159 3.816.182 5.819.791 4.587-.261 9.524-.151 13.379.16 5.238.982 12.519-.17 17.526-.347 1.529-.457 2.867-.331 4.016a131.91 131.91 0 0 1 .491 23.134c-.2 3.014 1.172 5.288 3.004 7.351 1.372 1.813 1.872 3.627 3.355 5.279a157.08 157.08 0 0 1 5.659 6.639c.159.196.394.311.64.311h.542c.227 0 .421.083.581.25 1.612 1.743 6.439 2.423 5.628-1.152l.501-15.844.16-7.49c-.681-10.906.09-21.803-.992-32.629a105.92 105.92 0 0 1-.299-17.217l-.051-14.481c0-.327.116-.607.35-.841.961-.988 2.13-1.689 3.505-2.103l.07-7.372a1.77 1.77 0 0 0-.248-.446 1.18 1.18 0 0 0-.333-.295c-.125-.073-.265-.121-.419-.145a1.7 1.7 0 0 0-.503.006c.182-.027.349-.029.503-.006s.293.071.419.145a1.18 1.18 0 0 1 .333.295 1.77 1.77 0 0 1 .248.446l.1-.78c-.935-.641-1.552-1.359-1.852-2.154-.243-.387-.466-.776-.669-1.168a14.9 14.9 0 0 1-.546-1.183 13.32 13.32 0 0 1-.426-1.195 13.64 13.64 0 0 0 .426 1.195 14.71 14.71 0 0 0 .546 1.183 16.21 16.21 0 0 0 .669 1.168c-1.092-4.296-2.073-11.145 1.933-13.9a.81.81 0 0 1 .421-.141l16.624-.491c1.302-.04 2.064-.705 2.285-1.993.561-3.335 3.133-19.839-2.956-19.95a199.12 199.12 0 0 1-16.053-.912c-1.247-.116-2.233-1.106-2.343-2.353-.921-10.526-1.453-23.275 6.549-31.608 6.349-6.61 15.643-8.733 24.527-7.091 4.266.147 7.512 1.312 9.735 3.495l8.603 5.839a.94.94 0 0 0 .972.08c1.476-.654 2.192-1.796 2.152-3.425a1.28 1.28 0 0 1 .182-.69 32.9 32.9 0 0 0 4.065-11.347 1.18 1.18 0 0 0-.241-.962l-3.756-4.827a1.6 1.6 0 0 0-.87-.569l-3.996-1.082c-.28-.073-.468-.245-.561-.512-.961-2.644-5.406-2.262-7.75-2.633a.97.97 0 0 1-.722-.491c-.601-1.028-2.147-1.452-4.638-1.271-1.796.307-2.956-.074-3.484-1.142a.71.71 0 0 0-.802-.379c-1.262.287-2.496.314-3.705.08-1.192-.235-2.431-.35-3.693-.378zm-24.439 88.917a13.88 13.88 0 0 0-.178 1.266 13.05 13.05 0 0 0-.057 1.25 13.18 13.18 0 0 1 .057-1.25c.039-.419.099-.842.178-1.266zm-.235 2.517a12.4 12.4 0 0 0 .065 1.236 12.63 12.63 0 0 0 .184 1.224c.082.406.185.808.307 1.209-.122-.4-.225-.804-.307-1.209a12.61 12.61 0 0 1-.184-1.224 12.71 12.71 0 0 1-.065-1.236zm.135 6.259l.029.069-.029-.069zm.689 1.361l.039.065-.039-.065zm-.8 48.394c.069.025.119.085.131.156-.028-.089-.112-.148-.205-.143.024-.009.049-.014.074-.014zm-3.198.955a1 1 0 0 1 .274.043 1.1 1.1 0 0 0-.571-.01 1.25 1.25 0 0 1 .297-.033zm-78.673-87.146c.581 1.068.614 2.223.1 3.465-.073.188-.03.4.11.541l.29.29c.627.627.121 3.047.04 4.216-.037.534-1.041.126-1.042.661v.611a.66.66 0 0 0 .551.651c2.731.414 3.946 1.933 3.645 4.557-.073.594-.361.734-.861.421l-1.082-.681c-.401-.254-.571-.147-.511.32l.05.361c.055.379.302.701.651.851.981.434 1.295 1.148.941 2.143-.147.387-.419.645-.811.791-2.484.925-12.286 3.01-18.157-.401-.325-.189-.346-.592-.561-.28-3.819 5.675-6.239 12.048-7.261 19.118l-4.647 1.552c-.758.257-1.205 1.039-1.042 1.823a20.65 20.65 0 0 1 .19 7.812c-1.943.487-2.938 1.656-2.984 3.505-.207 7.985-.497 13.263-.871 15.834-.547 3.772-.644 6.51-.29 8.212.441 2.123.694 6.046.761 11.767.047 3.906 1.062 10.389 3.045 19.449.341 1.552 2.614 5.338 3.675 6.379 2.904 2.834 8.352 7.321 12.609 7.02 3.355-.24 8.803.711 12.919-1.052a103.39 103.39 0 0 0 9.154-4.457c.082-.04.157.067.09.13l-3.746 3.105c-.3.247-.254.374.14.381 3.535.01 4.817-4.186 8.653-2.604a.77.77 0 0 1 .471.751c-.18 2.754-.05 4.116.951 7.131.574 1.723.17 3.766-1.212 6.129-1.208-.013-1.893.487-2.053 1.502-.06.361-.274.514-.641.461-3.946-.601-3.585 2.063-5.979 3.485-1.392.841-2.684.921-3.816 2.183-.207.227-.457.377-.751.451-2.634.661-5.638.501-7.992 1.793-1.622.895-2.704 1.392-3.245 1.492-4.42.815-4.39 1.055.09.721.808-.06 2.544-.491 5.208-1.292-10.188 3.699-19.396 3.171-27.621-1.582-4.453-2.564-8.162-5.772-11.127-9.624-3.412-7.03-5.491-12.248-6.239-15.653-1.142-5.201-1.813-12.335-2.013-21.402-.033-1.542.217-3.489.751-5.839 1.001-4.427.471-8.753 1.192-13.21.711-4.457.521-22.313-2.424-25.348-.234-.24-.517-.371-.851-.391-6.239-.361-1.602-5.859-2.494-9.043-.093-.341-.317-.541-.671-.601-7.037-1.122-13.991-1.182-20.861-.18l-6.339-.31a1.26 1.26 0 0 1-.861-2.113c1.893-2.023 2.924-3.866 5.518-5.458 1.349-.828 2.303-1.689 2.864-2.584 1.255-2.023 2.36-3.402 3.315-4.136a1.86 1.86 0 0 0 .591-.821c.274-.734.821-1.152 1.642-1.252a1.43 1.43 0 0 0 .951-.521c1.823-2.193 1.152-5.698 4.036-6.85a1.14 1.14 0 0 0 .641-.611c1.022-2.303-2.664-4.036-3.465-6.249-.112-.316-.002-.67.27-.871 1.652-1.182 4.817-4.356 2.474-6.089-1.393-1.016-.528-3.219 1.192-3.035 1.749.187 2.774-.487 3.075-2.023a1.82 1.82 0 0 0-.07-.981l-.551-1.492c-.12-.341-.043-.628.23-.861l2.714-2.293a.64.64 0 0 1 .941.12l1.582 2.293a.66.66 0 0 1-.08.841c-.634.634-.941 1.202-.921 1.703.066 1.405 2.117 1.552 2.233.16l.32-3.896c.027-.32-.07-.604-.29-.851-3.726-4.096.401-6.219 2.874-8.813.257-.263.397-.62.391-.991-.02-2.417.561-4.67 1.743-6.76a.58.58 0 0 0-.25-.801c-1.542-.748-2.036-1.956-1.482-3.625.09-.264.072-.555-.05-.811-2.243-4.637.33-10.015 1.462-14.622a1.77 1.77 0 0 1 .451-.801c3.405-3.505 14.972-11.016 17.075-2.544a1.33 1.33 0 0 0 .511.771l.491.361c.394.287.494.658.3 1.112l-1.873 4.377a.39.39 0 0 0 .25.531l1.132.341c1.27.382 1.636 2.005.651 2.894l-1.292 1.152a.87.87 0 0 0-.11 1.162c.748 1.015.988 2.19.721 3.525-.087.504.538.809.881.431.454-.527 1.032-.568 1.733-.12.308.195.401.604.21.921l-.791 1.332c-.282.451.291.944.711.611.614-.494 1.299-.584 2.053-.27.588.247.698.631.33 1.152-.714 1.001-1.739 1.292-3.075.871-.418-.133-.666.453-.28.661l.991.551c.22.12.357.307.411.561.247 1.182-.184 2.03-1.292 2.544-.294.14-.461.374-.501.701-.154 1.402.073 2.727.681 3.976.147.294.361.514.641.661 1.208.648 1.763 1.646 1.662 2.994a1.52 1.52 0 0 1-.401.911c-1.008 1.088-1.743 2.33-2.203 3.726-.172.517.42.951.861.631a5.72 5.72 0 0 1 3.555-1.102c.996.007 1.094 1.456.11 1.622-3.095.511-3.926 5.278-.04 4.997 4.296-.32 9.494.19 13.77.931 3.776.661 8.833-.471 11.006 4.016.154.32.374.384.661.19.334-.22.628-.287.881-.2z" fill="#fff"/><path d="M78.297 135.315a11.62 11.62 0 0 0-4.847.857c-1.943.487-2.938 1.656-2.985 3.505-.207 7.985-.499 13.264-.872 15.834-.547 3.772-.643 6.509-.289 8.211.441 2.123.694 6.046.761 11.767.047 3.906 1.063 10.389 3.046 19.449.341 1.552 2.614 5.339 3.675 6.381 2.904 2.834 8.352 7.321 12.609 7.02 3.355-.24 8.803.71 12.92-1.052 3.111-1.329 6.161-2.813 9.152-4.456a.08.08 0 0 1 .09.129l-3.746 3.104c-.3.247-.253.375.141.381 3.535.01 4.818-4.186 8.653-2.603a.77.77 0 0 1 .469.751c-.18 2.754-.049 4.115.953 7.13.574 1.723.169 3.767-1.213 6.13-1.208-.013-1.892.487-2.052 1.502-.06.361-.274.513-.642.46-3.946-.601-3.586 2.064-5.98 3.486-1.392.841-2.683.921-3.814 2.183-.207.227-.457.378-.751.452-2.634.661-5.639.5-7.992 1.792-1.622.895-2.704 1.392-3.245 1.492-4.42.815-4.39 1.056.09.722.808-.06 2.543-.492 5.207-1.293-.263.335-.461.567-.63.734a1.86 1.86 0 0 1-.452.344c-.145.076-.295.125-.485.188.19-.063.341-.112.485-.188a1.86 1.86 0 0 0 .452-.344c.169-.167.367-.398.63-.734-10.188 3.699-19.394 3.171-27.619-1.582-4.453-2.564-8.163-5.771-11.128-9.624-.714-.835-1.209-1.201-1.483-1.101.17.255.267.498.362.737-.095-.239-.192-.482-.362-.737a38.72 38.72 0 0 1-2.764-6.15c-.881-2.504-2.903-5.057-2.873-8.603.16-1.863-.245-3.386-1.213-4.567-.187-.234-.277-.505-.27-.812.053-1.536-.2-3.023-.761-4.466a1.35 1.35 0 0 1 0-1.001c.851-2.083-.03-4.066.08-5.829.24-4.046-.451-8.173-.301-11.899a303.34 303.34 0 0 0-.399-32.126c-.341-5.238-3.556-4.717-7.472-4.757-8.613-.087-17.155-.041-25.628.139l5.694 5.739 5.522 5.839-5.522-5.839-5.694-5.739-5.348-.209c-1.549.28-3.012.2-4.387-.241l-3.445.401c-.381.04-.574.252-.581.64l-.18 9.585c-.875 3.058-1.265 5.558-1.172 7.501.591 12.549-.55 27.281-.52 37.386l.379 27.422c.31 12.689-2.053 25.858 1.152 38.587l1.133 2.914c16.939-.24 33.773-.217 50.505.07 11.127.19 23.664-.931 35.592-.421 10.776.451 21.352-.202 32.108.569 1.342.1 2.594-.309 3.926-.489.347-.047.561-.237.642-.571.821-3.278 1.177-6.574 1.07-9.886-.26-8.122-.168-13.709-.579-20.91-.641-11.157.361-23.946.25-33.79l-.282-56.484c-.007-1.455-.737-2.189-2.193-2.202l-42.464-.352a13.98 13.98 0 0 0-3.114-.475zm.863.853a16.11 16.11 0 0 0-1.94.554 11.18 11.18 0 0 0-1.631.726c-.492.271-.932.571-1.32.9a6.32 6.32 0 0 0-1.009 1.076 6.32 6.32 0 0 1 1.009-1.076c.388-.329.828-.629 1.32-.9a11.18 11.18 0 0 1 1.631-.726 16.11 16.11 0 0 1 1.94-.554zm-41.407 3.188a48.14 48.14 0 0 1 1.821.041c1.216.05 2.437.146 3.662.29.356.039.677.232.88.53-.203-.298-.524-.491-.88-.53-1.225-.144-2.446-.239-3.662-.29a47.25 47.25 0 0 0-3.634-.01c-1.207.043-2.409.133-3.607.27s-2.391.319-3.58.55c1.188-.23 2.382-.413 3.58-.55a46.46 46.46 0 0 1 3.607-.27 46.71 46.71 0 0 1 1.813-.031zm-12.935 1.072a.95.95 0 0 0-.755.503.95.95 0 0 1 .755-.503zm47.741.243c-.182.445-.313.92-.391 1.424s-.105 1.036-.08 1.598a8.05 8.05 0 0 1 .08-1.598c.078-.504.209-.979.391-1.424zm-48.58.456a.95.95 0 0 0 .149.894.95.95 0 0 1-.149-.894zm21.599 4.587a14.75 14.75 0 0 1-.239 2.226 14.75 14.75 0 0 0 .239-2.226zm-8.2 12.354c1.149 1.129 2.273 2.262 3.345 3.411-1.072-1.149-2.196-2.283-3.345-3.411zm8.841 1.94c.078.338.043.693-.1 1.011.143-.319.178-.674.1-1.011zm-3.822 1.712a.4.4 0 0 1-.01.08.4.4 0 0 0 .01-.08zm-.094.268a.4.4 0 0 1-.057.061.4.4 0 0 0 .057-.061zm3.857 6.132c.255.235.458.485.608.751s.249.547.295.843a2.82 2.82 0 0 1-.02.935c-.059.327-.171.668-.334 1.025.164-.357.276-.698.334-1.025a2.82 2.82 0 0 0 .02-.935c-.046-.296-.145-.577-.295-.843s-.353-.516-.608-.751zm1.172 5.831c.181.4.338.778.464 1.166a6.83 6.83 0 0 1 .278 1.226c.058.442.079.927.059 1.49.02-.563 0-1.049-.059-1.49a6.83 6.83 0 0 0-.278-1.226c-.125-.387-.283-.765-.464-1.166zm24.996 3.272c-.008.416.042.823.111 1.232-.069-.409-.119-.817-.111-1.232zm-23.081 14.351c.198 1.496.385 3.039.528 4.687-.143-1.647-.33-3.191-.528-4.687zm26.324 2.942a5.59 5.59 0 0 0 .696 1.148 5.59 5.59 0 0 1-.696-1.148zm28.486 7.108c-.347.235-.71.433-1.09.595.38-.162.743-.359 1.09-.595zm-21.974.19a14.09 14.09 0 0 0 1.696 1.336c.603.408 1.24.78 1.899 1.119-.66-.339-1.296-.711-1.899-1.119a14.09 14.09 0 0 1-1.696-1.336zm40.891 7.726c-.138.846-.221 1.7-.28 2.584.058-.884.142-1.738.28-2.584zm-6.879 10.246a2.09 2.09 0 0 0-.426.297c-.127.115-.238.246-.334.393.097-.147.208-.278.334-.393s.27-.214.426-.297zm-1.684 2.052a.28.28 0 0 0 .035.397.28.28 0 0 0 .397-.035.28.28 0 0 1-.397.035.28.28 0 0 1-.035-.397zm-1.021.689c.025.003.047.01.066.02a.36.36 0 0 0-.276.074c.048-.05.128-.086.209-.094zm.117.035c.075.033.093.102.043.168.05-.066.032-.135-.043-.168zm-2.58 1.921c-.25.01-.482.047-.694.111s-.408.158-.583.278-.332.266-.469.44-.256.374-.356.602c.1-.229.218-.428.356-.602s.294-.321.469-.44.37-.213.583-.278a2.76 2.76 0 0 1 .694-.111zm-3.362 1.833c-.164.001-.322.013-.469.037s-.286.059-.417.106-.255.106-.37.176-.219.15-.317.243a2.06 2.06 0 0 0-.268.313c-.081.115-.153.241-.217.379a3.25 3.25 0 0 0-.168.45c.048-.161.104-.312.168-.45s.136-.264.217-.379a2.06 2.06 0 0 1 .268-.313 1.88 1.88 0 0 1 .317-.243c.114-.07.239-.129.37-.176a2.35 2.35 0 0 1 .417-.106 3.06 3.06 0 0 1 .469-.037zm-2.472 2.05c-.027.023-.055.044-.084.063.029-.019.058-.04.084-.063zm-3.701.194c-.157 0-.304.024-.442.07s-.267.116-.387.209c.12-.093.249-.163.387-.209a1.37 1.37 0 0 1 .442-.07zm6.983 1.604c.383.027.805.124 1.269.289-.464-.165-.887-.262-1.269-.289z" fill="#e93f33"/><path d="M190.661 135.594c-2.2-.034-3.929.722-5.185 2.269-.214.267-.3.574-.26.921.568 4.64.421 9.204-.44 13.69a105.92 105.92 0 0 0 .299 17.217c1.082 10.826.311 21.722.992 32.629l-.16 7.49-.501 15.844c.811 3.575-4.015 2.895-5.628 1.152-.16-.167-.354-.25-.581-.25h-.542c-.246 0-.481-.115-.64-.311a157.08 157.08 0 0 0-5.659-6.639c-1.482-1.652-1.983-3.467-3.355-5.279-1.833-2.063-3.205-4.336-3.004-7.351a131.91 131.91 0 0 0-.491-23.134c-.127-1.148-.017-2.487.331-4.016 1.152-5.007.33-12.288.17-17.526-.11-3.856.942-8.792.151-13.379-.341-2.003.439-3.866-.182-5.819-.474-1.496-.77-3.037-.89-4.626-.027-.334-.202-.455-.522-.362l-1.082.321c-.347.107-.52-.024-.52-.391l-.01-1.602-2.895-.02c-.521.047-.721-.013-.601-.18a2.2 2.2 0 0 1-.379.25c.14-.073.266-.157.379-.25l-21.051-.031c-.354 0-.53.178-.53.532l-.102 122.201c0 .815.408 1.232 1.223 1.252l17.876.471a.23.23 0 0 0 .201-.08l.321-.311c.067-.067.145-.1.239-.1a754.96 754.96 0 0 0 48.873 0l7.231-.1 21.471-.311c.628.427 1.399.493 2.314.2.878-.05 1.743-.131 2.596-.246a31.93 31.93 0 0 0 2.521-.444 31.93 31.93 0 0 1-2.521.444c-.853.115-1.718.196-2.596.246l20.961.391c.606.012 1.184-.258 1.563-.732 2.474-3.024.78-5.948.79-8.792.007-4.126-.064-7.995-.211-11.607l-.078-100.81a2.44 2.44 0 0 0-.719-1.728 2.46 2.46 0 0 0-1.736-.715l-65.077-.08c-.838-.187-1.622-.286-2.355-.297zm-4.223 82.189a10.21 10.21 0 0 0-.041 1.05 15.99 15.99 0 0 0 .043.984c-.022-.319-.04-.646-.043-.984a10.24 10.24 0 0 1 .041-1.05zm40.539 16.313a.43.43 0 0 1 .045.033.43.43 0 0 0-.094-.006.43.43 0 0 1 .049-.027zm-4.677 8.884c.135.247.225.468.268.663s.038.365-.012.509-.147.26-.289.352-.332.157-.567.198c.235-.04.425-.106.567-.198s.239-.209.289-.352.054-.313.012-.509-.133-.416-.268-.663zm34.432 1.242a4.22 4.22 0 0 1 .28.585 4.32 4.32 0 0 1 .188.626c.048.215.081.438.098.667a5.46 5.46 0 0 1 .006.706c-.01.167-.06.293-.149.379s-.216.134-.383.141c.167-.007.295-.054.383-.141s.139-.213.149-.379c.013-.242.011-.477-.006-.706a4.73 4.73 0 0 0-.098-.667 4.32 4.32 0 0 0-.188-.626 4.22 4.22 0 0 0-.28-.585zm-1.624 4.876c.187.995.326 1.865.415 2.611s.127 1.369.117 1.866c.01-.497-.029-1.12-.117-1.866s-.228-1.616-.415-2.611zm2.404 5.858a1.62 1.62 0 0 1 1 .507 1.62 1.62 0 0 0-1-.507zm1.054.577a1.62 1.62 0 0 1 .378.97 1.62 1.62 0 0 0-.378-.97zm.378 1.084a1.62 1.62 0 0 1-.366.974 1.62 1.62 0 0 0 .366-.974zm-.419 1.045a1.62 1.62 0 0 1-.994.52c-.618.074-1.237.13-1.856.172a56.91 56.91 0 0 1-1.856.092l-3.722.09 3.722-.09 1.856-.092a36.74 36.74 0 0 0 1.856-.172 1.62 1.62 0 0 0 .994-.52zm-41.783 1.541c-.017.174-.073.31-.168.407s-.229.154-.403.174c.174-.02.308-.077.403-.174a.65.65 0 0 0 .168-.407z" fill="#d84b2f"/><path d="M309.88 262.149q1.522-.03 1.522-1.552.02-42.844 0-86.799c-.01-5.078-5.378-6.359-9.294-5.719q-.621.1-.621-.531v-1.582c0-.173.07-.338.194-.46s.292-.191.467-.191l45.738.2a.96.96 0 0 0 .961-.961l-.01-4.697a.7.7 0 0 1 .831-.691l1.332.24a.58.58 0 0 1 .471.571v31.907q0 .621-.631.621h-1.412a.63.63 0 0 1-.631-.651q.26-8.332-.811-12.899c-2.614-11.076-18.928-11.527-27.992-10.846a.62.62 0 0 0-.571.621v23.405q0 .621.631.621h11.487a.91.91 0 0 0 .901-.911v-13.78q0-.661.671-.661h1.162q.671 0 .671.661v35.453q0 .651-.651.701l-1.212.09q-.621.05-.641-.571c-.27-8.713-.461-18.988-12.499-17.526q-.511.06-.511.571-.03 28.182-.01 56.304c.01 10.636 4.767 9.204 13.67 9.073q1.102-.01 1.512.32.721.561.23 1.923a.7.7 0 0 1-.661.461H302.83q-.641 0-.651-.631l-.04-1.262a.66.66 0 0 1 .651-.681zm632.06 4.006c-18.798-4.326-31.537-22.754-24.366-41.522 5.698-14.902 22.574-23.014 37.285-15.333 4.997 2.614 8.923 9.524 8.072 15.092-.991 6.5-6.389 11.267-13.23 9.664-.702-.167-1.214-.773-1.26-1.493a1.64 1.64 0 0 1 1.059-1.641c16.915-6.299-2.734-31.006-18.698-16.875-10.065 8.913-9.734 25.468-2.764 36.104 11.217 17.105 35.873 17.576 49.924 4.006q6.72-6.48 7.461-15.753c1.693-21.332-25.067-28.032-37.736-37.696-21.802-16.635-1.933-46.91 21.953-35.793.262.124.569.099.809-.065a.84.84 0 0 0 .362-.736q-.1-1.592-.1-3.285 0-1.082.551-1.462.661-.461 1.622.09.29.17.29.511l.06 37.095a.7.7 0 0 1-.501.671q-1.112.32-1.672-.361-.371-.451-.32-1.432.22-4.977-.19-15.183c-.991-24.567-34.732-13.921-25.398 5.949q2.994 6.379 10.846 10.736c14.011 7.772 36.594 16.975 36.745 36.004.2 26.329-28.342 37.876-50.806 32.709zm-115.852-4.707l-19.028-60.931q-.15-.501-.681-.501h-11.257c-.33 0-.619.227-.701.551q-5.989 23.966-11.427 47.801c-2.464 10.796.471 14.151 11.036 13.74q.811-.03 1.122.3.411.441.491 1.332a1.04 1.04 0 0 1-1.042 1.132l-24.977-.04a.68.68 0 0 1-.681-.681v-1.282a.7.7 0 0 1 .691-.701l5.198-.07q.511-.01.631-.511l23.715-100.76q.12-.541.661-.681 2.193-.541 2.844 1.552 19.589 62.673 27.22 86.649c1.763 5.528 3.685 13.17 10.726 13.78q.671.05.711.721l.06 1.082q.05.821-.781.831l-22.944.15q-.571 0-.711-.551l-.32-1.312a.62.62 0 0 1 .591-.771l8.423-.22q.611-.02.431-.611zm-26.549-82.172l-3.916 16.845a.54.54 0 0 0 .104.446c.099.125.249.196.407.195h8.242a.56.56 0 0 0 .551-.691l-3.816-16.585q.18-1.232-.681-1.622-.471-.21-.791.19-.471.581-.1 1.222zm251.121-19.378c-.121-.008-.242.002-.36.029l-.941.219c-.421.093-.677.347-.771.761l-23.695 100.681c-.093.381-.334.574-.722.581l-4.927.059a.62.62 0 0 0-.591.481l-.229 1.001a.94.94 0 0 0 .921 1.152h24.775a.88.88 0 0 0 .882-.882v-.64a1.27 1.27 0 0 0-1.332-1.271c-14.942.591-13.03-7.131-10.316-18.408l10.436-42.904c.114-.437.505-.742.953-.741h10.576c.61.001 1.149.394 1.332.972l18.887 60.629a.5.5 0 0 1-.501.651 98.8 98.8 0 0 0-7.2-.1c-.668.013-1.115.163-1.342.45-.32.414-.352 1.004-.092 1.772a.68.68 0 0 0 .651.471h22.915c.434 0 .651-.217.651-.651v-1.512c0-.467-.238-.708-.712-.722-7.07-.17-9.142-9.213-10.895-14.731l-27.281-86.5a1.22 1.22 0 0 0-1.074-.849zm-1.019 18.156a.32.32 0 0 1 .309.241l4.198 17.816a.32.32 0 0 1-.311.391l-8.262.029a.32.32 0 0 1-.321-.389l4.076-17.847a.32.32 0 0 1 .311-.241zm-455.298 84.045a.76.76 0 0 0 .741-.761V168.99a1.02 1.02 0 0 0-.991-1.022c-7.631-.21-15.904.3-18.998 8.783-2.564 7.03-2.464 14.502-2.704 21.883q-.02.731-.761.731h-1.252a.58.58 0 0 1-.581-.581v-37.446q0-.621.621-.661l1.242-.09q.791-.06.771.731l-.08 3.505a.62.62 0 0 0 .621.641h52.168a.78.78 0 0 0 .781-.821l-.15-3.405q-.02-.401.361-.551l.611-.23a1.21 1.21 0 0 1 1.642 1.132v37.035q0 .661-.661.731l-1.142.12q-.691.07-.701-.621c-.09-8.853.481-27.511-11.227-30.045q-5.328-1.152-10.756-.751-.531.04-.531.561-.07 43.034.01 86.028c.01 4.016.791 6.94 5.138 7.381q4.266.431 5.598.09 1.502-.371 2.273.881a1.22 1.22 0 0 1-1.042 1.863h-28.342q-.641 0-.651-.631l-.04-1.282a.67.67 0 0 1 .189-.484c.126-.13.3-.205.482-.207zm-126.924-56.54c2.415 13.699-.986 27.845-9.457 39.326s-21.316 19.357-35.71 21.895-29.159-.469-41.046-8.361-19.921-20.021-22.337-33.72.986-27.845 9.457-39.326 21.316-19.357 35.71-21.895 29.159.469 41.046 8.361 19.921 20.021 22.337 33.72zm-38.552 56.148c11.701-3.961 21.263-12.665 26.581-24.199s5.957-24.952 1.777-37.302-12.838-22.622-24.068-28.554-24.113-7.04-35.815-3.08-21.263 12.665-26.581 24.199-5.957 24.952-1.777 37.302 12.838 22.622 24.068 28.554 24.113 7.04 35.815 3.08zm93.159-13.659q.03-1.001-1.813-.671-.481.08-.24.511.581 1.042 1.983 1.142 13.67 7.311 28.192 12.388c5.759 2.003 10.486 2.293 15.944.471a1.04 1.04 0 0 1 .971 1.813c-14.672 11.307-60.78-13.14-75.562-22.093a.68.68 0 0 0-1.032.581q-.11 6.94-.07 14.161c.04 6.87 7.802 5.829 12.238 5.869q.651 0 .691.661l.08 1.382q.04.601-.561.601h-28.783q-.521 0-.571-.521l-.13-1.312q-.07-.691.621-.711l7.721-.2a.47.47 0 0 0 .461-.471q0-42.313 0-84.756c0-6.289-2.113-10.155-9.094-8.703a.66.66 0 0 1-.781-.571l-.18-1.482q-.08-.711.631-.711l17.196.06q.491 0 .491.491v7.511q0 1.372 1.142.601c16.975-11.637 36.715-13.6 54.04-1.452 23.926 16.775 22.373 50.475-1.022 66.799q-9.494 6.62-21.953 7.982-.31.04-.391.341-.07.31-.22.29zm29.173-23.355c11.657-24.476-6.329-54.872-33.51-55.963q-16.134-.651-26.98 11.567-.27.3-.27.711l-.03 51.707c-.002.198.091.385.25.505a.65.65 0 0 0 .561.106c.641-.17 1.382.02 1.963.431 14.251 10.185 29.524 15.022 45.648 4.887q8.172-5.138 12.368-13.951zm138.015-56.724a.74.74 0 0 0-.741.741q0 40.35 0 80.88c0 11.016-11.918 18.317-22.033 18.057-10.025-.26-21.492-4.557-24.396-14.732q-.851-2.974-.861-11.367-.05-34.001-.04-68.011c0-4.727-4.777-5.869-9.304-5.458q-.701.07-.701-.631v-1.492q0-.501.511-.511l25.798-.01q.551 0 .611.541l.15 1.312q.09.681-.601.681h-7.641q-.541 0-.541.541-.02 36.745-.01 73.459 0 7.371 1.392 11.046c5.378 14.241 26.58 15.733 32.148.581q1.212-3.285 1.232-10.335.06-34.001.03-68.061-.01-8.573-8.993-6.97-.721.13-.801-.601l-.16-1.442q-.08-.751.661-.751l20.581-.08c.389 0 .706.308.711.691l.03 1.412q.01.511-.501.511zm62.664 77.345q-.02 1.052.841 1.743.431.351.691-.13.341-.621-.1-1.602.05-32.018-.03-64.045c-.01-7.241-1.122-12.569-9.073-13.39q-.651-.07-.651-.721v-1.192q0-.501.491-.501l20.08-.26q.531 0 .631.511l.31 1.522q.15.721-.591.721h-6.149a.75.75 0 0 0-.751.751V269.11a1.34 1.34 0 0 1-2.554.571l-37.926-81.231a.57.57 0 0 0-1.092.24q-.02 30.295.05 60.79c.01 7.341 1.662 12.649 9.845 12.629q.441 0 .771.29.991.851.351 2.013-.25.451-.771.451h-21.202c-.367 0-.699-.211-.851-.541q-.701-1.442.3-2.013.481-.27 1.512-.2 2.574.18 5.128.07a.62.62 0 0 0 .601-.621q.06-41.311 0-82.563-.02-10.926-10.556-11.066a.7.7 0 0 1-.691-.701v-1.262q0-.501.501-.501h13.24q.461 0 .651.421zm106.237 20.07c-4.447 1.442-8.302-2.374-7.381-6.65 1.162-5.418 7.912-5.909 10.816-1.773 5.869 8.342-3.225 18.538-10.486 22.073a.59.59 0 0 1-.711-.16c-1.312-1.632-.671-2.554.971-3.525q5.458-3.205 7.641-9.073a.68.68 0 0 0-.851-.891zm152.748-4.457a5.78 5.78 0 0 1-5.779 5.779 5.78 5.78 0 0 1-5.779-5.779 5.78 5.78 0 0 1 5.779-5.779 5.78 5.78 0 0 1 5.779 5.779zm99.137 0a5.77 5.77 0 0 1-5.769 5.769 5.77 5.77 0 0 1-5.769-5.769 5.77 5.77 0 0 1 5.769-5.769 5.77 5.77 0 0 1 5.769 5.769z" fill="#100e13"/></svg>