<svg xmlns="http://www.w3.org/2000/svg" width="1024" height="976" viewBox="0 0 1024 976"><g fill="var(--title)"><path d="M922.81 557.57a29.88 29.88 0 0 0-13.78 3.62 26.6 26.6 0 0 0-8.02 6.77 24.04 24.04 0 0 0-4.72 9.97 24.95 24.95 0 0 0-.08 10.9 26.83 26.83 0 0 0 4.09 9.64 28.27 28.27 0 0 0 17.12 11.61c3.4.75 6.86.88 10.4.38a28.4 28.4 0 0 0 9.8-3.34 26.09 26.09 0 0 0 7.9-6.8 24.82 24.82 0 0 0 4.67-10.11c.83-3.76.85-7.4.08-10.94a26.6 26.6 0 0 0-11.4-16.82 27.53 27.53 0 0 0-16.06-4.88zm-1.3 10.52a21.35 21.35 0 0 1 11.44 2.95 19.33 19.33 0 0 1 5.05 4.26c1.4 1.7 2.4 3.64 3 5.8.59 2.16.6 4.47.04 6.98a14.05 14.05 0 0 1-2.92 6.22 16.08 16.08 0 0 1-5.05 4 18.34 18.34 0 0 1-6.39 1.76c-2.3.23-4.6.08-6.93-.42-2.19-.5-4.27-1.31-6.26-2.46a18.76 18.76 0 0 1-5-4.26 15 15 0 0 1-2.97-5.76c-.6-2.2-.64-4.53-.08-7.01a14.74 14.74 0 0 1 7.93-10.14 17.9 17.9 0 0 1 6.38-1.8c.59-.07 1.17-.1 1.75-.12zm-16.1 44.76c-3.48-.06-6.77.57-9.86 1.87a23.42 23.42 0 0 0-8.3 5.93c-2.48 2.67-4.45 6.12-5.94 10.31l-6.63 18.7 51.39 18.2 6.64-18.7a29.97 29.97 0 0 0 1.83-11.1c-.14-3.53-.94-6.8-2.38-9.81-1.45-3-3.55-5.66-6.3-7.97a31.77 31.77 0 0 0-9.94-5.56 32.92 32.92 0 0 0-10.52-1.87zm-.21 10.52c2.31.06 4.7.52 7.13 1.37 2.4.87 4.51 2 6.35 3.43a17.28 17.28 0 0 1 4.38 4.88 13.61 13.61 0 0 1 1.88 6.06 16.7 16.7 0 0 1-1 6.97l-3.09 8.68-33.86-11.98 3.1-8.68c.83-2.4 2-4.4 3.5-6.02a14.18 14.18 0 0 1 5.18-3.63 16.3 16.3 0 0 1 6.43-1.08zm-40.47 47.55-4.1 8.43 39.84 42.62 4.76-9.8-10.02-10.44 8.35-17.12 14.44 1.42 4.8-9.77-58.07-5.34zm8.77 9.52 22.54 2.62-6.72 13.82-15.82-16.44zm-15.15 25.68c-3.5-.08-6.91.7-10.23 2.39-3.77 1.92-7.05 5.04-9.8 9.35a24.77 24.77 0 0 0-3.85 10.06c-.5 3.51-.34 6.93.46 10.27a27.54 27.54 0 0 0 12.1 16.74 30.16 30.16 0 0 0 10.36 4.26c3.6.7 7.09.74 10.48.13 3.36-.64 6.5-1.9 9.4-3.76a24.04 24.04 0 0 0 7.26-7.35c3.1-4.84 4-10.28 2.67-16.32l5.18 3.3 4.72-7.35-23.6-15.11-10.64 16.61 6.51 4.22 5.93-9.27 3.22 2.05c1.92 6.26 1.46 11.62-1.38 16.07a15.22 15.22 0 0 1-10.69 6.85c-2.17.33-4.4.25-6.72-.25a19.88 19.88 0 0 1-6.72-2.84 20.93 20.93 0 0 1-5.26-4.72 19.84 19.84 0 0 1-3.21-5.8 14.88 14.88 0 0 1-.71-6.3c.2-2.15.91-4.2 2.17-6.14a15.8 15.8 0 0 1 6.17-5.64 14.97 14.97 0 0 1 8.35-1.54l-.66-9.82-1.5-.09zm-35.84 36.32-23.33 28.93 42.45 34.2 23.76-29.48-7.27-5.85-17.07 21.21-11.02-8.89 14.4-17.87-6.72-5.38-14.4 17.87-10.2-8.23 16.67-20.66-7.27-5.85zm-45.08 51.68-7.44 7.56 38.96 38.16 26.88-27.43-6.64-6.51-19.45 19.87-32.31-31.64zM765.56 806l-28.47 23.88 35.02 41.79 29.02-24.34-5.97-7.14-20.88 17.5-9.14-10.86 17.58-14.74-5.51-6.6-17.58 14.74-8.43-10.06 20.33-17.03-5.97-7.14zm-38.6 37.12c-1.69-.04-3.43.1-5.2.44-3.57.67-7.2 2.25-10.9 4.72l-16.5 11.02 30.32 45.3 16.49-11.02c3.39-2.26 6.1-4.84 8.1-7.77a23.7 23.7 0 0 0 3.67-19.46 31.26 31.26 0 0 0-4.68-10.39 32.7 32.7 0 0 0-7.3-7.85 23.92 23.92 0 0 0-14-5zm-1.34 9.88c1.06.03 2.09.18 3.1.46 2.03.56 3.95 1.56 5.77 3a22.55 22.55 0 0 1 4.92 5.39 22.44 22.44 0 0 1 3.05 6.51c.64 2.24.84 4.4.59 6.52a14.5 14.5 0 0 1-2.1 6 16.21 16.21 0 0 1-4.96 4.97l-7.68 5.14-19.96-29.85 7.69-5.14a17.49 17.49 0 0 1 6.38-2.7c1.09-.23 2.15-.33 3.2-.3zm-65.04 25.75c-3.16.07-6.3.83-9.41 2.26a25.37 25.37 0 0 0-8.77 6.51 26.25 26.25 0 0 0-5.17 9.1 28.56 28.56 0 0 0-1.42 10.4c.14 3.57.96 7 2.46 10.27a28.34 28.34 0 0 0 6.01 8.52 28.42 28.42 0 0 0 8.56 5.8c3.2 1.37 6.6 2.09 10.23 2.17 3.61.06 7.23-.73 10.85-2.38 3.5-1.6 6.43-3.78 8.77-6.51a26.28 26.28 0 0 0 5.18-9.02 27.73 27.73 0 0 0 1.33-10.27 27.6 27.6 0 0 0-8.47-18.66 28.88 28.88 0 0 0-8.56-5.89 26.88 26.88 0 0 0-11.59-2.3zm.16 9.52h.82c2.23.09 4.3.62 6.23 1.6 1.92.97 3.67 2.3 5.25 4a21.48 21.48 0 0 1 5.73 12.23c.27 2.26.16 4.46-.34 6.6a15.77 15.77 0 0 1-2.8 5.88 14.15 14.15 0 0 1-5.5 4.3 14.47 14.47 0 0 1-6.77 1.38 16.36 16.36 0 0 1-6.26-1.63 18.14 18.14 0 0 1-5.22-4 22.1 22.1 0 0 1-5.64-12.24 18.6 18.6 0 0 1 .34-6.55c.48-2.1 1.38-4.06 2.75-5.85a14.43 14.43 0 0 1 5.6-4.3c1.94-.89 3.88-1.37 5.8-1.42zm-34.12 4.15-43.12 14.11 2.88 8.85 16.53-5.43 14.07 42.96 10.02-3.26-14.07-42.95 16.57-5.43-2.88-8.85zm-44.69 14.35-36.28 7.97 11.7 53.27 36.98-8.14-2-9.1-26.64 5.85-3.05-13.86 22.42-4.89-1.84-8.39-22.41 4.89-2.8-12.82 25.93-5.68-2-9.1zm-44.33 9.22-10.53 1.33 3.47 27.51c.39 3.07.63 5.74.71 8.02.08 2.25-.12 4.2-.59 5.8a7.24 7.24 0 0 1-2.5 3.8c-1.17.9-2.82 1.48-4.93 1.76-2.2.28-4.17.22-5.93-.17-1.73-.42-2.99-.85-3.8-1.3l-1.25 8.81c3.56 1.87 7.62 2.5 12.2 1.92 4.44-.58 7.9-1.69 10.39-3.34a14.03 14.03 0 0 0 5.34-6.3 22.85 22.85 0 0 0 1.63-8.98 86.8 86.8 0 0 0-.75-11.35l-3.46-27.51zm-110.08 3.06c-1.65.03-3.25.21-4.77.54a19.44 19.44 0 0 0-6.6 2.7 14.35 14.35 0 0 0-4.72 4.98 17.24 17.24 0 0 0-2.17 7.18 14.8 14.8 0 0 0 .46 5.5c.5 1.57 1.34 2.97 2.5 4.23a18.94 18.94 0 0 0 4.56 3.42c1.86 1 4.03 1.98 6.51 2.92 2.1.78 4 1.5 5.68 2.17a27.6 27.6 0 0 1 4.3 2.09 8.4 8.4 0 0 1 2.63 2.42c.6.87.87 1.87.8 3-.34 3.76-3.42 5.4-9.24 4.89a25.63 25.63 0 0 1-6.05-1.3 31.46 31.46 0 0 1-5.26-2.37 46.37 46.37 0 0 1-4.09-2.6 12.6 12.6 0 0 1-2.3-2.04l-5.5 8.77a39.53 39.53 0 0 0 10.22 6.1 41.33 41.33 0 0 0 11.98 2.92c2.64.22 5.2.13 7.68-.25 2.48-.4 4.7-1.15 6.68-2.26a13.6 13.6 0 0 0 4.85-4.59 15.95 15.95 0 0 0 2.34-7.3c.22-2.48-.03-4.6-.72-6.4-.66-1.8-1.7-3.37-3.08-4.7a18.77 18.77 0 0 0-5.22-3.56c-2.12-1-4.46-1.98-7.02-2.96-2-.67-3.77-1.3-5.3-1.88-1.5-.6-2.74-1.23-3.71-1.88a6.67 6.67 0 0 1-2.13-2.17 4.48 4.48 0 0 1-.54-2.84c.16-1.94 1-3.4 2.5-4.34 1.52-.94 3.76-1.3 6.68-1.05 1.64.17 3.22.54 4.76 1.1 1.52.52 2.93 1.14 4.22 1.83 1.3.7 2.4 1.4 3.3 2.08.91.7 1.5 1.25 1.79 1.63l5.47-8.14a39.84 39.84 0 0 0-8.06-4.97 29.73 29.73 0 0 0-10.4-2.75c-1.03-.1-2.04-.13-3.03-.12zm75.61 1.41-10.52.3.67 27.8c.05 2.25-.12 4.46-.5 6.6-.37 2.12-1.07 4-2.09 5.67-1 1.65-2.36 3-4.05 4.1a11.9 11.9 0 0 1-6.26 1.66c-2.45.07-4.54-.38-6.26-1.33a12.15 12.15 0 0 1-4.22-3.88 16.86 16.86 0 0 1-2.38-5.56c-.48-2.1-.75-4.32-.83-6.63l-.67-27.8-10.56.24.66 27.8c.1 3.54.6 6.94 1.5 10.2a23.96 23.96 0 0 0 4.3 8.55 21.2 21.2 0 0 0 7.56 5.8c3.1 1.42 6.82 2.08 11.2 1.97 4.17-.09 7.74-.88 10.72-2.38 3-1.53 5.43-3.53 7.26-6.02a24.5 24.5 0 0 0 4.05-8.72c.84-3.3 1.2-6.83 1.09-10.56l-.67-27.8z" aria-label="SUJETO DELEGADO"/><path d="M471.63.13c-115.42 2.15-230.43 45.55-320.9 130.9-192.98 182.09-201.84 486.81-19.75 679.8 71.81 76.1 162.72 123.45 258.3 141.87l3.24-20.42a458 458 0 0 1-246.33-135.8C-28.33 611.5-19.88 320.77 165.09 146.24c184.97-174.52 475.7-166.07 650.23 18.9a458.08 458.08 0 0 1 123.91 278.01l20.98 2.8c-7.67-106.65-50.67-211.43-129.68-295.16C733.8 48.26 602.45-2.3 471.63.13ZM962.1 518.9c-.1.3-.17.77.02 1.31l1.11 3.2c.36 1 .37 2.07.04 3.07a4.83 4.83 0 0 1-5.47 3.24l-3.32-.63a2.05 2.05 0 0 0-2.42 1.9l-.13 2.24 36.48 33.38-5.55-19.48 29.33.11-47.5-29.93-1.06.22c-.72.15-1.3.67-1.53 1.37"/><path d="M960.29 507.33a31.76 31.76 0 0 1-1.75 5.3 30.96 30.96 0 0 1-13.1 14.65 31.08 31.08 0 1 1 14.85-19.96zm5.88-6.17 2.78-1.9a2.15 2.15 0 0 0-.28-3.71l-3.04-1.47a4.71 4.71 0 0 1-1.9-6.82l.04-.06 1.82-2.77a2.15 2.15 0 0 0-1.68-3.32l-3.37-.19a4.71 4.71 0 0 1-4.36-5.58l.62-3.31a2.15 2.15 0 0 0-2.82-2.43l-3.18 1.11a4.71 4.71 0 0 1-6.17-3.48l-.69-3.3a2.15 2.15 0 0 0-3.53-1.16l-2.52 2.24a4.71 4.71 0 0 1-7.03-.86l-1.9-2.78a2.15 2.15 0 0 0-3.71.28l-1.47 3.04a4.71 4.71 0 0 1-6.82 1.9l-2.82-1.85a2.15 2.15 0 0 0-3.33 1.67l-.19 3.37a4.71 4.71 0 0 1-5.57 4.37l-3.32-.63a2.15 2.15 0 0 0-2.43 2.82l1.12 3.18a4.7 4.7 0 0 1-3.49 6.17l-3.3.7a2.13 2.13 0 0 0-1.16 3.54l2.25 2.5a4.7 4.7 0 0 1-.86 7.03l-2.79 1.9a2.15 2.15 0 0 0 .28 3.71l3.04 1.47a4.71 4.71 0 0 1 1.9 6.82l-1.85 2.83a2.15 2.15 0 0 0 1.68 3.32l3.36.19a4.7 4.7 0 0 1 4.37 5.58l-.63 3.31a2.15 2.15 0 0 0 2.82 2.43l3.19-1.12c2.68-.93 5.58.7 6.16 3.49l.7 3.3a2.15 2.15 0 0 0 3.53 1.16l2.52-2.25a4.71 4.71 0 0 1 7.03.86l1.9 2.8c.93 1.36 2.99 1.2 3.7-.29l1.47-3.04a4.71 4.71 0 0 1 6.83-1.9l2.82 1.85a2.15 2.15 0 0 0 3.32-1.67l.19-3.3v-.07a4.71 4.71 0 0 1 5.58-4.37l3.31.63a2.15 2.15 0 0 0 2.43-2.82l-1.11-3.18a4.69 4.69 0 0 1 3.48-6.17l3.3-.7a2.13 2.13 0 0 0 1.6-1.42c.23-.7.12-1.5-.43-2.1l-2.25-2.53a4.71 4.71 0 0 1 .86-7.03"/><path d="M954.37 508.32A25.68 25.68 0 0 1 922 524.67a25.68 25.68 0 0 1-16.35-32.38 25.68 25.68 0 0 1 32.38-16.34 25.68 25.68 0 0 1 16.34 32.37zm-51.25-16.86a28.34 28.34 0 0 0 18.04 35.74 28.34 28.34 0 0 0 35.74-18.04 28.34 28.34 0 0 0-18.04-35.74 28.34 28.34 0 0 0-35.74 18.04"/><path d="M935.98 492.16c.13.25.38.43.66.47l10.62 1.59c.72.1 1 .98.48 1.5l-7.72 7.46c-.2.2-.3.48-.25.77l1.78 10.6a.87.87 0 0 1-1.28.9l-9.48-5.03a.9.9 0 0 0-.81 0l-9.53 4.96a.87.87 0 0 1-1.26-.93l1.86-10.57a.87.87 0 0 0-.26-.77l-7.65-7.53a.87.87 0 0 1 .49-1.49l10.62-1.5a.87.87 0 0 0 .67-.48l4.78-9.6a.87.87 0 0 1 1.57 0l4.71 9.65M967.2 486.84l-1.23 1.87a2.05 2.05 0 0 0 .82 2.97l3.04 1.46a4.84 4.84 0 0 1 .63 8.31l-2.8 1.9c-.47.33-.69.75-.79 1.05-.23.7-.07 1.46.42 2.01l.73.81 55.98 4.12-23.66-17.33 16.03-12.38-49.18 5.21"/><path d="M353 184.92h8.6l19.08 50.14H370.6l-4.63-12.48h-17.53l-4.55 12.48h-10.07zm11.23 30.81-6.93-19.7-7.23 19.7zm57.94 13.7c-4 3.98-8.67 5.96-13.98 5.96-3.29 0-6.38-.64-9.27-1.96a23.01 23.01 0 0 1-7.56-5.43 25.99 25.99 0 0 1-5.09-8.14 27.14 27.14 0 0 1-1.88-10.14c0-3.45.63-6.7 1.88-9.73a25.77 25.77 0 0 1 5.14-7.97c2.19-2.28 4.76-4.1 7.72-5.43 2.97-1.34 6.2-2 9.68-2 4.7 0 8.74.99 12.11 2.96a19.32 19.32 0 0 1 7.6 7.97l-7.27 5.39a13.57 13.57 0 0 0-5.34-5.72c-2.28-1.34-4.76-2-7.43-2a12.9 12.9 0 0 0-10.35 5 17.65 17.65 0 0 0-2.93 5.4 20.47 20.47 0 0 0 .13 13.02 17.2 17.2 0 0 0 3.09 5.34c1.33 1.5 2.9 2.7 4.72 3.55 1.8.87 3.76 1.3 5.88 1.3 4.85 0 9.23-2.28 13.15-6.85v-3.51h-10.1v-7.14h18.16v25.76h-8.06zm54.22-2.93v8.56h-34.81v-50.14h34.19v8.56H451.3v12.06h21.13v7.94H451.3v13.02zm20.37-23.54v32.1h-9.73v-50.14h7.55l26.14 32.9V185h9.73v50.06h-7.9zm84.66-9.48h-16.03v41.58h-9.64v-41.58H539.7v-8.56h41.71zm44.06 33.02v8.56h-34.81v-50.14h34.19v8.56h-24.47v12.06h21.13v7.94h-21.13v13.02zm0 0" aria-label="AGENTE"/><path d="M182.78 263.36h8.6l19.08 50.14H200.4l-4.64-12.48h-17.53l-4.55 12.48h-10.06zm11.23 30.81-6.93-19.7-7.22 19.7zm20.1-6.1c0-3.05.55-6.07 1.66-9.05a25 25 0 0 1 4.85-8.02c2.1-2.35 4.7-4.26 7.76-5.72a24.2 24.2 0 0 1 10.44-2.17c4.61 0 8.6 1.03 11.98 3.05a19.2 19.2 0 0 1 7.51 7.9l-7.47 5.13a12.65 12.65 0 0 0-5.47-5.85 13.2 13.2 0 0 0-3.38-1.2 15.19 15.19 0 0 0-3.42-.43 13.21 13.21 0 0 0-10.94 5.35 16.56 16.56 0 0 0-2.71 5.34 19.7 19.7 0 0 0 .13 12.36 17.45 17.45 0 0 0 3 5.43 15.31 15.31 0 0 0 4.67 3.71c1.8.95 3.8 1.42 5.97 1.42 1.1 0 2.28-.13 3.5-.42a13.14 13.14 0 0 0 6.6-3.71c.94-.97 1.7-2.14 2.26-3.5l7.97 4.58a15.45 15.45 0 0 1-3.42 5.01 22.95 22.95 0 0 1-5.01 3.64 26.48 26.48 0 0 1-12.19 3c-3.57 0-6.84-.75-9.81-2.25a25.55 25.55 0 0 1-7.64-5.89 27.63 27.63 0 0 1-5.05-8.27 25.83 25.83 0 0 1-1.8-9.43zm54.5 25.43v-50.14h22.16c2.3 0 4.44.5 6.39 1.47a17.17 17.17 0 0 1 8.35 9.18c.8 2 1.21 4 1.21 6.01 0 3.26-.81 6.22-2.42 8.9a14.07 14.07 0 0 1-6.6 5.76l11.44 18.82H298.2l-10.27-16.78h-9.6v16.78zm9.72-25.34h12.23c.9 0 1.73-.2 2.5-.62a7.69 7.69 0 0 0 3.34-4.3c.34-1 .5-2.07.5-3.22 0-1.17-.19-2.23-.58-3.21-.36-1-.86-1.86-1.5-2.6a6.48 6.48 0 0 0-2.17-1.66 5.56 5.56 0 0 0-2.5-.63h-11.82zm75.07 16.79v8.55H318.6v-50.14h34.19v8.56H328.3V284h21.13v7.93H328.3v13.03zm10.65 8.55v-50.14h18.2c4.11 0 7.7.67 10.77 2a21.95 21.95 0 0 1 7.73 5.35 21.89 21.89 0 0 1 4.67 7.98 30.14 30.14 0 0 1 1.55 9.68c0 3.82-.59 7.27-1.76 10.35a21.99 21.99 0 0 1-12.73 12.99 27.64 27.64 0 0 1-10.23 1.8zm33.1-25.13c0-2.39-.33-4.6-1-6.64a14.49 14.49 0 0 0-2.88-5.21 12.33 12.33 0 0 0-4.67-3.39 15.93 15.93 0 0 0-6.35-1.2h-8.47v33.02h8.47c2.42 0 4.55-.42 6.39-1.26a12.99 12.99 0 0 0 4.68-3.46 15.6 15.6 0 0 0 2.83-5.26c.67-2.03 1-4.23 1-6.6zm20.48 25.13v-50.14h9.73v50.14zm60.71-41.58h-16.03v41.58h-9.64v-41.58h-16.03v-8.56h41.7zm18.58-8.56h8.6l19.08 50.14h-10.06l-4.63-12.48h-17.54l-4.55 12.48h-10.06zm11.23 30.81-6.93-19.7-7.22 19.7zm24.97 19.33v-50.14h18.2c4.11 0 7.7.67 10.77 2a21.95 21.95 0 0 1 7.72 5.35 21.89 21.89 0 0 1 4.68 7.98 30.13 30.13 0 0 1 1.54 9.68c0 3.82-.58 7.27-1.75 10.35a21.99 21.99 0 0 1-12.73 12.99 27.64 27.64 0 0 1-10.23 1.8zm33.1-25.13c0-2.39-.33-4.6-1-6.64a14.49 14.49 0 0 0-2.88-5.21 12.33 12.33 0 0 0-4.67-3.39 15.93 15.93 0 0 0-6.35-1.2h-8.48v33.02h8.48c2.42 0 4.55-.42 6.39-1.26a12.99 12.99 0 0 0 4.67-3.46 15.6 15.6 0 0 0 2.84-5.26c.67-2.03 1-4.23 1-6.6zm41.9 25.47c-3.68 0-7.02-.71-10.02-2.13a24.7 24.7 0 0 1-7.68-5.72 26.1 26.1 0 0 1-6.76-17.53c0-3.34.62-6.54 1.87-9.6a26.61 26.61 0 0 1 5.14-8.1c2.19-2.36 4.8-4.24 7.8-5.64a23.36 23.36 0 0 1 9.86-2.09c3.6 0 6.9.74 9.89 2.21 3 1.49 5.56 3.43 7.68 5.85a26.8 26.8 0 0 1 6.68 17.49c0 3.34-.61 6.53-1.84 9.56a26.16 26.16 0 0 1-5.09 8.06 24.03 24.03 0 0 1-7.76 5.6c-3 1.36-6.27 2.04-9.77 2.04zm-14.57-25.39c0 2.15.33 4.24 1 6.27.67 2.03 1.6 3.83 2.84 5.38a14.1 14.1 0 0 0 4.6 3.76c1.8.92 3.85 1.38 6.17 1.38 2.36 0 4.45-.47 6.26-1.42a14.6 14.6 0 0 0 4.6-3.84 16.76 16.76 0 0 0 2.8-5.43 19.52 19.52 0 0 0-.08-12.4 16.57 16.57 0 0 0-2.9-5.34 13.45 13.45 0 0 0-10.68-5.1 13.57 13.57 0 0 0-10.85 5.26 17.17 17.17 0 0 0-2.8 5.39c-.65 1.98-.96 4-.96 6.1zm69.53 25.05v-50.14h18.2c4.11 0 7.7.67 10.77 2a21.95 21.95 0 0 1 7.72 5.35 21.89 21.89 0 0 1 4.68 7.98 30.13 30.13 0 0 1 1.55 9.68c0 3.82-.59 7.27-1.76 10.35a21.99 21.99 0 0 1-12.73 12.99 27.64 27.64 0 0 1-10.23 1.8zm33.1-25.13c0-2.39-.33-4.6-1-6.64a14.49 14.49 0 0 0-2.88-5.21 12.33 12.33 0 0 0-4.67-3.39 15.93 15.93 0 0 0-6.35-1.2h-8.47v33.02h8.47c2.42 0 4.55-.42 6.39-1.26a12.99 12.99 0 0 0 4.67-3.46 15.6 15.6 0 0 0 2.84-5.26c.67-2.03 1-4.23 1-6.6zm55.3 16.58v8.55h-34.82v-50.14h34.2v8.56h-24.47V284h21.12v7.93H726.4v13.03zm10.64 8.55v-50.14h9.73v41.59h25.6v8.55zm0 0" aria-label="ACREDITADO DEL"/><path d="M132.4 354.96a18.92 18.92 0 0 0-4.97-3c-1.26-.53-2.62-.98-4.06-1.34a17.32 17.32 0 0 0-4.46-.59c-2.67 0-4.68.5-6.01 1.5a4.85 4.85 0 0 0-1.97 4.14c0 1.03.25 1.9.75 2.59.5.67 1.23 1.27 2.18 1.8.93.5 2.12.97 3.54 1.41 1.44.42 3.1.87 4.97 1.34a70.8 70.8 0 0 1 6.68 2.08c2 .76 3.7 1.7 5.1 2.84a11.84 11.84 0 0 1 3.21 4.1c.75 1.56 1.13 3.5 1.13 5.8 0 2.67-.53 4.97-1.55 6.89a12.8 12.8 0 0 1-4.09 4.63 17.88 17.88 0 0 1-5.93 2.59c-2.23.52-4.57.8-7.01.8a37.5 37.5 0 0 1-21.04-6.52l4.3-8.4c.44.43 1.2.99 2.3 1.68a31.62 31.62 0 0 0 8.93 3.76c1.84.48 3.72.7 5.68.7 5.34 0 8.01-1.72 8.01-5.17a4.2 4.2 0 0 0-.92-2.72 7.61 7.61 0 0 0-2.63-2 26.29 26.29 0 0 0-4.09-1.54c-1.58-.47-3.37-.98-5.34-1.55a46.57 46.57 0 0 1-6.26-2.17 16.07 16.07 0 0 1-4.39-2.75 10.57 10.57 0 0 1-2.67-3.68 12.77 12.77 0 0 1-.88-4.97c0-2.52.47-4.78 1.42-6.76a13.66 13.66 0 0 1 3.93-4.93 17.14 17.14 0 0 1 5.8-3 24 24 0 0 1 7.14-1.05c3.53 0 6.77.57 9.73 1.67a35.2 35.2 0 0 1 7.8 3.93zm16.45 36.99V341.8h9.73v50.14zm53.07-37c-.31-.32-.9-.76-1.8-1.33a18.92 18.92 0 0 0-3.17-1.67c-1.25-.52-2.6-.97-4.04-1.33a17.32 17.32 0 0 0-4.47-.59c-2.67 0-4.68.5-6.01 1.5a4.85 4.85 0 0 0-1.97 4.14c0 1.03.25 1.9.76 2.59.5.67 1.22 1.27 2.17 1.8.94.5 2.13.97 3.55 1.41 1.44.42 3.1.87 4.96 1.34a70.8 70.8 0 0 1 6.68 2.08c2 .76 3.7 1.7 5.1 2.84a11.84 11.84 0 0 1 3.21 4.1c.75 1.56 1.13 3.5 1.13 5.8 0 2.67-.52 4.97-1.55 6.89a12.8 12.8 0 0 1-4.09 4.63 17.88 17.88 0 0 1-5.93 2.59c-2.23.52-4.57.8-7.01.8a37.5 37.5 0 0 1-21.04-6.52l4.3-8.4c.44.43 1.21.99 2.3 1.68a31.62 31.62 0 0 0 8.93 3.76c1.84.48 3.73.7 5.68.7 5.34 0 8.01-1.72 8.01-5.17a4.2 4.2 0 0 0-.92-2.72 7.61 7.61 0 0 0-2.63-2 26.29 26.29 0 0 0-4.09-1.54c-1.58-.47-3.37-.98-5.34-1.55a46.57 46.57 0 0 1-6.26-2.17 16.07 16.07 0 0 1-4.39-2.75 10.57 10.57 0 0 1-2.67-3.68 12.77 12.77 0 0 1-.88-4.97c0-2.52.47-4.78 1.42-6.76a13.66 13.66 0 0 1 3.93-4.93 17.14 17.14 0 0 1 5.8-3 24 24 0 0 1 7.14-1.05c3.53 0 6.77.57 9.73 1.67a35.2 35.2 0 0 1 7.8 3.93zm53.6-4.58h-16.03v41.58h-9.65v-41.58h-16.03v-8.56h41.7zm44.06 33.02v8.56h-34.82V341.8h34.2v8.56h-24.47v12.06h21.12v7.93H274.5v13.03zm51.52 8.56v-33.2l-12.9 24.72h-5.3l-12.95-24.71v33.19h-9.72V341.8h10.43l14.87 28.55 14.94-28.55h10.4v50.14zm37.5-50.14h8.6l19.08 50.14h-10.06l-4.64-12.49h-17.53l-4.55 12.49h-10.06zm11.23 30.8-6.93-19.7-7.22 19.7zm39.71-6.09c0-3.05.55-6.07 1.67-9.06a25 25 0 0 1 4.84-8.01c2.11-2.36 4.7-4.27 7.77-5.72a24.2 24.2 0 0 1 10.43-2.17c4.62 0 8.62 1.02 11.99 3.05a19.2 19.2 0 0 1 7.51 7.89l-7.47 5.13a12.65 12.65 0 0 0-5.47-5.84 13.2 13.2 0 0 0-3.38-1.21 15.19 15.19 0 0 0-3.43-.42 13.2 13.2 0 0 0-10.93 5.34 16.56 16.56 0 0 0-2.72 5.35 19.7 19.7 0 0 0 .13 12.36 17.45 17.45 0 0 0 3 5.42 15.31 15.31 0 0 0 4.68 3.72c1.8.95 3.8 1.41 5.97 1.41 1.1 0 2.27-.13 3.5-.41a13.14 13.14 0 0 0 6.6-3.72c.94-.97 1.7-2.14 2.26-3.5l7.97 4.59a15.45 15.45 0 0 1-3.42 5 22.95 22.95 0 0 1-5.01 3.64 26.48 26.48 0 0 1-12.2 3c-3.56 0-6.83-.75-9.8-2.25a25.55 25.55 0 0 1-7.64-5.89 27.63 27.63 0 0 1-5.05-8.26 25.83 25.83 0 0 1-1.8-9.44zm68.08-24.71h8.6l19.08 50.14h-10.06l-4.64-12.49h-17.53l-4.55 12.49h-10.06zm11.23 30.8-6.93-19.7-7.22 19.7zm59.78 10.78v8.56h-34.81V341.8H578v8.56h-24.47v12.06h21.13v7.93h-21.13v13.03zm30.63 8.56V341.8h21.24c2.31 0 4.44.49 6.4 1.46a17.17 17.17 0 0 1 8.35 9.18c.8 2 1.2 4.01 1.2 6.02a17.55 17.55 0 0 1-4.3 11.52 15.45 15.45 0 0 1-4.97 3.76 14.04 14.04 0 0 1-6.3 1.41h-11.9v16.79zm9.72-25.34h11.32c1.77 0 3.26-.72 4.46-2.17 1.22-1.48 1.84-3.47 1.84-5.97 0-1.26-.2-2.38-.58-3.39a8.75 8.75 0 0 0-1.5-2.58 5.2 5.2 0 0 0-2.14-1.59 6.38 6.38 0 0 0-2.5-.54h-10.9Zm58.71 25.67c-3.67 0-7.01-.7-10.02-2.13a24.7 24.7 0 0 1-7.68-5.72 26.1 26.1 0 0 1-6.76-17.53c0-3.34.62-6.53 1.87-9.6a26.61 26.61 0 0 1 5.14-8.1c2.2-2.36 4.8-4.24 7.8-5.64a23.36 23.36 0 0 1 9.86-2.09c3.61 0 6.9.75 9.9 2.22 3 1.48 5.56 3.42 7.67 5.84a26.8 26.8 0 0 1 6.68 17.5c0 3.33-.61 6.53-1.83 9.55a26.16 26.16 0 0 1-5.1 8.06 24.03 24.03 0 0 1-7.76 5.6c-3 1.36-6.26 2.04-9.77 2.04zm-14.57-25.38c0 2.15.33 4.24 1 6.26.67 2.04 1.6 3.83 2.84 5.39a14.1 14.1 0 0 0 4.6 3.75c1.8.92 3.85 1.38 6.17 1.38 2.36 0 4.45-.47 6.26-1.42a14.6 14.6 0 0 0 4.6-3.84 16.76 16.76 0 0 0 2.8-5.43 19.52 19.52 0 0 0-.08-12.4 16.57 16.57 0 0 0-2.9-5.34 13.45 13.45 0 0 0-10.68-5.1 13.57 13.57 0 0 0-10.85 5.26 17.17 17.17 0 0 0-2.8 5.4c-.65 1.98-.96 4-.96 6.09zm49.55 25.05V341.8h22.17c2.3 0 4.44.49 6.39 1.46a17.17 17.17 0 0 1 8.35 9.18c.8 2 1.21 4.01 1.21 6.02 0 3.25-.81 6.22-2.42 8.89a14.07 14.07 0 0 1-6.6 5.76l11.44 18.83h-10.94L732 375.16h-9.6v16.79zm9.73-25.34h12.23c.9 0 1.73-.21 2.5-.63a7.69 7.69 0 0 0 3.34-4.3c.34-1 .51-2.07.51-3.21 0-1.17-.2-2.24-.58-3.22-.37-1-.87-1.86-1.5-2.59a6.48 6.48 0 0 0-2.18-1.67 5.56 5.56 0 0 0-2.5-.62H722.4zm95.05 16.78v8.56h-34.82V341.8h34.2v8.56h-24.47v12.06h21.13v7.93h-21.13v13.03zm10.65 8.56V341.8h9.72v41.58h25.6v8.56zm0 0" aria-label="SISTEMA CAE POR EL"/><path d="M147.48 470.4v-33.19l-12.9 24.72h-5.3l-12.94-24.72v33.2h-9.73v-50.15h10.44l14.86 28.56 14.95-28.56h10.4v50.14zm23.23 0v-50.14h9.72v50.14zm32.95-32.1v32.1h-9.73v-50.14h7.55l26.14 32.9v-32.81h9.73v50.05h-7.9zm47.17 32.1v-50.14h9.73v50.14zm53.07-36.99c-.31-.33-.9-.77-1.8-1.33a18.92 18.92 0 0 0-3.17-1.67c-1.25-.52-2.6-.97-4.05-1.34a17.31 17.31 0 0 0-4.46-.58c-2.67 0-4.68.5-6.01 1.5a4.85 4.85 0 0 0-1.97 4.13c0 1.04.25 1.9.75 2.6.5.66 1.23 1.26 2.18 1.79.94.5 2.12.98 3.54 1.42 1.44.41 3.1.86 4.97 1.33 2.44.65 4.68 1.34 6.68 2.09 2 .75 3.7 1.7 5.1 2.84a11.84 11.84 0 0 1 3.21 4.09c.75 1.57 1.13 3.5 1.13 5.8 0 2.67-.52 4.97-1.55 6.9a12.8 12.8 0 0 1-4.09 4.62 17.88 17.88 0 0 1-5.93 2.6c-2.23.52-4.57.79-7.01.79a37.5 37.5 0 0 1-21.04-6.52l4.3-8.39c.44.42 1.2.98 2.3 1.67a31.62 31.62 0 0 0 8.93 3.76c1.84.48 3.72.7 5.68.7 5.34 0 8.01-1.71 8.01-5.17a4.2 4.2 0 0 0-.92-2.71 7.62 7.62 0 0 0-2.63-2 26.29 26.29 0 0 0-4.09-1.55c-1.58-.47-3.37-.98-5.34-1.54a46.57 46.57 0 0 1-6.26-2.18 16.07 16.07 0 0 1-4.39-2.75 10.57 10.57 0 0 1-2.67-3.67 12.77 12.77 0 0 1-.88-4.97c0-2.53.47-4.78 1.42-6.77a13.66 13.66 0 0 1 3.93-4.92 17.14 17.14 0 0 1 5.8-3 24 24 0 0 1 7.14-1.05c3.53 0 6.77.56 9.73 1.67a35.2 35.2 0 0 1 7.8 3.92zm53.6-4.59h-16.03v41.58h-9.64v-41.58H315.8v-8.56h41.7zm44.06 33.02v8.56h-34.82v-50.14h34.2v8.56h-24.47v12.07h21.12v7.93h-21.12v13.02zm10.65 8.56v-50.14h22.16c2.31 0 4.44.5 6.4 1.46a17.17 17.17 0 0 1 8.35 9.18c.8 2.01 1.2 4.02 1.2 6.02 0 3.26-.81 6.22-2.42 8.9a14.07 14.07 0 0 1-6.6 5.75l11.44 18.83h-10.93l-10.27-16.78h-9.6v16.78zm9.72-25.34h12.24c.88 0 1.72-.2 2.5-.63a7.69 7.69 0 0 0 3.34-4.3c.33-1 .5-2.06.5-3.21 0-1.17-.2-2.23-.58-3.21-.37-1-.87-1.86-1.5-2.6a6.48 6.48 0 0 0-2.18-1.66 5.56 5.56 0 0 0-2.5-.63h-11.82zm40.26 25.34v-50.14h9.73v50.14zm44.64.34c-3.68 0-7.02-.71-10.02-2.13a24.7 24.7 0 0 1-7.68-5.72 26.1 26.1 0 0 1-6.76-17.53c0-3.35.62-6.54 1.87-9.6a26.61 26.61 0 0 1 5.14-8.1c2.19-2.37 4.8-4.25 7.8-5.64a23.36 23.36 0 0 1 9.86-2.1c3.6 0 6.9.75 9.89 2.22 3 1.48 5.56 3.42 7.68 5.85a26.8 26.8 0 0 1 6.68 17.49c0 3.34-.61 6.53-1.84 9.56a26.16 26.16 0 0 1-5.09 8.06 24.03 24.03 0 0 1-7.76 5.59c-3.01 1.37-6.27 2.05-9.77 2.05zm-14.57-25.39c0 2.15.33 4.24 1 6.27.67 2.03 1.6 3.83 2.84 5.38a14.1 14.1 0 0 0 4.59 3.76c1.8.92 3.86 1.38 6.18 1.38 2.36 0 4.45-.47 6.26-1.42a14.6 14.6 0 0 0 4.6-3.84 16.76 16.76 0 0 0 2.79-5.43 19.52 19.52 0 0 0-.08-12.4 16.57 16.57 0 0 0-2.88-5.34 13.45 13.45 0 0 0-10.7-5.1 13.57 13.57 0 0 0-10.85 5.26 17.17 17.17 0 0 0-2.8 5.39c-.64 1.98-.95 4-.95 6.1zm69.54 25.05v-50.14h21.25c2.3 0 4.43.5 6.39 1.46a17.17 17.17 0 0 1 8.35 9.18c.8 2.01 1.2 4.02 1.2 6.02a17.55 17.55 0 0 1-4.3 11.52 15.45 15.45 0 0 1-4.96 3.76 14.04 14.04 0 0 1-6.3 1.42h-11.9v16.78zm9.73-25.34h11.3c1.78 0 3.28-.72 4.48-2.17 1.22-1.47 1.83-3.46 1.83-5.97 0-1.25-.2-2.38-.58-3.38a8.75 8.75 0 0 0-1.5-2.59 5.2 5.2 0 0 0-2.13-1.59 6.38 6.38 0 0 0-2.5-.54h-10.9zm48.38-24.8h8.6l19.08 50.14h-10.06l-4.64-12.48h-17.53l-4.55 12.48h-10.06zm11.23 30.81-6.93-19.7-7.22 19.7zm24.97 19.33v-50.14h22.16c2.31 0 4.44.5 6.4 1.46a17.17 17.17 0 0 1 8.35 9.18c.8 2.01 1.2 4.02 1.2 6.02 0 3.26-.81 6.22-2.42 8.9a14.08 14.08 0 0 1-6.6 5.75l11.44 18.83h-10.93l-10.27-16.78h-9.6v16.78zm9.72-25.34h12.24c.88 0 1.72-.2 2.5-.63a7.69 7.69 0 0 0 3.34-4.3c.33-1 .5-2.06.5-3.21 0-1.17-.2-2.23-.58-3.21-.37-1-.87-1.86-1.5-2.6a6.48 6.48 0 0 0-2.18-1.66 5.56 5.56 0 0 0-2.5-.63h-11.82zm53.75-24.8h8.6l19.08 50.14H737.2l-4.63-12.48h-17.54l-4.55 12.48h-10.06Zm11.23 30.81-6.93-19.7-7.22 19.7zm42.76 19.33v-50.14h9.73v41.58h25.6v8.56zm58.55-50.14h8.6l19.07 50.14h-10.06l-4.63-12.48h-17.54l-4.55 12.48h-10.06zm11.23 30.81-6.93-19.7-7.23 19.7zm0 0" aria-label="MINISTERIO PARA LA"/><path d="M294.53 507.27H278.5v41.58h-9.65v-41.58h-16.03v-8.56h41.7zm9.24 41.58V498.7h22.16c2.31 0 4.44.49 6.4 1.46a17.17 17.17 0 0 1 8.35 9.18c.8 2 1.2 4.01 1.2 6.01 0 3.26-.81 6.22-2.42 8.9a14.07 14.07 0 0 1-6.6 5.76l11.44 18.83h-10.93l-10.27-16.79h-9.6v16.79zm9.72-25.34h12.24c.88 0 1.72-.21 2.5-.63a7.69 7.69 0 0 0 3.34-4.3c.33-1 .5-2.07.5-3.22 0-1.16-.2-2.23-.58-3.21-.37-1-.87-1.86-1.5-2.59a6.48 6.48 0 0 0-2.18-1.67 5.56 5.56 0 0 0-2.5-.62h-11.82Zm53.76-24.8h8.6l19.08 50.14h-10.06l-4.63-12.49H362.7l-4.55 12.49H348.1zm11.23 30.8-6.93-19.7-7.22 19.7zm34.7-12.77v32.1h-9.73v-50.13H411l26.13 32.9v-32.82h9.73v50.06h-7.9zm77.02-4.88c-.31-.34-.9-.77-1.8-1.34a18.92 18.92 0 0 0-3.17-1.67c-1.25-.52-2.6-.97-4.05-1.33a17.32 17.32 0 0 0-4.46-.59c-2.68 0-4.68.5-6.02 1.5a4.85 4.85 0 0 0-1.96 4.14c0 1.03.25 1.9.75 2.59.5.66 1.23 1.27 2.18 1.8.93.5 2.12.97 3.54 1.41 1.44.42 3.1.87 4.97 1.34 2.44.64 4.68 1.33 6.68 2.08s3.7 1.7 5.1 2.84a11.84 11.84 0 0 1 3.2 4.1c.76 1.56 1.14 3.49 1.14 5.8 0 2.67-.53 4.96-1.55 6.88a12.8 12.8 0 0 1-4.09 4.64 17.88 17.88 0 0 1-5.93 2.59c-2.23.52-4.57.79-7.01.79a37.5 37.5 0 0 1-21.04-6.51l4.3-8.4c.44.42 1.2.99 2.3 1.68a31.62 31.62 0 0 0 8.93 3.76c1.83.47 3.72.7 5.68.7 5.34 0 8.01-1.72 8.01-5.17a4.2 4.2 0 0 0-.92-2.72 7.61 7.61 0 0 0-2.63-2 26.28 26.28 0 0 0-4.09-1.55 605 605 0 0 0-5.34-1.54 46.57 46.57 0 0 1-6.26-2.17 16.07 16.07 0 0 1-4.39-2.76 10.57 10.57 0 0 1-2.67-3.67 12.77 12.77 0 0 1-.88-4.97c0-2.52.47-4.78 1.42-6.76a13.66 13.66 0 0 1 3.93-4.93 17.14 17.14 0 0 1 5.8-3 24 24 0 0 1 7.14-1.05c3.53 0 6.77.57 9.73 1.67a35.2 35.2 0 0 1 7.8 3.93zm16.46 36.99V498.7h9.73v50.14zm20.17-25.43c0-3.06.56-6.07 1.67-9.06a25 25 0 0 1 4.85-8.01c2.1-2.36 4.7-4.27 7.76-5.72a24.2 24.2 0 0 1 10.44-2.17c4.61 0 8.61 1.02 11.98 3.04a19.2 19.2 0 0 1 7.52 7.9l-7.48 5.13a12.65 12.65 0 0 0-5.47-5.85 13.2 13.2 0 0 0-3.38-1.2 15.19 15.19 0 0 0-3.42-.42 13.2 13.2 0 0 0-10.94 5.34 16.56 16.56 0 0 0-2.71 5.34 19.7 19.7 0 0 0 .13 12.36 17.45 17.45 0 0 0 3 5.43 15.31 15.31 0 0 0 4.67 3.71c1.81.95 3.8 1.42 5.97 1.42 1.11 0 2.28-.13 3.51-.41a13.14 13.14 0 0 0 6.6-3.72c.94-.97 1.69-2.14 2.25-3.5l7.98 4.59a15.45 15.45 0 0 1-3.43 5 22.95 22.95 0 0 1-5 3.64 26.48 26.48 0 0 1-12.2 3c-3.57 0-6.83-.75-9.8-2.25a25.55 25.55 0 0 1-7.65-5.89 27.63 27.63 0 0 1-5.05-8.26 25.83 25.83 0 0 1-1.8-9.44zm54.52 25.43V498.7h9.72v50.14zm47.52-54.36-6.1-1.84 3.84-8.39h8.81zm-2.88 54.69c-3.68 0-7.02-.71-10.02-2.13a24.7 24.7 0 0 1-7.69-5.72 26.1 26.1 0 0 1-6.76-17.53c0-3.34.63-6.54 1.88-9.6a26.61 26.61 0 0 1 5.14-8.1c2.19-2.36 4.8-4.24 7.8-5.64a23.36 23.36 0 0 1 9.85-2.09c3.62 0 6.91.74 9.9 2.22 3 1.48 5.56 3.42 7.68 5.84a26.8 26.8 0 0 1 6.68 17.5c0 3.33-.62 6.53-1.84 9.55a26.16 26.16 0 0 1-5.09 8.06 24.03 24.03 0 0 1-7.77 5.6c-3 1.36-6.26 2.04-9.76 2.04zm-14.57-25.38c0 2.15.33 4.23 1 6.26.67 2.03 1.6 3.83 2.84 5.38a14.1 14.1 0 0 0 4.59 3.76c1.8.92 3.86 1.38 6.18 1.38 2.36 0 4.44-.47 6.26-1.42a14.6 14.6 0 0 0 4.6-3.84 16.76 16.76 0 0 0 2.79-5.43 19.52 19.52 0 0 0-.08-12.4 16.57 16.57 0 0 0-2.89-5.34 13.45 13.45 0 0 0-10.68-5.1 13.57 13.57 0 0 0-10.85 5.26 17.17 17.17 0 0 0-2.8 5.4c-.65 1.98-.96 4-.96 6.09zm59.28-7.06v32.1h-9.73v-50.13h7.56l26.13 32.9v-32.82h9.73v50.06h-7.9zm0 0" aria-label="TRANSICIÓN"/><path d="M267 618.73v8.56H232.2v-50.14h34.2v8.56h-24.47v12.06h21.12v7.94h-21.12v13.02zm6.54-16.86c0-3.06.55-6.08 1.67-9.06a25 25 0 0 1 4.84-8.02c2.11-2.36 4.7-4.27 7.77-5.72a24.2 24.2 0 0 1 10.44-2.17c4.6 0 8.6 1.02 11.98 3.05a19.2 19.2 0 0 1 7.51 7.89l-7.47 5.13a12.65 12.65 0 0 0-5.47-5.84 13.2 13.2 0 0 0-3.38-1.21 15.19 15.19 0 0 0-3.43-.42 13.21 13.21 0 0 0-10.93 5.34 16.56 16.56 0 0 0-2.72 5.35 19.7 19.7 0 0 0 .13 12.36 17.45 17.45 0 0 0 3 5.42 15.31 15.31 0 0 0 4.68 3.72c1.8.95 3.8 1.42 5.97 1.42 1.1 0 2.28-.14 3.5-.42a13.14 13.14 0 0 0 6.6-3.72c.94-.97 1.7-2.14 2.26-3.5l7.97 4.59a15.45 15.45 0 0 1-3.42 5.01 22.95 22.95 0 0 1-5.01 3.63 26.48 26.48 0 0 1-12.2 3c-3.56 0-6.83-.74-9.8-2.25a25.55 25.55 0 0 1-7.64-5.88 27.63 27.63 0 0 1-5.05-8.27 25.83 25.83 0 0 1-1.8-9.43zm75.44 25.75c-3.67 0-7.01-.7-10.02-2.13a24.7 24.7 0 0 1-7.68-5.71 26.1 26.1 0 0 1-6.76-17.53c0-3.35.62-6.54 1.87-9.61a26.61 26.61 0 0 1 5.14-8.1c2.19-2.36 4.8-4.24 7.8-5.64a23.36 23.36 0 0 1 9.86-2.08c3.6 0 6.9.74 9.9 2.21 3 1.48 5.55 3.42 7.67 5.84a26.8 26.8 0 0 1 6.68 17.5c0 3.34-.61 6.53-1.83 9.56a26.16 26.16 0 0 1-5.1 8.05 24.03 24.03 0 0 1-7.76 5.6c-3 1.37-6.26 2.04-9.77 2.04zm-14.57-25.38c0 2.15.33 4.24 1 6.26.67 2.04 1.6 3.83 2.84 5.39a14.1 14.1 0 0 0 4.6 3.76c1.8.91 3.85 1.37 6.17 1.37 2.36 0 4.45-.47 6.26-1.42a14.6 14.6 0 0 0 4.6-3.84 16.76 16.76 0 0 0 2.8-5.42 19.53 19.53 0 0 0-.08-12.4 16.57 16.57 0 0 0-2.9-5.35 13.45 13.45 0 0 0-10.68-5.09 13.57 13.57 0 0 0-10.85 5.26 17.17 17.17 0 0 0-2.8 5.39c-.65 1.98-.96 4-.96 6.1zm49.55 25.05v-50.14h9.73v41.58h25.6v8.56zm65.4-54.36-6.1-1.83 3.84-8.4h8.8zm-2.89 54.7c-3.67 0-7.01-.72-10.02-2.14a24.7 24.7 0 0 1-7.68-5.71 26.1 26.1 0 0 1-6.76-17.53c0-3.35.62-6.54 1.87-9.61a26.61 26.61 0 0 1 5.14-8.1c2.2-2.36 4.8-4.24 7.8-5.64a23.36 23.36 0 0 1 9.86-2.08c3.61 0 6.9.74 9.9 2.21 3 1.48 5.56 3.42 7.67 5.84a26.8 26.8 0 0 1 6.68 17.5c0 3.34-.61 6.53-1.83 9.56a26.16 26.16 0 0 1-5.1 8.05 24.03 24.03 0 0 1-7.76 5.6c-3 1.37-6.26 2.04-9.77 2.04zm-14.57-25.39c0 2.15.33 4.24 1 6.26.67 2.04 1.61 3.83 2.84 5.39a14.1 14.1 0 0 0 4.6 3.76c1.8.91 3.86 1.37 6.17 1.37 2.36 0 4.45-.47 6.26-1.42a14.6 14.6 0 0 0 4.6-3.84 16.76 16.76 0 0 0 2.8-5.42 19.53 19.53 0 0 0-.08-12.4 16.57 16.57 0 0 0-2.9-5.35 13.45 13.45 0 0 0-10.68-5.09 13.57 13.57 0 0 0-10.85 5.26 17.17 17.17 0 0 0-2.8 5.39c-.65 1.98-.96 4-.96 6.1zm84.37 19.41c-4 4-8.67 5.97-13.98 5.97-3.3 0-6.38-.64-9.27-1.96a23.01 23.01 0 0 1-7.56-5.43 25.99 25.99 0 0 1-5.1-8.14 27.14 27.14 0 0 1-1.87-10.14c0-3.45.63-6.7 1.88-9.73a25.77 25.77 0 0 1 5.13-7.97c2.2-2.28 4.77-4.1 7.73-5.43 2.97-1.34 6.2-2 9.68-2 4.7 0 8.74.99 12.11 2.96a19.32 19.32 0 0 1 7.6 7.97l-7.27 5.39a13.57 13.57 0 0 0-5.34-5.72c-2.29-1.34-4.76-2-7.43-2a12.9 12.9 0 0 0-10.35 5 17.65 17.65 0 0 0-2.93 5.4 20.47 20.47 0 0 0 .13 13.02 17.2 17.2 0 0 0 3.09 5.34c1.33 1.5 2.9 2.7 4.72 3.55 1.8.87 3.76 1.3 5.88 1.3 4.84 0 9.23-2.28 13.15-6.85v-3.51h-10.1v-7.14h18.16v25.76h-8.06zm19.4 5.64v-50.14h9.72v50.14zm20.18-25.42c0-3.06.55-6.08 1.67-9.06a25 25 0 0 1 4.84-8.02c2.11-2.36 4.7-4.27 7.77-5.72a24.2 24.2 0 0 1 10.43-2.17c4.62 0 8.61 1.02 11.99 3.05a19.2 19.2 0 0 1 7.51 7.89l-7.47 5.13a12.65 12.65 0 0 0-5.47-5.84 13.2 13.2 0 0 0-3.38-1.21 15.19 15.19 0 0 0-3.43-.42 13.21 13.21 0 0 0-10.93 5.34 16.56 16.56 0 0 0-2.72 5.35 19.7 19.7 0 0 0 .13 12.36 17.45 17.45 0 0 0 3 5.42 15.31 15.31 0 0 0 4.68 3.72c1.8.95 3.8 1.42 5.97 1.42 1.1 0 2.27-.14 3.5-.42a13.14 13.14 0 0 0 6.6-3.72c.94-.97 1.7-2.14 2.26-3.5l7.97 4.59a15.45 15.45 0 0 1-3.42 5.01 22.96 22.96 0 0 1-5.01 3.63 26.48 26.48 0 0 1-12.2 3c-3.56 0-6.83-.74-9.8-2.25a25.55 25.55 0 0 1-7.64-5.88 27.63 27.63 0 0 1-5.06-8.27 25.83 25.83 0 0 1-1.8-9.43zm68.08-24.72h8.6l19.08 50.14h-10.06l-4.64-12.48h-17.53l-4.55 12.48h-10.06zm11.23 30.81-6.93-19.7-7.22 19.7zm46-30.8 12.35 24.16 12.57-24.17h10.52l-18.2 32.65v17.49h-9.69v-17.66l-18.12-32.48zm0 0" aria-label="ECOLÓGICA Y"/><path d="M370.25 697.19v8.55h-34.82v-50.13h34.2v8.55h-24.47v12.07h21.12v7.93h-21.12v13.03zm10.65 8.55v-50.13h9.72v41.58h25.6v8.55zm62.32 0v-50.13h22.17c2.3 0 4.44.49 6.39 1.46a17.17 17.17 0 0 1 8.35 9.18c.8 2 1.21 4 1.21 6.01 0 3.26-.81 6.22-2.42 8.9a14.07 14.07 0 0 1-6.6 5.76l11.44 18.82h-10.94l-10.27-16.78h-9.6v16.78zm9.73-25.34h12.23c.9 0 1.73-.2 2.5-.62a7.69 7.69 0 0 0 3.34-4.3c.34-1 .5-2.07.5-3.22 0-1.17-.19-2.23-.58-3.21-.36-1-.86-1.86-1.5-2.59a6.48 6.48 0 0 0-2.17-1.67 5.56 5.56 0 0 0-2.5-.63h-11.82zm75.07 16.79v8.55h-34.81v-50.13h34.19v8.55h-24.47v12.07h21.13v7.93h-21.13v13.03zm48.14-33.03h-16.03v41.58h-9.65v-41.58h-16.03v-8.55h41.71zm28.33 41.92c-3.68 0-7.02-.71-10.02-2.13a24.7 24.7 0 0 1-7.69-5.72 26.1 26.1 0 0 1-6.76-17.53c0-3.34.63-6.54 1.88-9.6a26.61 26.61 0 0 1 5.13-8.1c2.2-2.36 4.8-4.24 7.81-5.64a23.36 23.36 0 0 1 9.85-2.09c3.62 0 6.91.74 9.9 2.21 3 1.49 5.56 3.43 7.68 5.85a26.8 26.8 0 0 1 6.68 17.5c0 3.33-.62 6.52-1.84 9.55a26.16 26.16 0 0 1-5.09 8.06 24.03 24.03 0 0 1-7.77 5.6c-3 1.36-6.26 2.04-9.76 2.04zm-14.57-25.38c0 2.15.33 4.23 1 6.26.67 2.03 1.6 3.83 2.84 5.38a14.1 14.1 0 0 0 4.59 3.76c1.8.92 3.86 1.38 6.18 1.38 2.36 0 4.44-.47 6.26-1.42a14.6 14.6 0 0 0 4.6-3.84 16.76 16.76 0 0 0 2.79-5.43 19.53 19.53 0 0 0-.08-12.4 16.57 16.57 0 0 0-2.89-5.34 13.45 13.45 0 0 0-10.68-5.1 13.57 13.57 0 0 0-10.85 5.26 17.17 17.17 0 0 0-2.8 5.4c-.65 1.97-.96 4-.96 6.09zm0 0" aria-label="EL RETO"/><path d="M213.63 784.19v-50.14h18.2c4.12 0 7.7.67 10.78 2a21.95 21.95 0 0 1 7.72 5.35 21.89 21.89 0 0 1 4.67 7.97 30.14 30.14 0 0 1 1.55 9.69c0 3.82-.59 7.26-1.75 10.35a21.99 21.99 0 0 1-12.74 12.98 27.64 27.64 0 0 1-10.23 1.8zm33.1-25.13c0-2.4-.33-4.6-1-6.64a14.5 14.5 0 0 0-2.87-5.22 12.33 12.33 0 0 0-4.68-3.38 15.93 15.93 0 0 0-6.35-1.21h-8.47v33.02h8.47c2.43 0 4.56-.42 6.4-1.25a12.99 12.99 0 0 0 4.67-3.47 15.6 15.6 0 0 0 2.84-5.26c.66-2.02 1-4.22 1-6.6zm55.3 16.57v8.56h-34.81v-50.14h34.19v8.56h-24.47v12.06h21.13v7.93h-21.13v13.03zm51.52 8.56v-33.2l-12.9 24.72h-5.3L322.4 751v33.19h-9.73v-50.14h10.44l14.86 28.55 14.94-28.55h10.4v50.14zm44.64.33c-3.67 0-7.01-.7-10.02-2.13a24.7 24.7 0 0 1-7.68-5.72 26.1 26.1 0 0 1-6.76-17.53c0-3.34.62-6.53 1.87-9.6a26.61 26.61 0 0 1 5.14-8.1c2.19-2.36 4.8-4.24 7.8-5.64a23.36 23.36 0 0 1 9.86-2.08c3.6 0 6.9.74 9.9 2.2 3 1.49 5.55 3.43 7.67 5.85a26.8 26.8 0 0 1 6.68 17.5c0 3.33-.61 6.53-1.83 9.56a26.16 26.16 0 0 1-5.1 8.05 24.03 24.03 0 0 1-7.76 5.6c-3 1.36-6.26 2.04-9.77 2.04zm-14.57-25.38c0 2.15.33 4.24 1 6.26.67 2.04 1.6 3.83 2.84 5.39a14.1 14.1 0 0 0 4.6 3.75c1.8.92 3.85 1.38 6.17 1.38 2.36 0 4.45-.47 6.26-1.42a14.6 14.6 0 0 0 4.6-3.84 16.76 16.76 0 0 0 2.8-5.43 19.53 19.53 0 0 0-.08-12.4 16.57 16.57 0 0 0-2.9-5.34 13.45 13.45 0 0 0-10.68-5.1 13.57 13.57 0 0 0-10.85 5.26 17.17 17.17 0 0 0-2.8 5.4c-.65 1.98-.96 4-.96 6.09zM468 778.55c-4 3.99-8.67 5.97-13.98 5.97-3.3 0-6.38-.64-9.27-1.96a23.01 23.01 0 0 1-7.56-5.43 25.99 25.99 0 0 1-5.1-8.14 27.14 27.14 0 0 1-1.87-10.14c0-3.45.63-6.7 1.88-9.73a25.77 25.77 0 0 1 5.13-7.97c2.2-2.28 4.77-4.1 7.73-5.43 2.97-1.34 6.2-2 9.68-2 4.7 0 8.74.99 12.1 2.96a19.32 19.32 0 0 1 7.6 7.97l-7.26 5.39a13.57 13.57 0 0 0-5.34-5.72c-2.29-1.34-4.76-2-7.43-2a12.9 12.9 0 0 0-10.35 5 17.65 17.65 0 0 0-2.93 5.4 20.47 20.47 0 0 0 .13 13.02 17.2 17.2 0 0 0 3.09 5.34c1.33 1.5 2.9 2.7 4.71 3.55 1.81.86 3.77 1.3 5.9 1.3 4.83 0 9.22-2.28 13.14-6.85v-3.51h-10.1v-7.14h18.16v25.76H468zm19.4 5.64v-50.14h22.16c2.3 0 4.44.49 6.39 1.46a17.17 17.17 0 0 1 8.35 9.18c.8 2 1.2 4.01 1.2 6.02 0 3.25-.8 6.22-2.41 8.89a14.07 14.07 0 0 1-6.6 5.76l11.44 18.83H517l-10.27-16.78h-9.6v16.78zm9.72-25.34h12.23c.89 0 1.72-.21 2.5-.63a7.69 7.69 0 0 0 3.34-4.3c.34-1 .5-2.07.5-3.21 0-1.17-.19-2.24-.58-3.22-.36-1-.86-1.86-1.5-2.59a6.48 6.48 0 0 0-2.17-1.67 5.56 5.56 0 0 0-2.5-.62h-11.82zm53.76-24.8h8.6l19.08 50.14H568.5l-4.64-12.48h-17.53l-4.55 12.48h-10.06zm11.23 30.8-6.93-19.7-7.22 19.7zm-4.47-35.02L551.6 728l3.8-8.4h8.8zm29.44 54.36v-50.14h33.69v8.56H596.8v12.9h19.92v7.93H596.8v20.75zm43.55 0v-50.14h9.73v50.14zm20.17-25.43c0-3.05.56-6.07 1.67-9.06a25 25 0 0 1 4.85-8.01c2.1-2.36 4.7-4.27 7.76-5.72a24.2 24.2 0 0 1 10.44-2.17c4.61 0 8.61 1.02 11.98 3.05a19.2 19.2 0 0 1 7.52 7.89l-7.48 5.13a12.65 12.65 0 0 0-5.47-5.84 13.2 13.2 0 0 0-3.38-1.21 15.19 15.19 0 0 0-3.42-.42 13.21 13.21 0 0 0-10.94 5.34 16.56 16.56 0 0 0-2.71 5.35 19.7 19.7 0 0 0 .13 12.36 17.45 17.45 0 0 0 3 5.42 15.31 15.31 0 0 0 4.67 3.72c1.81.95 3.8 1.42 5.97 1.42 1.11 0 2.28-.14 3.51-.42a13.14 13.14 0 0 0 6.6-3.72c.94-.97 1.69-2.14 2.25-3.5l7.98 4.59a15.45 15.45 0 0 1-3.43 5 22.95 22.95 0 0 1-5 3.64 26.48 26.48 0 0 1-12.2 3c-3.57 0-6.83-.75-9.8-2.25a25.55 25.55 0 0 1-7.65-5.88 27.63 27.63 0 0 1-5.05-8.27 25.83 25.83 0 0 1-1.8-9.44zm75.44 25.76c-3.67 0-7.01-.7-10.02-2.13a24.7 24.7 0 0 1-7.68-5.72 26.1 26.1 0 0 1-6.76-17.53c0-3.34.62-6.53 1.88-9.6a26.61 26.61 0 0 1 5.13-8.1c2.2-2.36 4.8-4.24 7.8-5.64a23.36 23.36 0 0 1 9.86-2.08c3.61 0 6.91.74 9.9 2.2 3 1.49 5.56 3.43 7.68 5.85a26.8 26.8 0 0 1 6.68 17.5c0 3.33-.62 6.53-1.84 9.56a26.16 26.16 0 0 1-5.1 8.05 24.03 24.03 0 0 1-7.76 5.6c-3 1.36-6.26 2.04-9.77 2.04zm-14.57-25.38c0 2.15.34 4.24 1 6.26.67 2.04 1.61 3.83 2.84 5.39a14.1 14.1 0 0 0 4.6 3.75c1.8.92 3.86 1.38 6.17 1.38 2.36 0 4.45-.47 6.27-1.42a14.6 14.6 0 0 0 4.59-3.84 16.76 16.76 0 0 0 2.8-5.43 19.52 19.52 0 0 0-.08-12.4 16.57 16.57 0 0 0-2.89-5.34 13.45 13.45 0 0 0-10.69-5.1 13.57 13.57 0 0 0-10.85 5.26 17.17 17.17 0 0 0-2.8 5.4c-.64 1.98-.96 4-.96 6.09zm0 0" aria-label="DEMOGRÁFICO"/></g></svg>