<svg xmlns="http://www.w3.org/2000/svg" viewBox="0 0 159.71 73.99"><path fill="#ca082d" d="M0 9.65h159.71v54.69H0z"/><path fill="#6f6d60" d="M116.52 74h.09a40.89 40.89 0 0 0 11.88-1.75 20.74 20.74 0 0 0 10.28-7.81c3.86-5.65 7.36-16.56 7.52-27.42-.16-10.86-3.66-21.78-7.52-27.42a20.56 20.56 0 0 0-10.19-7.81 42.43 42.43 0 0 0-24.12 0 20.58 20.58 0 0 0-10.2 7.81C90.4 15.2 86.9 26.12 86.75 37c.15 10.86 3.65 21.77 7.51 27.42a20.55 20.55 0 0 0 10.2 7.79 41.12 41.12 0 0 0 12 1.77Z"/><path fill="#fff" d="M144 37a62.17 62.17 0 0 1-4.77 23.4c-2.66 6-6.72 9.72-12.7 11.35a41.15 41.15 0 0 1-20.13 0c-6-1.63-10-5.31-12.69-11.35A62 62 0 0 1 88.94 37a62.07 62.07 0 0 1 4.76-23.4c2.66-6 6.72-9.71 12.69-11.34a41.15 41.15 0 0 1 20.13 0c6 1.63 10 5.31 12.7 11.34A62.25 62.25 0 0 1 144 37"/><path fill="#6f6d60" d="M116.56 9.74a32.35 32.35 0 0 1 8.35 1.11 9.68 9.68 0 0 1 6.26 5.36A52 52 0 0 1 135.34 37a52 52 0 0 1-4.17 20.78 9.66 9.66 0 0 1-6.26 5.37 32.35 32.35 0 0 1-8.35 1.11h-.09a32.33 32.33 0 0 1-8.34-1.11 9.64 9.64 0 0 1-6.26-5.37C99.35 52.38 97.7 44.62 97.7 37a51.86 51.86 0 0 1 4.17-20.78 9.65 9.65 0 0 1 6.26-5.36 32.33 32.33 0 0 1 8.34-1.11Z"/><path fill="#fff" d="M120.61 20.15a8.48 8.48 0 0 1-.49-.85M102.67 35.53h9.43v2.74h-9.43zM110 59.29a2.24 2.24 0 0 1-.29-1h5.39a2.51 2.51 0 0 1-1.11 2 2.82 2.82 0 0 1-2.82.21 3 3 0 0 1-1.17-1.21"/><path fill="#fff" d="M115.8 57.09h-2.9v-1.34h2.91l.91-1.08.94 1.08h2.9v1.35h-2.9v3.34h-1.86ZM116.14 52.93c.6-.2 1.43-.54 1.6-1.11a4.15 4.15 0 0 1 1-2.32.89.89 0 0 0 .19-.84 2.74 2.74 0 0 1 2.22 1.68 2.85 2.85 0 0 1-3.15 3.87 2.93 2.93 0 0 1-1.85-1.28M109.18 40.9a2.11 2.11 0 0 0-1.79-.09 1.54 1.54 0 0 0-1 1.22v3.93c0 .28-.17.42-.53.42s-.52-.16-.52-.42V42a1.72 1.72 0 0 0-.39-1.16l-2.07.68-.19.06c.52.39.77.4.81 1v5.4l.07.18.06.16.08.13a2.1 2.1 0 0 0 1.32.87 3.08 3.08 0 0 0 .67.09 2.56 2.56 0 0 0 1.6-.42c.85-.67.66-1.84.69-3.54a1.15 1.15 0 0 1 .33-1 1.13 1.13 0 0 1 .91-.18 2 2 0 0 1 .78.37c0-1.47.06-3.28-.86-3.72M128.43 47.33c-1.52-1.49-4.14-3.56-4.35-4.44a6.19 6.19 0 0 1-.17-2l1.33-1.06c0 1-.18 2.12.32 2.74 1.24 1.23 2.36 2.35 3.48 3.44a1.59 1.59 0 0 1 .47 1.68 5.43 5.43 0 0 1-.5.87 1.62 1.62 0 0 0-.58-1.24M119.85 39.77h2.73v8.1h-2.74Z"/><path fill="#fff" d="M126 40.52a10.46 10.46 0 0 1 .74-.77l.68.83v2.31c1-.48.74-1.86.74-3 .58.47.87.73 1.42 1.25.31 1.38-.52 2.17-1.14 3.13L126 41.89ZM128.21 34.33l.36-1.55 1.2-.17v-3.83c-.46.07-.65.12-1 .16V26c-.63.13-1.29.35-2 .51v4.81c0 .24-.38.31-.45.31h-.1c-.24 0-.48-.16-.48-.33v-4.59l-1.91.24v2a23.94 23.94 0 0 1-2.65 3.87l2.13.17.64 1.38ZM106.44 33.37c0-1.26-.09-2.09-.12-3.34a1.29 1.29 0 0 1 1.08.37c-.05 1.59-.05 1.57-.08 3.24h-.87ZM106.26 26.1c-.2-1.25-.22-1.34-.34-2.25h-.79V23h3.5v.88h-.82l-.36 2.93a3.19 3.19 0 0 0-1.2-.68M106.12 22.34c-1.17-1.26-1.25-3.15-1-4.85a2.23 2.23 0 0 0 1.24 1.38c-.07-.33-.36-.64-.46-1a2.55 2.55 0 0 1 .2-2.28 2.23 2.23 0 0 1 1.28-.83 2.68 2.68 0 0 0 0 1.83 5.47 5.47 0 0 0 .6-.51 1.62 1.62 0 0 1 .22-.19 5.59 5.59 0 0 1 .69 3.54l-.2.5c-.06-.82-.2-1.21-.75-1.52-.07.48.23.82.31 1.45a2.58 2.58 0 0 1-.56 2.48ZM120.61 20.15l-1.22 1.33c-.32-.31-.35-.35-.68-.69l1.41-1.49M122.19 16.92c.25-1.15.38-2.47 1.64-3a1.72 1.72 0 0 1 1.53.28 1.59 1.59 0 0 1 .57 1.67c-.38 1.33-1.86 1.59-3.07 1.91ZM130.57 35.53v2.76l-9.44-.01v-2.74l9.44-.01z"/><path fill="#fff" d="M107.79 54c-.39-1.74 1.71-2.37 2.21-3.81.39-2.42.51-5 2.19-6.86A13.65 13.65 0 0 1 116 34a15.3 15.3 0 0 0-.69-2.24 1.19 1.19 0 0 1-.85-.35 1.84 1.84 0 0 1-.37-.91 13.7 13.7 0 0 1-3.09 3.06c-.22.12-.5-.14-.9-.51-1.47-1.16-1.72-3.8-4-3.68-1-.35-1-1.54-1.14-2.44a1.63 1.63 0 0 1 1.45-.09c1.4.75 2.33 2.33 3.65 3.39a5.06 5.06 0 0 0 1 .78 7.8 7.8 0 0 0 2.15-2.54 2.09 2.09 0 0 1 1.83-.95l.53-.63-.28-1.56a11.61 11.61 0 0 1-1.36-2.22c.19-.9.31-1.94 1.22-2.44.59-.37 1.08.47 1.56-.06a1 1 0 0 1 .91.22 4.45 4.45 0 0 1 .83 2 12.74 12.74 0 0 1-.91 2.08c-.08.15-.29.2-.42.3a2.07 2.07 0 0 0 .36.89 2 2 0 0 0 .86.05 2.48 2.48 0 0 1 1.82-1.36l1.57-1c-.25-1.19.51-2.23.08-3.42a3 3 0 0 1-1.34-2.21 4 4 0 0 1 .74-1.44l.05.06a7.63 7.63 0 0 1 1.91 3.22 29.82 29.82 0 0 1 .21 4.84 15.9 15.9 0 0 1-2.83 2l-.71 1.37c-.08 1.41-.5 2.68-.71 4 .6 1.65 1.33 3.85.79 5.37a5.4 5.4 0 0 1-1.92 1.95l-1.6 1.28c1.6 1.78 1.21 3.78 1.28 6.35 0 .62 1.1 1.14.51 1.85s-1.27 1.43-1.14 2.48a2.65 2.65 0 0 1-2.22 1 .2.2 0 0 1-.22-.2 8.68 8.68 0 0 1 .63-1.16c.57-.88.3-2.09 1-2.91a30.83 30.83 0 0 1-1.71-5.71v-.13a3.22 3.22 0 0 0 0 2.59c-1.58 2-3.29 3.9-3.29 6.53a32.37 32.37 0 0 0-2.07 3.5c-.17.21-.48 0-.67-.08a1.64 1.64 0 0 1-.71-1M125.1 45.37c1.52 1.49 4.14 3.57 4.36 4.45a6.15 6.15 0 0 1 .16 2l-1.33 1c0-1 .19-2.11-.32-2.74a356.58 356.58 0 0 0-3.47-3.43A1.59 1.59 0 0 1 124 45a5.28 5.28 0 0 1 .49-.86 1.58 1.58 0 0 0 .58 1.23"/><path fill="#fff" d="M127.56 52.18c-.29.32-.4.44-.74.77l-.69-.83v-2.3c-1 .47-.73 1.85-.73 3-.58-.47-.87-.74-1.42-1.26-.31-1.38.51-2.16 1.14-3.13l2.44 2.34ZM123.48 59.29a2.24 2.24 0 0 0 .29-1h-5.4a2.55 2.55 0 0 0 1.12 2 2.82 2.82 0 0 0 2.82.21 3 3 0 0 0 1.17-1.14"/><path fill="#6f6d60" d="M117.47 71.06c0-1.5 1.44-2.26 2.36-3.25a1 1 0 0 0 .17-1.11.69.69 0 0 0-.48-.41.85.85 0 0 0-.8.15 1.17 1.17 0 0 0-.35 1l-1 .06a2 2 0 0 1 .39-1.54 2.36 2.36 0 0 1 1.9-.61 1.86 1.86 0 0 1 1.44 1 1.88 1.88 0 0 1-.27 2c-.61.65-1.4 1-1.9 1.73l2.59-.16v.93ZM108.28 64.59l-1.69 5.17-1.08-.36 1.16-3.54v-.06c-.43-.15-1-.29-1.37-.44l.22-.67a1.67 1.67 0 0 0 1.58-.16 1.18 1.18 0 0 0 .3-.28ZM127.47 68.47a1.31 1.31 0 0 1-.65.35 1.28 1.28 0 0 1-.73 0 .85.85 0 0 1-.21-1.49 1.48 1.48 0 0 1 .52-.23 1.41 1.41 0 0 1 .57 0 .86.86 0 0 1 .5 1.41M125.21 66a.72.72 0 0 1 .1-.83 1.09 1.09 0 0 1 .54-.29 1 1 0 0 1 .61 0 .7.7 0 0 1 .47.68.64.64 0 0 1-.22.48 1.22 1.22 0 0 1-.51.25 1.23 1.23 0 0 1-.57 0 .67.67 0 0 1-.42-.32m3.56 1.47a1.4 1.4 0 0 0-1-1.08l-.32-.07a1.23 1.23 0 0 0 .53-1.19 1.34 1.34 0 0 0-.95-1 2.62 2.62 0 0 0-1.39 0 2.58 2.58 0 0 0-1.23.63 1.37 1.37 0 0 0-.35 1.38 1.21 1.21 0 0 0 1 .8l-.25.22a1.37 1.37 0 0 0-.37 1.41 1.65 1.65 0 0 0 1.14 1.19 3 3 0 0 0 1.43 0 2.8 2.8 0 0 0 1.29-.73 1.63 1.63 0 0 0 .47-1.58M113.25 70a1.26 1.26 0 0 1-.72.14 1.32 1.32 0 0 1-.7-.23.8.8 0 0 1-.33-.67.83.83 0 0 1 .57-.81 1.45 1.45 0 0 1 .57-.06 1.44 1.44 0 0 1 .55.13.85.85 0 0 1 .06 1.5m-1.42-3a.72.72 0 0 1 .35-.76 1 1 0 0 1 .6-.12 1.06 1.06 0 0 1 .58.19.71.71 0 0 1 .24.79.66.66 0 0 1-.35.4 1.14 1.14 0 0 1-.56.08 1.21 1.21 0 0 1-.55-.15.69.69 0 0 1-.31-.43m3 2.46a1.39 1.39 0 0 0-.62-1.32l-.29-.17a1.24 1.24 0 0 0 .87-1 1.37 1.37 0 0 0-.6-1.29 2.53 2.53 0 0 0-1.32-.4 2.49 2.49 0 0 0-1.37.24 1.34 1.34 0 0 0-.74 1.2 1.22 1.22 0 0 0 .74 1.08l-.31.13a1.37 1.37 0 0 0-.78 1.24 1.64 1.64 0 0 0 .74 1.47 3 3 0 0 0 1.37.41 3 3 0 0 0 1.4-.24 1.65 1.65 0 0 0 .91-1.38M133.65 18.04l5.03-2.17.46 1.05-5.04 2.17zM120.18 8.22l-1.3-5.63 1.2.11c.24 1.4.48 3 .76 4.16.51-1.1 1.07-2.6 1.59-3.92l1.17.12-2.38 5.27ZM98.77 11.45l-1.22 2.19-1.04-.58 1.4-2.51-.79-.44-1.96 3.51 4.78 2.68 1.97-3.52-.8-.44-1.4 2.52-1.34-.76 1.23-2.19-.83-.46zM95.14 37.22H93.6c0-1.22-.16-1.93.56-2.07a.78.78 0 0 1 .76.15c.3.29.21.79.22 1.92m-2.37 0h-1.34c0-1.26-.17-1.92.6-2 .46 0 .58.07.69.34a7.15 7.15 0 0 1 0 1.67m3.1-2.48a1.52 1.52 0 0 0-1.5-.75 1.48 1.48 0 0 0-1.21 1 1.11 1.11 0 0 0-.92-.82 1.27 1.27 0 0 0-1.34.55c-.36.47-.21 2.5-.25 3.68h5.45V38c0-2.16.09-2.42-.18-3.22M139.19 19.97l.87-.22 1.1 4.28-.87.23-.41-1.59-4.4 1.13-.29-1.1 4.4-1.13-.4-1.6zM111.52 8.54a2.53 2.53 0 0 1-1.74-.27 1.34 1.34 0 0 1-.68-1l-.62-3.91 1.11-.18.63 3.91a.78.78 0 0 0 .65.58 1.14 1.14 0 0 0 .52 0"/><path fill="#6f6d60" d="M111.54 8.54a2.56 2.56 0 0 0 1.56-.8 1.3 1.3 0 0 0 .33-1.14l-.62-3.91-1.12.17.62 3.92a.79.79 0 0 1-.42.75 1.41 1.41 0 0 1-.5.17M138.55 29.46l-.19-1.35 2.37.36Zm3.17-1.72L136 26.59l.16 1.12 1.24.22.27 2-1.13.56.16 1.11 5.16-2.66ZM140.89 37.15h.32a1.13 1.13 0 0 0 .43-1.07 1 1 0 0 0-.51-.94.48.48 0 0 0-.57.13c-.61.91-.18 2.85-1.78 3.19a1.59 1.59 0 0 1-1.66-.74 3.23 3.23 0 0 1 0-3.12 1.67 1.67 0 0 1 1.36-.72l.06 1.05a1 1 0 0 0-.83.55 1.7 1.7 0 0 0 .22 1.75.66.66 0 0 0 .68.05c.63-.46.5-1.59.82-2.35a1.52 1.52 0 0 1 .71-.81 1.58 1.58 0 0 1 1.73.29 2.77 2.77 0 0 1 .42 2.85 1.64 1.64 0 0 1-1.44 1l-.07-1.06ZM96.79 28.89a2.5 2.5 0 0 1-.79 1.57 1.32 1.32 0 0 1-1.14.33l-3.92-.61.18-1.12 3.91.62a.78.78 0 0 0 .75-.44 1.15 1.15 0 0 0 .17-.49"/><path fill="#6f6d60" d="M96.79 28.87a2.48 2.48 0 0 0-.27-1.74 1.33 1.33 0 0 0-1-.67l-3.92-.61-.15 1.15 3.91.62a.82.82 0 0 1 .59.64 1.19 1.19 0 0 1 0 .53M103.54 9l-.61-2.31 1.78 1.6Zm-.67-3.54-1 .61 1.2 5.68 1-.59-.28-1.22 1.69-1 1 .81 1-.58ZM129.46 7.24l-2.31-.97.46-1.09 2.65 1.11.35-.84-3.71-1.55-2.12 5.06 3.72 1.55.35-.84-2.66-1.11.59-1.42 2.32.98.36-.88zM95 21.34l-1.37-.4c.3-.94.44-1.88 1.09-1.83a.85.85 0 0 1 .61.31c.25.32-.08 1-.33 1.92m1.1-2a1.25 1.25 0 0 0-.34-1 1.57 1.57 0 0 0-1.24-.34c-1.22.19-1.38 1.59-2.06 3.81l5.25 1.56.29-1.12-2-.62h-.09a7.43 7.43 0 0 1 .44-1.28c.38-.87 1.77 0 2.32-.1l.33-1.11c-.94.05-2.2-.79-2.86.24M135.21 11.87a.85.85 0 0 1-.6.31c-.41 0-.78-.66-1.36-1.39l1.13-.87c.59.79 1.27 1.46.83 1.95m-.81-3.4L130 11.8l.7.9 1.72-1.31.07-.05a7.38 7.38 0 0 1 .77 1.11c.48.82-1 1.44-1.28 1.93l.69.9c.51-.79 1.92-1.31 1.48-2.45a1.24 1.24 0 0 0 1 .31 1.59 1.59 0 0 0 1.08-.76c.56-1.1-.48-2.06-1.87-3.91"/><path fill="#fff" d="M6.07 25.39v-7.21h1.51v7.21ZM10.41 25.51c-1.86 0-2.21-1.1-2.13-2.35h1.51c0 .69 0 1.27.85 1.27a.72.72 0 0 0 .76-.82c0-1.3-3-1.38-3-3.53 0-1.12.54-2 2.38-2 1.46 0 2.19.65 2.09 2.16h-1.5c0-.54-.09-1.09-.69-1.09a.71.71 0 0 0-.78.77c0 1.37 3 1.25 3 3.52.03 1.85-1.34 2.07-2.49 2.07ZM13.58 21.78c0-1.91 0-3.72 2.49-3.72s2.49 1.81 2.49 3.72 0 3.73-2.49 3.73-2.49-1.84-2.49-3.73Zm3.45 0c0-1.85-.11-2.65-1-2.65s-1 .8-1 2.65.11 2.65 1 2.65.97-.8.97-2.65ZM22 23.75a1 1 0 0 0 .1.49.46.46 0 0 0 .42.22c.7 0 .62-.57.62-2.23a1.57 1.57 0 0 1-1.16.46c-1.07 0-1.48-1-1.48-1.89 0-1.37.42-2.47 2-2.47 2.07 0 2.06 1.64 2.06 3.6 0 1.72 0 3.55-2.07 3.55-1.21 0-1.91-.41-1.88-1.73Zm.51-2c.6 0 .63-.81.63-1.24s0-1.2-.62-1.2-.61.8-.61 1.23.09 1.19.64 1.19ZM29 21.88c0 2.19-.14 3.6-2 3.6s-2-1.41-2-3.6c0-2.67.3-3.55 2-3.55s2 .88 2 3.55Zm-2.63 0c0 2.11 0 2.56.61 2.56s.61-.45.61-2.56 0-2.56-.61-2.56-.63.43-.63 2.58ZM33.37 21.88c0 2.19-.14 3.6-2 3.6s-2-1.41-2-3.6c0-2.67.3-3.55 2-3.55s2 .88 2 3.55Zm-2.63 0c0 2.11.05 2.56.61 2.56S32 24 32 21.9s0-2.56-.61-2.56-.65.41-.65 2.56ZM33.85 19.5a4.57 4.57 0 0 0 1.35-1.08h1.34v7H35V20a7.09 7.09 0 0 1-1.18.78ZM6.07 35.39v-7.21h1.51v7.21ZM10.41 35.51c-1.86 0-2.21-1.1-2.13-2.35h1.51c0 .69 0 1.27.85 1.27a.72.72 0 0 0 .76-.82c0-1.3-3-1.38-3-3.53 0-1.12.54-2 2.38-2 1.46 0 2.19.65 2.09 2.16h-1.5c0-.54-.09-1.09-.69-1.09a.71.71 0 0 0-.78.77c0 1.37 3 1.25 3 3.52.03 1.85-1.34 2.07-2.49 2.07ZM13.58 31.78c0-1.91 0-3.72 2.49-3.72s2.49 1.81 2.49 3.72 0 3.73-2.49 3.73-2.49-1.84-2.49-3.73Zm3.45 0c0-1.85-.11-2.65-1-2.65s-1 .8-1 2.65.11 2.65 1 2.65.97-.8.97-2.65ZM20.84 29.5a4.57 4.57 0 0 0 1.35-1.08h1.34v7H22V30a7.09 7.09 0 0 1-1.18.78ZM24.43 32.39c1.68-3.94 1.68-4 1.69-4H28v4.3h.55v1.11H28v1.59h-1.41V33.8h-2.16Zm2.28.33.09-3.33-1.27 3.33ZM32.87 31.88c0 2.19-.14 3.6-2 3.6s-2-1.41-2-3.6c0-2.67.3-3.55 2-3.55s2 .88 2 3.55Zm-2.63 0c0 2.11.05 2.56.61 2.56s.61-.45.61-2.56 0-2.56-.61-2.56-.61.43-.61 2.58ZM37.26 31.88c0 2.19-.14 3.6-2 3.6s-2-1.41-2-3.6c0-2.67.3-3.55 2-3.55s2 .88 2 3.55Zm-2.63 0c0 2.11 0 2.56.61 2.56s.61-.45.61-2.56 0-2.56-.61-2.56-.61.43-.61 2.58ZM37.75 29.5a4.57 4.57 0 0 0 1.35-1.08h1.34v7h-1.51V30a7.09 7.09 0 0 1-1.18.78ZM5.94 56c0-1.72 0-3.36 2.24-3.36 1.39 0 2 .77 1.89 2.17H8.74c0-.87-.15-1.19-.56-1.19-.76 0-.86.72-.86 2.38s.1 2.39.86 2.39.61-.81.62-1.32h1.35c0 1.73-.7 2.29-2 2.29-2.21.01-2.21-1.65-2.21-3.36ZM11.89 57.19c0 .54 0 1.35.58 1.35s.54-.43.54-.81h1.28a1.64 1.64 0 0 1-.48 1.18 1.91 1.91 0 0 1-1.34.44c-1.64 0-1.86-1-1.86-2.42 0-1.24.18-2.3 1.86-2.3s1.9 1.1 1.85 2.56Zm1.16-.71c0-.44 0-1.07-.58-1.07s-.58.68-.58 1.07ZM16.08 54.72v.58a1.16 1.16 0 0 1 1.18-.67v1.13c-1.11-.07-1.13.58-1.13 1v2.47h-1.26v-4.51ZM17.36 54.72h.51V54l1.27-.57v1.29h.66v.78h-.66v2.43c0 .34 0 .57.41.57a.75.75 0 0 0 .22 0v.78a4.67 4.67 0 0 1-.66.05c-1.1 0-1.24-.73-1.24-1V55.5h-.51ZM21.46 52.76v1h-1.27v-1Zm0 6.5h-1.27v-4.54h1.27ZM24.28 53.55c-.51 0-.62.16-.62.62v.55h.59v.78h-.59v3.76h-1.27V55.5h-.57v-.78h.58c0-1.31-.12-2 1.43-2h.45ZM25.93 52.76v1h-1.27v-1Zm0 6.5h-1.27v-4.54h1.27ZM29 56.34c0-.68-.17-.9-.57-.9s-.58.47-.58 1.42c0 1.39.11 1.68.58 1.68s.59-.36.59-.95h1.27c0 1.23-.67 1.76-1.86 1.76-1.64 0-1.85-1-1.85-2.42 0-1.24.18-2.3 1.85-2.3 1.17 0 1.84.52 1.84 1.71ZM34.29 58.42a7.93 7.93 0 0 0 .07.84h-1.18l-.06-.6a1.24 1.24 0 0 1-1.18.69c-.89 0-1.21-.65-1.21-1.45 0-1.5 1.16-1.56 2.34-1.55V56c0-.38 0-.66-.51-.66s-.48.33-.48.69h-1.26a1.25 1.25 0 0 1 .47-1.11 2 2 0 0 1 1.19-.29c1.61 0 1.81.69 1.81 1.52ZM32 57.85c0 .32.06.72.47.72.75 0 .63-1 .63-1.5-.68.02-1.1-.07-1.1.78ZM34.6 54.72h.51V54l1.27-.57v1.29H37v.78h-.66v2.43c0 .34 0 .57.41.57a.75.75 0 0 0 .22 0v.78a4.67 4.67 0 0 1-.66.05c-1.1 0-1.24-.73-1.24-1V55.5h-.47ZM38.7 52.76v1h-1.27v-1Zm0 6.5h-1.27v-4.54h1.27ZM39.33 56.93c0-1.24.18-2.3 1.85-2.3S43 55.69 43 56.93c0 1.42-.22 2.42-1.86 2.42s-1.81-1-1.81-2.42Zm2.44-.07c0-1 0-1.42-.59-1.42s-.58.47-.58 1.42c0 1.39.12 1.68.58 1.68s.59-.29.59-1.68ZM44.87 55.18a1.08 1.08 0 0 1 .45-.43 1.37 1.37 0 0 1 .62-.12 1 1 0 0 1 1.14 1v3.64h-1.25v-3.14c0-.4-.08-.72-.48-.72s-.48.32-.48.72v3.13H43.6v-4.54h1.27ZM6.09 50.55v-7.21h2.68c1.14 0 2.09.33 2.09 1.87a1.47 1.47 0 0 1-1.22 1.59c1.06.2 1.36.86 1.36 1.85 0 1.82-1.58 1.9-2.22 1.9Zm1.51-4.26h1a.81.81 0 0 0 .79-.92.86.86 0 0 0-.87-.92H7.6Zm0 3.15h.84a.89.89 0 0 0 1-1c0-.64-.24-1-1-1H7.6ZM16.63 43.34v5.12a2.14 2.14 0 0 1-2.44 2.21c-1.66 0-2.46-.86-2.46-2.21v-5.12h1.51v5c0 .89.38 1.25.93 1.25s.95-.45.95-1.25v-5ZM19 50.55h-1.5v-7.21h2.79c1 0 1.69.66 1.69 1.89A1.56 1.56 0 0 1 20.64 47 1.28 1.28 0 0 1 22 48.44a9.8 9.8 0 0 0 .17 2.11h-1.53a3.31 3.31 0 0 1-.16-1.4c0-.85.08-1.58-1.08-1.58H19Zm0-4.09h.67c.6 0 .77-.6.77-1.06 0-.69-.29-.95-.77-.95H19ZM22.76 50.55v-7.21h3.94v1.11h-2.43v1.78h2.24v1.11h-2.24v2.1h2.51v1.11ZM27.14 50.55l2-7.21h2l2 7.21H31.5L31.1 49H29l-.41 1.6Zm2.91-5.82-.69 3.12h1.44ZM38.3 43.34v5.12a2.15 2.15 0 0 1-2.45 2.21c-1.66 0-2.46-.86-2.46-2.21v-5.12h1.51v5c0 .89.38 1.25.93 1.25s1-.45 1-1.25v-5ZM40.17 43.34h1.57l1.12 5.25 1.26-5.25h1.49l-1.91 7.21H42ZM46.12 50.55v-7.21h3.94v1.11h-2.43v1.78h2.24v1.11h-2.24v2.1h2.51v1.11ZM52.28 50.55h-1.51v-7.21h2.79c1 0 1.69.66 1.69 1.89A1.56 1.56 0 0 1 53.91 47a1.28 1.28 0 0 1 1.31 1.42 9.8 9.8 0 0 0 .17 2.11h-1.48a3.31 3.31 0 0 1-.16-1.4c0-.85.08-1.58-1.08-1.58h-.39Zm0-4.09H53c.6 0 .77-.6.77-1.06 0-.69-.29-.95-.77-.95h-.67ZM56 50.55v-7.21h1.51v7.21ZM62.91 43.34v1.2h-1.68v6h-1.51v-6H58v-1.2ZM62.34 50.55l2-7.21h2l2 7.21H66.7L66.3 49h-2.06l-.41 1.6Zm2.91-5.82-.69 3.12H66ZM70.68 50.67c-1.87 0-2.22-1.1-2.14-2.34h1.51c0 .69 0 1.27.86 1.27.51 0 .76-.33.76-.83 0-1.29-3-1.37-3-3.52 0-1.13.54-2 2.38-2 1.47 0 2.2.66 2.1 2.17h-1.51c0-.54-.09-1.09-.7-1.09a.7.7 0 0 0-.78.77c0 1.37 3 1.25 3 3.52.04 1.83-1.33 2.05-2.48 2.05Z"/></svg>