<svg xmlns="http://www.w3.org/2000/svg" xmlns:xlink="http://www.w3.org/1999/xlink" viewBox="0 0 512 80"><style><![CDATA[.B{stroke:#000}.C{stroke-linejoin:round}.D{fill:none}.E{stroke-linecap:round}.F{fill:#eac102}.G{fill:#ed1c24}.H{fill:#e3e4e5}.I{fill-rule:evenodd}.J{stroke-width:3}.K{stroke-width:5.25}.L{stroke-width:4.75}.M{stroke-width:4.25}.N{stroke-width:3.75}.O{stroke-width:3.25}.P{stroke-width:2.75}.Q{stroke-width:2.25}.R{stroke-width:1.75}.S{stroke-width:1.25}.T{stroke-width:5.75}]]></style><g transform="matrix(.98616 0 0 .98616 3.944642 -.925656)"><g fill="#313131"><path d="M334.29 39.88l.23-8.04q.02-.61.62-.7l1.17-.17q.69-.1.69.6v27.67q0 .54-.51.7c-4.92 1.6-11.78 1.83-15.09-2.86q-3.28-4.64-1.33-10.34 3.11-9.13 13.62-6.4.59.15.6-.46zm.15 16.96v-13a1.76 1.76 0 0 0-1.76-1.76h-3.53a7.03 6.91-90 0 0-6.91 7.03v2.46a7.03 6.91 90 0 0 6.91 7.03h3.53a1.76 1.76 0 0 0 1.76-1.76zm146.31-17.1l.01-7.88a.73.73 0 0 1 .66-.73l1.37-.14q.49-.05.49.44l-.03 27.91a.68.66-8.1 0 1-.49.64c-5.68 1.57-13.84 1.73-16.15-5.43-1.92-5.97.73-13.46 7.5-14.63 1.87-.33 4.14.08 6.21.21q.43.03.43-.39zm.23 16.94l-.04-12.64a2.05 2.05 0 0 0-2.06-2.04l-3.13.01a7.19 7.04 89.8 0 0-7.01 7.21v2.36a7.19 7.04 89.8 0 0 7.07 7.17l3.13-.01a2.05 2.05 0 0 0 2.04-2.06zm-93.03-11.81a.24.24 0 0 0 .06.46q5.06.84 5.9 6c1.5 9.22-10.39 10.63-16.88 8.9q-.45-.12-.45-.59l.17-27.15q.01-.59.59-.69 4.73-.78 9.24.08c6.88 1.3 7.69 10.28 1.37 12.99zm-8.71-10.45l-.04 8.88a.7.7 0 0 0 .7.7l4.02.02a5.32 4.69.2 0 0 5.34-4.67v-.9a5.32 4.69.2 0 0-5.3-4.71l-4.02-.02a.7.7 0 0 0-.7.7zm.01 12.44v11.2a.45.45 0 0 0 .45.45h4.09a7.24 5.55 0 0 0 7.24-5.55v-1a7.24 5.55 0 0 0-7.24-5.55h-4.09a.45.45 0 0 0-.45.45zM59.98 59.51l8.98-26.75a1.95 1.95 0 0 1 3.69 0l9.07 27.11a.42.42 0 0 1-.42.55l-1.69-.06a.76.75 82.3 0 1-.69-.53L77 53.81q-.16-.51-.69-.52l-11.12-.14q-.46 0-.59.44l-1.85 6.18q-.16.53-.71.6l-1.23.15q-1.22.15-.83-1.01zm5.66-9.42a.52.52 0 0 0 .5.68l9.2-.03a.52.52 0 0 0 .49-.68l-4.65-14.33a.52.52 0 0 0-.99 0z"/><rect x="-1.71" y="-1.72" transform="rotate(1.3 -1364.863 9731.92)" width="3.42" height="3.44" rx="1.28"/><rect x="-1.7" y="-1.74" transform="rotate(1 -1672.567 28230.762)" width="3.4" height="3.48" rx="1.08"/><path d="M154.83 42.62q-.75 7.26.1 14.51.06.56.56.83 1.91 1.03 4.06.71a.93.93 0 0 1 .44 1.8q-4.23 1.48-7.05-1.72a1.55 1.52 24.7 0 1-.39-1.02l-.15-14.95a.54.54 0 0 0-.53-.54l-2.29-.08a1.08 1.07 45.6 0 1 .02-2.15l2.56-.03a.32.31 82.2 0 0 .3-.4q-.87-3.09 1.48-5.16.68-.6.7.31l.09 4.65q.02.57.59.59l4.49.11a.72.71 11.1 0 1 .65.96l-.28.76a.76.76 0 0 1-.74.5l-4.01-.19q-.54-.03-.6.51zm120.51 13.71c.22-4.51-.04-9.01-.08-13.55q0-.53-.54-.53h-2.18a.77.77 0 0 1-.77-.77v-.71a.77.77 0 0 1 .77-.77h2.18q.5 0 .64-.48.33-1.14.04-2.43-.12-.57.26-1l1.3-1.47q.54-.62.55.2l.08 4.58q.01.55.56.56l4.55.12a.93.93 0 0 1 .48 1.71q-1.42.9-3.44.45-1.74-.38-1.89 1.39-.46 5.23-.15 11.39c.15 3.16 1.82 4.32 4.84 3.59q.48-.12.69.33l.23.49q.34.71-.39 1c-3.22 1.27-7.93.02-7.73-4.1zM131.63 43.26c4.28-5.24 12.62-4.94 13.27 2.8q.27 3.17.04 13.9-.02.73-.73.57l-1.42-.31q-.54-.12-.5-.67c.26-3.34.83-13.48-1.02-16.08-2.17-3.04-7-.92-8.48 1.45-2.05 3.28-1.58 10.65-1.54 14.72q0 .69-.68.7l-.85.02q-.64.01-.65-.62c-.14-5.54-1.26-14.08-.09-19.27q.12-.55.67-.49l1.06.11q.74.07.62.8l-.33 2.09a.36.36 0 0 0 .63.28zm44.59 4.75c1.09-6.39-4.57-6.66-9.48-5.51q-.58.14-.75-.44l-.26-.89q-.19-.65.46-.82c15.34-4.12 13.41 9.68 12.67 19.05q-.03.45-.48.58-5.48 1.51-10.29.49c-5.64-1.2-5.31-9.18-.8-11.41q3.67-1.82 8.37-.69.47.12.56-.36zm.39 9.26l-.27-5.97a1.23 1.23 0 0 0-1.29-1.17l-3.82.17a5.18 4.03-2.6 0 0-4.99 4.26l.01.38a5.18 4.03-2.6 0 0 5.36 3.79l3.83-.17a1.23 1.23 0 0 0 1.17-1.29zm11.95-14.19c2.25-3.6 8.52-5.2 10.56-.39a.54.54 0 0 0 .91.13c5.12-6.29 12.84-2.7 12.26 5.18q-.5 6.7-.14 11.65.04.58-.54.65l-1 .13q-.8.1-.75-.7.56-9.02-.35-14.22c-1.04-5.86-9.1-3.55-9.2 1.31q-.12 6.34-.04 12.47a1.2 1.2 0 0 1-.97 1.19q-.82.15-1.3-.45-.31-.39-.28-1.17c.24-5.06.84-10.68-.95-15.53a1.39 1.33-86 0 0-.57-.69c-4.91-2.93-7.88 2.55-7.92 6.67q-.06 5.22-.02 10.46.01.73-.72.65l-1.21-.13a.7.7 0 0 1-.63-.7l.07-18.82q.01-.63.64-.7l.86-.08a.6.6 0 0 1 .66.55l.2 2.44q.05.7.43.1zm42.47 8.07c-.4 7.56 6.44 8.69 12.1 6.9a.94.94 0 0 1 .71 1.74q-2.18 1.09-5.31 1.04-10.41-.17-10.06-10.78c.5-15.11 19.11-12.48 16.63-.04q-.08.43-.52.44l-12.98.16q-.54.01-.57.54zm.52-2.46l11.08.08a.32.32 0 0 0 .32-.32v-.74a5.68 5.52-89.6 0 0-5.48-5.72h-.68a5.68 5.52-89.6 0 0-5.56 5.64v.74a.32.32 0 0 0 .32.32zm23.2-5.5q4.28-5.28 10.67-2.44a1.48 1.44-3.8 0 1 .66.56c3.04 4.83 1.93 12.99 1.92 18.51a.61.61 0 0 1-.7.6l-1.6-.24a.64.64 0 0 1-.55-.68q.39-5.85.18-11.68c-.31-9-9.14-6.5-10.65-.38q-.92 3.77-.17 12.33a.65.64-.3 0 1-.7.7l-1.51-.13q-.55-.05-.55-.6V40.75a.69.69 0 0 1 .69-.69h1.23q.92 0 .64.87-.36 1.12-.09 2.14.15.58.53.12zm41.488 17.84a10.74 9.11 89.8 0 1-9.147-10.708 10.74 9.11 89.8 0 1 9.072-10.772 10.74 9.11 89.8 0 1 9.147 10.708 10.74 9.11 89.8 0 1-9.072 10.772zm-.053-2.08a8.61 6.6 90.5 0 0 6.675-8.552 8.61 6.6 90.5 0 0-6.525-8.667 8.61 6.6 90.5 0 0-6.675 8.552 8.61 6.6 90.5 0 0 6.525 8.667zm49.615-7.78c-.7 7.45 6.34 8.26 12.02 6.8a.72.71-17 0 1 .85.45l.33.88a.57.57 0 0 1-.39.74c-20.98 5.49-18.72-21.1-6.56-20.39 5.85.34 8.44 4.27 8.21 9.92a1.22 1.22 0 0 1-1.22 1.18h-12.77q-.43 0-.47.42zm.53-2.36l11-.23a.49.49 0 0 0 .48-.5v-.07a6.14 5.66 88.8 0 0-5.79-6.02l-.66.02a6.14 5.66 88.8 0 0-5.53 6.25v.07a.49.49 0 0 0 .5.48zm77.42 2.47c.05 7.21 6.22 8.82 12.22 6.7q.52-.18.7.35l.31.96a.7.69 77.1 0 1-.56.91c-4.27.6-7.81 1.47-11.63-1.12-7.11-4.82-4.29-20.23 5.87-19.32 5.52.49 8.32 5.11 7.45 10.41a.55.55 0 0 1-.53.45l-13.27.09q-.56.01-.56.57zm.36-2.57l11.42-.16a.28.28 0 0 0 .27-.28v-.43a5.93 5.75 89.2 0 0-5.84-5.85h-.48a5.93 5.75 89.2 0 0-5.66 6.01v.43a.28.28 0 0 0 .29.28zm23.5-5.51c3.76-4.81 12.39-5.18 12.65 2.56q.23 6.74.28 13.5 0 .43-.34.71-1.08.87-1.8.15-.42-.41-.41-1.33.06-6.64-.04-13.22c-.08-5.39-7.68-3.88-9.67-.29-1.8 3.26-1.16 10.8-1.15 14.74q0 .65-.63.49l-1.2-.3q-.53-.13-.53-.67l-.18-18.88q0-.51.5-.54l1.19-.07a.69.68 88.4 0 1 .72.69v2.25a.34.34 0 0 0 .61.21zm64.89 4.6c1.14-6.48-5.34-6.3-9.47-5.37q-.69.16-.94-.52-.51-1.43.64-1.69 5.84-1.34 9.72.55c3.76 1.83 2.6 14.93 2.45 18.73q-.02.52-.53.62c-4.62.88-15.13 2.28-14.26-6.03.62-6.03 6.92-6.3 11.76-5.82q.53.06.63-.47zm.31 9.62l-.1-6a1.26 1.26 0 0 0-1.28-1.24l-3.95.06a5.05 4.07-.9 0 0-4.98 4.15v.38a5.05 4.07-.9 0 0 5.12 3.99l3.95-.06a1.26 1.26 0 0 0 1.24-1.28z"/><rect x="-1.22" y="-10.76" transform="rotate(340.5 189.772 -230.777)" width="2.44" height="21.52" rx=".27"/><path d="M85.81 67.98c3.09.7 4.3.13 5.31-2.9q4.07-12.3 8.19-24.56.22-.65.89-.55l1.19.18a.45.45 0 0 1 .36.59q-4.16 12.14-8.26 24.29c-1.42 4.2-3.38 6.52-8.05 4.9q-.57-.19-.44-.78l.18-.78a.52.52 0 0 1 .63-.39zm35.78-27.91q.66.03.66.7v18.47q0 .53-.51.69c-16.85 5.34-16.48-8.07-15.61-19.35q.04-.58.62-.58h1.23a.69.68-88.8 0 1 .68.72c-.41 7.41-2.6 21.58 10.55 17.53q.54-.17.54-.74V40.77q0-.81.8-.76zM219.37 42h-1.18a.89.89 0 0 1-.2-1.76q2.01-.47 4.06-.14.55.08.55.65l-.14 18.83q0 .55-.54.65l-1.16.24a.64.63-5.6 0 1-.76-.62V42.62q0-.62-.63-.62zm196.02 17.45a.69.68-5.4 0 1-.57.68c-18.07 3.05-15.2-6.17-15.38-19.38q-.01-.62.61-.67l1.32-.1q.64-.05.64.59c-.05 7.39-3.2 21.18 10.24 17.8q.56-.14.56-.71l.27-16.95q.01-.65.65-.65h.72q.75 0 .76.76zM494.69 41l-.26 18.59q-.01.76-.77.8l-.94.06a.69.68 88.4 0 1-.72-.69V42.5q0-.5-.5-.5h-1.22q-.39 0-.58-.35-.8-1.48.61-1.59 2.02-.15 3.51-.02a.94.94 0 0 1 .87.96z"/></g><g transform="matrix(.082659 0 0 .082659 -4.000019 1.8235)" class="B C"><path d="M126.903 160.39c-47.45-2.054-88.549 19.505-105.27 46.096l50.536 73.206 46.908 30.577L275 298.679l155.922 11.59 46.908-30.577 50.536-73.206c-16.721-26.591-57.82-48.15-105.27-46.096-49.777 2.155-74.619-23.709-148.097-23.709s-98.32 25.863-148.097 23.709z" class="G"/><path d="M271.05 45.968V19.433h-12.191v-7.871h12.191V.5h7.899v11.061h12.191v7.871h-12.191v26.535z" class="F"/><path d="M296.613 57.932c0 11.937-9.677 21.613-21.613 21.613s-21.613-9.677-21.613-21.613S263.063 36.318 275 36.318s21.613 9.677 21.613 21.613z" fill="#0071bc" class="I"/><g class="F"><path d="M296.89 62.235c.853-2.121.321-8.317 0-8.615 0-1.412-7.564-2.568-17.598-2.834V35.903A25.73 25.73 0 0 0 275 35.53a25.73 25.73 0 0 0-4.292.372v14.883c-10.034.266-17.598 1.422-17.598 2.834-.321.298-.853 6.494 0 8.615 0-1.607 9.796-2.919 21.89-2.919s21.89 1.312 21.89 2.919zM38.174 207.249c-19.546-30.648-14.784-52.773-2.799-70.692-24.08 20.567-30.416 51.655-9.126 87.08z"/><path d="M265.38 96.528c-32.416 9.776-67.755 20.776-99.77 16.068C16.617 90.687 6.149 172.654 34.359 206.941l-8.111 16.697 7.626 2.422 9.733-19.557c-32.728-34.367-17.772-106.98 120.838-86.576 33.376 4.913 70.105-6.311 103.325-16.329z"/></g><path d="M34.359 206.941l9.248-.438" class="D E"/><g class="H"><use xlink:href="#B"/><use xlink:href="#B" x="-77.5" y="1.9"/><use xlink:href="#B" x="-58.25" y="4.15"/><use xlink:href="#B" x="19" y="-4.8"/><use xlink:href="#B" x="37.75" y="-10.2"/><use xlink:href="#B" x="-202.454" y="112.254"/><use xlink:href="#B" x="-209.953" y="94.651"/><path d="M16.066 176.675c0 4.299-3.485 7.783-7.783 7.783S.5 180.974.5 176.675s3.485-7.783 7.783-7.783 7.783 3.485 7.783 7.783z"/><use xlink:href="#B" x="-210.25" y="57.75"/><use xlink:href="#B" x="-200.75" y="41.25"/><use xlink:href="#B" x="-188.25" y="26.5"/><use xlink:href="#B" x="-172.75" y="15.5"/><use xlink:href="#B" x="-155" y="7.5"/><use xlink:href="#B" x="-136" y="3"/><use xlink:href="#B" x="-116.5" y="1"/><use xlink:href="#B" x="-97" y="0.75"/><use xlink:href="#B" x="-38.75" y="5.5"/><use xlink:href="#B" x="-19.25" y="3.75"/></g><g class="F"><use xlink:href="#C"/><use xlink:href="#D"/></g><path d="M156.088 181.628l8.039-.059" class="D E"/><g class="H"><use xlink:href="#B" x="43.326" y="-14.055"/><use xlink:href="#B" x="33.67" y="-14.861"/><use xlink:href="#B" x="25.606" y="-16.6"/><use xlink:href="#B" x="17.514" y="-18.826"/><use xlink:href="#B" x="-83.484" y="82.73"/><use xlink:href="#B" x="-91.209" y="64.703"/><use xlink:href="#B" x="-95.427" y="45.803"/><use xlink:href="#B" x="-94.851" y="27.076"/><use xlink:href="#B" x="9.09" y="-20.709"/><use xlink:href="#B" x="0.389" y="-22.649"/><use xlink:href="#B" x="-8.843" y="-24.199"/><use xlink:href="#B" x="-18.308" y="-25.277"/><use xlink:href="#B" x="-29.004" y="-25.246"/><use xlink:href="#B" x="-40.939" y="-23.365"/><use xlink:href="#B" x="-53.752" y="-19.782"/><use xlink:href="#B" x="-67.478" y="-13.683"/><use xlink:href="#B" x="-79.859" y="-3.38"/><use xlink:href="#B" x="-89.269" y="10.53"/></g><g transform="matrix(-1 0 0 1 1473.5066 -725.22602)"><g class="F"><path d="M961.681 932.475c-19.546-30.648-14.784-52.773-2.799-70.692-24.08 20.567-30.416 51.655-9.126 87.08z"/><path d="M1188.887 821.754c-32.416 9.776-67.755 20.776-99.77 16.068-148.993-21.909-159.461 60.057-131.251 94.344l-8.111 16.697 7.626 2.422 9.733-19.557c-32.728-34.367-17.772-106.98 120.838-86.576 33.376 4.913 70.105-6.311 103.325-16.329z"/></g><path d="M957.866 932.167l9.248-.438" class="D E"/><g class="H"><use xlink:href="#B" x="923.507" y="725.226"/><use xlink:href="#B" x="846.007" y="727.126"/><use xlink:href="#B" x="865.257" y="729.376"/><use xlink:href="#B" x="942.507" y="720.426"/><use xlink:href="#B" x="961.257" y="715.026"/><use xlink:href="#B" x="721.053" y="837.48"/><use xlink:href="#B" x="713.554" y="819.877"/><use xlink:href="#B" x="709.866" y="801.476"/><use xlink:href="#B" x="713.257" y="782.976"/><use xlink:href="#B" x="722.757" y="766.476"/><use xlink:href="#B" x="735.257" y="751.726"/><use xlink:href="#B" x="750.757" y="740.726"/><use xlink:href="#B" x="768.507" y="732.726"/><use xlink:href="#B" x="787.507" y="728.226"/><use xlink:href="#B" x="807.007" y="726.226"/><use xlink:href="#B" x="826.507" y="725.976"/><use xlink:href="#B" x="884.757" y="730.726"/><use xlink:href="#B" x="904.257" y="728.976"/></g></g><g transform="matrix(-1 0 0 1 1423.7715 -808.3)"><g class="F"><use xlink:href="#C" x="873.772" y="808.3"/><use xlink:href="#D" x="873.772" y="808.3"/></g><path d="M1029.86 989.928l8.039-.059" class="D E"/><g class="H"><use xlink:href="#B" x="917.098" y="794.245"/><use xlink:href="#B" x="907.442" y="793.439"/><use xlink:href="#B" x="899.378" y="791.7"/><use xlink:href="#B" x="891.286" y="789.474"/><use xlink:href="#B" x="790.288" y="891.03"/><use xlink:href="#B" x="782.563" y="873.003"/><use xlink:href="#B" x="778.345" y="854.103"/><use xlink:href="#B" x="778.921" y="835.376"/><use xlink:href="#B" x="882.862" y="787.591"/><use xlink:href="#B" x="874.161" y="785.651"/><use xlink:href="#B" x="864.929" y="784.101"/><use xlink:href="#B" x="855.464" y="783.023"/><use xlink:href="#B" x="844.768" y="783.054"/><use xlink:href="#B" x="832.833" y="784.935"/><use xlink:href="#B" x="820.02" y="788.518"/><use xlink:href="#B" x="806.294" y="794.617"/><use xlink:href="#B" x="793.913" y="804.92"/><use xlink:href="#B" x="784.503" y="818.83"/></g></g><g class="F"><path d="M300.253 178.032c-9.227-24.443-5.848-66.016-11.893-88.294-2.443-9.002-8.669-13.268-13.36-13.268s-10.918 4.266-13.36 13.268c-6.045 22.278-2.667 63.851-11.894 88.294L275 204.001z"/><path d="M284.233 92.188c5.798 26.85 1.488 56.644 10.3 84.406L275 197.126l-19.533-20.531c8.812-27.762 4.502-57.556 10.3-84.407 1.017-4.71 4.687-10.687 9.233-10.687s8.216 5.978 9.233 10.688z"/></g><path d="M249.746 178.032l5.721-1.437m44.786 1.437l-5.72-1.437" class="D E"/><g class="H"><use xlink:href="#B" x="53.076" y="-28.19"/><use xlink:href="#B" x="53.076" y="-25.668"/><use xlink:href="#B" x="53.076" y="-21.921"/><use xlink:href="#B" x="53.076" y="-15.164"/><use xlink:href="#B" x="53.076" y="76.775"/><use xlink:href="#B" x="53.076" y="59.518"/><use xlink:href="#B" x="53.076" y="41.35"/><use xlink:href="#B" x="53.076" y="-6.553"/><use xlink:href="#B" x="53.076" y="5.722"/><use xlink:href="#B" x="53.076" y="22.868"/></g><g class="F"><path d="M495.393 261.719c-8.976 15.172-24.369 32.712-39.405 43.596l-12.431-5.935c23.39-9.09 38.18-23.218 51.836-37.662zm-440.787 0c8.976 15.172 24.369 32.712 39.405 43.596l12.431-5.935c-23.39-9.09-38.18-23.218-51.836-37.662zm142.645-31.602c-3.718 5.274-8.668 9.861-15.823 11.078 2.991 2.509 3.836 5.588 4.156 9.384-10.83-3.633-16.141-.523-22.035-4.938l-6.685-5.008-2.581-12.406 4.368-6.127c3.71-5.203 11.119-3.905 19.086-9.236 1.239 3.7 1.684 6.821-.159 9.832 7.348-.289 13.962 3.126 19.671 7.421zm155.497 0c3.718 5.274 8.668 9.861 15.822 11.078-2.991 2.509-3.836 5.588-4.156 9.384 10.83-3.633 16.141-.523 22.034-4.938l6.685-5.008 2.581-12.406-4.368-6.127c-3.71-5.203-11.119-3.905-19.086-9.236-1.239 3.7-1.684 6.821.159 9.832-7.348-.289-13.962 3.126-19.671 7.421z"/><path d="M279.949 231.804v16.375c0 26.831 47.244 38.933 54.668.185.433-2.261 2.647-3.716 4.938-3.437s4.04 2.325 3.936 4.625c-1.644 36.354 42.169 31.266 48.807 1.784l3.884-17.25c.56-2.487 3.458-4.152 5.951-3.594s4.381 3.294 3.821 5.781l-3.884 17.25c-6.533 29.017 20.554 39.156 46.762 3.358 1.428-1.951 4.347-2.648 6.398-1.363s2.42 4.184 1.399 6.375c-20.412 43.804 9.017 20.936 32.108-6.902 1.708-2.06 5.095-2.532 7.173-.844s2.268 5.068.595 7.156c-43.1 53.79-58.84 34.494-56.253 18.969-18.15 14.619-40.479 13.325-47.42-8.469-16.133 18.161-45.313 18.788-55.89-3.656-17.45 23.114-49.602 16.825-61.941-2.594-12.338 19.419-44.49 25.708-61.94 2.594-10.577 22.445-39.758 21.817-55.89 3.656-6.942 21.794-29.271 23.088-47.42 8.469 2.586 15.526-13.153 34.822-56.253-18.969-1.673-2.088-1.483-5.468.595-7.156s5.464-1.216 7.173.844c23.09 27.838 52.52 50.706 32.108 6.902-1.021-2.191-.652-5.09 1.399-6.375s4.969-.588 6.398 1.363c26.207 35.798 53.295 25.658 46.762-3.358l-3.884-17.25c-.56-2.487 1.328-5.223 3.821-5.781s5.391 1.107 5.951 3.594l3.884 17.25c6.638 29.482 50.452 34.57 48.808-1.784-.104-2.3 1.645-4.347 3.936-4.625s4.505 1.176 4.938 3.438c7.424 38.749 54.668 26.647 54.668-.185v-16.375c-.033-2.618 2.325-5.062 4.949-5.062s4.981 2.444 4.949 5.063z"/></g><use xlink:href="#B" x="-11.56" y="145.569" class="H"/><path d="M102.335 239.972c5.709 4.295 12.317 7.682 19.665 7.393-1.843 3.01-1.398 6.131-.159 9.832 9.889-5.904 15.409-4.012 19.091-9.208l4.362-6.155-2.581-12.406-6.679-4.98c-5.751-4.288-11.564-1.418-22.04-4.966.32 3.796 1.166 6.875 4.157 9.384-7.155 1.217-12.098 5.832-15.817 11.106z" class="F"/><path d="M141.354 236.123c-15.058-.18-19.315 1.751-32.576 3.205m32.109-8.068c-9.561-5.946-16.284-3.45-22.381-7.696m24.154 17.699c-6.52 6.349-11.51 4.12-17.167 9.492" class="D E"/><path d="M137.517 184.802c-1.955 6.672-4.948 12.704-2.046 20.33-3.122-2.311-7.015-3.141-10.425-2.286 6.76 10.343 5.287 16.363 11.193 21.26l6.456 5.353 11.623-1.207 3.977-6.436c3.363-5.443-.089-11.555 2.087-22.639-3.614-.126-6.474.39-8.522 3.238-2.045-7.695-7.765-14.127-14.341-17.613z" class="F"/><path d="M152.062 225.93c3.05-7.209.338-14.167 4.238-22.242m-12.222 23.73c-7.743-7.821-7.297-14.944-13.018-20.705m16.847 19.266c-4.91-13.066-3.728-23.04-8.243-34.519m15.936 38.486c6.485-7.138 12.126-5.158 18.639-11.082m-17.045 19.542c9.311 3.696 12.383 1.45 22.346 7.319m-21.225-11.364c14.086-3.851 19.894-1.206 32.749-3.538" class="D E"/><path d="M159.492 235.015c0 5.537-4.488 10.025-10.025 10.025s-10.025-4.488-10.025-10.025a10.03 10.03 0 0 1 10.025-10.025c5.537 0 10.025 4.488 10.025 10.025z" class="G I"/><g class="F"><path d="M45.028 247.023c-6.884-9.763-12.593-16.066-33.637-17.877 7.2-10.824 22.194-13.957 31.947-4.08.923-2.704 1.492-3.584 4.07-6.081 2.299 7.049 12.539 12.374 8.476 24.997l-3.992 12.404z"/><path d="M84.542 243.891c-1.566 5.769-4.076 11.078-8.657 13.477 2.445 1.937 3.552 4.794 4.433 8.438 0 0-10.52-.846-15.1.2-5.23 1.194-9.234-1.053-10.093-1.896l-4.936-9.74c3.797-6.772 4.544-10.491 7.389-14.177 2.84-3.68 7.486-6.913 10.859-9.803 1.48 3.395 2.326 6.361 1.62 9.606 4.873-1.528 9.905.678 14.485 3.895z"/></g><path d="M49.082 252.583c-.613-5.162 1.164-9.819.847-13.962-.58-7.583-3.065-10.08-2.736-14.051m5.587 34.242c8.186-6.619 15.68-7.827 25.534-13.418m-26.949 9.752c3.58-6.021 10.948-9.377 14.925-18.743m-12.365 25.815c7.041.964 11.312-3.118 19.736-.063" class="D E"/><path d="M55.125 264.11a9.91 9.91 0 0 1-4.408 1.027c-5.495 0-9.95-4.455-9.95-9.95 0-3.38 1.685-6.366 4.261-8.164 5.394 3.559 9.329 10.791 10.097 17.087z" class="G I"/><path d="M306.932 220.732c2.597-2.777 2.812-5.896 2.319-9.668-12.027 4.994-17.034 2.327-22.098 7.118l-5.936 5.616v12.456l5.936 5.616c5.064 4.791 10.071 2.124 22.098 7.118.494-3.772.278-6.892-2.319-9.668 7.793-.467 14.003-4.48 19.069-9.294-5.066-4.814-11.276-8.827-19.069-9.294z" class="F"/><path d="M284.114 230.026H318.8m-36.191 3.973c10.17 6.304 14.353 4.446 21.869 9.7m-21.869-17.646c10.17-6.304 14.353-4.446 21.869-9.7" class="D E"/><path d="M243.067 220.732c-2.597-2.777-2.812-5.896-2.319-9.668 12.027 4.994 17.034 2.327 22.098 7.118l5.936 5.616v12.456l-5.936 5.616c-5.064 4.791-10.071 2.124-22.098 7.118-.494-3.772-.278-6.892 2.319-9.668-7.793-.467-14.003-4.48-19.069-9.294 5.066-4.814 11.276-8.827 19.069-9.294z" class="F"/><path d="M265.886 230.026h-34.687m36.192 3.973c-10.17 6.304-14.353 4.446-21.869 9.7m21.869-17.646c-10.17-6.304-14.353-4.446-21.869-9.7" class="D E"/><path d="M284.294 198.094c2.777-2.597 5.896-2.812 9.668-2.319-4.994 12.027-2.326 17.034-7.118 22.098l-5.617 5.936h-12.456l-5.617-5.936c-4.791-5.064-2.124-10.071-7.118-22.098 3.772-.494 6.892-.278 9.668 2.319.467-7.793 4.48-14.003 9.294-19.069 4.814 5.066 8.827 11.276 9.294 19.069z" class="F"/><path d="M275 220.912v-34.687m-3.973 36.192c-6.304-10.17-4.446-14.353-9.7-21.869m17.646 21.869c6.304-10.17 4.446-14.353 9.7-21.869" class="D E"/><path d="M275 219.926c5.578 0 10.1 4.522 10.1 10.1s-4.522 10.1-10.1 10.1-10.1-4.522-10.1-10.1 4.522-10.1 10.1-10.1z" class="G I"/><g class="H"><use xlink:href="#E"/><use xlink:href="#E" x="114.437" y="10.914"/></g><path d="M447.665 239.972c-5.709 4.295-12.317 7.682-19.665 7.393 1.842 3.01 1.398 6.131.159 9.832-9.889-5.904-15.409-4.012-19.091-9.208l-4.362-6.155 2.581-12.406 6.679-4.98c5.751-4.288 11.564-1.418 22.04-4.966-.32 3.796-1.166 6.875-4.157 9.384 7.155 1.217 12.098 5.832 15.817 11.106z" class="F"/><path d="M408.646 236.123c15.058-.18 19.315 1.751 32.576 3.205m-32.109-8.068c9.561-5.946 16.284-3.45 22.381-7.696m-24.154 17.699c6.52 6.349 11.51 4.12 17.167 9.492" class="D E"/><path d="M412.483 184.802c1.955 6.672 4.948 12.704 2.046 20.33 3.122-2.311 7.015-3.141 10.425-2.286-6.76 10.343-5.287 16.363-11.193 21.26l-6.456 5.353-11.623-1.207-3.977-6.436c-3.363-5.443.089-11.555-2.087-22.639 3.614-.126 6.474.39 8.522 3.238 2.045-7.695 7.765-14.127 14.341-17.613z" class="F"/><path d="M397.937 225.93c-3.05-7.209-.338-14.167-4.238-22.242m12.223 23.73c7.743-7.821 7.297-14.944 13.018-20.705m-16.848 19.266c4.91-13.066 3.728-23.04 8.243-34.519m-15.936 38.486c-6.485-7.138-12.126-5.158-18.639-11.082m17.046 19.542c-9.311 3.696-12.383 1.45-22.346 7.319m21.225-11.364c-14.086-3.851-19.894-1.206-32.749-3.538" class="D E"/><path d="M390.508 235.015a10.03 10.03 0 0 0 10.025 10.025c5.537 0 10.025-4.488 10.025-10.025s-4.488-10.025-10.025-10.025a10.03 10.03 0 0 0-10.025 10.025z" class="G I"/><path d="M504.972 247.023c6.884-9.763 12.592-16.066 33.637-17.877-7.2-10.824-22.194-13.957-31.947-4.08-.923-2.704-1.492-3.584-4.07-6.081-2.299 7.049-12.539 12.374-8.476 24.997l3.992 12.404z" class="F"/><path d="M500.917 252.583c.613-5.162-1.164-9.819-.847-13.962.58-7.583 3.065-10.08 2.736-14.051" class="D E"/><path d="M465.457 243.891c1.565 5.769 4.076 11.078 8.657 13.477-2.445 1.937-3.552 4.794-4.433 8.438 0 0 10.52-.846 15.1.2 5.23 1.194 9.235-1.053 10.093-1.896l4.936-9.74c-3.797-6.772-4.544-10.491-7.389-14.177-2.84-3.68-7.486-6.913-10.859-9.803-1.48 3.395-2.326 6.361-1.62 9.606-4.873-1.528-9.905.678-14.485 3.895z" class="F"/><path d="M497.219 258.812c-8.186-6.619-15.68-7.827-25.534-13.418m26.95 9.752c-3.58-6.021-10.948-9.377-14.925-18.743m12.364 25.815c-7.042.964-11.312-3.118-19.736-.063" class="D E"/><path d="M494.875 264.11a9.91 9.91 0 0 0 4.408 1.027c5.495 0 9.95-4.455 9.95-9.95 0-3.38-1.685-6.366-4.261-8.164-5.394 3.559-9.329 10.791-10.097 17.087z" class="G I"/><use xlink:href="#B" x="-125.997" y="156.483" class="H"/><path d="M104.225 348.698c0 6.898 37.441 20.925 170.775 20.925s170.775-14.027 170.775-20.925S408.334 327.773 275 327.773 104.225 341.8 104.225 348.698z" class="G"/><g class="D E"><path d="M125.421 339.528v18.341" stroke-width="5.5"/><path d="M131.859 338.039v21.319" class="K"/><path d="M138.296 337.062v23.273" stroke-width="5"/><path d="M144.733 335.852v25.692" class="L"/><path d="M151.17 334.782v27.832" stroke-width="4.5"/><path d="M157.608 333.852v29.693" class="M"/><path d="M164.045 332.922v31.553" stroke-width="4"/><path d="M170.482 332.131v33.135" class="N"/><path d="M176.919 331.619v34.159" stroke-width="3.5"/><path d="M183.357 331.014v35.368" class="O"/><path d="M189.794 330.084v37.229" class="J"/><path d="M196.231 329.572v38.252" class="P"/><path d="M202.669 329.339v38.718" stroke-width="2.5"/><path d="M209.106 328.781v39.834" class="Q"/><path d="M215.543 328.316v40.765" stroke-width="2"/><path d="M221.98 328.037v41.323" class="R"/><path d="M228.418 327.618v42.16" stroke-width="1.5"/><path d="M234.855 327.339v42.719" class="S"/><path d="M241.292 326.501v44.394"/><path d="M247.729 326.501v44.394" stroke-width=".75"/><path d="M254.167 326.501v44.394" stroke-width=".5"/><path d="M260.604 326.501v44.394" stroke-width=".25"/><path d="M112.547 343.947v9.502" stroke-width="6"/><path d="M118.984 341.574v14.248" class="T"/><path d="M424.579 339.528v18.341" stroke-width="5.5"/><path d="M418.141 338.039v21.319" class="K"/><path d="M411.704 337.062v23.273" stroke-width="5"/><path d="M405.267 335.852v25.692" class="L"/><path d="M398.83 334.782v27.832" stroke-width="4.5"/><path d="M392.392 333.852v29.693" class="M"/><path d="M385.955 332.922v31.553" stroke-width="4"/><path d="M379.518 332.131v33.135" class="N"/><path d="M373.081 331.619v34.159" stroke-width="3.5"/><path d="M366.643 331.014v35.368" class="O"/><path d="M360.206 330.084v37.229" class="J"/><path d="M353.769 329.572v38.252" class="P"/><path d="M347.331 329.339v38.718" stroke-width="2.5"/><path d="M340.894 328.781v39.834" class="Q"/><path d="M334.457 328.316v40.765" stroke-width="2"/><path d="M328.02 328.037v41.323" class="R"/><path d="M321.582 327.618v42.16" stroke-width="1.5"/><path d="M315.145 327.339v42.719" class="S"/><path d="M308.708 326.501v44.394"/><path d="M302.271 326.501v44.394" stroke-width=".75"/><path d="M295.833 326.501v44.394" stroke-width=".5"/><path d="M289.396 326.501v44.394" stroke-width=".25"/><path d="M437.453 343.947v9.502" stroke-width="6"/><path d="M431.016 341.574v14.248" class="T"/></g><g class="F"><path d="M466.107 309.064c0 10.34-24.162 17.019-57.01 21.251H140.903c-32.849-4.232-57.01-10.911-57.01-21.251 0-23.313 122.823-28.016 191.107-28.016s191.107 4.703 191.107 28.016zm-370.492 0c0 2.281 41.137 17.988 179.385 17.988s179.385-15.706 179.385-17.988S413.248 291.076 275 291.076 95.615 306.782 95.615 309.064z"/><path d="M376.697 330.311l67.855 14.837c2.538-12.255 6.505-22.804 12.908-33.941 0-9.429-73.228-20.924-182.46-20.924S92.54 301.779 92.54 311.207c6.403 11.137 10.37 21.686 12.908 33.941l67.855-14.837z"/></g><path d="M154.94 306.039l35.129-3.359c3.525-.337 6.633 2.238 6.971 5.774a6.39 6.39 0 0 1-5.753 6.991l-35.129 3.359c-3.525.337-6.633-2.238-6.971-5.774a6.39 6.39 0 0 1 5.753-6.991z" fill="#008f4c" class="I"/><g class="H"><use xlink:href="#F"/><use xlink:href="#F" x="93.724" y="-8.478"/></g><path d="M255.881 299.592h38.138l10.01 6.685-10.01 6.685h-38.138l-9.91-6.685z" class="G"/><path d="M294.119 299.592l-9.16 5.982 9.16 7.387m-38.238-13.369l9.16 5.982-9.16 7.387m-9.91-6.684l19.07-.702h19.918l19.07.702" class="D E"/><path d="M93.88 327.308l2.628-8.571 14.068 1.924-8.554 11.418z" class="G"/><path d="M93.88 327.308l16.696-6.647" class="D E"/><path d="M395.06 306.039l-35.129-3.359c-3.525-.337-6.633 2.238-6.971 5.774a6.39 6.39 0 0 0 5.753 6.991l35.129 3.359c3.525.337 6.634-2.238 6.971-5.774a6.39 6.39 0 0 0-5.753-6.991z" fill="#008f4c" class="I"/><g class="H"><use xlink:href="#G"/><use xlink:href="#G" x="-93.724" y="-8.478"/></g><path d="M456.12 327.308l-2.628-8.571-14.068 1.924 8.554 11.418z" class="G"/><path d="M456.12 327.308l-16.696-6.647" class="D E"/><path d="M109.581 348.698c0-2.154 38.738-16.566 165.419-16.566s165.419 14.412 165.419 16.566S401.681 365.264 275 365.264s-165.419-14.412-165.419-16.566zm-10.81 0c0-21.985 117.737-25.802 176.228-25.802s176.228 3.817 176.228 25.802S333.492 374.5 275 374.5s-176.228-3.817-176.228-25.802z" class="F I"/><path d="M25.5 360.5V710c0 137.724 111.776 249.5 249.5 249.5S524.5 847.724 524.5 710V360.5z" class="G"/><path d="M132.437 748.562c-13.921 0-26.535 4.315-35.656 11.281s-21.705 11.25-35.625 11.25c-11.16 0-21.493-2.751-29.844-7.438C55.887 875.612 155.7 959.5 275 959.5s219.113-83.888 243.688-195.844c-8.351 4.687-18.684 7.438-29.844 7.438-13.92 0-26.504-4.284-35.625-11.25s-21.736-11.281-35.656-11.281-26.503 4.315-35.625 11.281-21.736 11.25-35.656 11.25-26.504-4.284-35.625-11.25-21.737-11.281-35.656-11.281-26.534 4.315-35.656 11.281-21.705 11.25-35.625 11.25-26.534-4.284-35.656-11.25-21.704-11.281-35.625-11.281z" class="H"/><path d="M132.437 790.75c-13.921 0-26.535 4.315-35.656 11.281s-21.705 11.25-35.625 11.25c-4.843 0-9.536-.527-13.969-1.5 6.778 15.137 15.005 29.481 24.531 42.844 9.679-1.576 18.317-5.254 25.062-10.406 9.121-6.966 21.735-11.281 35.656-11.281s26.503 4.315 35.625 11.281 21.735 11.25 35.656 11.25 26.503-4.284 35.625-11.25S261.08 832.937 275 832.937s26.535 4.315 35.656 11.281 21.706 11.25 35.625 11.25 26.534-4.284 35.656-11.25 21.705-11.281 35.625-11.281 26.535 4.315 35.656 11.281c6.746 5.152 15.383 8.83 25.062 10.406 9.526-13.362 17.754-27.707 24.531-42.844-4.433.973-9.126 1.5-13.969 1.5-13.92 0-26.504-4.284-35.625-11.25s-21.736-11.281-35.656-11.281-26.503 4.315-35.625 11.281-21.736 11.25-35.656 11.25-26.504-4.284-35.625-11.25-21.736-11.28-35.655-11.28-26.534 4.315-35.656 11.281-21.705 11.25-35.625 11.25-26.534-4.284-35.656-11.25-21.704-11.281-35.625-11.281zm0 84.375c-13.392 0-25.568 3.996-34.594 10.5a250.95 250.95 0 0 0 38.562 31.812c12.337.734 23.41 4.86 31.656 11.157 9.122 6.966 21.735 11.25 35.656 11.25s26.503-4.284 35.625-11.25S261.08 917.312 275 917.312s26.535 4.315 35.656 11.281 21.706 11.25 35.625 11.25 26.534-4.284 35.656-11.25c8.246-6.297 19.32-10.422 31.656-11.156 13.902-9.311 26.825-19.973 38.562-31.812-9.026-6.504-21.203-10.5-34.594-10.5-13.92 0-26.503 4.315-35.625 11.281s-21.736 11.25-35.656 11.25-26.504-4.284-35.625-11.25-21.737-11.281-35.656-11.281-26.534 4.315-35.656 11.281-21.705 11.25-35.625 11.25-26.534-4.284-35.656-11.25-21.704-11.281-35.625-11.281z" fill="#0071bc"/><path d="M275 400.667l-14.828 73.388-3.857.751c-11.324-34.541-33.994-24.909-42.33-62.017-8.793 34.154 15.845 36.05 14.828 73.188-1.422.888-2.792 1.84-4.158 2.805l-62.417-41.428 41.428 62.467c-.753 1.065-1.448 2.157-2.154 3.256-32.465-16.458-41.692 6.377-73.839-13.976 17.939 30.378 36.663 14.311 62.217 41.328-.373 1.616-.67 3.26-.952 4.909L115.5 560.167l73.438 14.828a86.87 86.87 0 0 0 .751 3.857c-34.541 11.324-24.909 33.994-62.017 42.33 34.179 8.8 36.022-15.882 73.238-14.828a87.2 87.2 0 0 0 2.755 4.158l-41.428 62.417 62.417-41.428c1.072.758 2.149 1.494 3.256 2.204-16.428 32.44 6.421 41.652-13.926 73.789 30.378-17.939 14.261-36.663 41.278-62.217 1.615.374 3.261.669 4.909.952L275 719.667l14.828-73.438a86.53 86.53 0 0 0 3.907-.751c11.324 34.532 33.995 24.911 42.33 62.017 8.801-34.185-15.892-36.003-14.828-73.238 1.403-.877 2.759-1.802 4.108-2.755l62.468 41.428-41.428-62.367c.767-1.084 1.486-2.186 2.204-3.306 32.433 16.419 41.655-6.419 73.789 13.926-17.939-30.378-36.663-14.261-62.217-41.278.374-1.617.669-3.259.952-4.909l73.388-14.828-73.388-14.828a86.74 86.74 0 0 0-.751-3.908c34.533-11.324 24.911-33.994 62.017-42.33-34.164-8.796-36.019 15.86-73.188 14.828-.889-1.424-1.837-2.789-2.805-4.158l41.428-62.417-62.418 41.428a86.87 86.87 0 0 0-3.256-2.204c16.41-32.425-6.417-41.658 13.926-73.789-30.368 17.933-14.249 36.726-41.228 62.267-1.653-.383-3.322-.714-5.009-1.002z" class="F"/><path d="M354.368 560.16c0 43.823-35.526 79.349-79.349 79.349s-79.349-35.526-79.349-79.349 35.525-79.349 79.349-79.349 79.35 35.526 79.35 79.349z" class="D"/><path d="M266.514 530.923c-9.899-13.886-37.643-14.553-55.035 6.272 18.003-14.751 37.482-15.229 55.035-6.272z"/><path d="M221.75 547.343c13.472-11.241 26.058-9.565 35.166.801-9.938 6.698-23.636 6.524-35.166-.801z" class="D"/><path d="M246.547 546.341c0 3.569-2.893 6.462-6.462 6.462s-6.462-2.893-6.462-6.462 2.893-6.462 6.462-6.462 6.462 2.893 6.462 6.462z"/><path d="M215.438 546.391c11.284-13.486 29.452-12.877 36.303-8.181 4.573 3.135 7.211 6.263 11.888 7.279m-43.482 6.312c21.44 11.13 31.287 5.296 40.711-1.268m2.771 23.81c8.415-11.011 9.036-35.245 2.885-43.42m-9.798 45.224c-9.24 7.631 5.708 16.324 8.381 6.186.977 3.25 5.458 5.169 10.006 5.169s9.029-1.919 10.006-5.169c2.673 10.138 17.621 1.445 8.381-6.186m-44.336 32.28c20.896-3.727 17.523.054 25.949.054s5.053-3.782 25.949-.054" class="D E"/><path d="M283.692 530.923c9.899-13.886 37.643-14.553 55.035 6.272-18.003-14.751-37.482-15.229-55.035-6.272z"/><path d="M328.456 547.343c-13.472-11.241-26.058-9.565-35.166.801 9.938 6.698 23.636 6.524 35.166-.801z" class="D"/><path d="M303.66 546.341c0 3.569 2.893 6.462 6.462 6.462s6.462-2.893 6.462-6.462-2.893-6.462-6.462-6.462-6.462 2.893-6.462 6.462z"/><g class="D"><path d="M334.768 546.391c-11.284-13.486-29.452-12.877-36.303-8.181-4.573 3.135-7.211 6.263-11.888 7.279m43.482 6.312c-21.44 11.13-31.287 5.296-40.711-1.268m-2.77 23.81c-8.415-11.011-9.036-35.245-2.885-43.42" class="E"/><path d="M301.052 608.427c-9.207-4.883-11.969-14.723-25.949-8.303-13.98-6.42-16.742 3.42-25.949 8.303 15.849.848 11.606 10.209 25.949 10.209s10.1-9.361 25.949-10.209z"/><path d="M26.5 361.5V710c0 137.172 111.328 248.5 248.5 248.5S523.5 847.172 523.5 710V361.5z" class="J"/></g></g></g><defs ><path id="B" d="M229.707 100.425c0 4.299-3.485 7.783-7.783 7.783s-7.783-3.485-7.783-7.783 3.485-7.783 7.783-7.783 7.783 3.485 7.783 7.783z"/><path id="C" d="M189.99 83.289c-58.73 8.265-67.559 61.293-37.213 98.714l-11.164 18.135 7.24 1.157 15.274-19.726c-38.556-45.665-16.695-84.587 27.063-89.803 31.409-3.744 51.936 13.675 83.81 10.512v-8.476c-24.666 3.635-57.285-14.414-85.01-10.512z"/><path id="D" d="M141.613 200.138l14.475-18.511c-27.841-29.776-24.557-82.969 20.634-95.507-77.271 17.893-51.428 72.899-52.519 102.232z"/><path id="E" d="M331.852 245.994c0 4.299 3.485 7.783 7.783 7.783s7.783-3.485 7.783-7.783-3.485-7.783-7.783-7.783-7.783 3.485-7.783 7.783z"/><path id="F" d="M136.34 315.954c0 4.308-3.488 7.801-7.791 7.801s-7.791-3.493-7.791-7.801 3.488-7.801 7.791-7.801 7.791 3.493 7.791 7.801z"/><path id="G" d="M413.66 315.954c0 4.308 3.488 7.801 7.791 7.801s7.791-3.493 7.791-7.801-3.488-7.801-7.791-7.801-7.791 3.493-7.791 7.801z"/></defs></svg>