<svg xmlns="http://www.w3.org/2000/svg" xmlns:xlink="http://www.w3.org/1999/xlink" viewBox="0 0 627.18 210.36"><g fill="#cc0935"><path d="M227.58 45.27c-2.86-4.9-6.88-8.75-12.07-11.55s-11.32-4.2-18.38-4.2h-21.26v65.19h21.26c7.06 0 13.18-1.4 18.38-4.2 5.19-2.8 9.22-6.66 12.07-11.59 2.86-4.93 4.29-10.54 4.29-16.84s-1.43-11.9-4.29-16.8h0zm-11.86 27.77c-1.72 3.12-4.13 5.54-7.22 7.26s-6.77 2.58-11.02 2.58h-8.05V41.33h8.05c4.26 0 7.93.85 11.02 2.54s5.5 4.08 7.22 7.18c1.72 3.09 2.58 6.77 2.58 11.02s-.86 7.86-2.58 10.98h0zm22.17-26.11h13.13v47.78h-13.13zm72.43 36.49c2.13-3.79 3.19-7.99 3.19-12.6s-1.08-8.88-3.24-12.64-5.08-6.75-8.75-8.97-7.79-3.33-12.34-3.33c-3.5 0-6.61.66-9.32 1.97-2.11 1.02-3.87 2.38-5.29 4.06v-4.98h-12.25v65.28h13.13V90.98a16.24 16.24 0 0 0 4.59 2.99c2.77 1.19 5.79 1.79 9.06 1.79 4.67 0 8.84-1.11 12.51-3.32 3.68-2.22 6.58-5.22 8.71-9.01h0zm-11.94-5.78c-1.05 1.98-2.51 3.53-4.38 4.64s-4.02 1.66-6.48 1.66-4.42-.55-6.26-1.66-3.27-2.65-4.29-4.64c-1.02-1.98-1.53-4.26-1.53-6.83s.51-4.84 1.53-6.82 2.45-3.53 4.29-4.64 3.92-1.66 6.26-1.66 4.61.57 6.48 1.71 3.32 2.68 4.38 4.64c1.05 1.95 1.57 4.21 1.57 6.78s-.53 4.84-1.57 6.83h0zm30.14 15.62c2.71 1.66 5.99 2.49 9.84 2.49 3.33 0 6.23-.69 8.71-2.06 2.03-1.12 3.57-2.77 4.68-4.88v5.89H364V46.92h-13.13v27.91c0 1.81-.37 3.4-1.09 4.77-.73 1.37-1.75 2.44-3.06 3.19s-2.84 1.14-4.59 1.14-3.21-.38-4.55-1.14a7.83 7.83 0 0 1-3.11-3.19c-.73-1.37-1.09-2.96-1.09-4.77V46.92h-13.13v28.96c0 3.97.7 7.44 2.1 10.41s3.46 5.29 6.17 6.96h0zm49.92-15.79c0 5.6 1.59 9.96 4.77 13.08s7.66 4.68 13.43 4.68a29.37 29.37 0 0 0 3.15-.18l2.97-.35V83.59l-1.66.17c-.53.06-.99.09-1.4.09-1.81 0-3.32-.26-4.55-.79s-2.13-1.33-2.71-2.41-.87-2.43-.87-4.07V58.29h11.2V46.91h-11.2V36.06h-13.13v3.5c0 2.45-.66 4.29-1.97 5.51s-3.19 1.84-5.64 1.84h-.44v11.38h8.05v19.18zm79.3 6.74h-3.52a1.73 1.73 0 0 1-1.73-1.73V63.21c0-3.44-.86-6.46-2.58-9.06-1.72-2.59-4.13-4.62-7.22-6.08s-6.65-2.19-10.67-2.19c-3.38 0-6.51.53-9.36 1.58-2.86 1.05-5.31 2.54-7.35 4.46-2.04 1.93-3.53 4.23-4.46 6.91l10.5 4.99c.82-2.1 2.11-3.79 3.89-5.07s3.84-1.93 6.17-1.93c2.45 0 4.39.61 5.82 1.84s2.14 2.74 2.14 4.55v1.28l-13.21 2.14c-3.79.58-6.96 1.58-9.49 2.98-2.54 1.4-4.42 3.14-5.64 5.21-1.23 2.07-1.84 4.45-1.84 7.13 0 2.86.67 5.32 2.01 7.39s3.27 3.66 5.77 4.77c2.51 1.11 5.48 1.66 8.93 1.66 2.57 0 4.9-.34 7-1.01s4-1.69 5.69-3.06c.75-.61 1.46-1.3 2.16-2.05 1.08 2.95 3.89 5.06 7.21 5.06h9.8v-10.5h-.02zm-19.73-3.28a10.03 10.03 0 0 1-3.81 3.81c-1.63.93-3.53 1.4-5.69 1.4-1.63 0-3-.41-4.11-1.23s-1.66-1.95-1.66-3.41c0-1.58.49-2.78 1.49-3.63.99-.85 2.42-1.44 4.29-1.79l10.85-1.94v1.5c0 1.93-.45 3.69-1.36 5.29h0zm35.6 11.54c3.82 2.19 8.12 3.28 12.91 3.28 3.62 0 6.94-.63 9.98-1.88 3.03-1.25 5.63-2.99 7.79-5.21s3.68-4.72 4.55-7.52l-11.38-4.99c-.82 2.39-2.19 4.29-4.11 5.69s-4.2 2.1-6.83 2.1c-2.27 0-4.3-.55-6.08-1.66s-3.18-2.65-4.2-4.64c-1.02-1.98-1.53-4.26-1.53-6.83s.51-4.84 1.53-6.82 2.42-3.53 4.2-4.64 3.81-1.66 6.08-1.66c2.57 0 4.83.7 6.78 2.1s3.34 3.3 4.16 5.69l11.38-4.9c-.93-2.98-2.48-5.56-4.64-7.74-2.16-2.19-4.76-3.89-7.79-5.12s-6.33-1.84-9.89-1.84c-4.78 0-9.1 1.08-12.95 3.24s-6.88 5.12-9.1 8.88-3.32 8.01-3.32 12.73 1.12 8.98 3.37 12.77c2.24 3.79 5.28 6.78 9.1 8.97h0zM515 46.93h13.13v47.78H515zm61.02-23.97h-16.89l-5.07 15.75h12.86l9.1-15.75zm-2.63 69.56c3.85-2.16 6.93-5.12 9.23-8.88s3.46-8.04 3.46-12.82-1.15-9.13-3.46-12.86c-2.3-3.73-5.38-6.68-9.23-8.84s-8.14-3.24-12.86-3.24-9.03 1.08-12.91 3.24-6.97 5.1-9.27 8.84c-2.3 3.73-3.46 8.02-3.46 12.86s1.15 9.06 3.46 12.82c2.3 3.76 5.4 6.72 9.27 8.88 3.88 2.16 8.18 3.24 12.91 3.24s9.01-1.08 12.86-3.24zm-23.41-14.88c-1.02-1.98-1.53-4.26-1.53-6.83s.51-4.83 1.53-6.78 2.44-3.5 4.24-4.64c1.81-1.14 3.91-1.71 6.3-1.71s4.48.57 6.26 1.71 3.18 2.68 4.2 4.64c1.02 1.95 1.53 4.21 1.53 6.78s-.51 4.84-1.53 6.83c-1.02 1.98-2.42 3.53-4.2 4.64s-3.86 1.66-6.26 1.66-4.49-.55-6.3-1.66-3.22-2.65-4.24-4.64zm-335.87 62.13c-1.58-1.96-3.52-3.59-5.86-4.87-3.03-1.66-6.51-2.49-10.41-2.49-4.49 0-8.49 1.08-11.99 3.24s-6.29 5.09-8.36 8.79-3.11 7.92-3.11 12.64 1.02 8.78 3.06 12.51 4.84 6.68 8.4 8.84 7.55 3.24 11.99 3.24c3.85 0 7.34-.83 10.46-2.49 2.52-1.34 4.53-3.2 6.08-5.51v6.95h7.96v-66.24h-8.23v25.39h.01zm-2.06 25.85c-1.37 2.54-3.24 4.54-5.6 5.99-2.36 1.46-5 2.19-7.92 2.19s-5.63-.73-7.96-2.19-4.17-3.46-5.51-5.99c-1.34-2.54-2.01-5.38-2.01-8.53s.67-6.07 2.01-8.58 3.19-4.49 5.56-5.95c2.36-1.46 5-2.19 7.92-2.19s5.56.73 7.92 2.19 4.23 3.44 5.6 5.95 2.06 5.37 2.06 8.58-.69 5.99-2.06 8.53h-.01zm57.93-26.26c-1.9-2.13-4.2-3.82-6.91-5.07s-5.82-1.88-9.32-1.88c-4.38 0-8.28 1.07-11.73 3.19-3.44 2.13-6.18 5.03-8.23 8.71-2.04 3.68-3.06 7.88-3.06 12.6s1.02 8.88 3.06 12.64 4.86 6.72 8.44 8.88c3.59 2.16 7.66 3.24 12.21 3.24 3.21 0 6.15-.53 8.84-1.58 2.68-1.05 5-2.46 6.96-4.24 1.95-1.78 3.4-3.75 4.33-5.91l-6.82-3.5a17.26 17.26 0 0 1-5.25 5.6c-2.16 1.46-4.81 2.19-7.96 2.19-2.86 0-5.5-.71-7.92-2.14s-4.29-3.44-5.6-6.04c-.98-1.94-1.53-4.11-1.65-6.52h36.08a58.87 58.87 0 0 0 .31-2.27 18.6 18.6 0 0 0 .13-2.19 23.75 23.75 0 0 0-1.53-8.44c-1.02-2.71-2.48-5.13-4.38-7.26h0zm-23.76 2.44c2.28-1.43 4.78-2.14 7.53-2.14s5.19.7 7.35 2.1 3.79 3.3 4.9 5.69c.71 1.53 1.03 3.2 1.05 4.99h-27.48c.24-1.69.68-3.24 1.37-4.64 1.25-2.57 3.02-4.56 5.29-5.99h0zm69.87-16.22c3.53-2.16 7.57-3.24 12.12-3.24s8.34 1.12 11.55 3.37 5.57 5.21 7.09 8.88l7.88-3.67c-1.05-2.86-2.82-5.54-5.29-8.05-2.48-2.51-5.51-4.55-9.1-6.13-3.59-1.57-7.63-2.36-12.12-2.36s-8.94.83-12.82 2.49-7.25 4.01-10.11 7.04-5.09 6.59-6.69 10.68c-1.61 4.08-2.41 8.57-2.41 13.48s.8 9.31 2.41 13.39c1.6 4.08 3.83 7.64 6.69 10.68a29.82 29.82 0 0 0 10.15 7.04c3.91 1.66 8.17 2.49 12.77 2.49s8.53-.79 12.12-2.36 6.62-3.62 9.1-6.12c2.48-2.51 4.24-5.19 5.29-8.05l-7.88-3.59a19.89 19.89 0 0 1-7.09 8.79c-3.21 2.25-7.06 3.37-11.55 3.37s-8.59-1.08-12.12-3.24-6.29-5.16-8.27-9.01-2.98-8.31-2.98-13.39.99-9.63 2.98-13.48c1.98-3.85 4.74-6.85 8.27-9.01h.01zm84.7 45.91v-22.9c0-3.15-.77-5.95-2.32-8.4s-3.69-4.36-6.43-5.73-5.92-2.06-9.54-2.06c-2.8 0-5.48.5-8.05 1.49s-4.81 2.35-6.74 4.07-3.32 3.66-4.2 5.82l7.09 3.68c.99-2.22 2.52-4.03 4.59-5.43s4.45-2.1 7.13-2.1c3.09 0 5.57.8 7.44 2.41 1.87 1.6 2.8 3.69 2.8 6.26v2.16l-16.01 2.65c-3.5.58-6.4 1.58-8.71 2.98-2.3 1.4-4.01 3.11-5.12 5.12s-1.66 4.27-1.66 6.78.67 4.94 2.01 6.96c1.34 2.01 3.21 3.59 5.6 4.73s5.13 1.71 8.23 1.71c2.68 0 5.15-.39 7.39-1.18s4.23-1.9 5.95-3.33c.98-.82 1.84-1.7 2.58-2.65a6.11 6.11 0 0 0 6.11 6.1h7.1v-7.26h-3.38c-1.03 0-1.87-.84-1.87-1.87h.01zm-10.06-3.74c-1.23 2.16-2.93 3.87-5.12 5.12-2.19 1.26-4.77 1.88-7.74 1.88-2.33 0-4.27-.64-5.82-1.93-1.55-1.28-2.32-2.89-2.32-4.81 0-2.04.68-3.75 2.06-5.12 1.37-1.37 3.57-2.32 6.61-2.84l14.18-2.47v3.08c0 2.57-.61 4.93-1.84 7.09h0zm45.49-13.38l-7.7-2.27a28.96 28.96 0 0 1-2.89-1.09c-.99-.44-1.84-1.08-2.54-1.92-.7-.85-1.05-1.91-1.05-3.19 0-1.87.7-3.38 2.1-4.55s3.29-1.75 5.69-1.75c2.63 0 4.99.7 7.09 2.1s3.67 3.32 4.72 5.77l6.65-3.06c-1.4-3.79-3.75-6.74-7.04-8.84-3.3-2.1-7.02-3.15-11.16-3.15-3.09 0-5.88.58-8.36 1.75s-4.43 2.79-5.86 4.86-2.14 4.51-2.14 7.31c0 3.03.98 5.7 2.93 8.01 1.95 2.3 5.03 4.04 9.23 5.2l7.09 2.01c.99.23 2.03.6 3.11 1.09 1.08.5 2.01 1.17 2.8 2.01.79.85 1.18 1.97 1.18 3.37 0 1.98-.85 3.59-2.54 4.81s-3.79 1.84-6.3 1.84a13.31 13.31 0 0 1-7.79-2.45c-2.33-1.63-4.17-3.85-5.51-6.65l-6.56 3.15c1.52 3.97 4.02 7.12 7.53 9.45 3.5 2.33 7.61 3.5 12.34 3.5 3.38 0 6.36-.58 8.93-1.75s4.58-2.8 6.04-4.9 2.19-4.46 2.19-7.09c0-3.27-1.07-6.07-3.19-8.4-2.13-2.33-5.12-4.05-8.97-5.16h-.02zm41.42 19.34c-1.92 0-3.47-.34-4.64-1.01s-2-1.59-2.49-2.76c-.5-1.17-.74-2.54-.74-4.11v-24.59h10.59v-7.79h-10.59V122.6h-8.23v3.85c0 2.1-.6 3.79-1.79 5.08-1.2 1.28-2.84 1.93-4.94 1.93h-1.75v7.79h8.49v24.85c0 4.78 1.25 8.49 3.76 11.11s6.07 3.94 10.68 3.94c.64 0 1.43-.04 2.36-.13s1.78-.22 2.54-.39v-7.18l-1.71.18a16.11 16.11 0 0 1-1.53.09h0zm48.6-34.35c-1.9-2.13-4.2-3.82-6.91-5.07s-5.82-1.88-9.32-1.88c-4.38 0-8.28 1.07-11.73 3.19-3.44 2.13-6.18 5.03-8.23 8.71-2.04 3.68-3.06 7.88-3.06 12.6s1.02 8.88 3.06 12.64 4.86 6.72 8.44 8.88c3.59 2.16 7.66 3.24 12.21 3.24 3.21 0 6.15-.53 8.84-1.58 2.68-1.05 5-2.46 6.96-4.24 1.95-1.78 3.4-3.75 4.33-5.91l-6.82-3.5a17.26 17.26 0 0 1-5.25 5.6c-2.16 1.46-4.81 2.19-7.96 2.19-2.86 0-5.5-.71-7.92-2.14s-4.29-3.44-5.6-6.04c-.98-1.94-1.53-4.11-1.65-6.52h36.08a58.87 58.87 0 0 0 .31-2.27 18.6 18.6 0 0 0 .13-2.19 23.75 23.75 0 0 0-1.53-8.44c-1.02-2.71-2.48-5.13-4.38-7.26h0zm-23.76 2.44c2.28-1.43 4.78-2.14 7.53-2.14s5.19.7 7.35 2.1 3.79 3.3 4.9 5.69c.71 1.53 1.03 3.2 1.05 4.99h-27.48c.24-1.69.68-3.24 1.37-4.64 1.25-2.57 3.02-4.56 5.29-5.99h-.01zm39.66-27.42h8.23v66.24h-8.23zm19.25 0h8.23v66.24h-8.23zm55.39-3.59h-11.03l-6.91 13.83h8.14l9.8-13.83zm7.22 33.52c-2.13-3.67-5.03-6.58-8.71-8.71s-7.82-3.19-12.42-3.19-8.66 1.08-12.34 3.24-6.59 5.07-8.75 8.75c-2.16 3.67-3.24 7.87-3.24 12.6s1.09 8.96 3.28 12.69 5.12 6.67 8.79 8.79c3.67 2.13 7.76 3.19 12.25 3.19s8.56-1.06 12.21-3.19 6.58-5.05 8.79-8.75c2.22-3.7 3.32-7.95 3.32-12.73s-1.07-9.01-3.19-12.69h.01zm-7.53 21.26c-1.37 2.57-3.24 4.58-5.6 6.04s-5.03 2.19-8.01 2.19-5.56-.73-7.92-2.19-4.24-3.47-5.64-6.04c-1.4-2.56-2.1-5.42-2.1-8.57s.7-5.98 2.1-8.49 3.28-4.49 5.64-5.95 5-2.19 7.92-2.19 5.64.73 8.01 2.19c2.36 1.46 4.23 3.44 5.6 5.95s2.06 5.34 2.06 8.49-.69 6.01-2.06 8.57z"/><use xlink:href="#B"/><use xlink:href="#B" x="277.11"/><path d="M119.06 117.55L0 31.43v4.99c0 8.02 3.9 15.57 10.49 20.34l119.06 86.22v-5.08c0-8.03-3.89-15.58-10.49-20.35h0zm-70.32 79.5l16.09 13.31 16.1-13.31v-.01H48.74v.01zM113.42 0L97.28 13.56V29.7H80.91V13.56L64.78 0 48.65 13.56V29.7H32.28V13.56L16.14 0 .38 13.25l44.85 32.58h84.32V32.54 29.7 13.56L113.42 0zm5.64 153.39L0 67.27v4.99c0 8.02 3.89 15.57 10.48 20.34l119.06 86.22v-5.08c0-8.03-3.89-15.58-10.49-20.35h0zm-14.39 25.43l-62.71-45.37-.08-.06h0L0 103.1v4.99c0 8.02 3.89 15.57 10.48 20.34l23.57 17.07h0l50.31 36.47H109l-4.37-3.16h.03zm-49.49 0h0l-13.7-9.91-3.64-2.64h0L0 138.9v4.99c0 8.02 3.89 15.57 10.48 20.34l15.63 11.32-.03.02 8.83 6.4h24.64l-4.37-3.16h0z"/></g><defs ><path id="B" d="M244.5 38.97c2.35 0 4.3-.77 5.84-2.32 1.54-1.54 2.32-3.46 2.32-5.74s-.77-4.18-2.32-5.69c-1.54-1.51-3.49-2.27-5.84-2.27s-4.31.76-5.89 2.27-2.37 3.41-2.37 5.69.79 4.2 2.37 5.74 3.54 2.32 5.89 2.32z"/></defs></svg>