<svg xmlns="http://www.w3.org/2000/svg" viewBox="0 0 2136 512"><path d="M1725 14.224c.37 4.146-1.022 8.279-3.869 11.489s-6.918 5.233-11.315 5.625-8.761-.878-12.132-3.533-5.473-6.475-5.843-10.622 1.022-8.279 3.869-11.489 6.918-5.233 11.315-5.625 8.761.878 12.132 3.533 5.473 6.475 5.843 10.622zM1271.926 2.9l-22.087.424c-.559.013-1.005.475-1.005 1.041l.4 64.637c.015 2.058-.716 2.371-2.195.938-14.496-14.062-30.031-22.201-50.632-16.782-53.526 14.084-57.059 104.089-9.101 126.873 12.736 6.048 27.164 6.22 40.162 1.087 7.534-2.984 14.381-8.861 20.509-14.554.892-.831 1.338-.633 1.338.594l-.08 14.554c-.01.396.19.603.594.619l22.11.583a.8.8 0 0 0 .824-.802l-.058-178.434c0-.526-.259-.785-.777-.777zm-57.943 70.893c19.944-.104 36.217 19.793 36.347 44.441s-15.935 44.715-35.88 44.82-36.218-19.794-36.346-44.443 15.935-44.713 35.88-44.818zm264.878-29.394q-15.308-12.861-34.365-14.153c-13.421-.903-28.946 3.247-35.268 16.188q-2.549 5.236-1.543 10.689c2.687 14.439 21.755 20.292 34.022 24.168 29.827 9.443 66.376 23.23 59.871 62.9-3.533 21.527-24.145 35.806-44.643 39.11q-38.915 6.265-71.234-14.805c-4.424-2.881-6.951-4.367-9.603-7.42a1.64 1.64 0 0 1-.023-2.126l13.284-15.776a1.72 1.72 0 0 1 1.167-.604 1.7 1.7 0 0 1 1.245.398c17.709 15.113 41.053 23.036 64.055 17.114 11.889-3.064 21.756-11.226 21.207-24.476-.583-14.245-19.115-22.247-30.673-25.791-28.18-8.654-67.416-21.424-63.529-59.036 2.195-21.115 19.915-36.457 40.15-41.259 25.208-5.979 50.508 1.475 70.971 16.428q.846.617.16 1.406l-14.633 16.988a.44.44 0 0 1-.297.158c-.116.011-.232-.026-.321-.101zM809.79 157.647q.103 1.36 1.463 1.36l74.744.091q.24 0 .229.24l-.377 22.053q-.023 1.372-1.383 1.372l-98.809-.08q-.537 0-.537-.537-.514-70.594-.343-141.177c.011-6.619-.572-18.429.171-27.746a1.48 1.48 0 0 0-.183-.835q-.537-.926.126-1.52.469-.412 1.578-.434 10.964-.171 21.893.046.617.011.617.629.583 72.286.354 144.503c0 .652.423 1.44.457 2.035z" fill="#383737"/><path fill="#d65056" d="M161.228 28.028q199.652-.537 398.87.274 1.006 0 .995 1.006l-.674 61.174q-.011.514-.526.514-220.813.023-441.604.011-.309 0-.594.091c-.419.123-.745.198-.835.194H1.406q-.549 0-.549-.56L.754 29.526q0-1.006 1.017-1.029l159.457-.469z"/><path d="M1098.248 68.921q13.593-15.365 34.137-18.337.457-.057.469.412l.171 23.516q.011 1.795-1.783 1.955c-17.891 1.623-32.856 11.592-37.795 29.164q-1.669 5.91-1.669 19.686-.012 28.226-.4 56.487-.011.583-.594.583l-22.464.114q-.594 0-.594-.594l.011-126.235q0-.743.755-.755l22.704-.286q.686-.011.652.675l-.812 17.766c-.026.536.277 1.035.765 1.258s1.063.129 1.453-.241q2.412-2.252 4.996-5.167zm952.305-1.703c20.247-22.83 54.44-17.651 77.899-3.544a1.69 1.69 0 0 1 .537 2.389l-10.152 15.296q-.343.514-.892.263c-14.313-6.391-30.959-14.633-46.381-4.241-3.212 2.161-6.173 6.162-6.025 10.129.423 11.306 18.474 16.199 28.249 19.195 21.721 6.642 43.637 16.714 41.682 44.026-1.315 18.394-16.702 29.918-33.874 32.765q-33.051 5.487-61.117-13.41c-3.498-2.355-4.287-5.396-1.178-8.448q5.145-5.053 9.386-10.861a1.11 1.11 0 0 1 1.178-.412q2.824.766 6.185 3.292 3.075 2.298 11.284 5.476c9.843 3.807 19.218 5.545 29.232 3.773 6.894-1.212 14.736-6.882 15.422-14.142 1.235-12.953-26.214-20.487-35.246-23.356-13.17-4.184-30.112-13.319-33.336-28.26-2.252-10.403.057-21.95 7.145-29.93zM967.846 51.786a64.78 64.78 0 0 0-14.719 1.737c-24.774 5.842-41.486 27.539-45.488 52.061-6.859 42.059 20.633 83.124 66.579 78.768 54.177-5.122 71.727-73.75 39.763-111.625-11.673-13.826-28.637-20.981-46.135-20.942zm-.668 22.603a36.38 36.38 0 0 1 6.263.489c37.04 6.048 41.511 64.305 12.451 82.276-16.714 10.323-37.67 4.986-47.502-11.968-6.105-10.525-8.231-22.107-6.379-34.743 2.777-18.929 15.657-35.847 35.168-36.054zm636.405-22.628c-9.639-.036-19.301 2.746-27.707 8.677-2.812 1.989-6.838 5.888-10.622 8.346-.386.247-.86.313-1.302.183-1.143-.343-1.487-1.254-1.029-2.733 1.014-3.353 1.391-6.858 1.132-10.517-.03-.407-.364-.722-.766-.721l-22.911-.103c-.511-.008-.766.244-.766.755l.241 162.063a.98.98 0 0 0 .971.982l22.282.23c.343.008.514-.165.514-.516l.011-49.866c0-2.286.748-2.565 2.242-.835 11.074 12.72 24.838 18.352 41.292 16.896 54.737-4.836 65.348-81.5 34.527-115.66-9.985-11.057-24.021-17.129-38.108-17.182zm-5.227 22.244c4.195.086 8.602.997 13.223 2.735 18.2 6.859 23.664 32.776 21.48 50.005-6.231 49.136-66.113 47.204-70.777-1.806-1.395-14.69 1.259-28.362 11.479-39.497 7.168-7.812 15.366-11.625 24.595-11.437zm214.178 110.176c-72.332-8.003-71.657-123.525-.286-131.882q32.273-3.773 54.257 19.32.583.617 1.806 2.892a.96.96 0 0 1-.068 1.017c-2.104 2.927-5.682 4.196-7.843 5.888-2.904 2.286-8.849 9.077-12.518 5.156-18.623-19.881-48.313-14.542-59.756 9.512-13.547 28.466 2.161 70.674 39.132 65.724 9.592-1.28 16.725-7.191 23.23-13.684a3.11 3.11 0 0 1 4.447.057q5.625 5.853 12.553 9.603c4.436 2.401-.549 7.58-2.767 9.626q-21.87 20.132-52.188 16.771zm140.239-132.699a59.64 59.64 0 0 0-13.33 1.755c-38.081 9.42-52.829 51.249-43.786 85.9 13.124 50.279 71.35 58.614 106.858 26.649 1.212-1.09 2.076-2.345 2.595-3.762a.99.99 0 0 0-.183-1.038 77.07 77.07 0 0 0-12.837-11.97c-1.532-1.132-2.367-2.126-3.99-.766-12.37 10.392-24.786 16.519-41.5 13.25-16.382-3.212-24.889-17.503-28.65-32.479-.442-1.753.146-2.617 1.762-2.595 29.602.48 59.36.457 89.274-.069.724-.015 1.119-.38 1.188-1.096 1.155-12.015.482-25.449-3.497-36.538-8.44-23.497-30.156-37.643-53.903-37.24zm.831 21.402c9.43-.324 18.817 3.398 25.144 11.687 4.237 5.541 6.97 12.638 8.197 21.288.046.32-.089.504-.402.549-3.27.48-6.584.903-9.956.88-18.829-.114-37.853.708-56.648-.058a1.37 1.37 0 0 1-1.291-1.623c1.433-7.423 4.614-14.13 9.546-20.12 6.505-7.905 15.98-12.278 25.41-12.602zm-232.734 108.93a.65.65 0 0 1-.652.652h-23.528a.65.65 0 0 1-.652-.652V55.374a.65.65 0 0 1 .652-.652h23.528a.65.65 0 0 1 .652.652z" fill="#383737"/><path fill="#0fa8a7" d="M173.735 177.836c33.416 1.246 69.954 9.5 100.123 23.105 33.611 15.148 57.458 26.511 88.52 32.09 46.22 8.311 97.174.892 138.444-21.344q13.387-7.214 27.632-15.205a1.49 1.49 0 0 1 1.134-.135 1.47 1.47 0 0 1 .889.707q14.45 26.203 30.501 51.445.332.537-.206.869-20.246 12.29-26.671 15.662c-75.887 39.716-162.772 44.517-242.089 12.473-11.844-4.779-27.46-12.793-41.396-18.737q-71.52-30.467-147.224-11.032c-25.071 6.425-48.621 18.394-70 32.81q-.594.4-.972-.217L.629 228.195a1.51 1.51 0 0 1 .526-2.092c12.45-7.248 25.334-15.262 37.486-20.967q63.803-29.952 135.095-27.3z"/><path d="M897.418 412.254h-32.57c-.54 0-1.057-.214-1.439-.596s-.596-.899-.596-1.439v-20.692q0-.709.72-.709l59.688-.126q.4 0 .4.389.24 24.739-.023 49.479c-.126 12.107-2.138 15.182-11.512 21.801-46.929 33.108-113.351 19.984-133.666-37.235-17.937-50.53 8.014-115.694 67.336-121.342 29.575-2.812 56.167 5.648 73.726 30.673a1.98 1.98 0 0 1-.537 2.801c-6.002 3.91-12.575 7.557-17.686 12.381q-.446.423-.88 0c-6.551-6.391-10.712-12.587-18.955-17.137-16.302-8.997-38.721-7.122-54.269 2.321q-10.563 6.413-17.994 19.412-16.874 29.518-5.83 62.306c13.719 40.756 56.681 51.239 91.401 28.775 2.081-1.349 3.407-2.698 3.635-5.373q1.052-12.438-.057-24.877c-.047-.462-.433-.814-.892-.812zm98.82-44.403c3.338-1.955 5.773-6.276 7.694-8.231q12.987-13.204 31.804-14.77a.85.85 0 0 1 .64.227.83.83 0 0 1 .263.619l-.194 24.408q0 .755-.755.732c-19.4-.732-33.885 11.055-39.041 28.741q-1.463 5.042-1.509 13.101-.206 30.947-.343 61.906-.012.492-.503.492l-22.67.183q-.492.011-.492-.492l-.011-126.486c0-.183.143-.332.32-.332h22.533a1.1 1.1 0 0 1 .788.33 1.08 1.08 0 0 1 .309.79l-.583 17.743c-.011.422.207.817.57 1.033s.814.219 1.18.007zm122.226-22.377c-48.963.424-71.561 49.92-56.639 92.458 10.289 29.324 39.155 45.075 69.656 38.959 69.919-14.004 62.774-129.687-10.666-131.401a73.98 73.98 0 0 0-2.351-.016zm-1.061 22.154c10.002-.376 20.013 3.665 26.859 11.517 17.72 20.326 14.829 63.188-12.998 74.048-26.203 10.22-46.725-10.496-49.114-35.212-1.703-17.651 4.699-38.721 21.916-47.044 4.244-2.054 8.79-3.138 13.337-3.309zm318.984-22.219c-2.224.017-4.512.16-6.866.435-13.09 1.532-22.043 8.802-31.829 16.508-.274.211-.648.241-.951.077a.85.85 0 0 1-.443-.832l1.268-12.404a1.07 1.07 0 0 0-.269-.819c-.2-.222-.485-.348-.782-.346l-22.659-.114a.59.59 0 0 0-.594.583v162.932c0 .381.191.572.572.572h22.521c.343 0 .516-.171.516-.514l.411-50.612c.004-.364.226-.69.563-.827s.723-.059.98.199c13.444 13.661 27.506 20.965 47.066 17.215 65.863-12.614 59.436-132.591-9.503-132.053zm-3.95 22c10.413.342 20.586 5.758 26.772 15.487 13.822 21.721 9.923 63.929-19.149 72.206-25.002 7.122-42.71-15.4-44.311-37.784-1.132-15.799 1.898-30.044 13.719-41.145 6.627-6.227 14.871-9.03 22.969-8.764zm-132.33 91.488q-4.882 4.413-9.9 8.586c-28.386 23.608-67.793 6.642-73.452-29.015q-.915-5.785-1.029-11.649-.72-38.904-.503-77.831.011-.64.652-.663l23.539-.64c.114-.003.225.04.307.12s.128.189.128.303q-.114 33.897-.023 66.101c.034 12.015-.114 19.332 4.63 28.26 4.79 9.031 15.651 14.496 25.803 13.284 14.599-1.761 25.46-14.405 28.661-28.409q1.063-4.619 1.109-13.742.16-32.422.023-64.844 0-.606.594-.606l22.796-.149q.709-.011.709.709l-.137 126.326c0 .178-.071.348-.198.473a.66.66 0 0 1-.476.19l-22.693-.434q-.697-.023-.606-.72 1.075-7.682.686-15.399-.046-.777-.617-.252z" fill="#383737"/><path fill="#f7a655" d="M543.694 485.523c-120.953-31.45-242.123-46.826-368.769-30.958q-79.191 9.923-155.604 31.061a1.2 1.2 0 0 1-1.463-.823q-7.351-25.174-14.782-49.959-1.235-4.15-1.783-7.42-.103-.56.446-.732 48.621-15.022 86.462-21.996c73.681-13.604 146.504-22.007 219.785-19q59.173 2.435 104.685 9.42c56.772 8.711 99.472 16.828 147.819 30.844q.583.171.423.755l-15.731 57.939q-.309 1.166-1.486.869z"/></svg>