<svg xmlns="http://www.w3.org/2000/svg" viewBox="0 0 1442 252"><path d="M333.106 19.508c-7.763-2.206 9.23-20.034 14.982-18.412 2.461.693 6.244 2.497 11.348 5.412.525.298 1.587.421 3.187.369a1.04 1.04 0 0 0 .777-.369c2.303-2.75 4.479-5.392 8.239-3.197 7.578 4.44-7.957 18.917-14.069 17.576-4.469-.981-11.746-5.441-16.119-4.178a1.84 1.84 0 0 0-.777.466c-2.299 2.338-4.822 3.116-7.569 2.332zm666.606 9.969l40.224-.7c1.107-.012 1.853 1.128 1.399 2.137-.602 1.347-1.049 2.727-1.341 4.139l-5.062 23.998c-.874 4.071-4.43 2.575-7.374 2.546a1557.04 1557.04 0 0 0-38.893.097c-7.316.107-17.119 1.836-18.936 9.959-1.38 6.17 2.895 9.862 8.783 9.784 10.675-.155 20.659.939 29.954 3.284 11.27 2.847 17.314 16.041 15.516 26.641-2.053 12.132-6.743 23.108-14.069 32.927-8.88 11.902-22.929 14.642-36.872 14.7a3471.33 3471.33 0 0 1-53.136-.136 1.57 1.57 0 0 1-1.37-.836c-.097-.175-.029-.415.204-.719a2.05 2.05 0 0 0 .33-.632c2.377-8.803 4.408-17.66 6.092-26.573a1.14 1.14 0 0 1 1.166-.923 423.14 423.14 0 0 0 39.709-.136c7.177-.363 13.227-1.111 18.149-2.244 6.082-1.389 9.852-7.52 5.781-13.01-1.846-2.497-4.625-2.215-7.423-2.031-10.811.712-21.19-1.03-31.139-5.227-13.311-5.606-13.447-23.668-12.057-35.346a1.17 1.17 0 0 0-.214-.806c-2.108-2.915-7.744 2.05-9.968 3.993-1.584 1.37-3.255 2.137-5.13 2.711-.505.159-.973-.327-.797-.826 7.841-22.512 25.067-42.721 49.823-45.82 8.395-1.049 20.656-.787 26.651-.952zM155.636 160.272c-4.946-.668-9.541-3.119-13.719-7.918-5.855-6.736-8.339-14.801-7.452-24.193.939-9.891 1.784-17.106 2.536-21.647 1.989-12.002 5.337-23.904 10.046-35.706.473-1.192.347-2.176-.379-2.954-.233-.253-.515-.334-.845-.243-5.635 1.545-16.779 6.228-19.014 12.057-5.946 15.458-12.232 27.535-25.708 37.775-6.461 4.907-12.096 5.713-20.87 5.791a1097.16 1097.16 0 0 1-31.557-.204 2.59 2.59 0 0 0-2.555 1.885l-9.483 33.413c-.271.958-1.141 1.618-2.128 1.613l-33.52-.068a.69.69 0 0 1-.68-.826c.544-2.876 2.41-5.752 3.031-8.054L35.946 31.77a2.11 2.11 0 0 1 2.031-1.545l52.65.175c16.653.204 30.673 3.886 36.707 21.181.576 1.658.826 5.289.748 10.891-.551 1.159-.223 2.342.981 3.546.22.227.453.236.7.029 1.704-1.457 2.954-3.294 3.75-5.509 12.922-20.52 33.374-30.974 57.246-30.906l62.075.068a.83.83 0 0 1 .797 1.059l-8.229 28.963c-.304 1.074-1.284 1.816-2.4 1.817-14.839.019-29.883.016-45.13-.01-2.021 0-3.64.385-4.858 1.156-4.498 2.866-7.714 10.678-9.473 15.487-.286.794.292 1.635 1.137 1.652l40.564.544c.711.007 1.19.733.923 1.399-2.779 6.885-5.204 14.153-7.277 21.802-.418 1.525-1.38 1.933-2.944 1.933l-36.619.019c-3.371 0-3.75 1.156-4.877 3.886-1.749 4.217-2.555 8.184-2.419 11.902.214 5.995 7.199 7.025 11.873 7.501 14.379 1.448 31.664 2.303 44.907-2.468.523-.193 1.045.29.904.836l-6.121 22.745c-1.312 4.975-2.423 9.151-8.21 9.978-22.229 3.177-39.385 3.118-59.743.369zM71.098 95.759c21.773 0 33.617-39.893 13.767-40.884-5.713-.285-11.789-.304-18.227-.058-.913.039-1.496.499-1.749 1.38L54.085 94.466c-.291 1.043.104 1.548 1.185 1.516l15.827-.223zm763.988-39.806c9.444-17.119 15.905-25.737 36.755-26.077l24.261-.369c.514-.005.933.409.933.923l.029 126.986c0 .972-.486 1.461-1.457 1.467l-29.915.243c-.415 0-.753-.329-.758-.738l-.146-24.095a1.58 1.58 0 0 0-1.574-1.574H832.23a2.91 2.91 0 0 0-2.555 1.516l-11.999 22.347c-1.069 2.031-1.428 2.652-3.984 2.584a596.11 596.11 0 0 0-34.2-.01c-.399.009-.661-.414-.476-.768 1.214-2.361 2.915-4.634 4.061-6.772l52.009-95.662zM862.32 70.09c-.583.632-1.36 1.312-1.759 2.06a994.74 994.74 0 0 0-17.051 33.665c-.499 1.03-.178 1.558.962 1.584l18.859.33c.583.013 1.001-.097 1.253-.33.317-.291.541-.719.67-1.282.544-4.625.547-9.337.01-14.137l.049-22.036c.181-1.555-.091-2.662-.816-3.323-.263-.241-.682-.18-.865.126l-1.749 2.856c-.13.207-.081.353.146.437a.69.69 0 0 0 .291.049z" fill="#1a191a"/><path fill="#fff" d="M1436.547 58.09c3.436 9.685 7.02 20.45 4.061 30.586-1.26 4.318-2.594 8.579-4.702 12.456-6.364 11.727-12.767 21.637-23.551 29.905-13.223 10.143-23.542 16.206-36.25 23.27-.478.277-.983-.311-.651-.758 2.555-3.342 5.421-6.364 7.355-10.007 4.256-8.025 7.906-16.319 10.95-24.882 4.508-12.669 3.711-25.164 3.77-38.271.058-12.067-4.829-23.503-8.103-35.123-2.021-7.18 5.499-13.845 11.193-15.234 2.565-.628 5.276-.476 8.132.457 12.465 4.081 23.587 15.735 27.797 27.603z"/><path fill="#1a191a" d="M1047.591 75.219c7.724-20.335 24.513-45.033 48.686-45.227l71.023-.291a.62.62 0 0 1 .583.826c-3.342 9.599-5.655 19.529-8.482 29.138-.271.931-1.129 1.567-2.099 1.555l-25.873-.34c-.719-.01-1.352.471-1.535 1.166l-24.309 90.941c-.836 3.051-.049 6.208-4.508 6.111a868.86 868.86 0 0 0-32.101-.049c-.693.011-1.17-.691-.904-1.331a53.3 53.3 0 0 0 2.108-6.199l23.542-87.122c.181-.7.172-1.645-.029-2.837-.065-.343-.266-.56-.602-.651-1.302-.343-3.002-.499-5.101-.466-11.387.155-23.163 2.652-31.703 10.027l-6.072 5.266c-.602.525-1.545.894-2.235.525-.372-.192-.539-.639-.389-1.04z"/><path fill="#fff" d="M328.131 31.877l-24.183-.602c-5.046-.045-11.348.039-18.907.253.499-1.114 1.444-1.613 2.837-1.496l2.915.204c12.728-.648 25.174-.1 37.338 1.642z"/><path d="M285.041 31.527c7.559-.214 13.861-.298 18.907-.253 6.102.058 14.163.259 24.183.602 6.192 3.109 9.926 7.905 11.202 14.389 2.882 14.574 5.638 30.845 8.268 48.813 0 0 .717 3.225 1.904 4.081 1.988-1.881 2.817-6.009 3.556-8.628l16.779-59.082c.246-.861.816-1.289 1.71-1.282l33.18.078a.51.51 0 0 1 .505.612c-.486 2.41-1.836 5.072-2.351 6.947l-32.908 118.835a3.17 3.17 0 0 1-3.051 2.322l-39.534.039a1.4 1.4 0 0 1-1.37-1.137l-14.467-77.105c-.181-1.004-.389-1.71-.622-2.118-.677-1.204-2.474-.984-2.856.35l-21.938 78.417c-.258.92-1.1 1.556-2.06 1.555l-33.617-.029c-.868 0-1.172-.415-.913-1.244.826-2.633 2.011-5.48 2.72-8.054L285.04 31.529zm172.175 18.48c4.654-8.56 11.086-15.312 20.481-18.363 2.856-.926 7.08-1.399 12.669-1.419h23.444a1.38 1.38 0 0 1 1.37 1.38l-.126 127.103c-.005.622-.505 1.126-1.127 1.137l-29.342.33a1.7 1.7 0 0 1-1.72-1.729l.35-24.261c.006-.39-.305-.709-.69-.709a2744.49 2744.49 0 0 1-30.955-.019c-1.807-.01-2.75.282-3.692 1.943-4.379 7.766-8.437 15.549-12.174 23.347a2.04 2.04 0 0 1-1.846 1.166l-35.23.029c-.425.003-.695-.455-.486-.826a1416.77 1416.77 0 0 0 22.803-41.982c11.746-22.541 24.134-44.79 36.269-67.127zm24.066 17.663c-.382.356-.644.677-.787.962l-16.332 33.607a33.63 33.63 0 0 0-1.953 5.237.63.63 0 0 0 .583.797l18.975.505c.791.022 1.447-.612 1.457-1.409l.389-40.505a.7.7 0 0 0-.933-.67c-.402.143-.709.421-.923.836a2.43 2.43 0 0 1-.476.641zM736.878 30.4l-3.265 9.201-15.555 54.059c-3.005 10.875-4.877 18.719-5.616 23.532-1.312 8.56 5.013 10.619 12.291 11.523 13.311 1.645 26.566 1.101 39.767-1.632 2.031-.418 5.664-1.671 8.628-2.001.368-.039.669.287.602.651-.476 2.575-1.914 5.023-2.448 7.151-1.049 4.12-2.837 10.558-5.363 19.315-1.282 4.45-3.245 5.946-7.889 6.539-2.069.262-4.188.855-6.14 1.01-18.259 1.457-36.506 1.338-54.739-.359-16.449-1.535-27.554-13.826-24.989-30.42 4.333-28.127 12.922-55.021 21.171-82.138a75.48 75.48 0 0 0 4.839-14.467c.168-.726.83-1.228 1.574-1.195a381.86 381.86 0 0 0 36.23-.049c.253-.013.411-.146.476-.398.058-.22.201-.327.427-.321zm-107.302.233c16.552.765 29.332 6.053 33.947 23.542 6.646 25.222-16.41 69.08-45.558 69.206-11.303.052-23.399-.016-36.289-.204a2.76 2.76 0 0 0-2.691 1.963l-10.114 33.549a1.75 1.75 0 0 1-1.671 1.234h-34.278a1.25 1.25 0 0 1-1.146-1.739c.874-2.066 1.636-4.249 2.283-6.548l34.278-119.991 61.239-1.01zm-31.178 25.98L587.263 95.01c-.159.554.27 1.101.845 1.078 5.771-.214 11.591-.298 17.459-.253 13.379.117 21.462-12.096 23.687-23.882.81-4.288.615-7.799-.583-10.532-2.934-6.675-9.259-6.403-16.731-6.733a199.91 199.91 0 0 0-10.755-.185c-1.292.012-2.425.868-2.788 2.108zM789.11 248.22c-7.889-6.053-11.834-14.739-8.414-24.931 5.791-17.265 20.646-29.167 39.32-27.875 4.405.304 7.941 1.425 10.61 3.362 2.147 1.574 11.134 11.222 4.77 13.146-3.083.933-5.826 2.102-8.229 3.507-1.102.638-2.51.15-2.973-1.03-1.817-4.644-2.526-8.463-8.647-8.696-5.337-.201-9.881 1.312-13.631 4.537-6.364 5.47-14.758 24.367-1.817 28.108 8.909 2.565 14.341-4.178 20.17-8.977a1.03 1.03 0 0 1 .748-.223c3.148.285 5.956 1.373 8.424 3.265.298.234.557.656.369.981-4.174 7.223-12.33 13.885-20.384 16.721-6.391 2.251-14.632 2.478-20.316-1.895zm83.178 2.264c-10.613-2.982-13.547-16.149-11.484-24.756 2.824-10.655 8.621-18.875 17.391-24.659 12.31-8.122 34.287-9.881 40.272 7.472.1.306.079.636-.058.923l-1.059 2.254a.86.86 0 0 1-.602.476 31.95 31.95 0 0 0-8.822 3.08 1.13 1.13 0 0 1-.797.087c-5.159-1.292-1.865-9.201-11.028-9.522-10.979-.389-17.829 6.335-20.889 16.527-1.865 6.179-2.147 13.806 5.227 15.983 7.248 2.137 14.71-2.701 19.257-8.288.582-.718 1.528-1.036 2.429-.816 3.148.787 11.921 1.749 6.199 7.403-5.179 5.14-9.832 7.88-15.264 11.465-6.374 4.207-14.475 4.14-20.773 2.371zm80.379-13.321c.181 0 .435.094.709.262.279.181.295.534.049 1.059-1.904 4.042-3.18 7.941-3.828 11.698a2.19 2.19 0 0 1-2.215 1.817c-9.722-.291-19.296-.385-28.72-.282-1.885.019-3.663-.11-5.334-.389a1.43 1.43 0 0 1-1.127-1.836l16.196-52.631c.258-.834 1.037-1.399 1.914-1.389l10.26.107c.716.001 1.172.769.836 1.409-1.282 2.39-2.322 4.929-3.119 7.617-3.161 10.649-6.516 21.239-10.066 31.771-.117.337-.013.583.311.738s.677.162 1.059.019a2.02 2.02 0 0 1 .709-.126zm-238.068 7.647c-.499 1.937-.427 3.705.214 5.305a.51.51 0 0 1-.476.7l-11.688-.029c-.427 0-.628-.217-.602-.651.291-4.654-2.876-11.28-4.411-15.769-1.496-4.343-1.681-7.345-6.733-6.471-1.14.194-1.836.703-2.089 1.525l-6.539 20.947c-.172.533-.704.765-1.263.748l-10.814-.33c-.456-.014-.662-.15-.534-.583l15.448-52.485a2.27 2.27 0 0 1 2.468-1.593c8.239 1.03 17.246.058 25.63.408 12.874.544 15.915 10.221 9.599 20.19-2.844 4.502-7.054 7.737-12.631 9.706-1.082.382-1.389 1.101-.923 2.157 2.248 5.039 4.029 10.448 5.344 16.226zm-20.947-26.505c3.167 1.059 13.923-.039 16.381-2.682 1.645-1.768 2.371-3.971 2.176-6.607-.075-.923-.781-1.665-1.691-1.778a67.96 67.96 0 0 0-12.971-.379c-3.809.253-4.362 7.122-4.78 10.007a1.32 1.32 0 0 0 .884 1.438zm316.961 26.369c.09 1.671-.362 4.566-.515 5.499-.06.368-.263.691-.641.69l-12.252-.136c-.395-.007-.586-.207-.573-.602l.282-8.064c.027-.818-.633-1.497-1.457-1.496h-18.965a1.01 1.01 0 0 0-.777.359 29.08 29.08 0 0 0-5.353 9.075c-.266.719-.78 1.069-1.545 1.049l-12.223-.34c1.27-3.129 3.514-7.093 6.733-11.892l28.322-41.72c.275-.403.727-.649 1.214-.661l13.767-.301a1.39 1.39 0 0 1 1.428 1.321zm-24.086-20.18l-1.865 2.769c-.536.791.026 1.859.981 1.865l10.007.029a1.08 1.08 0 0 0 1.078-1.078l-.029-10.377c.291-2.435.398-4.071.321-4.907-.233-2.643-1.078-2.856-2.536-.641l-4.256 6.315c-1.263 1.827-3.129 3.197-3.702 6.024zm85.461 12.873l26.942-.34a1.27 1.27 0 0 1 1.185 1.749c-1.483 3.627-2.51 7.196-3.08 10.707-.282 1.759-1.049 2.38-2.759 2.41-12.449.162-25.035.081-37.756-.243-.871-.021-1.573-.722-1.593-1.593-.026-.784.139-1.762.496-2.934l15.196-49.93c.138-.472.573-.796 1.069-.797l38.067-.087c.965 0 1.263.444.894 1.331l-2.954 7.141a2.53 2.53 0 0 1-2.332 1.555l-23.192-.058c-.849-.002-1.596.562-1.827 1.38l-2.215 7.899c-.103.377.182.749.573.748l21.628-.35c.9-.013 1.224.411.972 1.273l-2.419 8.356c-.26.881-1.068 1.483-1.982 1.477l-21.083-.087c-.784 0-1.299.366-1.545 1.098-.972 2.895-2.235 5.587-2.847 8.608-.097.466.09.696.564.69zm-331.467-.106l27.583-.204c.833-.001 1.424.811 1.166 1.603l-4.168 12.465a.79.79 0 0 1-.748.534l-38.582.107c-.918-.001-1.617-.82-1.467-1.72.301-1.788.379-3.76.913-5.519l14.642-47.336c.127-.399.5-.67.923-.67l38.757-.039a.72.72 0 0 1 .641 1.049l-3.323 7.083c-1.36 3.187-3.303 1.671-5.392 1.7a360.25 360.25 0 0 1-19.645-.291 2.34 2.34 0 0 0-2.332 1.623l-2.555 8.035a.41.41 0 0 0 .398.534l22.687-.253c.478-.014.831.447.7.913l-2.536 8.764c-.214.739-.888 1.252-1.661 1.263l-22.415.262c-.473.007-.79.233-.952.68l-3.158 8.657c-.135.366.135.755.525.758zm91.534 13.806c-.58-.109-.968-.657-.874-1.234a39.33 39.33 0 0 1 1.302-5.606l13.155-41.739 1.564-5.762c.148-.167.36-.263.583-.262l12.407-.039a.79.79 0 0 1 .729 1.108c-.18.404-2.546 6.288-3.488 9.502-3.91 13.342-8.143 26.58-12.718 39.709-.833 2.391-1.467 4.914-3.721 5.004-2.928.123-5.907-.104-8.939-.68zm187.001.641a1.05 1.05 0 0 1-1.059-1.03c-.078-4.761 2.079-7.977 3.362-12.378a1.62 1.62 0 0 1 1.729-1.156c3.469.389 13.282 1.545 14.962-2.827 4.421-11.542 7.685-23.61 11.513-35.91.389-1.263 1.247-1.904 2.575-1.924l10.542-.175c.788-.02 1.296.829.913 1.525-1.049 1.914-1.933 3.731-2.575 5.917-3.141 10.72-6.799 21.274-10.25 31.907-1.001 3.084-4.429 15.927-12.446 15.963z" fill="#1a191a"/><path fill="#bcd358" d="M1257.785 24.891c3.585-10.872 17.654-18.439 26.952-22.317 8.055-3.36 26.729-3.761 34.355.787 18.004 10.735 30.974 23.551 39.641 43.401 5.078 11.62 8.835 23.542 11.27 35.764a.46.46 0 0 1-.768.418c-7.666-7.549-13.826-14.156-23.522-21.151-16.906-12.203-35.706-18.726-56.401-19.568-5.324-.223-12.533.301-18.45.126-9.24-.272-16.138-8.161-13.078-17.459z"/><path fill="#93bc1f" d="M1205.231 95.759c6.723-14.263 25.329-24.338 39.505-28.992 19.15-6.296 41.292-4.401 61.035-2.924a.44.44 0 0 1 .311.709 15.04 15.04 0 0 0-.359.437 1.06 1.06 0 0 1-.418.311c-29.371 11.941-55.186 32.645-65.728 62.094-2.886 8.045-4.081 20.306-14.72 25.358-7.015 3.323-16.313-4.12-19.5-9.871-7.899-14.273-6.957-32.645-.126-47.122z"/><path fill="#8aa932" d="M1306.335 251.689c-18.603-.046-39.858-23.273-45.286-34.938-6.223-13.375-10.134-30.323-8.676-45.509 2.079-21.608 9.026-41.827 17.605-61.647a.5.5 0 0 1 .942.146c4.489 43.022 22.035 78.544 59.636 101.832 6.558 4.062 16.222 11.466 15.633 19.354-1.602 21.456-21.847 20.807-39.854 20.763z"/></svg>