<svg xmlns="http://www.w3.org/2000/svg" viewBox="0 0 120 44"><defs class="svg-src"><linearGradient id="soltec-a" x1="27.559" y1="6.025" x2="7.073" y2="28.765" gradientUnits="userSpaceOnUse"><stop stop-color="#f9b233"/><stop offset="1" stop-color="#cb1520"/></linearGradient></defs><path d="M31.946 29.535c-.957-.92-2.356-1.656-3.828-1.656-1.141 0-2.282.405-2.282 1.472s.994 1.325 3.35 1.84c2.797.626 5.853 2.025 5.853 5.596 0 4.638-4.086 6.258-7.841 6.258-2.982 0-6.074-.994-7.988-2.835l3.387-3.571c1.068 1.178 2.724 2.061 4.491 2.061.994 0 2.172-.405 2.172-1.583s-1.141-1.509-3.644-2.098c-2.54-.589-5.338-1.877-5.338-5.338 0-4.38 4.123-6.147 7.62-6.147 2.724 0 5.559.883 7.362 2.577l-3.313 3.423-.001.001zm15.217 13.51c5.559 0 10.197-3.828 10.197-9.828s-4.638-9.682-10.197-9.682-10.16 3.681-10.16 9.682 4.638 9.828 10.16 9.828zm0-14.504c2.834 0 4.38 2.319 4.38 4.675s-1.509 4.749-4.344 4.749-4.344-2.393-4.344-4.749 1.472-4.675 4.307-4.675m53.456 6.405c.037-.442.037-.957.037-1.436 0-6.258-3.792-9.976-9.203-9.976s-9.902 3.829-9.902 9.829 4.565 9.681 10.086 9.681c3.718 0 6.589-1.399 8.32-3.902l-4.197-2.651c-.81 1.104-2.135 1.914-4.049 1.914-2.172 0-4.196-1.435-4.38-3.46h13.289M87.33 31.19c.147-1.877 1.84-3.497 4.16-3.497s3.607 1.583 3.607 3.497H87.33zM120 26c-1.436-1.472-4.197-2.466-6.81-2.466-5.706 0-10.234 3.792-10.234 9.755s4.491 9.755 10.27 9.755c2.687 0 5.264-.884 6.773-2.356l-3.35-4.086c-.736.884-2.061 1.362-3.276 1.362-2.651 0-4.307-2.135-4.307-4.675s1.694-4.712 4.233-4.712c1.215 0 2.54.589 3.203 1.472L119.999 26H120zM60.69 42.455h6.111V19.302H60.69v23.154-.001zm19.296-13.804v-4.528h-4.28v-4.822h-5.954l.037 17.08c0 3.902 1.62 6.516 6.516 6.516 1.288 0 2.687-.257 3.497-.552l-.074-4.417c-.442.184-1.178.294-1.767.294-1.73 0-2.282-.884-2.282-2.577v-6.994h4.307z" fill="#0c2340"/><path d="M14.45.6C5.632 1.502-.802 9.23.081 17.86c.438 4.284 1.907 7.616 5.482 10.758 7.985 7.017 14.696-4.252 8.615-9.635-1.041-.922-2.234-1.662-3.524-2.122 6.575-3.441 11.026-1.501 14.54.653.39.239.79.471 1.19.694 2.651 1.477 5.931-.58 5.637-3.557-.002-.019-.003-.038-.006-.057C31.19 6.518 24.252.514 16.138.514c-.557 0-1.121.028-1.688.086zm3.595 16.533a1.23 1.23 0 0 1-1.228 1.228 1.23 1.23 0 0 1-1.228-1.228 1.23 1.23 0 0 1 1.228-1.228 1.23 1.23 0 0 1 1.228 1.228z" fill="url(#soltec-a)"/></svg>